<?xml version="1.0" encoding="UTF-8" standalone="no"?><svg width="166" height="43" viewBox="0 0 166 43" fill="none" xmlns="http://www.w3.org/2000/svg">
<path d="M19.1274 8.2366V2.97266H2.53711V39.1391H19.1274V33.8751C15.7289 33.8751 12.4695 32.5245 10.0664 30.1204C7.66333 27.7163 6.31327 24.4558 6.31327 21.0559C6.31327 17.656 7.66333 14.3953 10.0664 11.9913C12.4695 9.5872 15.7289 8.2366 19.1274 8.2366Z" fill="black"/>
<path d="M19.1289 8.23633V33.8748C22.5274 33.8748 25.7868 32.5242 28.19 30.1201C30.5931 27.716 31.9431 24.4555 31.9431 21.0556C31.9431 17.6557 30.5931 14.395 28.19 11.991C25.7868 9.58693 22.5274 8.23633 19.1289 8.23633Z" fill="black"/>
<path d="M41.2539 11.457H44.9682V29.3544H41.2539V11.457Z" fill="black"/>
<path d="M47.0475 23.2231C47.0475 21.9355 47.4297 20.6768 48.1455 19.6067C48.8614 18.5366 49.8787 17.7031 51.0686 17.212C52.2586 16.7211 53.5673 16.5945 54.8292 16.8484C56.0911 17.1023 57.2492 17.7253 58.1567 18.6384C59.0642 19.5516 59.6804 20.7136 59.927 21.9775C60.1735 23.2413 60.0396 24.5498 59.5418 25.7374C59.0441 26.9248 58.2053 27.9378 57.1315 28.6478C56.0577 29.3579 54.7974 29.7329 53.5103 29.7256C52.6566 29.7323 51.8101 29.5684 51.0206 29.2434C50.2311 28.9186 49.5142 28.4392 48.9123 27.8337C48.3103 27.228 47.8354 26.5082 47.5151 25.7165C47.1949 24.9248 47.0359 24.0771 47.0475 23.2231ZM56.3579 23.2231C56.3432 22.668 56.1653 22.1294 55.8464 21.675C55.5275 21.2204 55.0818 20.87 54.5647 20.6677C54.0478 20.4653 53.4828 20.4198 52.9402 20.5371C52.3976 20.6543 51.9016 20.9289 51.5142 21.3267C51.1268 21.7244 50.8652 22.2275 50.7622 22.7732C50.6592 23.319 50.7192 23.8829 50.9349 24.3945C51.1506 24.9062 51.5122 25.343 51.9748 25.6501C52.4372 25.9572 52.9799 26.1211 53.535 26.1214C53.913 26.1288 54.2884 26.0581 54.6378 25.9136C54.9872 25.7694 55.303 25.5545 55.5656 25.2825C55.8282 25.0105 56.0319 24.6871 56.164 24.3328C56.2961 23.9785 56.3536 23.6007 56.3331 23.2231H56.3579Z" fill="black"/>
<path d="M74.6688 17.0923V28.7473C74.6688 32.8594 71.4498 34.6058 68.1936 34.6058C67.0451 34.7 65.893 34.4717 64.8673 33.9466C63.8414 33.4214 62.9824 32.6202 62.387 31.6332L65.5194 29.8249C65.7732 30.3369 66.1769 30.7592 66.6769 31.0358C67.1768 31.3124 67.749 31.43 68.3174 31.3731C68.6796 31.4177 69.047 31.3817 69.3936 31.2678C69.7403 31.1537 70.0573 30.9646 70.3223 30.7137C70.5874 30.4627 70.7936 30.1564 70.9265 29.8164C71.0593 29.4766 71.1154 29.1114 71.0908 28.7473V27.6202C70.6585 28.1445 70.1101 28.5606 69.489 28.8359C68.8679 29.1111 68.1913 29.2376 67.5127 29.2056C65.8709 29.2056 64.2964 28.5531 63.1354 27.3917C61.9745 26.2304 61.3223 24.6552 61.3223 23.0127C61.3223 21.3702 61.9745 19.7951 63.1354 18.6337C64.2964 17.4723 65.8709 16.8198 67.5127 16.8198C68.1913 16.7877 68.8679 16.9143 69.489 17.1895C70.1101 17.4647 70.6585 17.8809 71.0908 18.4052V17.1666L74.6688 17.0923ZM71.0908 22.9755C71.1154 22.383 70.9624 21.7965 70.6512 21.2917C70.3401 20.7868 69.8852 20.3867 69.3448 20.1425C68.8045 19.8984 68.2037 19.8216 67.6193 19.922C67.035 20.0223 66.494 20.2951 66.066 20.7055C65.638 21.1158 65.3425 21.6449 65.2174 22.2247C65.0924 22.8045 65.1435 23.4083 65.3642 23.9587C65.5851 24.5091 65.9655 24.9809 66.4564 25.3133C66.9474 25.6458 67.5266 25.8238 68.1194 25.8243C68.5063 25.8521 68.8946 25.7985 69.2594 25.667C69.6242 25.5353 69.9575 25.3286 70.2375 25.0601C70.5175 24.7917 70.7381 24.4674 70.8851 24.1083C71.0321 23.7493 71.1021 23.3633 71.0908 22.9755Z" fill="black"/>
<path d="M76.7621 23.2232C76.7621 21.9366 77.1437 20.679 77.8585 19.6093C78.5732 18.5397 79.5891 17.7063 80.7775 17.2145C81.9659 16.7227 83.2735 16.5946 84.5347 16.8466C85.796 17.0985 86.9541 17.719 87.8627 18.6296C88.7712 19.5403 89.3893 20.7001 89.6386 21.9623C89.8881 23.2245 89.7576 24.5323 89.2637 25.7202C88.7698 26.9083 87.9348 27.9229 86.8643 28.6359C85.7937 29.349 84.5358 29.7282 83.2497 29.7258C82.3944 29.7341 81.546 29.5714 80.7544 29.2474C79.9627 28.9234 79.2436 28.4446 78.6395 27.8389C78.0351 27.2333 77.5579 26.513 77.2355 25.7205C76.9132 24.9279 76.7522 24.0789 76.7621 23.2232ZM86.0725 23.2232C86.0579 22.6676 85.8797 22.1286 85.5602 21.6738C85.2408 21.2191 84.7942 20.8687 84.2766 20.6667C83.7589 20.4647 83.1933 20.42 82.6504 20.5383C82.1075 20.6564 81.6115 20.9324 81.2246 21.3313C80.8377 21.7303 80.5771 22.2346 80.4755 22.7811C80.3739 23.3275 80.4357 23.8918 80.6532 24.4032C80.8707 24.9148 81.2344 25.3506 81.6985 25.6563C82.1626 25.9619 82.7064 26.1237 83.2621 26.1215C83.6401 26.1289 84.0155 26.0582 84.3649 25.9138C84.7142 25.7695 85.0301 25.5546 85.2927 25.2826C85.5553 25.0106 85.7589 24.6872 85.891 24.333C86.0231 23.9787 86.0807 23.6009 86.0602 23.2232H86.0725Z" fill="black"/>
<path d="M91.457 13.8101C91.457 13.3742 91.5863 12.9478 91.8285 12.5853C92.0706 12.2227 92.4148 11.9402 92.8174 11.7733C93.2202 11.6064 93.6633 11.5628 94.0908 11.6478C94.5182 11.7329 94.9109 11.9429 95.2192 12.2512C95.5274 12.5595 95.7372 12.9524 95.8223 13.38C95.9073 13.8077 95.8636 14.2509 95.6969 14.6539C95.5301 15.0566 95.2475 15.401 94.8852 15.6432C94.5228 15.8855 94.0968 16.0148 93.6608 16.0148C93.0783 16.0084 92.5215 15.774 92.1096 15.3619C91.6977 14.9499 91.4635 14.3929 91.457 13.8101ZM91.8161 17.0924H95.5303V29.3543H91.8161V17.0924Z" fill="black"/>
<path d="M111.428 23.2232C111.47 24.0387 111.35 24.8544 111.075 25.6233C110.8 26.3923 110.376 27.0992 109.827 27.7035C109.278 28.308 108.615 28.7977 107.877 29.1447C107.138 29.4918 106.338 29.6892 105.522 29.7258C104.83 29.7718 104.137 29.661 103.494 29.4015C102.851 29.1419 102.274 28.7405 101.808 28.2271V34.2837H98.0938V17.0923H101.808V18.2442C102.275 17.7323 102.852 17.3327 103.495 17.0753C104.138 16.8178 104.831 16.7093 105.522 16.7579C106.334 16.7944 107.131 16.9907 107.868 17.3354C108.604 17.6801 109.265 18.1666 109.814 18.767C110.362 19.3673 110.787 20.0698 111.064 20.8345C111.341 21.5991 111.465 22.4107 111.428 23.2232ZM107.714 23.2232C107.699 22.6479 107.515 22.0898 107.185 21.6188C106.854 21.1478 106.392 20.7846 105.857 20.5752C105.321 20.3656 104.735 20.319 104.173 20.441C103.611 20.563 103.097 20.8484 102.697 21.2612C102.296 21.674 102.026 22.196 101.92 22.7617C101.815 23.3274 101.879 23.9116 102.104 24.4412C102.329 24.9707 102.705 25.4221 103.185 25.7387C103.666 26.0552 104.229 26.2228 104.804 26.2206C105.198 26.2373 105.591 26.1705 105.958 26.0246C106.324 25.8787 106.655 25.657 106.93 25.374C107.205 25.091 107.417 24.753 107.552 24.3824C107.687 24.0117 107.742 23.6167 107.714 23.2232Z" fill="black"/>
<path d="M122.731 25.6756C122.731 28.4995 120.254 29.7009 117.63 29.7009C116.559 29.7973 115.484 29.5703 114.544 29.0492C113.604 28.5281 112.842 27.7369 112.355 26.7779L115.55 24.9696C115.676 25.4115 115.951 25.7966 116.327 26.0604C116.703 26.3242 117.159 26.4507 117.617 26.4187C118.496 26.4187 118.942 26.1462 118.942 25.6508C118.942 24.3008 112.913 25.0191 112.913 20.7708C112.913 18.0955 115.166 16.7578 117.716 16.7578C118.686 16.7144 119.649 16.9345 120.503 17.3946C121.358 17.8547 122.072 18.5378 122.57 19.3712L119.375 21.0557C119.234 20.7361 119.004 20.4644 118.712 20.2732C118.419 20.0819 118.078 19.9795 117.729 19.9781C117.085 19.9781 116.701 20.2258 116.701 20.6593C116.701 22.0713 122.731 21.1424 122.731 25.6756Z" fill="black"/>
<path d="M136.19 17.0923V29.3542H132.475V28.2023C132.053 28.7122 131.517 29.1156 130.912 29.3803C130.305 29.645 129.645 29.7633 128.984 29.7258C126.508 29.7258 124.391 27.9546 124.391 24.6476V17.0923H128.105V24.0902C128.075 24.3828 128.11 24.6782 128.206 24.9561C128.303 25.2339 128.458 25.4876 128.661 25.6996C128.865 25.9116 129.113 26.0768 129.386 26.1839C129.66 26.2909 129.953 26.3373 130.247 26.3197C131.584 26.3197 132.525 25.527 132.525 23.8425V17.0923H136.19Z" fill="black"/>
<path d="M157.237 21.8235V29.354H153.523V22.1455C153.523 20.9069 152.941 20.139 151.765 20.139C150.589 20.139 149.846 20.9937 149.846 22.4428V29.354H146.132V22.1455C146.132 20.9069 145.55 20.139 144.374 20.139C143.197 20.139 142.454 20.9937 142.454 22.4428V29.354H138.74V17.0921H142.454V18.2192C142.84 17.7213 143.341 17.327 143.917 17.0718C144.491 16.8167 145.121 16.7087 145.748 16.7577C146.376 16.7249 147.002 16.8562 147.564 17.1385C148.126 17.4207 148.605 17.8444 148.954 18.3679C149.363 17.8209 149.903 17.3864 150.524 17.1049C151.145 16.8232 151.828 16.7038 152.508 16.7577C155.405 16.7577 157.237 18.7642 157.237 21.8235Z" fill="black"/>
<path d="M160.357 17.0181C161.861 17.0181 163.08 15.7981 163.08 14.2932C163.08 12.7884 161.861 11.5684 160.357 11.5684C158.852 11.5684 157.633 12.7884 157.633 14.2932C157.633 15.7981 158.852 17.0181 160.357 17.0181Z" fill="black"/>
</svg>
