<?xml version="1.0" encoding="UTF-8" standalone="no"?><svg width="186" height="50" viewBox="0 0 186 50" fill="none" xmlns="http://www.w3.org/2000/svg">
<path d="M61.2065 32.2038V11.0093H57.7324V32.2038H61.2065Z" fill="black"/>
<path d="M63.3379 25.1376C63.3379 29.4677 66.2424 32.5443 70.6562 32.5443C75.07 32.5443 77.9745 29.4677 77.9745 25.1376C77.9745 20.8076 75.07 17.731 70.6562 17.731C66.2424 17.731 63.3379 20.8076 63.3379 25.1376ZM66.8404 25.1376C66.8404 22.6023 68.3497 20.8361 70.6562 20.8361C72.9628 20.8361 74.472 22.6023 74.472 25.1376C74.472 27.6445 72.9628 29.4392 70.6562 29.4392C68.3497 29.4392 66.8404 27.6445 66.8404 25.1376Z" fill="black"/>
<path d="M79.1426 24.8521C79.1426 28.9543 81.7908 31.917 85.749 31.917C87.7993 31.917 89.5648 31.0908 90.4475 29.7234V32.1164C90.4475 34.4238 88.9953 35.9621 86.5748 35.9621C84.4106 35.9621 82.9299 34.9081 82.7305 33.0564H79.228C79.6836 36.7313 82.5027 39.1242 86.3755 39.1242C90.9316 39.1242 93.8362 36.1331 93.8362 31.4896V18.1291H90.7608L90.5614 20.0378C89.7072 18.5564 87.9416 17.6733 85.8629 17.6733C81.8478 17.6733 79.1426 20.7215 79.1426 24.8521ZM82.6736 24.7667C82.6736 22.4307 84.1543 20.7215 86.347 20.7215C88.739 20.7215 90.3336 22.4592 90.3336 24.7667C90.3336 27.1026 88.739 28.8973 86.347 28.8973C84.1828 28.8973 82.6736 27.1311 82.6736 24.7667Z" fill="black"/>
<path d="M95.5566 25.1376C95.5566 29.4677 98.4612 32.5443 102.875 32.5443C107.289 32.5443 110.193 29.4677 110.193 25.1376C110.193 20.8076 107.289 17.731 102.875 17.731C98.4612 17.731 95.5566 20.8076 95.5566 25.1376ZM99.0592 25.1376C99.0592 22.6023 100.568 20.8361 102.875 20.8361C105.182 20.8361 106.691 22.6023 106.691 25.1376C106.691 27.6445 105.182 29.4392 102.875 29.4392C100.568 29.4392 99.0592 27.6445 99.0592 25.1376Z" fill="black"/>
<path d="M113.947 15.2537C115.086 15.2537 116.025 14.3421 116.025 13.1741C116.025 12.0346 115.086 11.123 113.947 11.123C112.779 11.123 111.896 12.0346 111.896 13.1741C111.896 14.3421 112.779 15.2537 113.947 15.2537ZM112.21 32.2036H115.684V18.1309H112.21V32.2036Z" fill="black"/>
<path d="M118.732 38.7272H122.121V30.2665C123.004 31.7193 124.912 32.5739 127.019 32.5739C131.177 32.5739 133.654 29.3834 133.597 24.9963C133.512 20.5808 130.977 17.7036 126.991 17.7036C124.855 17.7036 122.919 18.6437 122.064 20.2675L121.865 18.1309H118.732V38.7272ZM122.264 25.1673C122.264 22.6319 123.801 20.8657 126.222 20.8657C128.642 20.8657 130.095 22.6604 130.095 25.1673C130.095 27.6741 128.642 29.4404 126.222 29.4404C123.801 29.4404 122.264 27.7026 122.264 25.1673Z" fill="black"/>
<path d="M134.475 27.9875C134.589 30.7793 136.753 32.5739 140.113 32.5739C143.416 32.5739 145.666 30.8077 145.666 28.073C145.666 26.0504 144.413 24.683 142.106 24.1132L139.629 23.515C138.575 23.2301 137.863 22.8598 137.863 21.9482C137.863 20.9796 138.632 20.296 139.885 20.296C141.195 20.296 142.049 21.0366 142.049 22.2616H145.21C145.096 19.4698 143.017 17.7036 139.97 17.7036C136.952 17.7036 134.702 19.4698 134.702 22.1476C134.702 23.9708 135.756 25.4806 138.461 26.1928L140.91 26.8195C141.821 27.0759 142.391 27.5032 142.391 28.3009C142.391 29.4119 141.337 29.9246 140.056 29.9246C138.518 29.9246 137.635 29.2125 137.635 27.9875H134.475Z" fill="black"/>
<path d="M152.875 32.5729C154.783 32.5729 156.605 31.6898 157.431 30.3794L157.659 32.2026H160.905V18.1299H157.431V25.5081C157.431 28.0434 156.463 29.4678 154.185 29.4678C152.419 29.4678 151.195 28.6132 151.195 25.7075V18.1299H147.721V26.9324C147.721 30.2939 149.543 32.5729 152.875 32.5729Z" fill="black"/>
<path d="M167.445 32.2036V24.1132C167.445 21.8343 168.783 20.7517 170.435 20.7517C172.086 20.7517 173.168 21.8058 173.168 23.7999V32.2036H176.557V24.1417C176.557 21.8343 177.867 20.7517 179.519 20.7517C181.199 20.7517 182.281 21.8058 182.281 23.7999V32.2036H185.641V23.0022C185.641 19.7547 183.847 17.7036 180.43 17.7036C178.294 17.7036 176.614 18.7292 175.931 20.3814C175.162 18.7292 173.624 17.7036 171.289 17.7036C169.637 17.7036 168.157 18.4728 167.331 19.7262L167.16 18.1309H163.971V32.2036H167.445Z" fill="black"/>
<path d="M159.115 44.7782C159.633 44.7782 160.082 44.3424 160.082 43.8249C160.082 43.2937 159.633 42.8579 159.115 42.8579C158.584 42.8579 158.135 43.2937 158.135 43.8249C158.135 44.3424 158.584 44.7782 159.115 44.7782Z" fill="black"/>
<path d="M161.082 41.2636C161.082 43.3481 162.362 44.7514 164.228 44.7514C165.835 44.7514 167.061 43.7841 167.319 42.3399H166.094C165.862 43.1437 165.154 43.6206 164.31 43.6206C163.111 43.6206 162.349 42.6941 162.349 41.2499C162.349 39.7785 163.152 38.8793 164.337 38.8793C165.154 38.8793 165.862 39.3153 166.08 40.1736H167.306C167.088 38.7158 165.944 37.7349 164.351 37.7349C162.417 37.7349 161.082 39.1654 161.082 41.2636Z" fill="black"/>
<path d="M167.801 41.2505C167.801 43.2533 169.163 44.7519 171.206 44.7519C173.248 44.7519 174.61 43.2533 174.61 41.2505C174.61 39.2477 173.248 37.749 171.206 37.749C169.163 37.749 167.801 39.2477 167.801 41.2505ZM169.095 41.2505C169.095 39.888 169.925 38.8935 171.206 38.8935C172.486 38.8935 173.316 39.888 173.316 41.2505C173.316 42.6129 172.486 43.6075 171.206 43.6075C169.925 43.6075 169.095 42.6129 169.095 41.2505Z" fill="black"/>
<path d="M176.981 44.6021V40.5965C176.981 39.5474 177.635 38.8662 178.588 38.8662C179.501 38.8662 180.073 39.4521 180.073 40.5011V44.6021H181.326V40.6101C181.326 39.5474 181.966 38.8662 182.933 38.8662C183.832 38.8662 184.404 39.4521 184.404 40.5011V44.6021H185.643V40.2286C185.643 38.6891 184.744 37.749 183.219 37.749C182.184 37.749 181.38 38.2531 181.053 39.0706C180.713 38.2531 179.964 37.749 178.874 37.749C178.044 37.749 177.308 38.1305 176.94 38.7845L176.845 37.9398H175.701V44.6021H176.981Z" fill="black"/>
<path fill-rule="evenodd" clip-rule="evenodd" d="M0 25.3107L0.0023895 25.0624L0.00731698 24.8141L0.0147951 24.5658L0.0248113 24.3174L0.0373902 24.0691L0.0525071 23.8208L0.070187 23.5726L0.090405 23.3244L0.113186 23.0763L0.138517 22.8282L0.166399 22.5805L0.196819 22.3328L0.229801 22.0853L0.265334 21.8381L0.303405 21.5911L0.344027 21.3445L0.387199 21.098L0.432896 20.852L0.481145 20.6063L0.531931 20.3609L0.585255 20.1159L0.641093 19.8715L0.699481 19.6275L0.76037 19.3838L0.823797 19.1408L0.889725 18.8982L0.958179 18.6562L1.02913 18.4148L1.10259 18.174L1.17853 17.9338L1.25698 17.6943L1.33791 17.4554L1.42132 17.2172L1.5072 16.9798L1.59554 16.7431L1.68635 16.5071L1.77961 16.272L1.87532 16.0377L1.97346 15.8043L2.07403 15.5717L2.17702 15.34L2.28243 15.1093L2.39025 14.8795L2.50046 14.6506L2.61307 14.4227L2.72805 14.1959L2.84539 13.9701L2.9651 13.7453L3.08715 13.5218L3.21154 13.2992L3.33827 13.0777L3.46731 12.8575L3.59866 12.6384L3.73229 12.4206L3.86822 12.2039L4.00642 11.9885L4.14688 11.7745L4.28959 11.5616L4.43454 11.3502L4.58171 11.14L4.73108 10.9312L4.88265 10.7238L5.03641 10.5177L5.19233 10.3132L5.35042 10.1101L5.51064 9.9084L5.67299 9.70825L5.83746 9.50961L6.00402 9.3125L6.17267 9.11694L6.34339 8.92297L6.51615 8.73061L6.69096 8.53985L6.86779 8.35075L7.04662 8.1633L7.22745 7.97754L7.41024 7.79347L7.59498 7.61113L7.78167 7.43053L7.97028 7.2517L8.1608 7.07465L8.3532 6.8994L8.54747 6.72597L8.74359 6.55438L8.94155 6.38463L9.14131 6.21678L9.34288 6.05082L9.54622 5.88677L9.75132 5.72466L9.95817 5.56449L10.1667 5.40629L10.377 5.25007L10.589 5.09587L10.8025 4.94369L11.0177 4.79353L11.2346 4.64544L11.453 4.4994L11.673 4.35546L11.8947 4.21362L12.1179 4.07391L12.3425 3.93633L12.5687 3.80089L12.7962 3.66763L13.0253 3.53655L13.2558 3.40767L13.4877 3.281L13.721 3.15655L13.9556 3.03435L14.1916 2.91439L14.4289 2.79672L14.6675 2.68132L14.9074 2.56821L15.1485 2.45742L15.3909 2.34896L15.6344 2.24282L15.8792 2.13904L16.1251 2.03763L16.3721 1.93858L16.6202 1.84191L16.8694 1.74765L17.1196 1.65579L17.371 1.56636L17.6233 1.47935L17.8766 1.39478L18.1308 1.31268L18.3859 1.23303L18.6421 1.15585L18.8991 1.08116L19.1569 1.00897L19.4156 0.939261L19.6752 0.872069L19.9354 0.807402L20.1964 0.745276L20.4582 0.685663L20.7207 0.628614L20.9838 0.574104L21.2476 0.522159L21.5121 0.472789L21.7772 0.425983L22.0429 0.381766L22.3091 0.340138L22.5757 0.301098L22.8429 0.264671L23.1106 0.230846L23.3788 0.199634L23.6473 0.171022L23.9162 0.145062L24.1855 0.121715L24.4552 0.100994L24.7251 0.0829227L26.1766 0L26.2594 6.9963L26.3068 6.99576L26.5073 6.99547L26.7077 6.99716L26.9082 7.00081L27.1089 7.00645L27.3094 7.01405L27.5101 7.02361L27.7108 7.03517L27.9115 7.04871L28.1121 7.0642L28.3128 7.08169L28.5132 7.10116L28.7137 7.12261L28.9139 7.14603L29.1141 7.17144L29.314 7.19882L29.5138 7.22818L29.7134 7.25952L29.9129 7.29284L30.112 7.32813L30.3109 7.3654L30.5095 7.40464L30.7077 7.44586L30.9058 7.48903L31.1034 7.53418L31.3006 7.58128L31.4976 7.63035L31.6941 7.6814L31.8901 7.73438L32.0857 7.78933L32.281 7.84621L32.4756 7.90505L32.6697 7.96582L32.8634 8.02854L33.0565 8.0932L33.249 8.15977L33.4409 8.22828L33.6323 8.29869L33.823 8.37103L34.013 8.44527L34.2025 8.52143L34.3912 8.59949L34.5791 8.67943L34.7664 8.76126L34.953 8.84497L35.1387 8.93056L35.3237 9.018L35.5079 9.10732L35.6913 9.19849L35.8738 9.29151L36.0554 9.38636L36.2362 9.48304L36.416 9.58156L36.5949 9.68188L36.773 9.78401L36.95 9.88794L37.1261 9.99369L37.3012 10.1012L37.4752 10.2104L37.6482 10.3215L37.8202 10.4343L37.991 10.5488L38.1609 10.6651L38.3295 10.783L38.4971 10.9028L38.6635 11.0242L38.8287 11.1473L38.9929 11.2721L39.1557 11.3986L39.3174 11.5268L39.4777 11.6565L39.6369 11.7879L39.7948 11.921L39.9514 12.0557L40.1068 12.1919L40.2608 12.3298L40.4133 12.4692L40.5646 12.6103L40.7146 12.7529L40.8631 12.8969L41.0102 13.0426L41.1559 13.1897L41.3002 13.3385L41.443 13.4886L41.5843 13.6402L41.7242 13.7933L41.8625 13.9478L41.9993 14.1038L42.1346 14.2612L42.2683 14.42L42.4006 14.5801L42.5312 14.7418L42.6602 14.9046L42.7876 15.0689L42.9134 15.2345L43.0376 15.4014L43.16 15.5696L43.2809 15.7392L43.4 15.91L43.5175 16.0819L43.6332 16.2552L43.7472 16.4297L43.8595 16.6055L43.97 16.7823L44.0788 16.9603L44.1858 17.1395L44.291 17.3199L44.3944 17.5013L44.496 17.6839L44.5958 17.8676L44.6938 18.0522L44.7898 18.238L44.8841 18.4248L44.9764 18.6126L45.0669 18.8014L45.1556 18.9912L45.2422 19.1819L45.327 19.3737L45.4099 19.5663L45.4907 19.7599L45.5697 19.9542L45.6467 20.1495L45.7217 20.3456L45.7948 20.5426L45.8659 20.7403L45.9349 20.939L46.002 21.1383L46.0672 21.3384L46.1302 21.5392L46.1912 21.7407L46.2502 21.943L46.3071 22.1458L46.362 22.3495L46.4148 22.5537L46.4655 22.7584L46.5142 22.9639L46.5608 23.1699L46.6052 23.3765L46.6477 23.5835L46.6879 23.7912L46.7261 23.9993L46.7622 24.2078L46.7962 24.4168L46.828 24.6262L46.8577 24.8362L46.8852 25.0463L46.9105 25.257L46.9338 25.468L46.9549 25.6793L46.9738 25.8908L46.9907 26.1027L47.0053 26.3149L47.0176 26.5273L47.0279 26.7398L47.0361 26.9528L47.0419 27.1657L47.0457 27.3788L47.0472 27.5921L47.0466 27.8055L47.0438 28.019L47.0387 28.2327L47.0315 28.4462L47.0221 28.6599L47.0106 28.8735L46.9967 29.0872L46.9808 29.3008L46.9625 29.5144L46.9421 29.7279L46.9196 29.9413L46.8947 30.1545L46.8677 30.3676L46.8386 30.5805L46.8072 30.7933L46.7736 31.0059L46.7378 31.2182L46.6998 31.4302L46.6597 31.642L46.6174 31.8536L46.5728 32.0647L46.526 32.2755L46.4771 32.4861L46.4261 32.6962L46.3727 32.9058L46.3173 33.115L46.2597 33.3239L46.1999 33.5322L46.138 33.74L46.0739 33.9475L46.0075 34.1542L45.9391 34.3606L45.8686 34.5662L45.7958 34.7713L45.721 34.9758L45.644 35.1795L45.5649 35.3826L45.4837 35.5851L45.4003 35.7869L45.3149 35.9879L45.2274 36.1883L45.1377 36.3877L45.046 36.5865L44.9521 36.7844L44.8563 36.9815L44.7583 37.1778L44.6583 37.3731L44.5562 37.5677L44.4522 37.7612L44.346 37.9539L44.2379 38.1455L44.1277 38.3363L44.0155 38.526L43.9014 38.7146L43.7853 38.9024L43.667 39.0889L43.5469 39.2745L43.425 39.4589L43.3009 39.6422L43.175 39.8244L43.0471 40.0055L42.9174 40.1853L42.7856 40.3641L42.652 40.5415L42.5166 40.7178L42.3793 40.8927L42.2401 41.0664L42.0991 41.2389L41.9562 41.4099L41.8115 41.5797L41.665 41.7482L41.5167 41.9152L41.3667 42.081L41.2149 42.2453L41.0613 42.4082L40.906 42.5697L40.749 42.7296L40.5901 42.8881L40.4297 43.0452L40.2676 43.2008L40.1038 43.3548L39.9384 43.5073L39.7713 43.6583L39.6025 43.8075L39.4323 43.9553L39.2603 44.1016L39.0868 44.2461L38.9118 44.3889L38.7352 44.5302L38.5571 44.6698L38.3774 44.8077L38.1963 44.9438L38.0137 45.0783L37.8297 45.2111L37.6441 45.342L37.4572 45.4713L37.2688 45.5988L37.0792 45.7244L36.888 45.8482L36.6956 45.9703L36.5018 46.0905L36.3067 46.2089L36.1102 46.3253L35.9125 46.44L35.7137 46.5527L35.5134 46.6634L35.312 46.7724L35.1094 46.8793L34.9056 46.9844L34.7006 47.0875L34.4944 47.1886L34.2872 47.2877L34.0788 47.3849L33.8693 47.48L33.6588 47.5732L33.4472 47.6642L33.2347 47.7533L33.0211 47.8403L32.8065 47.9253L32.591 48.0082L32.3744 48.089L32.157 48.1677L31.9386 48.2444L31.7195 48.3188L31.4995 48.3913L31.2785 48.4615L31.0567 48.5296L30.8343 48.5956L30.611 48.6594L30.3869 48.7211L30.1622 48.7807L29.9367 48.8379L29.7106 48.893L29.4838 48.946L29.2562 48.9967L29.0281 49.0452L28.7995 49.0915L28.5702 49.1356L28.3404 49.1775L28.1101 49.217L27.8792 49.2544L27.6479 49.2896L27.416 49.3224L27.1839 49.353L26.9513 49.3814L26.7181 49.4074L26.4847 49.4312L26.251 49.4527L26.017 49.4719L25.7826 49.4889L25.548 49.5035L25.313 49.5159L25.0779 49.5259L24.8427 49.5336L24.6071 49.539L24.3715 49.5421L24.1356 49.543L23.8997 49.5415L23.6638 49.5377L23.4277 49.5316L23.1916 49.5231L22.9555 49.5123L22.7194 49.4993L22.4834 49.4838L22.2473 49.4661L22.0114 49.446L21.7756 49.4236L21.5398 49.399L21.3043 49.372L21.069 49.3426L20.8338 49.3109L20.5989 49.2768L20.3641 49.2405L20.1298 49.2019L19.8957 49.161L19.6618 49.1177L19.4284 49.0721L19.1953 49.0243L18.9626 48.974L18.7302 48.9215L18.4985 48.8667L18.2671 48.8097L18.0362 48.7502L17.8058 48.6885L17.576 48.6246L17.3467 48.5583L17.1179 48.4898L16.8898 48.419L16.6624 48.3459L16.4356 48.2706L16.2094 48.193L15.9839 48.1131L15.7592 48.0311L15.5352 47.9467L15.312 47.8602L15.0897 47.7714L14.868 47.6803L14.6473 47.5871L14.4274 47.4917L14.2084 47.3941L13.9902 47.2943L13.7731 47.1922L13.5569 47.088L13.3417 46.9816L13.1274 46.8731L12.9142 46.7625L12.7021 46.6497L12.4909 46.5349L12.2809 46.4178L12.0721 46.2987L11.8643 46.1774L11.6577 46.0541L11.4523 45.9287L11.248 45.8012L11.045 45.6717L10.8433 45.5401L10.6427 45.4065L10.4435 45.2708L10.2457 45.1332L10.049 44.9936L9.85381 44.8519L9.65995 44.7084L9.46748 44.5627L9.27643 44.4152L9.0868 44.2658L8.89863 44.1143L8.71194 43.9611L8.52673 43.8059L8.34303 43.6489L8.16088 43.49L7.98028 43.3291L7.80125 43.1665L7.62382 43.0021L7.44799 42.8358L7.2738 42.6678L7.10126 42.4979L6.93038 42.3263L6.7612 42.153L6.59372 41.9779L6.42797 41.8012L6.26396 41.6227L6.10172 41.4425L5.94125 41.2607L5.78258 41.0772L5.62572 40.8921L5.4707 40.7054L5.31754 40.517L5.16623 40.3271L5.01682 40.1357L4.8693 39.9427L4.7237 39.7481L4.58004 39.552L4.43832 39.3545L4.29857 39.1554L4.16081 38.955L4.02504 38.7532L3.89129 38.5498L3.75957 38.3452L3.62988 38.1391L3.50226 37.9316L3.37672 37.7229L3.25325 37.5127L3.13191 37.3014L3.01267 37.0888L2.89556 36.8749L2.7806 36.6596L2.66779 36.4432L2.55717 36.2257L2.44871 36.007L2.34247 35.7871L2.23843 35.5661L2.13661 35.344L2.03703 35.1207L1.9397 34.8965L1.84462 34.6711L1.75183 34.4448L1.6613 34.2174L1.57307 33.989L1.48716 33.7597L1.40356 33.5295L1.32228 33.2984L1.24332 33.0664L1.16672 32.8334L1.09249 32.5997L1.0206 32.3651L0.951109 32.1298L0.883993 31.8936L0.819266 31.6566L0.756941 31.4191L0.697029 31.1808L0.639533 30.9417L0.584475 30.7021L0.531844 30.4616L0.481652 30.2207L0.433912 29.9792L0.388623 29.7372L0.345797 29.4946L0.305448 29.2514L0.267563 29.0078L0.232166 28.7637L0.199257 28.5191L0.16885 28.2741L0.140931 28.0287L0.115513 27.783L0.0926088 27.537L0.0722176 27.2905L0.0543396 27.0438L0.0389874 26.7968L0.0261608 26.5496L0.0158599 26.3021L0.00808475 26.0545L0.00284763 25.8067L0.000160874 25.5587L0 25.3107ZM23.9917 7.14285L23.9353 2.37409L23.8817 2.37927L23.6355 2.40547L23.39 2.43406L23.1446 2.46507L22.9002 2.49839L22.6561 2.53414L22.4122 2.57227L22.169 2.61275L21.9261 2.65564L21.6844 2.70076L21.4424 2.74841L21.2021 2.7982L20.9614 2.85051L20.722 2.90503L20.4828 2.96198L20.2447 3.02111L20.0072 3.08262L19.7704 3.14641L19.5343 3.21252L19.2993 3.28084L19.0647 3.35151L18.8313 3.42438L18.5985 3.49956L18.367 3.57682L18.1358 3.65652L17.9059 3.73835L17.6771 3.82235L17.449 3.90865L17.222 3.99704L16.9963 4.08757L16.7712 4.18043L16.5473 4.27539L16.3244 4.37252L16.1028 4.47169L15.8823 4.57302L15.663 4.67639L15.4445 4.78204L15.2276 4.88962L15.0118 4.9993L14.7972 5.11104L14.5839 5.22486L14.3721 5.34061L14.1611 5.45851L13.9515 5.57846L13.7437 5.70011L13.5366 5.82414L13.3315 5.94982L13.1277 6.07745L12.9249 6.20718L12.7237 6.3388L12.524 6.47235L12.3261 6.60746L12.129 6.74497L11.9339 6.88395L11.7403 7.02485L11.548 7.16768L11.3575 7.31221L11.1686 7.45848L10.9809 7.6068L10.7954 7.75653L10.6111 7.90823L10.4286 8.06158L10.2478 8.21671L10.0687 8.37333L9.89104 8.53193L9.71538 8.69194L9.54122 8.85379L9.36907 9.01701L9.1985 9.182L9.02983 9.34848L8.86287 9.5166L8.69754 9.68646L8.53437 9.85749L8.37303 10.03L8.21314 10.2045L8.05545 10.3801L7.8997 10.557L7.74555 10.7357L7.59363 10.9156L7.4434 11.097L7.29519 11.2797L7.14893 11.4639L7.00457 11.6493L6.86233 11.8359L6.72196 12.024L6.58352 12.2135L6.4473 12.4038L6.31291 12.5958L6.18066 12.7888L6.05045 12.983L5.92219 13.1784L5.79611 13.375L5.67209 13.5726L5.55015 13.7713L5.43039 13.9711L5.3126 14.1721L5.19692 14.3743L5.08353 14.5772L4.97216 14.7812L4.86293 14.9863L4.75591 15.1922L4.65099 15.3992L4.54833 15.6069L4.44781 15.8156L4.3495 16.0252L4.25334 16.2357L4.15946 16.4469L4.0677 16.6591L3.97819 16.872L3.89097 17.0855L3.80592 17.2999L3.72311 17.5151L3.64257 17.7308L3.56426 17.9473L3.48827 18.1643L3.41447 18.3822L3.34295 18.6006L3.27373 18.8195L3.2068 19.0389L3.1421 19.2591L3.07974 19.4796L3.01965 19.7007L2.96185 19.9221L2.90634 20.1442L2.85315 20.3665L2.80227 20.5893L2.75369 20.8125L2.70742 21.0361L2.66347 21.2599L2.62182 21.4841L2.5825 21.7085L2.54549 21.9333L2.51081 22.1582L2.47845 22.3834L2.44841 22.6088L2.42069 22.8344L2.3953 23.06L2.37223 23.286L2.3515 23.5119L2.33307 23.7378L2.31698 23.964L2.30321 24.1901L2.29176 24.4162L2.28263 24.6423L2.27582 24.8684L2.27134 25.0944L2.26916 25.3203L2.26931 25.5462L2.27176 25.7719L2.27653 25.9976L2.2836 26.223L2.29297 26.4482L2.30466 26.6732L2.31862 26.8979L2.33489 27.1224L2.35345 27.3466L2.3743 27.5706L2.39742 27.7942L2.42282 28.0174L2.45049 28.2404L2.48043 28.4628L2.51263 28.6849L2.5471 28.9066L2.5838 29.1277L2.62276 29.3484L2.66395 29.5686L2.70737 29.7882L2.75302 30.0075L2.80088 30.2259L2.85096 30.4439L2.90325 30.6613L2.95772 30.8781L3.0144 31.0942L3.07324 31.3094L3.13427 31.5242L3.19747 31.7382L3.26281 31.9515L3.33031 32.1641L3.39993 32.3757L3.47169 32.5867L3.54558 32.7967L3.62157 33.006L3.69965 33.2144L3.77986 33.422L3.86211 33.6286L3.94643 33.8343L4.03284 34.039L4.12128 34.2428L4.21177 34.4456L4.30428 34.6475L4.39881 34.8483L4.49533 35.0481L4.59385 35.2468L4.69435 35.4444L4.79682 35.641L4.90125 35.8364L5.00762 36.0308L5.11592 36.2239L5.22613 36.4158L5.33825 36.6067L5.45228 36.7962L5.56813 36.9846L5.68592 37.1717L5.8055 37.3575L5.92696 37.5422L6.05024 37.7255L6.1753 37.9075L6.30215 38.0882L6.43082 38.2675L6.56122 38.4455L6.69341 38.6221L6.82727 38.7973L6.96293 38.971L7.10021 39.1433L7.23922 39.3142L7.37994 39.4838L7.52223 39.6517L7.66622 39.8182L7.81181 39.9832L7.95906 40.1467L8.10785 40.3086L8.25819 40.469L8.41013 40.6277L8.56359 40.785L8.71862 40.9407L8.87511 41.0947L9.03314 41.2472L9.19258 41.3979L9.3535 41.5471L9.5159 41.6947L9.67968 41.8404L9.84478 41.9845L10.0114 42.1269L10.1794 42.2676L10.3485 42.4066L10.5193 42.5439L10.6911 42.6793L10.8643 42.8131L11.0388 42.9451L11.2146 43.0753L11.3915 43.2036L11.5697 43.3302L11.7489 43.4549L11.9296 43.5779L12.1112 43.6989L12.2942 43.8182L12.478 43.9356L12.6631 44.051L12.8493 44.1647L13.0364 44.2765L13.2247 44.3863L13.4139 44.4942L13.6042 44.6002L13.7954 44.7043L13.9876 44.8064L14.1807 44.9066L14.3747 45.005L14.5697 45.1012L14.7655 45.1956L14.9621 45.288L15.1596 45.3784L15.3578 45.4667L15.557 45.5532L15.7569 45.6375L15.9576 45.72L16.1589 45.8004L16.3609 45.8787L16.5637 45.9551L16.767 46.0294L16.9711 46.1016L17.1758 46.1719L17.3811 46.2401L17.587 46.3062L17.7933 46.3703L18.0004 46.4323L18.2078 46.4923L18.4158 46.5501L18.6243 46.606L18.8331 46.6597L19.0425 46.7114L19.2521 46.7609L19.4623 46.8085L19.6728 46.8538L19.8835 46.8972L20.0947 46.9384L20.3062 46.9775L20.5179 47.0146L20.7299 47.0495L20.9421 47.0823L21.1545 47.113L21.3672 47.1417L21.5799 47.1683L21.7929 47.1927L22.006 47.215L22.2192 47.2353L22.4325 47.2534L22.6458 47.2695L22.8591 47.2833L23.0726 47.2952L23.2859 47.3049L23.4992 47.3126L23.7125 47.3182L23.9259 47.3215L24.1389 47.3229L24.352 47.3221L24.565 47.3193L24.7777 47.3144L24.9903 47.3074L25.2027 47.2983L25.4149 47.2872L25.6268 47.2739L25.8385 47.2587L26.0499 47.2414L26.261 47.2219L26.4717 47.2004L26.6822 47.1768L26.8922 47.1513L27.1019 47.1237L27.3112 47.094L27.52 47.0623L27.7284 47.0286L27.9364 46.9928L28.1439 46.955L28.3508 46.9152L28.5572 46.8735L28.7631 46.8297L28.9683 46.784L29.173 46.7361L29.3772 46.6864L29.5806 46.6347L29.7834 46.581L29.9854 46.5253L30.187 46.4678L30.3877 46.4082L30.5878 46.3467L30.787 46.2835L30.9856 46.2181L31.1833 46.1509L31.38 46.0818L31.5762 46.0107L31.7715 45.9379L31.9659 45.8631L32.1594 45.7865L32.3519 45.7081L32.5436 45.6278L32.7344 45.5456L32.9242 45.4617L33.1128 45.3759L33.3008 45.2884L33.4876 45.199L33.6733 45.1079L33.8582 45.0149L34.0418 44.9203L34.2244 44.8239L34.406 44.7257L34.5863 44.6259L34.7656 44.5243L34.9436 44.4211L35.1208 44.3161L35.2963 44.2096L35.4711 44.1012L35.6443 43.9913L35.8164 43.8797L35.9874 43.7665L36.1572 43.6516L36.3253 43.5354L36.4923 43.4174L36.6581 43.2979L36.8225 43.1769L36.9857 43.0541L37.1473 42.9301L37.3078 42.8043L37.4667 42.6772L37.6242 42.5487L37.7805 42.4185L37.9353 42.2868L38.0885 42.1539L38.2404 42.0194L38.3907 41.8837L38.5396 41.7464L38.6871 41.6078L38.8328 41.468L38.9773 41.3265L39.1202 41.1839L39.2614 41.0399L39.4012 40.8947L39.5392 40.7483L39.6757 40.6006L39.8109 40.4512L39.9441 40.3011L40.076 40.1495L40.2059 39.9969L40.3345 39.843L40.4612 39.688L40.5863 39.5318L40.7099 39.3744L40.8316 39.2161L40.9518 39.0565L41.07 38.896L41.1868 38.7342L41.3019 38.5713L41.4148 38.4078L41.5264 38.243L41.6359 38.0774L41.7439 37.9106L41.8502 37.7427L41.9545 37.5743L42.057 37.4049L42.1579 37.234L42.2567 37.063L42.3539 36.8907L42.4494 36.7176L42.5427 36.5439L42.6345 36.369L42.7243 36.1934L42.8121 36.0176L42.8983 35.8404L42.9826 35.6625L43.0649 35.4842L43.1454 35.3051L43.224 35.1252L43.3007 34.9449L43.3756 34.7636L43.4485 34.5818L43.5194 34.3998L43.5885 34.2165L43.6556 34.0332L43.721 33.849L43.7844 33.6645L43.8458 33.4793L43.9051 33.2941L43.9628 33.1076L44.0183 32.9213L44.0719 32.7344L44.1236 32.5473L44.1734 32.3594L44.2211 32.1715L44.267 31.983L44.3108 31.7941L44.3528 31.6051L44.3928 31.4156L44.4307 31.2262L44.4667 31.036L44.5007 30.8462L44.5328 30.6557L44.5629 30.4651L44.591 30.2745L44.6172 30.0835L44.6414 29.8928L44.6637 29.7012L44.6839 29.5103L44.7022 29.3188L44.7184 29.1277L44.7328 28.936L44.7451 28.745L44.7555 28.5534L44.764 28.3616L44.7704 28.1704L44.775 27.9795L44.7775 27.7879L44.7781 27.5967L44.7767 27.4057L44.7734 27.2148L44.768 27.024L44.7607 26.8339L44.7516 26.643L44.7404 26.453L44.7273 26.263L44.7123 26.0736L44.6954 25.8839L44.6766 25.695L44.6558 25.506L44.633 25.3176L44.6083 25.1293L44.5818 24.9417L44.5532 24.7539L44.5229 24.567L44.4907 24.3807L44.4565 24.1943L44.4204 24.0085L44.3825 23.8235L44.3426 23.6383L44.3012 23.4545L44.2575 23.2705L44.2123 23.0877L44.1649 22.9046L44.1158 22.7229L44.0649 22.5414L44.0122 22.3604L43.9577 22.1804L43.9014 22.0011L43.8431 21.8218L43.7833 21.644L43.7214 21.4662L43.658 21.2896L43.5926 21.1134L43.5256 20.9384L43.4567 20.7636L43.3861 20.5898L43.3139 20.4172L43.24 20.2453L43.164 20.0736L43.0868 19.9035L43.0075 19.7336L42.9268 19.5653L42.8443 19.3976L42.76 19.2305L42.6743 19.0648L42.5868 18.8998L42.4975 18.7356L42.4071 18.5729L42.3147 18.4107L42.2208 18.2498L42.1251 18.0896L42.0283 17.9311L41.9294 17.7729L41.8293 17.6163L41.7274 17.4603L41.6242 17.3057L41.5196 17.1525L41.4131 16.9999L41.3052 16.8487L41.196 16.6986L41.0852 16.5498L40.9731 16.402L40.8594 16.2556L40.7444 16.1101L40.6279 15.9661L40.51 15.8233L40.3907 15.6816L40.27 15.5413L40.148 15.4022L40.0248 15.2644L39.9001 15.128L39.7739 14.9926L39.647 14.8591L39.5179 14.7263L39.3883 14.5954L39.2572 14.4654L39.125 14.3371L38.991 14.2098L38.8566 14.0845L38.7204 13.9601L38.5831 13.8372L38.445 13.716L38.3056 13.5961L38.1646 13.4773L38.0228 13.3603L37.8801 13.2447L37.7361 13.1306L37.591 13.0179L37.4451 12.9071L37.2977 12.7971L37.1497 12.6892L37.0005 12.5827L36.8502 12.4775L36.6993 12.3741L36.5468 12.2719L36.3943 12.1719L36.24 12.0729L36.0852 11.9757L35.9292 11.8799L35.7726 11.7858L35.6151 11.6934L35.457 11.6027L35.2974 11.5132L35.1378 11.4257L34.9769 11.3397L34.8153 11.2553L34.6531 11.1727L34.49 11.0916L34.3262 11.012L34.1617 10.9344L33.9965 10.8582L33.8308 10.7839L33.6643 10.7111L33.4918 10.6378L33.3296 10.5707L33.1609 10.5029L32.9924 10.4371L32.8225 10.3726L32.6526 10.3101L32.482 10.2492L32.3111 10.1901L32.1393 10.1325L31.9675 10.0769L31.7949 10.0229L31.6219 9.97065L31.4488 9.92025L31.275 9.8714L31.1006 9.82423L30.9264 9.77899L30.7518 9.73546L30.5761 9.69353L30.4011 9.65354L30.2251 9.61515L30.0492 9.57861L29.8726 9.54373L29.6963 9.51068L29.5195 9.47935L29.3429 9.44983L29.1653 9.42196L28.9883 9.39594L28.8109 9.37164L28.6332 9.34909L28.4555 9.3283L28.2779 9.30931L28.1001 9.29204L27.9222 9.27653L27.7441 9.26277L27.566 9.25076L27.3883 9.24053L27.2105 9.23204L27.0321 9.22529L26.8547 9.22031L26.6769 9.21707L26.4992 9.21558L26.3213 9.21583L26.2857 9.21624L26.3417 13.9503L26.4427 13.9498L26.5725 13.9506L26.7024 13.9525L26.8324 13.9559L26.9625 13.9605L27.0926 13.9664L27.2228 13.9736L27.353 13.982L27.4833 13.9918L27.6135 14.0028L27.7438 14.0152L27.8739 14.0288L28.0041 14.0438L28.1342 14.0601L28.2642 14.0775L28.3942 14.0965L28.5241 14.1165L28.6539 14.138L28.7836 14.1608L28.9131 14.1848L29.0425 14.2102L29.1718 14.2368L29.3009 14.2647L29.4298 14.2939L29.5584 14.3245L29.6869 14.3563L29.8151 14.3894L29.9431 14.4238L30.0709 14.4595L30.1984 14.4965L30.3257 14.5348L30.4526 14.5743L30.5791 14.6152L30.7054 14.6573L30.8314 14.7008L30.957 14.7455L31.0823 14.7914L31.2071 14.8386L31.3316 14.8872L31.4557 14.937L31.5793 14.988L31.7025 15.0404L31.8253 15.0939L31.9477 15.1488L32.0695 15.2047L32.1908 15.2621L32.3118 15.3207L32.4321 15.3805L32.552 15.4416L32.6713 15.5039L32.7901 15.5673L32.9083 15.6321L33.0259 15.698L33.1429 15.7651L33.2594 15.8335L33.3753 15.9031L33.4905 15.9738L33.605 16.0457L33.7189 16.1189L33.8322 16.1933L33.9447 16.2687L34.0566 16.3454L34.1678 16.4233L34.2782 16.5022L34.3879 16.5823L34.4969 16.6637L34.6052 16.746L34.7126 16.8296L34.8193 16.9144L34.9251 17.0001L35.0303 17.087L35.1345 17.1751L35.238 17.2641L35.3406 17.3543L35.4424 17.4456L35.5433 17.538L35.6432 17.6314L35.7424 17.7259L35.8406 17.8214L35.9379 17.918L36.0343 18.0156L36.1298 18.1143L36.2244 18.2139L36.3179 18.3146L36.4105 18.4163L36.5021 18.5189L36.5927 18.6225L36.6824 18.7271L36.771 18.8327L36.8587 18.9392L36.9452 19.0467L37.0308 19.1551L37.1152 19.2644L37.1986 19.3747L37.281 19.4859L37.3622 19.5979L37.4424 19.7108L37.5214 19.8246L37.5994 19.9393L37.6762 20.0549L37.7518 20.1712L37.8263 20.2885L37.8998 20.4065L37.9721 20.5253L38.0431 20.6449L38.113 20.7655L38.1817 20.8866L38.2492 21.0086L38.3154 21.1313L38.3805 21.2548L38.4444 21.379L38.5069 21.504L38.5683 21.6297L38.6285 21.7561L38.6873 21.883L38.7449 22.0108L38.8012 22.1392L38.8563 22.2682L38.91 22.3979L38.9625 22.5282L39.0137 22.6591L39.0634 22.7905L39.112 22.9227L39.1591 23.0553L39.2051 23.1886L39.2497 23.3224L39.2927 23.4568L39.3346 23.5915L39.3751 23.7269L39.4142 23.8628L39.452 23.9991L39.4882 24.136L39.5233 24.2732L39.5568 24.411L39.589 24.5491L39.6198 24.6877L39.6492 24.8266L39.6772 24.966L39.7037 25.1057L39.7288 25.2459L39.7526 25.3863L39.7748 25.527L39.7956 25.6682L39.8151 25.8096L39.833 25.9512L39.8496 26.0933L39.8646 26.2356L39.8782 26.3781L39.8905 26.5209L39.9011 26.6638L39.9104 26.807L39.9181 26.9503L39.9244 27.0938L39.9292 27.2376L39.9326 27.3814L39.9344 27.5255L39.9348 27.6696L39.9337 27.8138L39.9311 27.9581L39.927 28.1025L39.9214 28.2471L39.9144 28.3915L39.9058 28.536L39.8958 28.6807L39.8843 28.8252L39.8712 28.9698L39.8567 29.1143L39.8406 29.2587L39.8231 29.4033L39.8041 29.5476L39.7835 29.6919L39.7615 29.836L39.7379 29.9801L39.7129 30.124L39.6863 30.2678L39.6583 30.4115L39.6287 30.5549L39.5977 30.6982L39.5652 30.8413L39.5312 30.9841L39.4957 31.1266L39.4586 31.2691L39.4201 31.4111L39.3801 31.553L39.3387 31.6944L39.2957 31.8356L39.2513 31.9765L39.2052 32.1171L39.1578 32.2572L39.1089 32.397L39.0586 32.5365L39.0067 32.6755L38.9534 32.8141L38.8987 32.9523L38.8424 33.09L38.7848 33.2274L38.7256 33.3641L38.665 33.5005L38.603 33.6364L38.5395 33.7716L38.4746 33.9064L38.4082 34.0406L38.3404 34.1743L38.2712 34.3074L38.2006 34.4398L38.1286 34.5717L38.0551 34.703L37.9804 34.8337L37.9041 34.9636L37.8265 35.093L37.7475 35.2216L37.6671 35.3497L37.5853 35.4769L37.5022 35.6035L37.4177 35.7292L37.3319 35.8543L37.2447 35.9786L37.1562 36.1021L37.0663 36.2249L36.9752 36.3469L36.8827 36.468L36.7888 36.5883L36.6937 36.7077L36.5973 36.8263L36.4996 36.944L36.4007 37.0609L36.3004 37.1768L36.1989 37.2919L36.0961 37.406L35.9921 37.5192L35.8869 37.6314L35.7805 37.7427L35.6728 37.853L35.564 37.9623L35.4538 38.0706L35.3426 38.178L35.2301 38.2842L35.1166 38.3894L35.0018 38.4937L34.8858 38.5967L34.7688 38.6988L34.6505 38.7999L34.5313 38.8997L34.4108 38.9985L34.2894 39.0961L34.1667 39.1926L34.043 39.288L33.9183 39.3822L33.7925 39.4752L33.6656 39.5672L33.5379 39.6579L33.409 39.7474L33.2791 39.8357L33.1481 39.9227L33.0163 40.0086L32.8834 40.0932L32.7497 40.1765L32.6149 40.2585L32.4793 40.3394L32.3426 40.4189L32.2052 40.4971L32.0668 40.574L31.9275 40.6497L31.7873 40.724L31.6463 40.7969L31.5044 40.8685L31.3618 40.9388L31.2183 41.0077L31.074 41.0752L30.9289 41.1414L30.783 41.2062L30.6364 41.2696L30.489 41.3315L30.3409 41.3921L30.1921 41.4513L30.0425 41.509L29.8923 41.5653L29.7414 41.6202L29.5899 41.6736L29.4376 41.7255L29.2848 41.776L29.1313 41.825L28.9773 41.8725L28.8226 41.9186L28.6674 41.9631L28.5116 42.0062L28.3552 42.0476L28.1984 42.0877L28.041 42.1262L27.8832 42.1632L27.7247 42.1986L27.566 42.2326L27.4066 42.2649L27.2469 42.2957L27.0868 42.3251L26.9262 42.3528L26.7653 42.379L26.6041 42.4035L26.4424 42.4265L26.2803 42.448L26.118 42.4679L25.9555 42.4861L25.7925 42.5028L25.6294 42.5179L25.4659 42.5314L25.3022 42.5433L25.1383 42.5536L24.9742 42.5623L24.8099 42.5693L24.6453 42.5748L24.4807 42.5786L24.3159 42.5809L24.1508 42.5815L23.9858 42.5805L23.8208 42.5778L23.6555 42.5735L23.4902 42.5676L23.3249 42.56L23.1595 42.5509L22.9942 42.5401L22.8288 42.5277L22.6635 42.5136L22.4982 42.4979L22.333 42.4805L22.1678 42.4616L22.0028 42.441L21.8377 42.4187L21.6729 42.3948L21.5083 42.3693L21.3437 42.3422L21.1793 42.3133L21.0151 42.283L20.8512 42.2509L20.6875 42.2171L20.524 42.1818L20.3608 42.1449L20.1979 42.1062L20.0352 42.066L19.8729 42.0241L19.7108 41.9806L19.5491 41.9356L19.3879 41.8889L19.227 41.8406L19.0664 41.7906L18.9063 41.739L18.7467 41.6859L18.5874 41.6311L18.4286 41.5748L18.2704 41.5168L18.1126 41.4572L17.9553 41.396L17.7986 41.3334L17.6423 41.269L17.4867 41.2031L17.3317 41.1357L17.1773 41.0666L17.0234 40.996L16.8703 40.9239L16.7177 40.8502L16.5658 40.7749L16.4145 40.6981L16.2641 40.6198L16.1143 40.5399L15.9652 40.4586L15.8169 40.3757L15.6693 40.2912L15.5225 40.2054L15.3765 40.1179L15.2313 40.029L15.0869 39.9387L14.9434 39.8468L14.8008 39.7536L14.6591 39.6587L14.5182 39.5624L14.3781 39.4648L14.2391 39.3658L14.1009 39.2652L13.9637 39.1632L13.8274 39.0598L13.6922 38.955L13.558 38.8489L13.4248 38.7413L13.2926 38.6324L13.1613 38.522L13.0312 38.4104L12.9022 38.2974L12.7742 38.183L12.6473 38.0674L12.5216 37.9504L12.3969 37.8322L12.2734 37.7125L12.1511 37.5916L12.03 37.4695L11.91 37.346L11.7912 37.2214L11.6735 37.0955L11.5573 36.9684L11.4421 36.8399L11.3282 36.7104L11.2157 36.5796L11.1043 36.4477L10.9943 36.3145L10.8855 36.1801L10.7781 36.0448L10.672 35.9082L10.5673 35.7704L10.4639 35.6316L10.3618 35.4917L10.2611 35.3507L10.162 35.2086L10.064 35.0654L9.96758 34.9213L9.87257 34.7761L9.77898 34.6298L9.68683 34.4826L9.59615 34.3343L9.50693 34.185L9.4192 34.0349L9.33296 33.8837L9.24821 33.7317L9.16499 33.5786L9.08329 33.4248L9.00311 33.27L8.92448 33.1143L8.84741 32.9577L8.77189 32.8003L8.69796 32.6422L8.6256 32.483L8.55483 32.3232L8.48567 32.1626L8.41812 32.0011L8.35218 31.8389L8.28789 31.6761L8.22522 31.5123L8.16419 31.348L8.10482 31.183L8.04711 31.0171L7.99107 30.8508L7.93671 30.6837L7.88403 30.516L7.83304 30.3478L7.78375 30.1789L7.73618 30.0094L7.6903 29.8394L7.64617 29.6687L7.60375 29.4977L7.56305 29.326L7.52412 29.1538L7.48691 28.9812L7.45147 28.8081L7.41778 28.6346L7.38585 28.4606L7.35569 28.2862L7.32731 28.1114L7.3007 27.9363L7.27588 27.7608L7.25285 27.5849L7.23162 27.4087L7.21218 27.2322L7.19454 27.0554L7.1787 26.8783L7.16469 26.701L7.15248 26.5235L7.14208 26.3456L7.13351 26.1676L7.12676 25.9895L7.12185 25.8112L7.11875 25.6327L7.11749 25.454L7.11807 25.2752L7.12048 25.0964L7.12473 24.9175L7.13081 24.7386L7.13875 24.5595L7.14853 24.3805L7.16014 24.2014L7.17361 24.0224L7.18892 23.8433L7.20608 23.6645L7.22509 23.4855L7.24594 23.3068L7.26865 23.128L7.2932 22.9494L7.3196 22.771L7.34785 22.5927L7.37793 22.4146L7.40988 22.2368L7.44367 22.059L7.4793 21.8815L7.51676 21.7044L7.55608 21.5274L7.59724 21.3508L7.64022 21.1744L7.68504 20.9984L7.73171 20.8228L7.78019 20.6474L7.8305 20.4725L7.88265 20.298L7.93661 20.1239L7.9924 19.9501L8.04999 19.777L8.1094 19.6042L8.17062 19.4319L8.23364 19.2601L8.29845 19.0888L8.36506 18.9181L8.43346 18.7479L8.50365 18.5784L8.57562 18.4094L8.64936 18.241L8.72488 18.0733L8.80215 17.9062L8.88119 17.7397L8.96198 17.574L9.04452 17.409L9.1288 17.2447L9.21481 17.0812L9.30254 16.9183L9.392 16.7563L9.48317 16.5951L9.57604 16.4345L9.67062 16.275L9.76689 16.1162L9.86484 15.9583L9.96448 15.8012L10.0658 15.6451L10.1688 15.4899L10.2733 15.3355L10.3796 15.1822L10.4874 15.0297L10.5969 14.8783L10.7081 14.7279L10.8207 14.5784L10.9351 14.43L11.051 14.2826L11.1685 14.1364L11.2875 13.9912L11.4081 13.847L11.5303 13.704L11.654 13.562L11.7791 13.4213L11.9059 13.2817L12.0341 13.1433L12.1638 13.006L12.2951 12.8699L12.4277 12.7352L12.5617 12.6015L12.6973 12.4691L12.8344 12.3381L12.9728 12.2081L13.1126 12.0797L13.2538 11.9524L13.3965 11.8265L13.5403 11.7019L13.6857 11.5787L13.8324 11.4568L13.9803 11.3363L14.1296 11.2172L14.2803 11.0995L14.4322 10.9832L14.5854 10.8684L14.7399 10.7549L14.8955 10.643L15.0524 10.5325L15.2106 10.4235L15.37 10.316L15.5304 10.2101L15.6922 10.1055L15.855 10.0026L16.0191 9.90122L16.1842 9.80138L16.3505 9.70311L16.5178 9.60643L16.6863 9.51133L16.8558 9.41783L17.0263 9.32596L17.1979 9.23572L17.3705 9.14711L17.544 9.06015L17.7186 8.97485L17.8942 8.89122L18.0707 8.80928L18.2481 8.72902L18.4265 8.65046L18.6058 8.57362L18.786 8.4985L18.967 8.4251L19.1487 8.35345L19.3315 8.28354L19.5149 8.2154L19.6993 8.14902L19.8844 8.08442L20.0702 8.0216L20.2568 7.96057L20.444 7.90135L20.6321 7.84393L20.8208 7.78833L21.0102 7.73457L21.2001 7.68262L21.3908 7.63252L21.5821 7.58427L21.774 7.53787L21.9664 7.49334L22.1594 7.45066L22.3529 7.40986L22.5469 7.37095L22.7415 7.33393L22.9365 7.29879L23.132 7.26554L23.328 7.23421L23.5244 7.20478L23.7211 7.17727L23.9182 7.15167L23.9917 7.14285ZM24.0749 14.1645L24.0182 9.37836L23.8567 9.40095L23.683 9.42699L23.5091 9.45477L23.3364 9.48414L23.1635 9.5153L22.9914 9.54807L22.8196 9.58251L22.6485 9.61856L22.4778 9.65633L22.3074 9.69577L22.1376 9.73682L21.9685 9.7795L21.7995 9.8239L21.6371 9.86822L21.4642 9.9174L21.2972 9.96657L21.1309 10.0173L20.9655 10.0696L20.8005 10.1236L20.636 10.1792L20.4724 10.2363L20.3095 10.2949L20.1474 10.3552L19.9859 10.4169L19.8251 10.4803L19.6655 10.5451L19.5059 10.6116L19.3476 10.6795L19.1899 10.7489L19.0335 10.8197L18.8773 10.8922L18.7221 10.9661L18.5682 11.0413L18.4145 11.1182L18.2625 11.1963L18.1107 11.2762L17.9604 11.3571L17.8104 11.44L17.6618 11.5237L17.5142 11.609L17.3674 11.6959L17.2216 11.7839L17.0767 11.8736L16.9332 11.9643L16.7903 12.0565L16.6488 12.1501L16.5083 12.2448L16.3687 12.341L16.2301 12.4386L16.093 12.5371L15.9567 12.6373L15.8215 12.7386L15.6875 12.8412L15.5548 12.9448L15.423 13.05L15.2926 13.1561L15.1633 13.2635L15.0351 13.3724L14.9084 13.482L14.7826 13.5931L14.6581 13.7053L14.5349 13.8185L14.413 13.9329L14.2921 14.0485L14.1729 14.165L14.0547 14.2826L13.9377 14.4015L13.8222 14.5213L13.708 14.6423L13.595 14.7642L13.4835 14.8871L13.3732 15.011L13.2641 15.1361L13.1569 15.2618L13.0507 15.3888L12.9458 15.5167L12.8424 15.6454L12.7405 15.775L12.6397 15.9058L12.5406 16.0372L12.4428 16.1696L12.3464 16.3029L12.2515 16.437L12.1581 16.5718L12.0661 16.7075L11.9755 16.8441L11.8864 16.9815L11.7988 17.1195L11.7128 17.2583L11.6281 17.3981L11.5449 17.5384L11.4633 17.6794L11.3831 17.8212L11.3046 17.9634L11.2275 18.1066L11.1517 18.2505L11.0778 18.3947L11.0052 18.5399L10.9343 18.6855L10.8648 18.8315L10.797 18.9784L10.7306 19.1257L10.6659 19.2736L10.6026 19.422L10.5411 19.5709L10.481 19.7202L10.4224 19.8702L10.3655 20.0206L10.3103 20.1713L10.2564 20.3227L10.2044 20.4741L10.1538 20.6262L10.1049 20.7787L10.0575 20.9315L10.0118 21.0846L9.96758 21.2381L9.92511 21.3918L9.88414 21.546L9.84482 21.7003L9.80712 21.855L9.77104 22.01L9.73656 22.165L9.70369 22.3205L9.67248 22.4761L9.64285 22.6317L9.61485 22.7878L9.58849 22.9439L9.56371 23.1002L9.5406 23.2564L9.51907 23.4129L9.49918 23.5695L9.48091 23.7261L9.46426 23.8828L9.44923 24.0396L9.43582 24.1964L9.42403 24.3531L9.41386 24.51L9.40529 24.6668L9.39834 24.8235L9.39302 24.9802L9.38929 25.1368L9.38719 25.2933L9.38668 25.4499L9.38778 25.6062L9.39049 25.7624L9.3948 25.9184L9.40069 26.0742L9.4082 26.2301L9.41728 26.3856L9.42796 26.5408L9.44023 26.696L9.45407 26.8508L9.46949 27.0054L9.48649 27.1597L9.50505 27.3138L9.5252 27.4676L9.54689 27.621L9.57015 27.7742L9.59495 27.9268L9.62131 28.0792L9.64921 28.2313L9.67864 28.3828L9.70962 28.5342L9.74211 28.6849L9.77614 28.8354L9.81165 28.9851L9.84872 29.1346L9.88727 29.2836L9.92734 29.4321L9.96881 29.58L10.0119 29.7275L10.0563 29.8744L10.1024 30.0208L10.1498 30.1667L10.1987 30.3119L10.2491 30.4564L10.3009 30.6005L10.3541 30.7439L10.4088 30.8867L10.4649 31.0288L10.5224 31.1702L10.5813 31.3111L10.6416 31.4511L10.7034 31.5905L10.7664 31.7292L10.8309 31.8671L10.8968 32.0043L10.9639 32.1408L11.0325 32.2764L11.1023 32.4114L11.1735 32.5455L11.246 32.6788L11.3198 32.8113L11.395 32.943L11.4714 33.0738L11.5491 33.2037L11.6281 33.3329L11.7083 33.4611L11.7898 33.5884L11.8726 33.715L11.9564 33.8404L12.0417 33.9651L12.128 34.0887L12.2157 34.2114L12.3045 34.3332L12.3945 34.4539L12.4856 34.5737L12.578 34.6926L12.6713 34.8104L12.7659 34.9272L12.8616 35.043L12.9584 35.1578L13.0564 35.2714L13.1554 35.3842L13.2554 35.4957L13.3566 35.6063L13.4587 35.7157L13.562 35.8241L13.6662 35.9313L13.7716 36.0375L13.8778 36.1425L13.9852 36.2464L14.0935 36.3492L14.2026 36.4508L14.3129 36.5513L14.4239 36.6506L14.536 36.7486L14.649 36.8456L14.7629 36.9414L14.8777 37.036L14.9933 37.1293L15.1098 37.2214L15.2272 37.3123L15.3454 37.4021L15.4646 37.4906L15.5843 37.5778L15.7049 37.6637L15.8263 37.7484L15.9485 37.8319L16.0716 37.9142L16.1953 37.995L16.3197 38.0747L16.4449 38.1531L16.5707 38.2301L16.6972 38.3059L16.8245 38.3803L16.9522 38.4534L17.0809 38.5253L17.2099 38.5957L17.3398 38.665L17.4701 38.7328L17.601 38.7992L17.7326 38.8645L17.8648 38.9283L17.9974 38.9908L18.1305 39.0519L18.2644 39.1117L18.3984 39.1701L18.5331 39.227L18.6683 39.2828L18.804 39.337L18.94 39.3899L19.0765 39.4414L19.2135 39.4916L19.3508 39.5404L19.4885 39.5877L19.6266 39.6338L19.765 39.6783L19.9038 39.7215L20.043 39.7632L20.1824 39.8036L20.3221 39.8426L20.4621 39.8801L20.6024 39.9164L20.7429 39.9511L20.8836 39.9844L21.0247 40.0164L21.1659 40.047L21.3073 40.0761L21.4488 40.1037L21.5907 40.13L21.7325 40.1549L21.8746 40.1784L22.0167 40.2003L22.159 40.221L22.3014 40.2402L22.4438 40.258L22.5863 40.2744L22.7288 40.2894L22.8714 40.3029L23.014 40.315L23.1566 40.3257L23.2993 40.3351L23.4418 40.3429L23.5843 40.3494L23.7269 40.3545L23.8693 40.3582L24.0115 40.3605L24.1538 40.3613L24.2959 40.3608L24.4379 40.3588L24.5798 40.3556L24.7215 40.3509L24.8631 40.3449L25.0044 40.3373L25.1455 40.3285L25.2864 40.3182L25.4272 40.3066L25.5676 40.2936L25.7078 40.2792L25.8479 40.2635L25.9875 40.2464L26.1269 40.2279L26.266 40.2082L26.4048 40.1871L26.5432 40.1645L26.6811 40.1407L26.8189 40.1155L26.9562 40.089L27.0931 40.0612L27.2298 40.032L27.3658 40.0015L27.5015 39.9698L27.6367 39.9366L27.7715 39.9023L27.9058 39.8666L28.0397 39.8296L28.173 39.7913L28.3058 39.7518L28.4381 39.7111L28.5698 39.669L28.7012 39.6256L28.8318 39.581L28.9619 39.5352L29.0914 39.4881L29.2203 39.4398L29.3486 39.3903L29.4762 39.3395L29.6034 39.2875L29.7298 39.2343L29.8554 39.18L29.9806 39.1245L30.1049 39.0678L30.2287 39.0098L30.3518 38.9507L30.4739 38.8906L30.5957 38.8291L30.7164 38.7667L30.8366 38.7029L30.9557 38.6382L31.0743 38.5723L31.1922 38.5053L31.3091 38.4372L31.4253 38.368L31.5407 38.2977L31.6551 38.2264L31.769 38.1539L31.8817 38.0806L31.9937 38.0061L32.105 37.9304L32.2152 37.8538L32.3244 37.7764L32.4331 37.6976L32.5406 37.6183L32.6473 37.5376L32.7532 37.456L32.8577 37.3736L32.9618 37.29L33.0648 37.2056L33.1664 37.1203L33.2677 37.0338L33.3676 36.9467L33.4666 36.8588L33.5649 36.7695L33.6617 36.6798L33.7578 36.589L33.8528 36.4973L33.9467 36.4049L34.0397 36.3116L34.1317 36.2174L34.2225 36.1224L34.3122 36.0267L34.4009 35.9301L34.4887 35.8327L34.5751 35.7348L34.6608 35.6357L34.7451 35.5361L34.8283 35.4358L34.9107 35.3344L34.9916 35.2329L35.0716 35.1302L35.1505 35.027L35.2282 34.923L35.3047 34.8185L35.38 34.7134L35.4544 34.6073L35.5275 34.5009L35.5994 34.3937L35.6703 34.2859L35.7397 34.1777L35.8083 34.0687L35.8755 33.9591L35.9416 33.8491L36.0064 33.7385L36.0702 33.6272L36.1325 33.5158L36.1939 33.4034L36.254 33.2908L36.3127 33.1777L36.3705 33.0638L36.4267 32.9501L36.482 32.8351L36.5358 32.7206L36.5888 32.6047L36.64 32.4892L36.6904 32.3726L36.7394 32.2562L36.7871 32.1393L36.8337 32.0219L36.879 31.9041L36.9228 31.7863L36.9658 31.6678L37.0071 31.5491L37.0473 31.4302L37.0863 31.3109L37.1241 31.1913L37.1606 31.0715L37.1958 30.9516L37.2297 30.8312L37.2623 30.7108L37.2937 30.5901L37.3238 30.4692L37.3527 30.3483L37.3803 30.2268L37.4065 30.1054L37.4316 29.9839L37.4553 29.8624L37.4778 29.7407L37.499 29.6184L37.5189 29.4967L37.5376 29.3745L37.555 29.2523L37.5711 29.1303L37.5859 29.0081L37.5995 28.8854L37.6118 28.7637L37.6229 28.6409L37.6327 28.5187L37.6411 28.3967L37.6484 28.2743L37.6544 28.1522L37.6591 28.0302L37.6625 27.9078L37.6647 27.7862L37.6656 27.6641L37.6653 27.5423L37.6638 27.4206L37.6609 27.2993L37.6569 27.1778L37.6515 27.0566L37.645 26.9358L37.6372 26.8147L37.6281 26.6939L37.618 26.5738L37.6065 26.4532L37.5937 26.3335L37.5797 26.2135L37.5646 26.0941L37.5483 25.9748L37.5307 25.8556L37.5119 25.737L37.4919 25.6187L37.4708 25.5007L37.4484 25.383L37.4247 25.2652L37.4 25.1483L37.3741 25.0317L37.347 24.9153L37.3186 24.7991L37.2893 24.6839L37.2586 24.5684L37.2269 24.4538L37.1939 24.3394L37.1599 24.2257L37.1247 24.1121L37.0883 23.999L37.0509 23.8867L37.0124 23.7747L36.9726 23.6629L36.932 23.552L36.89 23.4414L36.847 23.3315L36.8029 23.2219L36.7578 23.1128L36.7116 23.0047L36.6642 22.8967L36.6159 22.7895L36.5665 22.683L36.516 22.5767L36.4643 22.4711L36.412 22.3664L36.3582 22.262L36.3038 22.1586L36.2482 22.0558L36.1915 21.9531L36.134 21.8517L36.0753 21.7506L36.0158 21.6504L35.9551 21.5506L35.8938 21.4519L35.8312 21.3534L35.7679 21.2561L35.7035 21.1593L35.6383 21.0633L35.5719 20.9678L35.5048 20.8733L35.437 20.7797L35.3679 20.6864L35.2982 20.5943L35.2274 20.5028L35.156 20.4122L35.0835 20.3222L35.0102 20.2331L34.936 20.1448L34.8611 20.0572L34.7855 19.9708L34.7087 19.8848L34.6315 19.8L34.5532 19.7158L34.4745 19.6328L34.3945 19.5502L34.3141 19.4688L34.2327 19.3879L34.1507 19.3083L34.0681 19.2295L33.9847 19.1515L33.9004 19.0743L33.8154 18.9983L33.7299 18.9231L33.6434 18.8485L33.5568 18.7754L33.469 18.7027L33.3808 18.6313L33.2919 18.5608L33.2022 18.4909L33.1121 18.4223L33.0216 18.3548L32.93 18.2879L32.8377 18.2219L32.7455 18.1574L32.652 18.0934L32.5587 18.0308L32.4645 17.9689L32.3696 17.9079L32.2742 17.848L32.1786 17.7893L32.082 17.7313L31.9853 17.6746L31.8877 17.6186L31.7903 17.564L31.692 17.5102L31.5932 17.4573L31.494 17.4056L31.3946 17.355L31.2946 17.3052L31.1941 17.2566L31.0934 17.209L30.9925 17.1626L30.8905 17.1169L30.7889 17.0725L30.6867 17.0292L30.5839 16.9867L30.481 16.9454L30.378 16.9053L30.2745 16.8662L30.1704 16.8279L30.0665 16.791L29.962 16.7549L29.8573 16.72L29.7527 16.6862L29.6476 16.6535L29.5424 16.6218L29.4365 16.5911L29.3309 16.5616L29.225 16.5331L29.1189 16.5057L29.0127 16.4794L28.9059 16.4541L28.7995 16.4299L28.693 16.4069L28.586 16.3849L28.4788 16.3638L28.3722 16.3441L28.2649 16.3253L28.1578 16.3076L28.0502 16.2909L27.9432 16.2754L27.8354 16.2608L27.7283 16.2475L27.6208 16.2351L27.5133 16.2238L27.406 16.2137L27.2984 16.2045L27.1913 16.1965L27.0836 16.1895L26.9764 16.1836L26.8694 16.1788L26.7617 16.1749L26.6549 16.1722L26.5479 16.1706L26.441 16.17L26.368 16.1702L26.4233 20.8463L26.4564 20.8465L26.5178 20.8473L26.5793 20.8488L26.641 20.8508L26.7026 20.8536L26.7644 20.857L26.8262 20.861L26.8881 20.8657L26.95 20.871L27.012 20.8769L27.0741 20.8835L27.1361 20.8907L27.1983 20.8986L27.2603 20.9071L27.3224 20.9163L27.3846 20.9262L27.4467 20.9368L27.5088 20.9479L27.5709 20.9598L27.6329 20.9722L27.695 20.9854L27.757 20.9992L27.819 21.0137L27.8808 21.0288L27.9427 21.0445L28.0045 21.061L28.0662 21.0781L28.1278 21.0958L28.1893 21.1142L28.2508 21.1333L28.312 21.1531L28.3733 21.1736L28.4344 21.1946L28.4954 21.2163L28.5562 21.2387L28.6169 21.2618L28.6774 21.2854L28.7378 21.3098L28.798 21.3348L28.858 21.3605L28.918 21.3869L28.9776 21.4139L29.0372 21.4415L29.0965 21.4698L29.1555 21.4987L29.2145 21.5283L29.273 21.5586L29.3315 21.5895L29.3897 21.6211L29.4476 21.6533L29.5053 21.6861L29.5627 21.7195L29.6198 21.7536L29.6768 21.7884L29.7334 21.8238L29.7897 21.8599L29.8457 21.8964L29.9014 21.9337L29.9568 21.9717L30.0119 22.0102L30.0667 22.0494L30.1211 22.0891L30.1752 22.1295L30.229 22.1705L30.2823 22.2121L30.3354 22.2543L30.3881 22.2972L30.4403 22.3406L30.4923 22.3846L30.5438 22.4292L30.5949 22.4744L30.6457 22.5203L30.696 22.5667L30.7459 22.6137L30.7953 22.6612L30.8444 22.7094L30.8929 22.7581L30.9411 22.8074L30.9889 22.8572L31.0361 22.9076L31.0829 22.9586L31.1292 23.0101L31.1751 23.0621L31.2204 23.1148L31.2652 23.1679L31.3097 23.2216L31.3535 23.2758L31.3968 23.3305L31.4397 23.3858L31.482 23.4416L31.5239 23.4979L31.5651 23.5547L31.6057 23.612L31.646 23.6698L31.6856 23.7281L31.7246 23.787L31.7631 23.8462L31.8011 23.906L31.8383 23.9662L31.8751 24.0269L31.9113 24.0881L31.9468 24.1496L31.9818 24.2117L32.0161 24.2742L32.0499 24.3371L32.0831 24.4006L32.1156 24.4643L32.1475 24.5285L32.1787 24.5932L32.2093 24.6583L32.2392 24.7237L32.2686 24.7896L32.2973 24.8559L32.3253 24.9225L32.3527 24.9895L32.3793 25.0569L32.4053 25.1246L32.4306 25.1927L32.4553 25.2612L32.4792 25.3301L32.5025 25.3992L32.525 25.4687L32.5468 25.5386L32.568 25.6087L32.5884 25.6791L32.6081 25.75L32.6271 25.8209L32.6455 25.8923L32.6629 25.964L32.6798 26.036L32.6958 26.1081L32.7112 26.1806L32.7258 26.2533L32.7396 26.3262L32.7527 26.3995L32.7651 26.4729L32.7767 26.5465L32.7875 26.6204L32.7975 26.6945L32.8068 26.7688L32.8153 26.8434L32.8231 26.9181L32.8301 26.9929L32.8362 27.0679L32.8417 27.1433L32.8463 27.2186L32.8501 27.2941L32.8531 27.3698L32.8554 27.4456L32.8568 27.5215L32.8575 27.5976L32.8573 27.6736L32.8564 27.7499L32.8547 27.8263L32.8521 27.9027L32.8488 27.9793L32.8445 28.0558L32.8396 28.1325L32.8338 28.2092L32.8271 28.286L32.8197 28.3628L32.8115 28.4395L32.8023 28.5163L32.7924 28.5933L32.7818 28.6702L32.7703 28.747L32.7579 28.8238L32.7446 28.9005L32.7306 28.9773L32.7158 29.0541L32.7002 29.1308L32.6836 29.2075L32.6663 29.284L32.6482 29.3605L32.6291 29.437L32.6093 29.5134L32.5888 29.5896L32.5672 29.6657L32.5449 29.7417L32.5218 29.8176L32.4979 29.8934L32.4731 29.9689L32.4475 30.0445L32.4211 30.1198L32.3938 30.1949L32.3657 30.2699L32.3368 30.3446L32.3071 30.4193L32.2765 30.4936L32.2452 30.5678L32.213 30.6417L32.1799 30.7156L32.1461 30.789L32.1115 30.8622L32.0759 30.9353L32.0398 31.008L32.0026 31.0804L31.9648 31.1526L31.926 31.2245L31.8865 31.2961L31.8463 31.3674L31.8052 31.4384L31.7632 31.5091L31.7206 31.5793L31.677 31.6494L31.6328 31.719L31.5878 31.7883L31.5418 31.8573L31.4953 31.9258L31.4479 31.994L31.3997 32.0618L31.3507 32.1291L31.301 32.1961L31.2505 32.2627L31.1993 32.3288L31.1473 32.3946L31.0945 32.4598L31.041 32.5246L30.9868 32.589L30.9318 32.6529L30.876 32.7163L30.8195 32.7793L30.7623 32.8418L30.7044 32.9037L30.6458 32.9652L30.5864 33.0262L30.5264 33.0867L30.4656 33.1465L30.4042 33.206L30.3419 33.2648L30.279 33.323L30.2155 33.3807L30.1512 33.4379L30.0863 33.4945L30.0207 33.5505L29.9545 33.6059L29.8875 33.6608L29.8199 33.715L29.7517 33.7685L29.6828 33.8215L29.6134 33.8739L29.5432 33.9257L29.4725 33.9767L29.4011 34.0271L29.3291 34.077L29.2564 34.1261L29.1833 34.1746L29.1095 34.2223L29.0351 34.2695L28.9601 34.316L28.8845 34.3617L28.8084 34.4066L28.7317 34.451L28.6545 34.4946L28.5766 34.5374L28.4984 34.5797L28.4195 34.621L28.3401 34.6618L28.2602 34.7017L28.1798 34.7409L28.0988 34.7793L28.0174 34.817L27.9355 34.8539L27.8531 34.8899L27.7703 34.9253L27.6869 34.9599L27.6031 34.9936L27.5188 35.0265L27.4341 35.0587L27.3489 35.0901L27.2634 35.1207L27.1775 35.1504L27.091 35.1793L27.0042 35.2074L26.9171 35.2345L26.8296 35.2609L26.7415 35.2865L26.6532 35.3112L26.5646 35.3351L26.4756 35.358L26.3862 35.3801L26.2964 35.4013L26.2064 35.4218L26.116 35.4412L26.0254 35.4599L25.9344 35.4776L25.8432 35.4945L25.7517 35.5104L25.6598 35.5256L25.5678 35.5397L25.4755 35.5529L25.383 35.5653L25.2901 35.5768L25.1971 35.5874L25.1039 35.5969L25.0104 35.6057L24.9168 35.6134L24.823 35.6203L24.7289 35.6261L24.6348 35.6312L24.5405 35.6353L24.446 35.6384L24.3513 35.6405L24.2566 35.6417L24.1617 35.6421L24.0668 35.6415L23.9717 35.6399L23.8765 35.6373L23.7813 35.6338L23.6859 35.6293L23.5905 35.6239L23.495 35.6176L23.3996 35.6103L23.3041 35.602L23.2085 35.5927L23.1131 35.5825L23.0175 35.5713L22.922 35.5591L22.8265 35.546L22.731 35.532L22.6355 35.5169L22.5402 35.5009L22.4449 35.4839L22.3497 35.466L22.2545 35.4472L22.1594 35.4272L22.0644 35.4064L21.9696 35.3845L21.8749 35.3617L21.7801 35.338L21.6857 35.3133L21.5915 35.2875L21.4972 35.2609L21.4034 35.2333L21.3096 35.2046L21.216 35.175L21.1226 35.1446L21.0294 35.1131L20.9365 35.0807L20.8438 35.0472L20.7513 35.0128L20.6592 34.9775L20.5672 34.9412L20.4756 34.9039L20.3842 34.8658L20.2932 34.8266L20.2025 34.7865L20.1119 34.7455L20.0219 34.7035L19.9321 34.6605L19.8427 34.6167L19.7536 34.5719L19.665 34.5261L19.5767 34.4795L19.4888 34.4319L19.4013 34.3833L19.3143 34.3339L19.2275 34.2835L19.1413 34.2322L19.0555 34.1801L18.9702 34.127L18.8853 34.073L18.8008 34.0181L18.7169 33.9622L18.6334 33.9055L18.5506 33.8479L18.4681 33.7894L18.3862 33.7301L18.3048 33.6698L18.224 33.6087L18.1438 33.5468L18.064 33.4839L17.9849 33.4202L17.9063 33.3557L17.8283 33.2903L17.7509 33.224L17.6742 33.1569L17.598 33.089L17.5225 33.0203L17.4476 32.9507L17.3733 32.8803L17.2998 32.8091L17.2267 32.7372L17.1545 32.6643L17.083 32.5908L17.012 32.5163L16.9418 32.4413L16.8724 32.3652L16.8037 32.2885L16.7356 32.2111L16.6683 32.1329L16.6017 32.054L16.5359 31.9742L16.4709 31.8937L16.4066 31.8126L16.3431 31.7307L16.2803 31.6481L16.2184 31.5647L16.1574 31.4807L16.0971 31.396L16.0375 31.3106L15.9789 31.2245L15.921 31.1378L15.8641 31.0503L15.808 30.9623L15.7527 30.8736L15.6983 30.7843L15.6447 30.6942L15.5921 30.6037L15.5403 30.5124L15.4894 30.4206L15.4394 30.3282L15.3904 30.2352L15.3422 30.1416L15.2949 30.0475L15.2486 29.9528L15.2033 29.8575L15.1589 29.7617L15.1154 29.6654L15.0729 29.5685L15.0313 29.471L14.9907 29.3732L14.9511 29.2747L14.9125 29.1759L14.8748 29.0764L14.8383 28.9766L14.8027 28.8763L14.768 28.7756L14.7343 28.6744L14.7018 28.5727L14.6702 28.4706L14.6396 28.3682L14.61 28.2653L14.5815 28.162L14.5542 28.0583L14.5277 27.9543L14.5024 27.8499L14.4782 27.7452L14.4549 27.64L14.4327 27.5346L14.4117 27.4289L14.3916 27.3228L14.3727 27.2165L14.3549 27.1098L14.3381 27.0029L14.3224 26.8957L14.3078 26.7883L14.2944 26.6805L14.2821 26.5726L14.2708 26.4644L14.2606 26.356L14.2516 26.2474L14.2437 26.1386L14.2369 26.0296L14.2312 25.9205L14.2266 25.8113L14.2231 25.7018L14.2209 25.5922L14.2198 25.4826L14.2197 25.3727L14.2208 25.2627L14.2231 25.1527L14.2265 25.0426L14.231 24.9324L14.2367 24.8222L14.2436 24.7119L14.2515 24.6016L14.2606 24.4912L14.2709 24.3809L14.2823 24.2705L14.2949 24.1601L14.3087 24.0498L14.3235 23.9396L14.3396 23.8293L14.3568 23.7191L14.3753 23.609L14.3947 23.4989L14.4154 23.3889L14.4373 23.279L14.4603 23.1693L14.4845 23.0597L14.5097 22.9502L14.5362 22.8409L14.5638 22.7317L14.5927 22.6227L14.6227 22.514L14.6537 22.4053L14.6859 22.2968L14.7193 22.1887L14.7539 22.0807L14.7895 21.9729L14.8264 21.8656L14.8644 21.7583L14.9036 21.6514L14.9438 21.5448L14.9853 21.4385L15.0279 21.3325L15.0716 21.2267L15.1164 21.1214L15.1623 21.0164L15.2095 20.9117L15.2577 20.8074L15.3071 20.7035L15.3575 20.6001L15.4091 20.4969L15.4617 20.3943L15.5156 20.2921L15.5704 20.1903L15.6265 20.0889L15.6836 19.988L15.7418 19.8876L15.8011 19.7877L15.8615 19.6883L15.9229 19.5893L15.9855 19.491L16.0492 19.393L16.1138 19.2956L16.1795 19.1989L16.2464 19.1027L16.3142 19.0071L16.3832 18.9121L16.4532 18.8175L16.5241 18.7237L16.5962 18.6305L16.6692 18.5379L16.7434 18.446L16.8185 18.3546L16.8945 18.264L16.9717 18.174L17.0498 18.0847L17.1289 17.9961L17.209 17.9082L17.2901 17.8211L17.3722 17.7347L17.4553 17.649L17.5392 17.564L17.6241 17.4798L17.7101 17.3963L17.7969 17.3137L17.8846 17.2318L17.9733 17.1507L18.0628 17.0704L18.1533 16.9909L18.2448 16.9124L18.337 16.8345L18.4303 16.7576L18.5242 16.6815L18.6192 16.6062L18.7149 16.5319L18.8116 16.4584L18.909 16.3859L19.0073 16.3141L19.1065 16.2434L19.2064 16.1736L19.3072 16.1046L19.4088 16.0366L19.5111 15.9696L19.6142 15.9036L19.7182 15.8384L19.8229 15.7742L19.9283 15.7111L20.0344 15.6489L20.1414 15.5877L20.249 15.5275L20.3573 15.4683L20.4664 15.4102L20.5761 15.3531L20.6865 15.297L20.7976 15.242L20.9094 15.188L21.0218 15.1351L21.1349 15.0832L21.2485 15.0325L21.3628 14.9828L21.4778 14.9341L21.5933 14.8866L21.7093 14.8402L21.8261 14.7949L21.9433 14.7507L22.0611 14.7076L22.1794 14.6657L22.2984 14.6248L22.4178 14.5852L22.5377 14.5467L22.6581 14.5093L22.779 14.4731L22.9004 14.4381L23.0222 14.4043L23.1445 14.3716L23.2672 14.34L23.3904 14.3096L23.514 14.2805L23.638 14.2527L23.7623 14.2259L23.8871 14.2004L24.0122 14.1761L24.0749 14.1645ZM25.6125 23.1569L24.1855 23.498L24.1017 16.4264L24.0345 16.4415L23.9332 16.4654L23.832 16.4903L23.7316 16.516L23.6313 16.5428L23.5317 16.5705L23.432 16.5994L23.3333 16.6289L23.2344 16.6596L23.1367 16.6909L23.0388 16.7235L22.9415 16.7569L22.8447 16.7912L22.7482 16.8264L22.6526 16.8625L22.5572 16.8996L22.4622 16.9375L22.3679 16.9763L22.2736 17.0162L22.1807 17.0565L22.0877 17.0982L21.9956 17.1404L21.9036 17.1837L21.8125 17.2277L21.7216 17.2727L21.6317 17.3184L21.5422 17.3649L21.4533 17.4124L21.365 17.4606L21.2772 17.5096L21.1901 17.5595L21.1039 17.6101L21.0176 17.6617L20.9324 17.7139L20.848 17.7669L20.764 17.8206L20.6806 17.8752L20.598 17.9306L20.5161 17.9867L20.4347 18.0434L20.3542 18.1009L20.2741 18.1592L20.1949 18.2183L20.1164 18.278L20.0385 18.3385L19.9615 18.3994L19.8853 18.4612L19.8095 18.5238L19.7345 18.587L19.6604 18.6507L19.587 18.7152L19.5143 18.7803L19.4424 18.846L19.3712 18.9125L19.3009 18.9796L19.2313 19.0471L19.1623 19.1154L19.0944 19.1842L19.0271 19.2537L18.9608 19.3235L18.8949 19.3944L18.8302 19.4653L18.7662 19.537L18.7029 19.6094L18.6406 19.682L18.579 19.7554L18.5184 19.829L18.4584 19.9035L18.3994 19.9782L18.3411 20.0536L18.2838 20.1296L18.2273 20.2057L18.1716 20.2824L18.1169 20.3596L18.0629 20.4374L18.0098 20.5154L17.9577 20.594L17.9064 20.6728L17.856 20.7521L17.8064 20.832L17.7579 20.912L17.7099 20.9927L17.6631 21.0734L17.6171 21.1547L17.5719 21.2364L17.5278 21.3182L17.4845 21.4005L17.4421 21.4831L17.4005 21.5662L17.3601 21.6492L17.3203 21.7329L17.2816 21.8166L17.2438 21.9007L17.2068 21.9851L17.1708 22.0698L17.1357 22.1545L17.1015 22.2397L17.0684 22.3251L17.0359 22.4107L17.0046 22.4962L16.9741 22.5823L16.9446 22.6685L16.916 22.7549L16.8882 22.8413L16.8615 22.9281L16.8356 23.015L16.8108 23.1018L16.7868 23.189L16.7637 23.2763L16.7416 23.3636L16.7205 23.4511L16.7002 23.5386L16.6808 23.6263L16.6625 23.7141L16.6451 23.8018L16.6285 23.8896L16.6129 23.9777L16.5983 24.0655L16.5845 24.1535L16.5716 24.2416L16.5598 24.3295L16.5489 24.4176L16.5388 24.5055L16.5297 24.5935L16.5215 24.6817L16.5142 24.7695L16.5079 24.8575L16.5024 24.9454L16.4979 25.0331L16.4943 25.1208L16.4915 25.2083L16.4898 25.296L16.4888 25.3835L16.4889 25.4708L16.4898 25.558L16.4917 25.6452L16.4944 25.7321L16.498 25.819L16.5024 25.9057L16.5079 25.9921L16.5142 26.0784L16.5214 26.1647L16.5294 26.2506L16.5383 26.3366L16.5481 26.4219L16.5588 26.5075L16.5703 26.5925L16.5828 26.6775L16.596 26.7621L16.6102 26.8466L16.6251 26.931L16.641 27.0148L16.6577 27.0985L16.6751 27.1818L16.6936 27.265L16.7128 27.3477L16.7328 27.4304L16.7536 27.5123L16.7754 27.5945L16.7978 27.6758L16.8211 27.7572L16.8453 27.838L16.8701 27.9186L16.8959 27.9987L16.9224 28.0784L16.9498 28.158L16.9779 28.237L17.0067 28.3156L17.0363 28.394L17.0668 28.4719L17.098 28.5493L17.1299 28.6263L17.1625 28.7029L17.196 28.7792L17.2302 28.855L17.2651 28.9303L17.3008 29.0051L17.337 29.0794L17.3743 29.1536L17.4119 29.2269L17.4504 29.2999L17.4897 29.3724L17.5297 29.4444L17.5703 29.516L17.6115 29.5871L17.6535 29.6574L17.6962 29.7275L17.7394 29.797L17.7834 29.8659L17.8281 29.9344L17.8732 30.0023L17.9192 30.0698L17.9656 30.1363L18.0128 30.2027L18.0606 30.2683L18.1089 30.3333L18.158 30.398L18.2075 30.4619L18.2577 30.5252L18.3084 30.588L18.3598 30.6503L18.4116 30.7117L18.4642 30.7728L18.5172 30.8332L18.5707 30.8929L18.625 30.9521L18.6795 31.0105L18.7347 31.0685L18.7904 31.1258L18.8465 31.1824L18.9033 31.2384L18.9605 31.2937L19.0182 31.3485L19.0764 31.4025L19.1351 31.4558L19.1943 31.5086L19.2538 31.5606L19.3139 31.612L19.3743 31.6628L19.4352 31.7129L19.4966 31.7623L19.5585 31.8109L19.6206 31.8589L19.6832 31.9062L19.7462 31.9529L19.8096 31.9988L19.8734 32.044L19.9375 32.0886L20.002 32.1325L20.0669 32.1756L20.132 32.2179L20.1975 32.2597L20.2636 32.3008L20.3297 32.3409L20.3962 32.3806L20.4632 32.4195L20.5302 32.4575L20.5975 32.4949L20.6655 32.5317L20.7335 32.5676L20.8017 32.6028L20.8702 32.6372L20.9391 32.671L21.008 32.704L21.0774 32.7363L21.1469 32.7679L21.2164 32.7986L21.2865 32.8287L21.3567 32.858L21.4269 32.8867L21.4975 32.9145L21.5682 32.9415L21.6393 32.9679L21.7101 32.9935L21.7815 33.0184L21.8527 33.0425L21.9241 33.0659L21.9958 33.0885L22.0676 33.1105L22.1394 33.1315L22.2114 33.152L22.2836 33.1715L22.3557 33.1905L22.4279 33.2086L22.5002 33.226L22.5725 33.2426L22.6449 33.2585L22.7175 33.2737L22.7901 33.2881L22.8626 33.3018L22.9352 33.3147L23.0078 33.327L23.0805 33.3384L23.1532 33.3491L23.2256 33.359L23.2983 33.3682L23.3708 33.3768L23.4435 33.3846L23.5161 33.3915L23.5886 33.3978L23.661 33.4034L23.7333 33.4082L23.8058 33.4123L23.878 33.4156L23.95 33.4184L24.0223 33.4202L24.0941 33.4215L24.1659 33.422L24.2377 33.4217L24.3093 33.4208L24.381 33.4191L24.4524 33.4168L24.5235 33.4138L24.5946 33.4099L24.6658 33.4055L24.7363 33.4003L24.807 33.3945L24.8773 33.3879L24.9477 33.3807L25.0177 33.3727L25.0874 33.3641L25.1573 33.3548L25.2266 33.3448L25.2957 33.3341L25.3649 33.3229L25.4336 33.3109L25.5021 33.2982L25.5704 33.2849L25.6385 33.2709L25.7061 33.2562L25.7735 33.241L25.8408 33.225L25.9078 33.2084L25.9744 33.1913L26.0408 33.1735L26.1068 33.155L26.1727 33.1359L26.2381 33.1162L26.303 33.0958L26.3681 33.0748L26.4325 33.0532L26.4966 33.0312L26.5604 33.0084L26.6238 32.985L26.687 32.961L26.7498 32.9364L26.8121 32.9113L26.8741 32.8857L26.9358 32.8593L26.9972 32.8324L27.0579 32.805L27.1185 32.777L27.1786 32.7485L27.2381 32.7194L27.2976 32.6898L27.3562 32.6597L27.4148 32.629L27.4729 32.5977L27.5304 32.566L27.5875 32.5338L27.6443 32.501L27.7007 32.4676L27.7564 32.4338L27.8117 32.3995L27.8667 32.3647L27.9212 32.3295L27.9753 32.2937L28.0288 32.2576L28.0819 32.2208L28.1345 32.1836L28.1865 32.1461L28.2381 32.108L28.2893 32.0694L28.3399 32.0304L28.39 31.991L28.4398 31.9512L28.4888 31.911L28.5375 31.8704L28.5855 31.8293L28.6331 31.7878L28.6802 31.7459L28.7268 31.7036L28.7729 31.661L28.8182 31.618L28.8632 31.5745L28.9077 31.5307L28.9516 31.4866L28.995 31.4421L29.0377 31.3971L29.0799 31.3521L29.1217 31.3064L29.1627 31.2606L29.2035 31.2143L29.2434 31.1678L29.2828 31.1211L29.3219 31.0737L29.3601 31.0264L29.398 30.9786L29.4352 30.9307L29.4718 30.8824L29.5079 30.8337L29.5433 30.785L29.5782 30.7357L29.6126 30.6863L29.6463 30.6369L29.6795 30.5869L29.7122 30.5368L29.744 30.4865L29.7755 30.436L29.8063 30.3852L29.8365 30.3342L29.8662 30.283L29.8952 30.2316L29.9237 30.1801L29.9515 30.1282L29.9787 30.0764L30.0054 30.0243L30.0315 29.972L30.057 29.9196L30.0819 29.8669L30.1061 29.8142L30.1298 29.7614L30.1528 29.7085L30.1754 29.6552L30.1971 29.6021L30.2186 29.5484L30.2391 29.4953L30.2593 29.4413L30.2786 29.3882L30.2976 29.3342L30.3159 29.2802L30.3335 29.2264L30.3505 29.1724L30.367 29.1185L30.383 29.064L30.3981 29.0103L30.4129 28.9557L30.4269 28.9019L30.4404 28.8474L30.4533 28.7929L30.4656 28.7388L30.4772 28.6848L30.4883 28.63L30.4989 28.5759L30.5088 28.5213L30.5181 28.4673L30.5268 28.413L30.535 28.3587L30.5426 28.3043L30.5495 28.25L30.5559 28.196L30.5618 28.1422L30.567 28.0878L30.5717 28.0339L30.5758 27.9799L30.5792 27.926L30.5822 27.8723L30.5845 27.8186L30.5863 27.7653L30.5875 27.7115L30.5883 27.6579L30.5884 27.6047L30.5879 27.5516L30.5869 27.4986L30.5853 27.4457L30.5832 27.3926L30.5805 27.3404L30.5772 27.2872L30.5735 27.2353L30.5692 27.1831L30.5644 27.1306L30.5589 27.0787L30.5531 27.0273L30.5465 26.9752L30.5396 26.9241L30.532 26.8727L30.5241 26.8221L30.5155 26.7709L30.5064 26.7202L30.4969 26.6699L30.4869 26.6197L30.4762 26.5694L30.4651 26.5198L30.4536 26.4701L30.4414 26.4208L30.4289 26.3719L30.4157 26.3226L30.4023 26.2743L30.3882 26.2255L30.3737 26.1775L30.3587 26.1296L30.3432 26.082L30.3273 26.0346L30.3108 25.9873L30.2941 25.9407L30.2768 25.8943L30.2589 25.8477L30.2407 25.8019L30.222 25.7558L30.2031 25.7108L30.1834 25.6654L30.1636 25.6207L30.1432 25.5763L30.1224 25.532L30.1012 25.4881L30.0795 25.4445L30.0575 25.4012L30.0351 25.3583L30.0122 25.3157L29.989 25.2735L29.9654 25.2315L29.9412 25.1899L29.917 25.1487L29.8922 25.1078L29.8669 25.067L29.8414 25.027L29.8156 24.9871L29.7893 24.9476L29.7627 24.9084L29.7358 24.8697L29.7085 24.8312L29.6809 24.7932L29.6529 24.7555L29.6245 24.7182L29.5961 24.6813L29.567 24.6447L29.5377 24.6086L29.5082 24.5728L29.4783 24.5374L29.4481 24.5024L29.4178 24.4678L29.3869 24.4336L29.3559 24.3998L29.3245 24.3662L29.293 24.3333L29.261 24.3007L29.2288 24.2684L29.1965 24.2367L29.1638 24.2054L29.131 24.1744L29.0976 24.1437L29.0644 24.1136L29.0307 24.0837L28.9969 24.0545L28.9628 24.0255L28.9285 23.9971L28.8939 23.969L28.8593 23.9414L28.8244 23.9142L28.7892 23.8873L28.7539 23.861L28.7184 23.835L28.6826 23.8095L28.6468 23.7845L28.6108 23.7597L28.5746 23.7356L28.5382 23.7118L28.5016 23.6884L28.4651 23.6655L28.428 23.6429L28.3911 23.6209L28.3541 23.5993L28.3169 23.5781L28.2794 23.5573L28.242 23.537L28.2044 23.5171L28.1667 23.4976L28.129 23.4787L28.0909 23.46L28.053 23.4419L28.0149 23.4243L27.9768 23.407L27.9385 23.3901L27.9 23.3736L27.8619 23.3578L27.8232 23.3423L27.7846 23.3272L27.7461 23.3126L27.7075 23.2983L27.6689 23.2846L27.6301 23.2712L27.5913 23.2582L27.5527 23.2458L27.5138 23.2337L27.475 23.222L27.4363 23.2109L27.3972 23.2001L27.3586 23.1898L27.3197 23.1799L27.2808 23.1704L27.242 23.1614L27.2032 23.1527L27.1643 23.1445L27.1256 23.1367L27.087 23.1293L27.0483 23.1223L27.0094 23.1158L26.9711 23.1097L26.9322 23.104L26.8939 23.0987L26.8553 23.0937L26.8169 23.0893L26.7788 23.0852L26.7404 23.0816L26.7023 23.0782L26.6641 23.0754L26.6261 23.0729L26.5881 23.0708L26.5502 23.0692L26.5127 23.068L26.475 23.067L26.4375 23.0665L26.3999 23.0664L26.3627 23.0667L26.3254 23.0673L26.2884 23.0683L26.2514 23.0698L26.2147 23.0716L26.1778 23.0738L26.1414 23.0763L26.105 23.0791L26.0688 23.0825L26.0327 23.0861L25.9966 23.09L25.9609 23.0944L25.9253 23.0991L25.8898 23.1041L25.8544 23.1096L25.8194 23.1153L25.7844 23.1214L25.7498 23.1278L25.715 23.1346L25.6807 23.1417L25.6464 23.1491L25.6125 23.1569Z" fill="black"/>
</svg>
