<?xml version="1.0" encoding="UTF-8" standalone="no"?><svg width="164" height="44" viewBox="0 0 164 44" fill="none" xmlns="http://www.w3.org/2000/svg">
<path d="M47.6777 13.9466H51.652V30.048H47.6777V13.9466ZM53.2367 23.9914C53.2367 20.0032 55.7129 17.6127 59.4272 17.6127C63.1414 17.6127 65.6176 20.0032 65.6176 23.9914C65.6176 27.9796 63.2281 30.3948 59.4272 30.3948C55.6262 30.3948 53.2367 28.0663 53.2367 23.9914ZM61.6805 23.9914C61.6805 21.7991 60.8262 20.511 59.4643 20.511C58.1024 20.511 57.2605 21.7496 57.2605 23.9914C57.2605 26.2332 58.1024 27.4594 59.4643 27.4594C60.8262 27.4594 61.7052 26.2332 61.7052 24.0038L61.6805 23.9914ZM67.2023 30.8779H71.0404C71.2151 31.2912 71.5203 31.6361 71.9093 31.8597C72.2983 32.0834 72.7497 32.1736 73.1947 32.1165C74.7175 32.1165 75.5099 31.299 75.5099 30.0852V27.8558H75.5223C75.1943 28.55 74.6639 29.1285 74.001 29.5154C73.338 29.9024 72.5735 30.0794 71.808 30.0233C68.8985 30.0233 66.9671 27.8062 66.9671 23.9914C66.9671 20.1766 68.8118 17.7985 71.9194 17.7985C72.7045 17.7565 73.4834 17.959 74.1485 18.3783C74.8137 18.7976 75.3326 19.4129 75.6337 20.1394H75.5223V17.8976H79.4594V29.9613C79.4594 32.872 76.8842 34.6927 73.0956 34.6927C69.6537 34.6803 67.4499 33.1073 67.2271 30.8903L67.2023 30.8779ZM75.5223 23.9914C75.5223 22.0468 74.6308 20.8206 73.2194 20.8206C71.808 20.8206 70.9413 22.0592 70.9413 23.9914C70.9413 25.9236 71.7956 27.0631 73.2194 27.0631C74.6432 27.0631 75.5223 26.0103 75.5223 23.9914ZM81.0317 23.9914C81.0317 20.0032 83.5079 17.6127 87.2222 17.6127C90.9364 17.6127 93.4126 20.0032 93.4126 23.9914C93.4126 27.9796 91.0107 30.3948 87.2222 30.3948C83.4336 30.3948 81.0565 28.0663 81.0565 23.9914H81.0317ZM89.4755 23.9914C89.4755 21.7991 88.6088 20.511 87.2593 20.511C85.9098 20.511 85.0555 21.7496 85.0555 23.9914C85.0555 26.2332 85.8974 27.4594 87.2593 27.4594C88.6212 27.4594 89.5002 26.2332 89.5002 24.0038L89.4755 23.9914ZM95.0221 14.9622C95.0048 14.5572 95.109 14.1562 95.3213 13.8111C95.5337 13.4657 95.8444 13.192 96.2136 13.0249C96.5828 12.8577 96.9935 12.805 97.3929 12.8733C97.7923 12.9416 98.1621 13.1279 98.4548 13.4081C98.7475 13.6886 98.9497 14.05 99.0354 14.4462C99.1209 14.8424 99.0861 15.2552 98.9353 15.6314C98.7845 16.0077 98.5246 16.3302 98.1891 16.5575C97.8536 16.7848 97.4578 16.9064 97.0526 16.9068C96.7937 16.9133 96.5359 16.8684 96.2945 16.7746C96.0531 16.6807 95.8325 16.5398 95.646 16.36C95.4594 16.1803 95.3103 15.9653 95.2076 15.7274C95.1047 15.4896 95.0501 15.2337 95.0469 14.9746L95.0221 14.9622ZM95.0221 17.8852H99.0459V30.0976H95.084L95.0221 17.8852ZM113.519 23.9914C113.519 27.9672 111.736 30.271 108.703 30.271C107.926 30.3189 107.154 30.1272 106.49 29.7219C105.825 29.3165 105.302 28.7171 104.989 28.0044H104.914V34.0239H100.94V17.9224H104.89V20.1023H104.964C105.266 19.3756 105.785 18.7597 106.449 18.3385C107.114 17.9174 107.892 17.7116 108.678 17.749C111.798 17.7242 113.593 20.0156 113.593 24.0038L113.519 23.9914ZM109.471 23.9914C109.471 22.0592 108.567 20.8083 107.168 20.8083C105.769 20.8083 104.89 22.0468 104.877 23.9914C104.865 25.936 105.769 27.1622 107.168 27.1622C108.567 27.1622 109.545 26.0103 109.545 24.0038L109.471 23.9914ZM120.304 17.6004C123.634 17.6004 125.702 19.1733 125.727 21.7H122.099C122.099 20.8207 121.369 20.2757 120.279 20.2757C119.19 20.2757 118.67 20.6968 118.67 21.3285C118.67 21.9601 119.128 22.1583 120.044 22.3441L122.594 22.8643C125.07 23.3845 126.061 24.3754 126.061 26.2208C126.061 28.698 123.77 30.3825 120.366 30.3825C116.961 30.3825 114.745 28.7475 114.584 26.258H118.434C118.546 27.1622 119.264 27.6947 120.428 27.6947C121.591 27.6947 122.136 27.3232 122.136 26.6667C122.136 26.0103 121.765 25.8988 120.811 25.7006L118.509 25.2176C116.119 24.7098 114.869 23.4588 114.869 21.5886C114.943 19.161 117.023 17.6127 120.378 17.6127L120.304 17.6004ZM139.37 30.0852H135.52V27.7938H135.446C135.23 28.5582 134.761 29.2261 134.115 29.6876C133.468 30.1492 132.685 30.3768 131.892 30.3329C131.294 30.3524 130.698 30.2451 130.144 30.0179C129.591 29.7909 129.09 29.4492 128.678 29.0153C128.265 28.5813 127.949 28.065 127.75 27.5002C127.55 26.9354 127.472 26.3347 127.522 25.7378V17.8976H131.496V24.8832C131.496 26.3199 132.251 27.1002 133.489 27.1002C133.78 27.098 134.066 27.0335 134.33 26.9111C134.594 26.7886 134.828 26.611 135.016 26.3903C135.205 26.1696 135.345 25.9108 135.426 25.6316C135.505 25.3523 135.525 25.0592 135.483 24.7717V17.8976H139.445L139.37 30.0852ZM141.289 17.8852H145.152V20.2385H145.239C145.452 19.4846 145.91 18.8228 146.539 18.3566C147.169 17.8906 147.935 17.6463 148.718 17.6623C149.504 17.5939 150.288 17.8213 150.914 18.3C151.542 18.7787 151.968 19.4744 152.11 20.2509H152.284C152.531 19.4702 153.029 18.7932 153.701 18.3252C154.372 17.857 155.181 17.624 155.998 17.6623C156.541 17.6416 157.084 17.736 157.587 17.9392C158.093 18.1424 158.548 18.4499 158.926 18.8417C159.303 19.2333 159.593 19.7004 159.778 20.2121C159.963 20.7239 160.038 21.2689 159.997 21.8115V30.0976H155.998V22.8271C155.998 21.5886 155.416 20.895 154.289 20.895C154.039 20.8909 153.791 20.9409 153.562 21.0415C153.333 21.1422 153.13 21.2912 152.964 21.4782C152.799 21.6654 152.675 21.8859 152.602 22.1252C152.53 22.3645 152.51 22.6166 152.544 22.8643V30.0976H148.755V22.79C148.755 21.5514 148.148 20.895 147.059 20.895C146.806 20.893 146.556 20.945 146.326 21.0476C146.094 21.1502 145.889 21.301 145.72 21.4899C145.553 21.6787 145.428 21.9013 145.354 22.1426C145.278 22.384 145.256 22.6385 145.288 22.8891V30.0976H141.314L141.289 17.8852Z" fill="black"/>
<path d="M39.816 14.9989C39.8161 12.5338 39.072 10.1261 37.6811 8.09119C36.2903 6.05628 34.3174 4.48905 32.0211 3.5948C29.7248 2.70054 27.212 2.52094 24.812 3.07953C22.4118 3.63811 20.2364 4.90884 18.5704 6.72526H3.11914V39.3493H35.7427V24.1025C37.0231 22.9568 38.0477 21.5539 38.7496 19.9852C39.4515 18.4165 39.8148 16.7176 39.816 14.9989ZM33.5389 14.9989C33.5413 16.1802 33.1934 17.3356 32.5392 18.3191C31.8849 19.3024 30.9539 20.0696 29.8636 20.5232C28.7733 20.9771 27.5732 21.0971 26.4147 20.8681C25.2563 20.6392 24.1918 20.0715 23.356 19.2371C22.5202 18.4027 21.9506 17.339 21.7194 16.1805C21.4881 15.0222 21.6056 13.8212 22.0569 12.7296C22.5081 11.638 23.273 10.7049 24.2546 10.0484C25.2363 9.39185 26.3905 9.04141 27.5713 9.0414C29.1518 9.0414 30.6679 9.66868 31.7866 10.7856C32.9055 11.9025 33.5356 13.4178 33.5389 14.9989ZM29.4656 33.0698H9.39623V13.0048H15.5123C15.3942 13.6631 15.3321 14.3302 15.3266 14.9989C15.33 18.2467 16.6211 21.3605 18.9167 23.6571C21.2122 25.9535 24.3248 27.2452 27.5713 27.2485C28.2061 27.2451 28.8395 27.1912 29.4656 27.0874V33.0698Z" fill="black"/>
</svg>
