<?xml version="1.0" encoding="UTF-8" standalone="no"?><svg width="124" height="64" viewBox="0 0 124 64" fill="none" xmlns="http://www.w3.org/2000/svg">
<path d="M3.20117 36.5586H6.70857V53.7633H3.20117V36.5586Z" fill="black"/>
<path d="M8.74247 47.8682C8.74015 46.6325 9.10434 45.4237 9.78894 44.3951C10.4735 43.3665 11.4478 42.5641 12.5884 42.0896C13.7289 41.6151 14.9846 41.4898 16.1964 41.7294C17.4082 41.9691 18.5218 42.563 19.396 43.4361C20.2703 44.309 20.8661 45.4219 21.1079 46.6337C21.3498 47.8455 21.2269 49.1019 20.7547 50.2439C20.2824 51.3857 19.4823 52.3619 18.4553 53.0486C17.4284 53.7356 16.2209 54.1021 14.9857 54.1021C14.1641 54.1115 13.349 53.9568 12.5881 53.6469C11.8272 53.3371 11.1358 52.8785 10.5543 52.2978C9.97285 51.7173 9.51309 51.0264 9.20197 50.2657C8.89085 49.5051 8.73463 48.69 8.74247 47.8682ZM17.6979 47.8682C17.6842 47.3347 17.5135 46.8171 17.2072 46.3803C16.9009 45.9433 16.4726 45.6065 15.9759 45.4118C15.4792 45.2171 14.9362 45.1734 14.4148 45.2859C13.8933 45.3983 13.4166 45.6622 13.0442 46.0443C12.6719 46.4264 12.4205 46.9099 12.3214 47.4343C12.2223 47.9586 12.2799 48.5006 12.4871 48.9923C12.6943 49.484 13.0419 49.9038 13.4862 50.1989C13.9307 50.4941 14.4522 50.6516 14.9857 50.6518C15.3505 50.662 15.7137 50.5965 16.052 50.4593C16.3904 50.322 16.6967 50.1162 16.9516 49.8546C17.2064 49.593 17.4044 49.2815 17.5328 48.9397C17.6613 48.5977 17.7175 48.2329 17.6979 47.8682Z" fill="black"/>
<path d="M35.3292 41.9735V53.1781C35.3292 57.143 32.231 58.8156 29.0977 58.8156C27.996 58.8976 26.8928 58.6747 25.9092 58.1713C24.9255 57.6679 24.0994 56.9035 23.521 55.9618L26.5374 54.2191C26.7767 54.7017 27.1554 55.1014 27.6244 55.3662C28.0934 55.631 28.6311 55.7489 29.1679 55.7044C29.521 55.7634 29.8831 55.7404 30.226 55.6371C30.569 55.5339 30.8836 55.3533 31.1457 55.1092C31.4076 54.8651 31.6102 54.564 31.7376 54.2292C31.865 53.8944 31.9138 53.5348 31.8802 53.1781V52.0904C31.4679 52.598 30.9418 53.0011 30.3446 53.2673C29.7475 53.5335 29.096 53.6552 28.443 53.6226C26.8555 53.6226 25.333 52.9917 24.2103 51.8687C23.0877 50.7457 22.457 49.2225 22.457 47.6342C22.457 46.046 23.0877 44.5229 24.2103 43.3999C25.333 42.2769 26.8555 41.646 28.443 41.646C29.0956 41.6161 29.7461 41.7391 30.3429 42.005C30.9396 42.2711 31.4661 42.6728 31.8802 43.1781V42.0085L35.3292 41.9735ZM31.8802 47.6342C31.9036 47.0655 31.7563 46.5027 31.4574 46.0182C31.1584 45.5338 30.7215 45.1498 30.2027 44.9158C29.684 44.6817 29.107 44.6083 28.5462 44.7049C27.9853 44.8014 27.4662 45.0636 27.0555 45.4576C26.6447 45.8517 26.3612 46.3596 26.2414 46.9161C26.1214 47.4726 26.1707 48.0524 26.3828 48.5806C26.5948 49.109 26.9599 49.5617 27.4313 49.8808C27.9026 50.2 28.4585 50.3706 29.0275 50.3711C29.3991 50.3974 29.7719 50.3456 30.122 50.2189C30.4723 50.0922 30.7921 49.8937 31.0609 49.6358C31.3295 49.3779 31.5414 49.0665 31.6825 48.7218C31.8236 48.3771 31.891 48.0067 31.8802 47.6342Z" fill="black"/>
<path d="M37.3518 47.8682C37.3495 46.6325 37.7137 45.4237 38.3983 44.3951C39.0829 43.3665 40.0572 42.5641 41.1977 42.0896C42.3382 41.6151 43.5939 41.4898 44.8057 41.7294C46.0176 41.9691 47.1311 42.563 48.0054 43.4361C48.8797 44.309 49.4754 45.4219 49.7173 46.6337C49.9591 47.8455 49.8362 49.1019 49.364 50.2439C48.8918 51.3857 48.0916 52.3619 47.0648 53.0486C46.0378 53.7356 44.8303 54.1021 43.595 54.1021C42.7735 54.1115 41.9584 53.9568 41.1975 53.6469C40.4365 53.3371 39.7451 52.8785 39.1637 52.2978C38.5823 51.7173 38.1224 51.0264 37.8113 50.2657C37.5002 49.5051 37.3439 48.69 37.3518 47.8682ZM46.3074 47.8682C46.2935 47.3347 46.1228 46.8171 45.8165 46.3803C45.5102 45.9433 45.082 45.6065 44.5852 45.4118C44.0886 45.2171 43.5456 45.1734 43.0241 45.2859C42.5027 45.3983 42.026 45.6622 41.6536 46.0443C41.2813 46.4264 41.0298 46.9099 40.9307 47.4343C40.8316 47.9586 40.8893 48.5006 41.0964 48.9923C41.3037 49.484 41.6512 49.9038 42.0956 50.1989C42.54 50.4941 43.0615 50.6516 43.595 50.6518C43.958 50.6587 44.3186 50.5908 44.6542 50.4521C44.9897 50.3134 45.2932 50.107 45.5455 49.8458C45.7978 49.5847 45.9936 49.2742 46.1207 48.934C46.2477 48.5937 46.3033 48.2308 46.284 47.8682H46.3074Z" fill="black"/>
<path d="M51.4629 38.8157C51.4629 38.3947 51.5877 37.9831 51.8214 37.6331C52.0553 37.283 52.3876 37.0102 52.7764 36.849C53.1653 36.6879 53.593 36.6458 54.0058 36.7279C54.4186 36.81 54.7977 37.0128 55.0953 37.3104C55.3929 37.6082 55.5955 37.9874 55.6776 38.4004C55.7598 38.8133 55.7176 39.2414 55.5566 39.6303C55.3955 40.0192 55.1228 40.3517 54.7729 40.5856C54.4229 40.8194 54.0116 40.9443 53.5907 40.9443C53.0273 40.9413 52.4879 40.716 52.0895 40.3174C51.6911 39.919 51.466 39.3793 51.4629 38.8157ZM51.8253 41.9735H55.3326V53.763H51.8253V41.9735Z" fill="black"/>
<path d="M70.6246 47.8685C70.667 48.6478 70.5551 49.4278 70.2951 50.1637C70.035 50.8995 69.6321 51.5766 69.1094 52.1561C68.5867 52.7355 67.9546 53.2057 67.2496 53.5398C66.5445 53.8738 65.7803 54.0651 65.0011 54.1025C64.3469 54.1338 63.6937 54.0213 63.0877 53.7728C62.4817 53.5242 61.9375 53.1457 61.4937 52.6639V58.5118H57.9863V41.9737H61.4937V43.0849C61.9375 42.603 62.4817 42.2245 63.0877 41.976C63.6937 41.7274 64.3469 41.6149 65.0011 41.6462C65.7793 41.6836 66.5425 41.8745 67.2467 42.2078C67.9511 42.5412 68.5826 43.0104 69.1051 43.5886C69.6277 44.1667 70.0308 44.8424 70.2915 45.5769C70.5524 46.3113 70.6656 47.0902 70.6246 47.8685ZM67.1172 47.8685C67.1033 47.3195 66.9288 46.7867 66.6152 46.336C66.3016 45.8854 65.8628 45.5365 65.3531 45.3329C64.8433 45.1291 64.285 45.0795 63.7474 45.1901C63.2097 45.3005 62.7162 45.5665 62.328 45.9548C61.9399 46.343 61.6742 46.8366 61.5637 47.3745C61.4532 47.9124 61.5029 48.4709 61.7064 48.9808C61.9101 49.4908 62.2587 49.9298 62.7092 50.2434C63.1598 50.5572 63.6924 50.7318 64.2411 50.7457C64.6241 50.7701 65.0078 50.7121 65.3666 50.5759C65.7252 50.4395 66.0506 50.228 66.3209 49.9555C66.591 49.6829 66.7999 49.3556 66.9332 48.9957C67.0664 48.6358 67.1213 48.2514 67.0938 47.8685H67.1172Z" fill="black"/>
<path d="M81.5449 50.2308C81.5449 52.9443 79.2067 54.1021 76.6345 54.1021C75.6071 54.1932 74.5759 53.9744 73.6737 53.4742C72.7716 52.9739 72.0396 52.215 71.5723 51.2951L74.6354 49.5525C74.7597 49.9779 75.0259 50.348 75.3895 50.6012C75.7533 50.8543 76.1925 50.9755 76.6345 50.9442C77.4881 50.9442 77.9089 50.6752 77.9089 50.2074C77.9089 48.9091 72.0633 49.5993 72.0633 45.5291C72.0633 42.9559 74.2379 41.6577 76.7398 41.6577C77.663 41.6297 78.577 41.849 79.3869 42.2933C80.1969 42.7374 80.8733 43.3903 81.3462 44.184L78.2714 45.7981C78.1356 45.4892 77.913 45.2264 77.6307 45.0416C77.3484 44.8568 77.0187 44.7579 76.6813 44.7571C76.0734 44.7571 75.6993 44.991 75.6993 45.4238C75.7461 46.7688 81.5449 45.8682 81.5449 50.2308Z" fill="black"/>
<path d="M94.4521 41.9736V53.7631H90.9446V52.6638C90.5367 53.1523 90.0189 53.5372 89.4336 53.7873C88.8485 54.0374 88.2124 54.1452 87.5775 54.1024C85.2393 54.1024 83.1699 52.4064 83.1699 49.2135V41.9736H86.6773V48.6989C86.6465 48.9855 86.6799 49.2753 86.775 49.5474C86.8701 49.8195 87.0245 50.067 87.2271 50.272C87.4297 50.4769 87.6754 50.6341 87.9463 50.7322C88.2172 50.8304 88.5067 50.8669 88.7934 50.8392C90.0796 50.8392 90.9798 50.0906 90.9798 48.4182V41.9736H94.4521Z" fill="black"/>
<path d="M114.724 46.5351V53.7631H111.217V46.8393C111.217 45.6697 110.644 44.8977 109.522 44.8977C108.399 44.8977 107.674 45.7281 107.674 47.1199V53.7631H104.167V46.8393C104.167 45.6697 103.606 44.8977 102.472 44.8977C101.338 44.8977 100.636 45.7281 100.636 47.1199V53.7631H97.1289V41.9738H100.636V43.0615C101.003 42.581 101.484 42.1999 102.035 41.9528C102.586 41.7056 103.191 41.6002 103.793 41.6463C104.398 41.6168 105 41.7448 105.541 42.0172C106.082 42.2898 106.543 42.698 106.879 43.2018C107.271 42.675 107.789 42.256 108.386 41.984C108.983 41.7121 109.639 41.5958 110.293 41.6463C112.959 41.6463 114.724 43.5878 114.724 46.5351Z" fill="black"/>
<path d="M117.717 41.9034C119.163 41.9034 120.335 40.7303 120.335 39.2834C120.335 37.8365 119.163 36.6636 117.717 36.6636C116.27 36.6636 115.098 37.8365 115.098 39.2834C115.098 40.7303 116.27 41.9034 117.717 41.9034Z" fill="black"/>
<path d="M42.8931 27.6343C49.6664 27.6343 55.1572 22.1412 55.1572 15.3652C55.1572 8.58922 49.6664 3.09619 42.8931 3.09619C36.1198 3.09619 30.6289 8.58922 30.6289 15.3652C30.6289 22.1412 36.1198 27.6343 42.8931 27.6343Z" fill="black"/>
<path d="M70.3091 27.6343C77.0825 27.6343 82.5732 22.1412 82.5732 15.3652C82.5732 8.58922 77.0825 3.09619 70.3091 3.09619C63.5358 3.09619 58.0449 8.58922 58.0449 15.3652C58.0449 22.1412 63.5358 27.6343 70.3091 27.6343Z" fill="black"/>
<path d="M27.7412 3.09619H3.22461V27.6225H27.7412V3.09619Z" fill="black"/>
</svg>
