<?xml version="1.0" encoding="UTF-8" standalone="no"?><svg width="121" height="62" viewBox="0 0 121 62" fill="none" xmlns="http://www.w3.org/2000/svg">
<path d="M30.4297 30.4397L30.6756 30.3877H51.1265L58.8112 38.0754H38.0626L30.4297 30.4397Z" fill="black"/>
<path d="M23.8463 30.3877L3.09766 30.3878L10.7823 38.0755H23.8461L23.8463 30.3877Z" fill="black"/>
<path d="M65.9531 8.3042H69.1401V18.2109H74.6138V20.8948H65.9531V8.3042Z" fill="black"/>
<path d="M80.4001 21.1652C79.3318 21.1652 78.3959 20.9731 77.5911 20.5888C76.7869 20.1926 76.1628 19.6523 75.7186 18.9677C75.2864 18.2713 75.0703 17.4728 75.0703 16.5721C75.0703 15.6715 75.2864 14.8789 75.7186 14.1945C76.1628 13.4981 76.7869 12.9577 77.5911 12.5735C78.3959 12.1771 79.3318 11.979 80.4001 11.979C81.4685 11.979 82.4051 12.1771 83.2092 12.5735C84.0133 12.9577 84.6314 13.4981 85.0635 14.1945C85.5077 14.8789 85.7299 15.6715 85.7299 16.5721C85.7299 17.4728 85.5077 18.2713 85.0635 18.9677C84.6314 19.6523 84.0133 20.1926 83.2092 20.5888C82.4051 20.9731 81.4685 21.1652 80.4001 21.1652ZM80.4001 18.6976C81.0363 18.6976 81.5408 18.5114 81.9127 18.1392C82.2966 17.7549 82.4887 17.2326 82.4887 16.5721C82.4887 15.9117 82.2966 15.3953 81.9127 15.023C81.5408 14.6388 81.0363 14.4467 80.4001 14.4467C79.7639 14.4467 79.2543 14.6388 78.8695 15.023C78.4976 15.3953 78.3116 15.9117 78.3116 16.5721C78.3116 17.2326 78.4976 17.7549 78.8695 18.1392C79.2543 18.5114 79.7639 18.6976 80.4001 18.6976Z" fill="black"/>
<path d="M91.6825 25.0379C91.1065 25.0379 90.5245 24.9839 89.9357 24.8757C89.3597 24.7677 88.8621 24.6236 88.442 24.4435V22.246C89.3899 22.6542 90.4703 22.8585 91.6825 22.8585C92.5588 22.8585 93.189 22.6782 93.5729 22.3179C93.969 21.9578 94.1669 21.4295 94.1669 20.7329V20.2105C93.8192 20.5107 93.3871 20.745 92.8713 20.913C92.3669 21.0812 91.8262 21.1652 91.2503 21.1652C90.3385 21.1652 89.5337 20.9731 88.8381 20.5888C88.1416 20.2047 87.5958 19.6642 87.1989 18.9677C86.815 18.2713 86.623 17.4728 86.623 16.5721C86.623 15.6595 86.815 14.8549 87.1989 14.1585C87.5838 13.462 88.1235 12.9277 88.82 12.5554C89.5156 12.1711 90.3145 11.979 91.2141 11.979C92.4512 11.979 93.4714 12.3573 94.2754 13.1137V12.2492H97.3359V20.3007C97.3359 21.8017 96.8745 22.9665 95.9499 23.7951C95.0373 24.6236 93.6151 25.0379 91.6825 25.0379ZM92.0423 18.7156C92.5348 18.7156 92.9729 18.5895 93.3569 18.3373C93.7408 18.0851 94.0112 17.749 94.1669 17.3286V15.8157C93.9991 15.3953 93.7227 15.0651 93.3388 14.8249C92.9549 14.5728 92.5226 14.4467 92.0423 14.4467C91.3949 14.4467 90.8724 14.6388 90.4763 15.023C90.0803 15.3953 89.8823 15.9057 89.8823 16.5541C89.8823 17.2145 90.0803 17.7429 90.4763 18.1392C90.8724 18.5234 91.3949 18.7156 92.0423 18.7156Z" fill="black"/>
<path d="M103.468 21.1652C102.4 21.1652 101.463 20.9731 100.659 20.5888C99.8553 20.1926 99.2312 19.6523 98.7869 18.9677C98.3547 18.2713 98.1387 17.4728 98.1387 16.5721C98.1387 15.6715 98.3547 14.8789 98.7869 14.1945C99.2312 13.4981 99.8553 12.9577 100.659 12.5735C101.463 12.1771 102.4 11.979 103.468 11.979C104.537 11.979 105.473 12.1771 106.277 12.5735C107.082 12.9577 107.7 13.4981 108.132 14.1945C108.576 14.8789 108.798 15.6715 108.798 16.5721C108.798 17.4728 108.576 18.2713 108.132 18.9677C107.7 19.6523 107.082 20.1926 106.277 20.5888C105.473 20.9731 104.537 21.1652 103.468 21.1652ZM103.468 18.6976C104.105 18.6976 104.608 18.5114 104.981 18.1392C105.365 17.7549 105.557 17.2326 105.557 16.5721C105.557 15.9117 105.365 15.3953 104.981 15.023C104.608 14.6388 104.105 14.4467 103.468 14.4467C102.832 14.4467 102.322 14.6388 101.938 15.023C101.566 15.3953 101.38 15.9117 101.38 16.5721C101.38 17.2326 101.566 17.7549 101.938 18.1392C102.322 18.5114 102.832 18.6976 103.468 18.6976Z" fill="black"/>
<path d="M65.9531 25.5288H69.1401V38.1194H65.9531V25.5288Z" fill="black"/>
<path d="M70.7539 29.4737H73.8145V30.3383C74.6186 29.5819 75.6396 29.2036 76.8759 29.2036C77.7755 29.2036 78.5744 29.3957 79.27 29.78C79.9664 30.1522 80.5062 30.6866 80.891 31.383C81.275 32.0674 81.4669 32.8661 81.4669 33.7787C81.4669 34.6792 81.275 35.4838 80.891 36.1923C80.5062 36.8887 79.9664 37.4292 79.27 37.8133C78.5864 38.1977 77.7875 38.3898 76.8759 38.3898C76.299 38.3898 75.7472 38.2997 75.2194 38.1196C74.7029 37.9515 74.2708 37.7173 73.923 37.4171V42.0644H70.7539V29.4737ZM76.0477 35.9221C76.6958 35.9221 77.2176 35.73 77.6136 35.3457C78.0096 34.9615 78.2077 34.4391 78.2077 33.7787C78.2077 33.1183 78.0096 32.6019 77.6136 32.2296C77.2176 31.8454 76.6958 31.6533 76.0477 31.6533C75.5673 31.6533 75.1351 31.7794 74.7512 32.0315C74.3671 32.2716 74.0908 32.6019 73.923 33.0221V34.5531C74.0908 34.9735 74.3671 35.3097 74.7512 35.5618C75.1351 35.8021 75.5673 35.9221 76.0477 35.9221Z" fill="black"/>
<path d="M86.1911 38.3898C85.4945 38.3898 84.768 38.3177 84.0122 38.1736C83.2563 38.0416 82.6553 37.8495 82.212 37.5973V35.2737C82.7035 35.5618 83.2916 35.8021 83.976 35.9942C84.6724 36.1743 85.3085 36.2644 85.8845 36.2644C86.3047 36.2644 86.6111 36.2343 86.8032 36.1743C86.9951 36.1142 87.0907 35.9942 87.0907 35.814C87.0907 35.67 87.0253 35.5559 86.8927 35.4719C86.773 35.3758 86.5449 35.2797 86.2091 35.1836C85.8845 35.0756 85.5066 34.9615 85.0744 34.8414C84.3419 34.6252 83.7659 34.403 83.3458 34.1749C82.9256 33.9467 82.614 33.6586 82.4099 33.3104C82.2059 32.9622 82.1035 32.5237 82.1035 31.9954C82.1035 31.0589 82.4694 30.3623 83.202 29.9061C83.9458 29.4377 84.9608 29.2036 86.2444 29.2036C86.8685 29.2036 87.5229 29.2696 88.2073 29.4017C88.9037 29.5338 89.4254 29.708 89.7741 29.9241V32.2116C89.4133 31.9715 88.9338 31.7733 88.3338 31.6172C87.745 31.4612 87.193 31.383 86.6765 31.383C86.2686 31.383 85.9509 31.425 85.7227 31.5091C85.4945 31.5812 85.381 31.7133 85.381 31.9054C85.381 32.0855 85.4945 32.2236 85.7227 32.3196C85.9509 32.4157 86.3589 32.5359 86.9469 32.6799C87.3308 32.7759 87.4935 32.818 87.4332 32.806C88.2012 33.0101 88.7952 33.2383 89.2153 33.4904C89.6354 33.7427 89.9298 34.0429 90.0977 34.3911C90.2777 34.7273 90.3681 35.1596 90.3681 35.6879C90.3681 36.5165 90.0082 37.1771 89.2876 37.6693C88.5791 38.1496 87.5469 38.3898 86.1911 38.3898Z" fill="black"/>
<path d="M95.1001 38.3896C93.912 38.3896 93.0176 38.0594 92.4175 37.399C91.8296 36.7385 91.5352 35.868 91.5352 34.7872V29.4736H94.7042V34.4269C94.7042 35.4236 95.1543 35.922 96.054 35.922C96.4629 35.922 96.8348 35.8259 97.1706 35.6338C97.5072 35.4417 97.7827 35.1594 97.9987 34.7872V29.4736H101.168V38.1195H98.1072V37.1828C97.7352 37.5791 97.2851 37.8793 96.7564 38.0835C96.2287 38.2876 95.6761 38.3896 95.1001 38.3896Z" fill="black"/>
<path d="M102.789 29.4737H105.724V30.4104C106.084 30.0262 106.498 29.732 106.966 29.5277C107.434 29.3116 107.933 29.2036 108.461 29.2036C109.109 29.2036 109.625 29.2996 110.009 29.4917C110.405 29.6839 110.723 29.972 110.963 30.3564C111.323 29.9961 111.761 29.7139 112.278 29.5098C112.793 29.3057 113.316 29.2036 113.844 29.2036C114.984 29.2036 115.795 29.4978 116.275 30.0861C116.755 30.6625 116.995 31.4971 116.995 32.5899V38.1196H113.97V33.0402C113.97 32.5599 113.88 32.2116 113.7 31.9954C113.52 31.7794 113.22 31.6712 112.799 31.6712C112.26 31.6712 111.822 31.8635 111.486 32.2475C111.498 32.4518 111.504 32.764 111.504 33.1843V38.1196H108.479V32.9141C108.479 32.4697 108.4 32.1515 108.244 31.9594C108.089 31.7673 107.812 31.6712 107.416 31.6712C106.804 31.6712 106.276 32.0134 105.832 32.6979V38.1196H102.789V29.4737Z" fill="black"/>
<path d="M30.6758 30.3881L30.4298 30.4402L38.0624 38.0758V58.8326H31.5304L23.8457 51.1449H30.3777V30.3879H23.8457V23.8536H30.3777V3.09668L38.0624 10.7844V23.8535L30.3777 23.8536V30.3879L30.6758 30.3881Z" fill="black"/>
<path d="M51.127 30.3876L58.8116 38.0753V31.5407L51.127 23.853V30.3876Z" fill="black"/>
<path d="M66.4043 44.0293H71.0675C72.3877 44.0293 73.4138 44.3415 74.1465 44.966C74.8903 45.5904 75.263 46.515 75.263 47.7398C75.263 48.9767 74.8963 49.9014 74.1646 50.5139C73.4319 51.1262 72.3997 51.4324 71.0675 51.4324H67.8087V56.6199H66.4043V44.0293ZM70.9596 50.2436C71.8599 50.2436 72.5685 50.0635 73.0841 49.7032C73.6007 49.331 73.8581 48.6766 73.8581 47.7398C73.8581 46.7912 73.6007 46.1367 73.0841 45.7766C72.5685 45.4042 71.8599 45.2182 70.9596 45.2182H67.8087V50.2436H70.9596Z" fill="black"/>
<path d="M77.0586 43.3091H78.4446V56.6202H77.0586V43.3091Z" fill="black"/>
<path d="M84.4561 56.8903C83.3034 56.8903 82.415 56.578 81.7907 55.9535C81.1786 55.3292 80.873 54.4946 80.873 53.4499V47.9741H82.2591V53.522C82.2591 55.035 83.045 55.7915 84.6179 55.7915C85.2783 55.7915 85.8541 55.6473 86.3466 55.3593C86.8503 55.0709 87.3004 54.6146 87.6965 53.9903V47.9741H89.0834V56.62H87.7327V55.3231C86.9527 56.3678 85.8602 56.8903 84.4561 56.8903Z" fill="black"/>
<path d="M94.6071 56.8904C94.0424 56.8904 93.4363 56.8063 92.7881 56.6382C92.1398 56.482 91.6362 56.284 91.2755 56.0437V54.873C91.7317 55.1492 92.2543 55.3713 92.8423 55.5393C93.4423 55.7075 94.0183 55.7915 94.5709 55.7915C95.3148 55.7915 95.8494 55.6894 96.1731 55.4853C96.5096 55.2692 96.6775 54.951 96.6775 54.5308C96.6775 54.2065 96.6052 53.9543 96.4615 53.7742C96.3169 53.582 96.0776 53.4139 95.7409 53.2699C95.4052 53.1257 94.8827 52.9576 94.175 52.7655C93.4786 52.5734 92.9207 52.3753 92.5005 52.1711C92.0925 51.9549 91.7799 51.6848 91.5639 51.3605C91.3478 51.0364 91.2402 50.6221 91.2402 50.1177C91.2402 49.3372 91.5519 48.7428 92.176 48.3345C92.8122 47.9142 93.6524 47.7041 94.6967 47.7041C95.2605 47.7041 95.7891 47.7581 96.2816 47.8661C96.7852 47.9622 97.2053 48.1003 97.542 48.2805V49.4512C97.1932 49.2591 96.7731 49.109 96.2816 49.0009C95.7891 48.8809 95.2786 48.8208 94.7509 48.8208C94.0544 48.8208 93.5267 48.9229 93.1659 49.127C92.8062 49.3312 92.6263 49.6614 92.6263 50.1177C92.6263 50.43 92.6864 50.6701 92.8062 50.8382C92.9388 51.0063 93.172 51.1625 93.5087 51.3065C93.8564 51.4387 94.4091 51.6067 95.165 51.8108C96.2454 52.1111 96.9952 52.4653 97.4153 52.8737C97.8475 53.2699 98.0636 53.8223 98.0636 54.5308C98.0636 55.2631 97.7761 55.8396 97.1993 56.2599C96.6354 56.6802 95.771 56.8904 94.6071 56.8904Z" fill="black"/>
</svg>
