<?xml version="1.0" encoding="UTF-8" standalone="no"?><svg width="206" height="61" viewBox="0 0 206 61" fill="none" xmlns="http://www.w3.org/2000/svg">
<path d="M67.7619 20.9268C67.7619 19.8497 67.6141 19.0578 67.3186 18.551C67.023 18.023 66.432 17.759 65.5454 17.759H64.9121V17.1255H67.7619C68.5429 17.1255 69.1235 17.2311 69.5034 17.4423C69.9046 17.6323 70.1896 17.9914 70.3584 18.5193C70.5273 19.0473 70.6118 19.8497 70.6118 20.9268V36.7655H81.8527V38.0325H67.7619V20.9268Z" fill="black"/>
<path d="M89.0697 38.3495C87.6343 38.3495 86.3888 38.0116 85.3333 37.3358C84.2778 36.6389 83.4757 35.6992 82.9268 34.5166C82.378 33.334 82.1035 32.0246 82.1035 30.5886C82.1035 29.1525 82.378 27.8432 82.9268 26.6605C83.4757 25.4779 84.2778 24.5488 85.3333 23.873C86.3888 23.176 87.6343 22.8276 89.0697 22.8276C90.5053 22.8276 91.7507 23.176 92.8061 23.873C93.8617 24.5488 94.6639 25.4779 95.2127 26.6605C95.7616 27.8432 96.0361 29.1525 96.0361 30.5886C96.0361 32.0246 95.7616 33.334 95.2127 34.5166C94.6639 35.6992 93.8617 36.6389 92.8061 37.3358C91.7507 38.0116 90.5053 38.3495 89.0697 38.3495ZM89.0697 37.0824C89.8508 37.0824 90.5369 36.7973 91.1279 36.2272C91.7402 35.6569 92.2046 34.8755 92.5213 33.883C92.859 32.8904 93.0279 31.7923 93.0279 30.5886C93.0279 29.3848 92.859 28.2867 92.5213 27.2942C92.2046 26.3016 91.7402 25.5202 91.1279 24.9501C90.5369 24.3798 89.8508 24.0947 89.0697 24.0947C88.2887 24.0947 87.5921 24.3798 86.9798 24.9501C86.3888 25.5202 85.9244 26.3016 85.5866 27.2942C85.27 28.2867 85.1117 29.3848 85.1117 30.5886C85.1117 31.7923 85.27 32.8904 85.5866 33.883C85.9244 34.8755 86.3888 35.6569 86.9798 36.2272C87.5921 36.7973 88.2887 37.0824 89.0697 37.0824Z" fill="black"/>
<path d="M104.31 44.3682C102.178 44.3682 100.479 43.9776 99.212 43.1961C97.9665 42.4147 97.3438 41.1688 97.3438 39.4582C97.3438 38.4868 97.671 37.642 98.3254 36.924C98.9798 36.206 99.8136 35.6781 100.827 35.3402C99.9825 34.8755 99.5603 34.242 99.5603 33.4395C99.5603 33.0171 99.6554 32.6898 99.8453 32.4576C100.035 32.2252 100.31 31.9718 100.669 31.6973C99.9931 31.3594 99.4231 30.8314 98.9587 30.1134C98.5153 29.3954 98.2937 28.5507 98.2937 27.5792C98.2937 24.4115 100.299 22.8276 104.31 22.8276H110.168V23.6196L108.11 23.9363V24.0947C108.764 24.4326 109.292 24.9078 109.693 25.5202C110.115 26.1115 110.326 26.7979 110.326 27.5792C110.326 30.747 108.321 32.3309 104.31 32.3309C102.094 32.3309 100.985 32.7004 100.985 33.4395C100.985 34.1787 102.094 34.5483 104.31 34.5483C106.358 34.5483 108.025 34.96 109.313 35.7836C110.622 36.5861 111.276 37.8109 111.276 39.4582C111.276 41.1688 110.643 42.4147 109.376 43.1961C108.131 43.9776 106.442 44.3682 104.31 44.3682ZM104.31 31.2221C105.26 31.2221 106.02 30.937 106.59 30.3668C107.181 29.7755 107.476 28.8464 107.476 27.5792C107.476 26.3755 107.181 25.4674 106.59 24.8549C106.02 24.2426 105.26 23.9363 104.31 23.9363C103.36 23.9363 102.59 24.2321 101.999 24.8234C101.429 25.3935 101.144 26.3121 101.144 27.5792C101.144 28.8464 101.429 29.7755 101.999 30.3668C102.59 30.937 103.36 31.2221 104.31 31.2221ZM104.31 43.1011C105.577 43.1011 106.579 42.7948 107.318 42.1825C108.057 41.5912 108.426 40.6831 108.426 39.4582C108.426 37.3463 107.16 36.132 104.627 35.8153L102.885 35.6569C102.02 35.9948 101.355 36.4699 100.89 37.0824C100.426 37.6949 100.194 38.4868 100.194 39.4582C100.194 40.6831 100.563 41.5912 101.302 42.1825C102.041 42.7948 103.043 43.1011 104.31 43.1011Z" fill="black"/>
<path d="M119.546 38.3495C118.111 38.3495 116.865 38.0116 115.81 37.3358C114.754 36.6389 113.952 35.6992 113.403 34.5166C112.854 33.334 112.58 32.0246 112.58 30.5886C112.58 29.1525 112.854 27.8432 113.403 26.6605C113.952 25.4779 114.754 24.5488 115.81 23.873C116.865 23.176 118.111 22.8276 119.546 22.8276C120.982 22.8276 122.227 23.176 123.283 23.873C124.339 24.5488 125.141 25.4779 125.689 26.6605C126.238 27.8432 126.513 29.1525 126.513 30.5886C126.513 32.0246 126.238 33.334 125.689 34.5166C125.141 35.6992 124.339 36.6389 123.283 37.3358C122.227 38.0116 120.982 38.3495 119.546 38.3495ZM119.546 37.0824C120.327 37.0824 121.013 36.7973 121.604 36.2272C122.217 35.6569 122.681 34.8755 122.998 33.883C123.336 32.8904 123.504 31.7923 123.504 30.5886C123.504 29.3848 123.336 28.2867 122.998 27.2942C122.681 26.3016 122.217 25.5202 121.604 24.9501C121.013 24.3798 120.327 24.0947 119.546 24.0947C118.765 24.0947 118.069 24.3798 117.456 24.9501C116.865 25.5202 116.401 26.3016 116.063 27.2942C115.746 28.2867 115.588 29.3848 115.588 30.5886C115.588 31.7923 115.746 32.8904 116.063 33.883C116.401 34.8755 116.865 35.6569 117.456 36.2272C118.069 36.7973 118.765 37.0824 119.546 37.0824Z" fill="black"/>
<path d="M130.954 21.2438C130.467 21.2438 130.045 21.0431 129.686 20.642C129.349 20.2407 129.18 19.7656 129.18 19.2165C129.18 18.773 129.307 18.4245 129.56 18.1711C129.835 17.9177 130.194 17.791 130.637 17.791C131.122 17.791 131.533 17.9917 131.871 18.3928C132.23 18.7941 132.41 19.2693 132.41 19.8183C132.41 20.2618 132.272 20.6103 131.998 20.8637C131.745 21.1171 131.397 21.2438 130.954 21.2438ZM129.75 26.9457C129.75 25.8688 129.602 25.0768 129.307 24.57C129.011 24.042 128.42 23.778 127.533 23.778H126.9V23.1445H129.75C130.53 23.1445 131.111 23.25 131.491 23.4612C131.892 23.6513 132.177 24.0103 132.347 24.5383C132.515 25.0662 132.599 25.8688 132.599 26.9457V38.0328H129.75V26.9457Z" fill="black"/>
<path d="M136.593 26.9457C136.593 25.8687 136.446 25.0768 136.15 24.5699C135.855 24.0419 135.263 23.778 134.377 23.778H133.744V23.1445H136.593C137.395 23.1445 137.997 23.2605 138.398 23.4929C138.82 23.7041 139.116 24.0631 139.285 24.5699H139.443C139.823 24.0842 140.362 23.6723 141.059 23.3345C141.755 22.9966 142.641 22.8276 143.718 22.8276C145.533 22.8276 146.937 23.5668 147.929 25.0451C148.922 26.5022 149.417 28.3501 149.417 30.5886C149.417 32.8482 148.901 34.7066 147.866 36.1637C146.853 37.6209 145.365 38.3495 143.401 38.3495C142.599 38.3495 141.892 38.265 141.28 38.0961C140.668 37.9271 140.056 37.6949 139.443 37.3992V44.0514H136.593V26.9457ZM142.452 37.0824C143.802 37.0824 144.794 36.4911 145.428 35.3085C146.082 34.1259 146.41 32.5526 146.41 30.5886C146.41 28.6457 146.104 27.083 145.491 25.9003C144.879 24.6966 143.971 24.0947 142.769 24.0947C141.353 24.0947 140.245 24.7282 139.443 25.9954V36.132C140.077 36.4277 140.625 36.66 141.09 36.829C141.554 36.9979 142.008 37.0824 142.452 37.0824Z" fill="black"/>
<path d="M157.179 38.3495C154.751 38.3495 153.114 37.9271 152.27 37.0824C151.912 36.7235 151.69 36.3222 151.605 35.8786C151.521 35.414 151.479 34.7066 151.479 33.7563H152.112C152.302 34.8122 152.756 35.6359 153.473 36.2272C154.212 36.7973 155.236 37.0824 156.545 37.0824C157.706 37.0824 158.571 36.8818 159.141 36.4806C159.733 36.0793 160.027 35.5407 160.027 34.865C160.027 34.2526 159.796 33.7246 159.332 33.2811C158.888 32.8377 158.17 32.4153 157.179 32.014L155.278 31.2221C154.012 30.7153 153.062 30.124 152.428 29.4482C151.795 28.7724 151.479 27.9382 151.479 26.9457C151.479 25.6575 151.964 24.6544 152.936 23.9363C153.906 23.1972 155.162 22.8276 156.703 22.8276C159.026 22.8276 160.608 23.25 161.453 24.0947C161.812 24.4538 162.033 24.8549 162.117 25.2985C162.203 25.742 162.245 26.4494 162.245 27.4209H161.611C161.443 26.3649 160.999 25.5519 160.281 24.9816C159.563 24.3903 158.583 24.0947 157.337 24.0947C156.344 24.0947 155.563 24.3059 154.993 24.7282C154.445 25.1295 154.17 25.6575 154.17 26.3121C154.17 27.4102 155.014 28.3078 156.703 29.0047L158.604 29.7966C160.039 30.3879 161.084 31.0216 161.739 31.6973C162.392 32.3519 162.719 33.1966 162.719 34.2314C162.719 35.5197 162.203 36.5333 161.168 37.2725C160.134 37.9905 158.804 38.3495 157.179 38.3495Z" fill="black"/>
<path d="M170.803 38.3495C169.22 38.3495 167.921 37.9272 166.908 37.0825C165.915 36.2378 165.42 34.7595 165.42 32.6476V26.9457C165.42 25.8688 165.271 25.0768 164.977 24.57C164.681 24.042 164.09 23.7781 163.202 23.7781H162.887V23.1445H165.42C166.201 23.1445 166.781 23.2501 167.161 23.4612C167.562 23.6514 167.846 24.0103 168.016 24.5383C168.184 25.0662 168.269 25.8688 168.269 26.9457V32.6476C168.269 34.126 168.597 35.2135 169.25 35.9104C169.926 36.5862 170.76 36.9241 171.753 36.9241C172.871 36.9241 173.927 36.3645 174.918 35.2452V23.1445H177.769V38.0328H176.185L175.077 36.7658H174.918C174.475 37.2092 173.895 37.5893 173.178 37.9061C172.481 38.2018 171.689 38.3495 170.803 38.3495Z" fill="black"/>
<path d="M181.859 26.9457C181.859 25.8687 181.711 25.0768 181.415 24.5699C181.121 24.0419 180.529 23.778 179.642 23.778H179.01V23.1445H181.859C182.64 23.1445 183.232 23.25 183.633 23.4612C184.055 23.6723 184.361 23.9892 184.55 24.4115H184.709C185.152 23.968 185.723 23.5984 186.418 23.3028C187.137 22.9861 187.939 22.8276 188.825 22.8276C189.712 22.8276 190.472 22.9966 191.105 23.3345C191.739 23.6513 192.245 24.2214 192.625 25.0451C193.173 24.3481 193.87 23.8096 194.715 23.4295C195.58 23.0283 196.467 22.8276 197.374 22.8276C198.726 22.8276 199.802 23.25 200.604 24.0947C201.407 24.9394 201.808 26.4178 201.808 28.5295V38.0328H198.958V28.5295C198.958 27.0091 198.747 25.9215 198.325 25.2668C197.903 24.591 197.269 24.2531 196.425 24.2531C195.834 24.2531 195.211 24.4748 194.556 24.9184C193.903 25.3407 193.416 25.8053 193.1 26.3121C193.206 26.6289 193.259 27.368 193.259 28.5295V38.0328H190.409V28.5295C190.409 27.0091 190.197 25.9215 189.775 25.2668C189.353 24.591 188.72 24.2531 187.876 24.2531C186.756 24.2531 185.702 24.8127 184.709 25.932V38.0328H181.859V26.9457Z" fill="black"/>
<path fill-rule="evenodd" clip-rule="evenodd" d="M33.9794 4.36326C36.1667 5.39407 37.8638 7.39986 38.4053 9.94835L40.1846 18.3228C40.7932 21.1867 40.8456 24.1104 40.3699 26.9431C40.4885 26.9617 40.6079 26.9772 40.7277 26.9897C41.2907 24.548 41.4534 22.0078 41.1866 19.4685L40.292 10.9538C39.9599 7.79174 37.7785 5.27189 34.936 4.35654C34.7959 4.34904 34.6549 4.34523 34.513 4.34523C34.3336 4.34523 34.1557 4.3513 33.9794 4.36326ZM33.5125 4.40901C35.8139 5.35153 37.6243 7.37929 38.1804 9.99617L39.9597 18.3706C40.5621 21.2057 40.6142 24.0997 40.1433 26.9038C40.0449 26.885 39.947 26.8642 39.8495 26.8415C40.1779 23.6675 39.8478 20.4292 38.8431 17.3359L36.1986 9.19346C35.5395 7.16418 34.1475 5.57793 32.4112 4.63262C32.7686 4.53252 33.1364 4.45733 33.5125 4.40901ZM33.5434 4.17334C33.711 4.15312 33.8802 4.13806 34.0508 4.12835C33.7303 4.06568 33.4034 4.02291 33.0718 4.00126C33.231 4.05375 33.3882 4.11116 33.5434 4.17334ZM32.1641 3.99506C32.4732 4.05988 32.7766 4.14331 33.0733 4.24435C32.747 4.30358 32.4278 4.38258 32.1167 4.48004C31.8238 4.3359 31.5222 4.20954 31.2134 4.10183C31.3877 4.07147 31.5643 4.0468 31.7428 4.02802C31.8837 4.0132 32.0242 4.00225 32.1641 3.99506ZM32.1823 3.76387C33.1534 3.71764 34.0964 3.84817 34.9782 4.12851C39.1848 4.3695 42.5217 7.85845 42.5217 12.1271V20.6886C42.5217 22.852 42.218 24.9841 41.6342 27.0279H48.5954C53.0184 27.0279 56.604 30.6149 56.604 35.0397C56.604 36.1809 56.3656 37.2664 55.9357 38.249C55.779 39.2085 55.4552 40.1039 54.9979 40.9082C54.7417 41.8463 54.3262 42.7031 53.7872 43.4555C53.4347 44.3607 52.9326 45.1687 52.3188 45.8599C51.8733 46.7247 51.2887 47.4769 50.6049 48.1009C50.0713 48.9144 49.4111 49.601 48.6658 50.1501C48.0504 50.9028 47.3224 51.5165 46.5241 51.9843C45.8336 52.6683 45.0457 53.2024 44.203 53.5843C43.4451 54.1922 42.6059 54.6409 41.7283 54.9326C40.9106 55.4584 40.0287 55.8171 39.125 56.0155C38.2569 56.4527 37.3425 56.7171 36.4231 56.8199C35.514 57.164 34.5769 57.3313 33.6518 57.3374C32.7117 57.5845 31.7624 57.653 30.8417 57.5622C29.8811 57.7097 28.9298 57.6785 28.0236 57.492C27.0528 57.5382 26.11 57.4076 25.2284 57.1273C21.0215 56.8867 17.6843 53.3976 17.6843 49.1287V41.9905C17.6843 39.3195 18.1471 36.6963 19.0285 34.2281H11.6083C7.18523 34.2281 3.59961 30.641 3.59961 26.2162C3.59961 25.0757 3.8378 23.991 4.26715 23.0088C4.42375 22.049 4.7474 21.1533 5.20481 20.3486C5.46083 19.4106 5.8762 18.5539 6.415 17.8017C6.76798 16.8946 7.27129 16.0852 7.88663 15.3929C8.33205 14.5291 8.91634 13.778 9.59957 13.1546C10.1326 12.342 10.7921 11.6559 11.5366 11.1073C12.1518 10.3545 12.8796 9.74078 13.6777 9.27278C14.3684 8.58828 15.1566 8.05391 15.9994 7.67191C16.758 7.06332 17.5979 6.61429 18.4764 6.3226C19.2941 5.79701 20.176 5.43846 21.0795 5.24025C21.9478 4.80294 22.8624 4.53849 23.7819 4.43582C24.691 4.09175 25.6282 3.9244 26.5532 3.91843C27.4935 3.67125 28.4429 3.60281 29.3637 3.69363C30.3246 3.54611 31.276 3.57729 32.1823 3.76387ZM30.273 3.83671C30.6051 3.82355 30.9347 3.83189 31.2601 3.8607C31.0914 3.88821 30.9247 3.9209 30.7601 3.95856C30.5992 3.91293 30.4368 3.87227 30.273 3.83671ZM28.4569 3.88634C28.1303 3.89169 27.8016 3.91784 27.4727 3.96565C27.6393 3.98389 27.8052 4.00734 27.9699 4.03591C28.1296 3.98125 28.292 3.93133 28.4569 3.88634ZM28.4358 4.131C28.6059 4.08259 28.7787 4.03962 28.9543 4.00229C29.0929 3.97281 29.2315 3.94723 29.3698 3.92547C29.6839 3.95762 29.9945 4.00886 30.2999 4.07836C29.9819 4.17135 29.6727 4.28327 29.3736 4.4127C29.0673 4.29996 28.7541 4.20583 28.4358 4.131ZM27.5248 4.20316C27.2136 4.16598 26.8993 4.14748 26.5835 4.14836C26.4481 4.18449 26.3129 4.22444 26.178 4.26827C26.0075 4.32372 25.8401 4.38451 25.6761 4.45038C26.0006 4.49153 26.322 4.55242 26.6384 4.63253C26.9223 4.47254 27.2182 4.32891 27.5248 4.20316ZM26.9582 4.72052C27.2868 4.54834 27.6309 4.39833 27.9887 4.27285C28.3565 4.33951 28.7187 4.43248 29.0723 4.55063C28.7179 4.72185 28.3788 4.9181 28.0573 5.13689C27.7011 4.97126 27.3336 4.83218 26.9582 4.72052ZM26.3531 4.80122C25.9891 4.72065 25.6191 4.66604 25.2462 4.63822C24.9034 4.80045 24.5769 4.98563 24.268 5.19127C24.6532 5.26307 25.0331 5.363 25.4048 5.49052C25.7018 5.23925 26.0185 5.00857 26.3531 4.80122ZM25.6555 5.58123C25.9727 5.32211 26.3121 5.08681 26.6714 4.87868C27.0704 4.98471 27.4611 5.12235 27.8394 5.29049C27.4839 5.55008 27.1514 5.8379 26.8447 6.15028C26.4627 5.92702 26.0648 5.7371 25.6555 5.58123ZM25.4538 5.75172C25.1136 6.04959 24.8009 6.37573 24.5189 6.72563C24.9577 6.93979 25.3804 7.19614 25.7808 7.49432C26.0445 7.07649 26.3461 6.68381 26.6814 6.32154C26.2877 6.09507 25.8768 5.90485 25.4538 5.75172ZM25.2041 5.66605C24.8777 5.96138 24.5771 6.28237 24.3049 6.62507C23.9016 6.44291 23.4859 6.29559 23.0625 6.18337C23.3508 5.89254 23.6637 5.62308 23.9992 5.37855C24.4073 5.44229 24.8104 5.53834 25.2041 5.66605ZM23.9408 5.1372C24.2065 4.94836 24.4856 4.77456 24.7776 4.61742C24.4644 4.61298 24.1499 4.62747 23.836 4.66133C23.705 4.71144 23.5748 4.76532 23.4452 4.82304C23.2814 4.89604 23.1212 4.97401 22.9649 5.0567C23.2918 5.06369 23.6178 5.09063 23.9408 5.1372ZM22.5571 5.28845C22.9307 5.27713 23.3043 5.29274 23.6746 5.33479C23.3636 5.57597 23.0727 5.83845 22.8036 6.11936C22.4209 6.03142 22.0325 5.97178 21.6421 5.94064C21.9279 5.70386 22.2332 5.48559 22.5571 5.28845ZM22.4895 5.06059C22.6343 4.97389 22.7828 4.89127 22.9348 4.81297C22.6164 4.88615 22.3004 4.98008 21.9886 5.09527C22.1553 5.07845 22.3223 5.0669 22.4895 5.06059ZM21.1569 5.45886C21.4656 5.39235 21.7768 5.34509 22.0888 5.31676C21.815 5.50351 21.5556 5.70552 21.3111 5.92107C20.985 5.90853 20.658 5.91581 20.3321 5.94301C20.4788 5.84447 20.6299 5.75022 20.7853 5.66051C20.9081 5.58958 21.032 5.52238 21.1569 5.45886ZM20.2765 5.70385C19.9677 5.80987 19.6633 5.9363 19.3653 6.0834C19.5293 6.04924 19.6943 6.02031 19.8598 5.99656C19.9947 5.89524 20.1337 5.79759 20.2765 5.70385ZM19.488 6.2932C19.2352 6.50763 18.9982 6.73571 18.7775 6.97571C18.4517 6.99736 18.1273 7.0388 17.8061 7.09995C17.9416 6.98661 18.082 6.87708 18.2271 6.77163C18.342 6.68814 18.4584 6.60824 18.5761 6.53193C18.8761 6.43352 19.1807 6.35399 19.488 6.2932ZM19.9508 6.21611C19.6492 6.44609 19.3683 6.69515 19.1088 6.96055C19.5004 6.95069 19.8928 6.96938 20.2827 7.01682C20.521 6.70928 20.7829 6.4178 21.067 6.1454C20.6944 6.1423 20.3212 6.1658 19.9508 6.21611ZM21.3944 6.155C21.0862 6.43329 20.8032 6.734 20.5468 7.0534C20.9795 7.12072 21.4083 7.22372 21.8282 7.36266C22.0632 6.99338 22.3287 6.64273 22.6225 6.3149C22.2176 6.22911 21.8068 6.17572 21.3944 6.155ZM22.8797 6.374C22.5724 6.7058 22.2956 7.06284 22.0517 7.44027C22.5105 7.60741 22.9578 7.81816 23.3872 8.0729C23.6059 7.62981 23.8647 7.20777 24.1604 6.81245C23.745 6.62834 23.3164 6.48209 22.8797 6.374ZM24.374 6.91105C24.0703 7.31192 23.8057 7.74156 23.5842 8.1936C23.9618 8.43267 24.3244 8.70672 24.6678 9.01595L24.9453 9.26597C25.1271 8.71375 25.3677 8.18616 25.6603 7.69143C25.2533 7.38649 24.822 7.12624 24.374 6.91105ZM25.8437 7.83314C25.549 8.33543 25.3096 8.87231 25.1327 9.43468L26.6182 10.7728C26.7187 10.1828 26.8836 9.6147 27.1054 9.07613L26.7849 8.71998C26.4912 8.39364 26.1761 8.09796 25.8437 7.83314ZM27.2767 9.26637C27.0646 9.80295 26.9103 10.3688 26.8217 10.9561L31.0277 14.7447C34.4057 17.7875 36.7831 21.7351 37.9131 26.0701C37.934 26.0822 37.9549 26.0943 37.9759 26.1062C37.2029 22.0344 35.3295 18.2135 32.5114 15.0824L27.2767 9.26637ZM38.2359 26.2471C37.477 22.0654 35.5712 18.1382 32.6823 14.9285L27.3742 9.03102C27.609 8.49019 27.9033 7.98125 28.2488 7.51248C28.5519 7.81071 28.8344 8.13783 29.0926 8.49322L34.1229 15.4197C36.4676 18.648 37.9046 22.4031 38.3418 26.3003C38.3063 26.2829 38.271 26.2651 38.2359 26.2471ZM38.0294 26.3984C38.0166 26.3916 38.0038 26.3847 37.9911 26.3777C38.0171 26.4838 38.0424 26.59 38.0671 26.6964C38.072 26.7004 38.077 26.7045 38.0819 26.7084C38.0651 26.605 38.0476 26.5016 38.0294 26.3984ZM38.3466 26.9122C38.3272 26.7841 38.3068 26.6563 38.2852 26.5287C38.3134 26.5425 38.3419 26.556 38.3703 26.5693C38.3832 26.6977 38.3949 26.8262 38.4057 26.9549C38.3859 26.9408 38.3662 26.9265 38.3466 26.9122ZM37.6285 25.8952C36.4862 21.6949 34.1576 17.8734 30.8739 14.9156L26.785 11.2326C26.7515 11.5261 26.7343 11.8246 26.7343 12.1271V12.824L29.3633 14.7349C33.217 17.5359 36.0818 21.4401 37.6128 25.885C37.6181 25.8884 37.6233 25.8918 37.6285 25.8952ZM37.1561 25.2982C35.591 21.1722 32.851 17.5542 29.2281 14.921L26.7343 13.1083V14.3373L27.707 14.8992C31.8879 17.314 35.1769 20.9619 37.1561 25.2982ZM26.5043 14.2045V12.9412L24.7767 11.6856C24.774 11.9811 24.7881 12.2798 24.8197 12.5807L24.8925 13.2736L26.5043 14.2045ZM24.9222 13.5564L26.5043 14.4702V15.4316C26.3626 15.3649 26.22 15.2997 26.0766 15.2358L25.0506 14.7788L24.9222 13.5564ZM24.6464 13.1314L24.591 12.6048C24.5526 12.2397 24.5395 11.8778 24.55 11.5207L22.8989 10.3207C22.8028 10.8896 22.7697 11.475 22.8049 12.0679L24.6464 13.1314ZM22.8265 12.3459L24.6761 13.4142L24.808 14.6708L23.1075 13.9135L22.9628 13.2321C22.8999 12.936 22.8547 12.6402 22.8265 12.3459ZM22.5679 11.9309C22.5435 11.333 22.5868 10.7431 22.6919 10.1702L22.3045 9.88868C21.9492 9.63041 21.5794 9.4066 21.1989 9.21662C21.015 9.76913 20.8924 10.344 20.8361 10.9307L22.5679 11.9309ZM20.8161 11.1847L22.5838 12.2057C22.6106 12.562 22.6616 12.9207 22.7378 13.2799L22.8479 13.7978L20.9051 12.9324C20.808 12.3464 20.7799 11.7606 20.8161 11.1847ZM20.6179 10.8047C20.6809 10.2269 20.8066 9.66086 20.99 9.11619C20.5285 8.90265 20.0527 8.7378 19.5697 8.62057C19.3559 9.07576 19.1864 9.55097 19.0636 10.0391C19.483 10.1945 19.8951 10.3872 20.2955 10.6185L20.6179 10.8047ZM19.0105 10.2648C19.4088 10.414 19.8001 10.5979 20.1806 10.8177L20.5945 11.0567C20.5496 11.6375 20.5683 12.2288 20.655 12.821L18.8287 12.0076C18.8233 11.4181 18.8853 10.8335 19.0105 10.2648ZM18.8459 9.96204C18.9677 9.48325 19.1333 9.01666 19.3403 8.56856C18.8958 8.47492 18.4461 8.42108 17.9967 8.40619C17.7651 8.79463 17.5685 9.20139 17.4083 9.62128C17.8919 9.68924 18.3731 9.80229 18.8459 9.96204ZM17.3278 9.84244C17.8204 9.90849 18.3108 10.0227 18.7922 10.1867C18.6666 10.7477 18.6008 11.3237 18.5984 11.905L18.2583 11.7535C17.836 11.5654 17.406 11.4168 16.9727 11.3062C17.0438 10.8078 17.1627 10.3175 17.3278 9.84244ZM17.1736 9.59185C17.3268 9.1818 17.5135 8.78363 17.7328 8.40193C17.3187 8.40224 16.9057 8.4355 16.4979 8.50108C16.2544 8.83735 16.04 9.19031 15.8556 9.55602C16.293 9.53178 16.7339 9.54331 17.1736 9.59185ZM15.7407 9.79381C16.1894 9.76157 16.6423 9.76808 17.0942 9.81472C16.9352 10.282 16.8192 10.7634 16.7481 11.2523C16.261 11.1428 15.7706 11.0807 15.2826 11.0637C15.398 10.6294 15.551 10.2043 15.7407 9.79381ZM15.5896 9.57519C15.7589 9.22485 15.9544 8.88532 16.1757 8.55982C15.8103 8.63437 15.45 8.73509 15.0979 8.8615C14.8507 9.14912 14.6279 9.45107 14.4293 9.76457C14.8104 9.67337 15.1983 9.60996 15.5896 9.57519ZM14.2599 10.0451C14.6587 9.93718 15.066 9.86085 15.4777 9.8172C15.2997 10.2197 15.1556 10.6352 15.0461 11.059C14.6036 11.0567 14.164 11.0914 13.7315 11.1612C13.8766 10.7783 14.0528 10.4049 14.2599 10.0451ZM14.1084 9.8484C14.2743 9.56782 14.4586 9.29551 14.6613 9.03327C14.3732 9.15673 14.0918 9.29799 13.8188 9.45676C13.7198 9.5556 13.6228 9.65763 13.5281 9.76285C13.408 9.89636 13.2934 10.0329 13.184 10.1721C13.4855 10.0455 13.7943 9.93738 14.1084 9.8484ZM12.9056 10.5499C13.2425 10.3874 13.5901 10.2496 13.9456 10.1372C13.7595 10.484 13.6006 10.8421 13.469 11.2081C13.0836 11.2836 12.7046 11.3872 12.3353 11.5177C12.5 11.1852 12.69 10.8617 12.9056 10.5499ZM12.7512 10.3693C12.8483 10.2312 12.9502 10.0955 13.057 9.96221C12.7963 10.1585 12.5459 10.3727 12.3081 10.6047C12.4536 10.5215 12.6013 10.443 12.7512 10.3693ZM11.6961 11.2755C11.951 11.0891 12.216 10.9193 12.4893 10.7664C12.3153 11.0483 12.1605 11.3383 12.0248 11.6346C11.7219 11.7559 11.4263 11.8955 11.1399 12.0529C11.2339 11.9031 11.3336 11.7555 11.4391 11.6103C11.5223 11.4957 11.608 11.3841 11.6961 11.2755ZM10.9914 11.8578C10.7528 12.0801 10.5265 12.319 10.3144 12.5743C10.4502 12.4765 10.5888 12.3831 10.7301 12.2942C10.812 12.1469 10.8991 12.0014 10.9914 11.8578ZM10.5111 12.7165C10.2553 12.897 10.0097 13.0934 9.77582 13.3052C9.6993 13.4227 9.62548 13.5431 9.55451 13.666C9.465 13.8212 9.38142 13.9781 9.30371 14.1365C9.57206 13.9501 9.85133 13.7804 10.1398 13.6283C10.2438 13.3196 10.3674 13.015 10.5111 12.7165ZM10.0406 13.9447C9.71649 14.1283 9.40534 14.3352 9.10984 14.5638C8.96353 14.914 8.84468 15.2702 8.75259 15.6299C9.0866 15.4256 9.43562 15.2455 9.79681 15.0917C9.84951 14.7061 9.93059 14.3227 10.0406 13.9447ZM10.0438 14.9913C10.1062 14.5864 10.201 14.1845 10.3289 13.7892C10.6962 13.601 11.0785 13.4418 11.4719 13.3135C11.3813 13.7444 11.3267 14.1807 11.3077 14.6181C10.8747 14.7079 10.4521 14.8331 10.0438 14.9913ZM9.7651 15.3564C9.38729 15.5251 9.02376 15.7234 8.67807 15.949C8.59224 16.3553 8.53993 16.765 8.52013 17.1742C8.90968 16.9742 9.31689 16.8055 9.73812 16.671C9.71129 16.234 9.72005 15.7944 9.7651 15.3564ZM9.96446 16.6024C9.94005 16.1537 9.95428 15.7021 10.008 15.253C10.4245 15.0837 10.857 14.9499 11.3009 14.8546C11.294 15.3482 11.3325 15.8418 11.4159 16.3288C10.9191 16.3752 10.4337 16.4678 9.96446 16.6024ZM9.75609 16.907C9.32454 17.0482 8.90841 17.2264 8.51186 17.4382C8.50537 17.8905 8.5384 18.3411 8.60956 18.7849C9.06213 18.602 9.53522 18.4591 10.0244 18.3611C9.89059 17.8854 9.80079 17.3986 9.75609 16.907ZM10.2515 18.3188C10.1138 17.8348 10.0232 17.3384 9.98077 16.8372C10.4575 16.6971 10.9518 16.6019 11.4582 16.556C11.5715 17.1194 11.7455 17.6724 11.9797 18.2044H11.6083C11.1458 18.2044 10.6925 18.2436 10.2515 18.3188ZM10.0902 18.5825C9.59146 18.6812 9.10984 18.8276 8.65031 19.0168C9.06044 21.16 10.3644 23.1195 12.4018 24.2963L19.8132 28.5771C20.34 28.8813 20.8219 29.2475 21.2505 29.6649C21.3358 29.5299 21.4225 29.3956 21.5107 29.2622C21.0793 28.6675 20.5539 28.1384 19.9486 27.6984L13.0248 22.6661C11.5778 21.6143 10.5861 20.1684 10.0902 18.5825ZM21.6467 29.059C21.2109 28.4725 20.6855 27.9497 20.0836 27.5124L13.16 22.4801C11.7627 21.4644 10.8027 20.0707 10.3182 18.5409C10.7378 18.4708 11.1688 18.4344 11.6083 18.4344H12.0853C12.5246 19.352 13.1473 20.2008 13.95 20.9239L20.31 26.6527C20.9642 27.242 21.4955 27.9423 21.8849 28.7134C21.8044 28.828 21.725 28.9431 21.6467 29.059ZM21.6524 29.4651C21.5727 29.5868 21.4942 29.7091 21.4169 29.8322C21.4548 29.8716 21.4922 29.9114 21.5292 29.9516C21.5951 29.8283 21.6619 29.7054 21.73 29.5832C21.7047 29.5435 21.6787 29.5043 21.6524 29.4651ZM21.8573 29.3577C21.835 29.3244 21.8125 29.2912 21.7896 29.2583C21.8587 29.1554 21.9286 29.0529 21.9993 28.9511C22.0133 28.9816 22.0272 29.0122 22.0407 29.0429C21.9786 29.1474 21.9175 29.2523 21.8573 29.3577ZM21.8687 29.8075C21.809 29.9162 21.7502 30.0253 21.6923 30.1349C21.7183 30.1653 21.7442 30.1958 21.7698 30.2266C21.8187 30.1155 21.8686 30.0046 21.9193 29.8942C21.9026 29.8652 21.8858 29.8362 21.8687 29.8075ZM22.0373 29.6413C22.0242 29.6196 22.011 29.5978 21.9976 29.5762C22.0482 29.4866 22.0995 29.3971 22.1515 29.3081C22.1584 29.3259 22.1653 29.3437 22.1722 29.3615C22.1266 29.4545 22.0817 29.5477 22.0373 29.6413ZM22.0571 30.1463C22.0148 30.2403 21.9732 30.3346 21.9322 30.4291C21.9476 30.4492 21.9629 30.4692 21.9782 30.4893C22.0124 30.3916 22.0475 30.2941 22.0831 30.1969C22.0746 30.18 22.0659 30.1632 22.0571 30.1463ZM22.191 29.9088C22.1865 29.9005 22.1819 29.8922 22.1774 29.8839C22.2114 29.8107 22.246 29.7375 22.2809 29.6645C22.2816 29.6669 22.2824 29.6691 22.2831 29.6715C22.252 29.7504 22.2213 29.8295 22.191 29.9088ZM22.2229 30.4868C22.1958 30.5631 22.1691 30.6394 22.1428 30.716C22.1483 30.7238 22.1537 30.7317 22.1592 30.7395C22.1811 30.6575 22.2034 30.5756 22.226 30.4938C22.225 30.4914 22.224 30.4892 22.2229 30.4868ZM22.082 31.0373C22.0718 31.0213 22.0612 31.0054 22.0507 30.9896C22.0184 31.0877 21.9867 31.1859 21.9557 31.2843C21.9733 31.3027 21.9908 31.3211 22.0081 31.3396C22.032 31.2388 22.0568 31.1379 22.082 31.0373ZM22.1956 31.5478C22.2136 31.4688 22.2323 31.3899 22.2514 31.3111C22.2526 31.3132 22.2539 31.3153 22.2551 31.3175C22.241 31.4015 22.2274 31.4855 22.2143 31.5695C22.2081 31.5623 22.2017 31.555 22.1956 31.5478ZM21.9452 31.6115C21.9229 31.5866 21.9004 31.5619 21.8777 31.5373C21.8418 31.6563 21.8069 31.7754 21.773 31.8948C21.8048 31.9191 21.8365 31.9436 21.8678 31.9685C21.8927 31.8494 21.9185 31.7304 21.9452 31.6115ZM22.0688 32.1329C22.0893 32.0316 22.1106 31.9305 22.1325 31.8294C22.1446 31.8442 22.1567 31.8589 22.1687 31.8737C22.154 31.9766 22.14 32.0794 22.1266 32.1823C22.1074 32.1657 22.0882 32.1492 22.0688 32.1329ZM21.8166 32.2221C21.7802 32.1923 21.7434 32.163 21.7064 32.134C21.6681 32.2745 21.6312 32.4152 21.5957 32.5561C21.6439 32.5818 21.6918 32.608 21.7393 32.6348C21.7637 32.497 21.7895 32.3596 21.8166 32.2221ZM21.9509 32.7587C21.9722 32.6365 21.9945 32.5145 22.0178 32.3926C22.0428 32.4147 22.0677 32.437 22.0924 32.4594C22.0783 32.5801 22.0652 32.701 22.0529 32.8219C22.0191 32.8006 21.9851 32.7796 21.9509 32.7587ZM21.6977 32.8759C21.6452 32.8454 21.5922 32.8157 21.5389 32.7867C21.4993 32.9507 21.4616 33.1152 21.4257 33.2799C21.4921 33.3024 21.5581 33.3255 21.6237 33.3498C21.6467 33.1916 21.6714 33.0337 21.6977 32.8759ZM21.8437 33.4349C21.8644 33.291 21.8863 33.1472 21.9097 33.0036C21.9496 33.0285 21.989 33.0538 22.0284 33.0795C22.0159 33.219 22.0046 33.3586 21.9946 33.4982C21.9446 33.4765 21.8943 33.4554 21.8437 33.4349ZM21.591 33.583C21.5203 33.5564 21.4491 33.5309 21.3776 33.5065C21.3379 33.6978 21.3008 33.8896 21.2661 34.0817C21.3524 34.0949 21.4385 34.1097 21.5241 34.1259C21.5442 33.9448 21.5665 33.7637 21.591 33.583ZM21.7502 34.1726C21.7688 34.005 21.7891 33.8375 21.8113 33.6702C21.8673 33.6935 21.9231 33.7175 21.9785 33.7423C21.9689 33.902 21.9608 34.0616 21.9544 34.2213C21.8867 34.204 21.8186 34.1878 21.7502 34.1726ZM21.4998 34.3554C21.409 34.3379 21.3179 34.3222 21.2264 34.3083C20.6122 37.9177 20.8682 41.6561 22.02 45.2023L24.225 51.9913C24.8909 54.0412 26.3264 55.6257 28.1077 56.5285C28.5022 56.3997 28.8831 56.2402 29.2471 56.0528C27.9844 55.2378 26.9362 54.0583 26.2793 52.5824L23.3769 46.0612C21.7286 42.3573 21.0994 38.3201 21.4998 34.3554ZM29.4797 55.9279C28.2051 55.1345 27.1459 53.9643 26.4894 52.4889L23.587 45.9677C21.9585 42.3083 21.3346 38.3202 21.7261 34.403C21.7997 34.4197 21.8732 34.4375 21.9462 34.4566C21.82 38.7037 22.8681 42.9403 25.0263 46.6798L28.594 52.8619C29.1244 53.7807 29.809 54.5548 30.5966 55.1701C30.2481 55.4535 29.8745 55.7074 29.4797 55.9279ZM29.4735 56.1936C29.1308 56.3775 28.7731 56.5372 28.4029 56.6704C28.7422 56.8248 29.0926 56.9551 29.4515 57.0598C29.8204 56.9725 30.1781 56.8593 30.523 56.7225C30.1613 56.5722 29.8104 56.3955 29.4735 56.1936ZM30.8249 56.5953C30.4391 56.4481 30.0648 56.2704 29.7063 56.0637C30.0869 55.8428 30.4475 55.5914 30.7851 55.313C31.1416 55.5748 31.5176 55.8053 31.9083 56.003C31.5659 56.2274 31.2039 56.4258 30.8249 56.5953ZM30.8319 56.8435C30.5328 56.9728 30.2237 57.0846 29.9056 57.1776C30.211 57.2471 30.5217 57.2983 30.8357 57.3305C30.9742 57.3087 31.1129 57.283 31.2517 57.2536C31.427 57.2163 31.5997 57.1733 31.7695 57.125C31.4514 57.0502 31.1383 56.956 30.8319 56.8435ZM32.2169 56.9832C31.849 56.9165 31.4869 56.8236 31.1334 56.7055C31.4876 56.5343 31.8266 56.3381 32.1483 56.1194C32.5045 56.285 32.8718 56.424 33.2472 56.5355C32.9186 56.7077 32.5747 56.8577 32.2169 56.9832ZM32.2356 57.22C32.076 57.2746 31.9138 57.3245 31.749 57.3695C32.0754 57.364 32.4037 57.3379 32.7323 57.2902C32.5658 57.272 32.4001 57.2486 32.2356 57.22ZM33.6215 57.1075C33.3059 57.1084 32.9918 57.0899 32.6809 57.0528C32.9875 56.9271 33.2832 56.7835 33.5671 56.6235C33.8835 56.7035 34.2046 56.7643 34.5289 56.8054C34.3648 56.8713 34.1974 56.9321 34.0269 56.9875C33.892 57.0314 33.7569 57.0714 33.6215 57.1075ZM34.5338 57.0508C34.8578 57.0114 35.1817 56.951 35.5037 56.8691C35.3362 56.8684 35.169 56.8624 35.0022 56.8513C34.8492 56.9222 34.6929 56.9889 34.5338 57.0508ZM35.4275 56.6384C35.7407 56.6428 36.0552 56.6283 36.369 56.5944C36.4999 56.5443 36.63 56.4905 36.7595 56.4327C36.9233 56.3598 37.0834 56.2819 37.2397 56.1993C36.9128 56.1922 36.5869 56.1653 36.2639 56.1189C35.9982 56.3075 35.7192 56.4813 35.4275 56.6384ZM36.5301 55.9212C36.9004 55.9632 37.2739 55.9788 37.6476 55.9674C37.9715 55.7702 38.2768 55.552 38.5624 55.3153C38.1721 55.2842 37.7837 55.2246 37.401 55.1368C37.1318 55.4177 36.8411 55.6801 36.5301 55.9212ZM37.1421 55.0729C36.8537 55.3636 36.5409 55.633 36.2055 55.8775C35.7975 55.8138 35.3948 55.718 35.0011 55.5904C35.3274 55.2951 35.628 54.9743 35.9003 54.6317C36.3033 54.8137 36.7188 54.9608 37.1421 55.0729ZM37.5821 54.9413C37.9871 55.027 38.3979 55.0802 38.8103 55.1009C39.1183 54.8227 39.4012 54.5221 39.6576 54.2028C39.2249 54.1356 38.7962 54.0326 38.3762 53.8938C38.1412 54.263 37.8759 54.6135 37.5821 54.9413ZM38.1529 53.8163C37.909 54.1937 37.6321 54.5505 37.3248 54.8823C36.8884 54.7743 36.4599 54.6283 36.0448 54.4443C36.3403 54.0492 36.5993 53.6274 36.818 53.1845C37.2471 53.4389 37.6942 53.6494 38.1529 53.8163ZM38.5004 53.6924C38.9326 53.8319 39.374 53.9323 39.8195 53.9941C40.0903 53.6321 40.3284 53.2481 40.5316 52.8473C40.0579 52.7292 39.5912 52.5665 39.1376 52.3583C38.9665 52.8217 38.7531 53.2684 38.5004 53.6924ZM38.9291 52.259C38.7561 52.7315 38.5378 53.1864 38.2777 53.6167C37.8097 53.4498 37.3538 53.2362 36.9171 52.9759C37.1567 52.4535 37.3409 51.9037 37.464 51.3356L37.7637 51.5535C38.138 51.8255 38.528 52.0605 38.9291 52.259ZM39.2145 52.1405C39.6761 52.3539 40.1519 52.5186 40.6349 52.6358C40.8485 52.1806 41.0182 51.7054 41.141 51.2172C40.7213 51.0618 40.3091 50.8691 39.9085 50.6377L39.5869 50.4519C39.5239 51.0298 39.3981 51.5957 39.2145 52.1405ZM39.3687 50.326C39.3125 50.9127 39.1896 51.4876 39.0057 52.0401C38.6248 51.85 38.2546 51.626 37.8988 51.3675L37.5138 51.0874C37.619 50.5145 37.6625 49.9245 37.6382 49.3264L39.3687 50.326ZM39.6105 50.1999L40.0235 50.4384C40.4041 50.6584 40.7957 50.8423 41.1941 50.9916C41.3194 50.4229 41.3814 49.8383 41.376 49.249L39.55 48.4356C39.6367 49.0279 39.6552 49.6191 39.6105 50.1999ZM39.3 48.3243C39.397 48.9103 39.425 49.4961 39.3888 50.0719L37.6222 49.0516C37.5955 48.6947 37.5445 48.3357 37.4681 47.976L37.3583 47.4595L39.3 48.3243ZM39.5056 48.1641L41.3695 48.9944C41.3453 48.4178 41.2563 47.8382 41.0985 47.2656L39.0767 46.6084L39.2399 47.1107C39.3534 47.4604 39.4416 47.8121 39.5056 48.1641ZM38.8065 46.5206L39.0211 47.1818C39.1149 47.4702 39.1908 47.7599 39.2496 48.0501L37.2992 47.1813L37.0366 45.9452C37.0463 45.9485 37.056 45.9516 37.0658 45.9548L38.8065 46.5206ZM38.9888 46.338L41.0197 46.9981C40.9309 46.7158 40.8251 46.4355 40.7018 46.1585L40.4192 45.5231L38.6293 45.1425C38.619 45.1404 38.6087 45.1382 38.5985 45.136L38.9888 46.338ZM38.3381 45.0787L38.7185 46.2502L37.1369 45.736C37.0849 45.7191 37.033 45.7021 36.9813 45.6848L36.7644 44.6638C37.2822 44.8201 37.8072 44.9586 38.3381 45.0787ZM38.5162 44.8828C38.5697 44.8946 38.6233 44.9062 38.6771 44.9176L40.3035 45.2634L39.8027 44.1382C39.2619 44.0742 38.7254 43.9914 38.1938 43.8901L38.5162 44.8828ZM37.9356 43.8394L38.2553 44.8237C37.7338 44.7024 37.2184 44.5634 36.7098 44.4068L36.5182 43.5056C36.9861 43.6315 37.4588 43.7429 37.9356 43.8394ZM38.1126 43.6401C38.635 43.7427 39.1623 43.8273 39.6938 43.8933L39.273 42.9478C38.7885 42.9016 38.3066 42.8402 37.828 42.764L38.1126 43.6401ZM37.5726 42.7217L37.8539 43.5879C37.3864 43.4904 36.9231 43.3785 36.4645 43.2526L36.2975 42.4663C36.7194 42.5633 37.1446 42.6485 37.5726 42.7217ZM37.7481 42.518C38.2175 42.5953 38.6902 42.6581 39.1654 42.7061L37.7996 39.6373C37.1914 38.2707 37.0229 36.7602 37.2995 35.3108C37.2882 35.3246 37.2768 35.3383 37.2655 35.3522C36.5895 36.9207 36.504 38.6874 37.0349 40.3217L37.7481 42.518ZM37.6273 34.9011C37.2271 36.4397 37.357 38.0773 38.0096 39.5438L39.4282 42.7311C39.9584 42.7784 40.4916 42.8074 41.0271 42.8176L38.6986 38.7831C37.9902 37.5555 37.6609 36.1583 37.7334 34.7641C37.6982 34.8099 37.6628 34.8555 37.6273 34.9011ZM37.9902 34.424C37.8401 35.8896 38.152 37.3759 38.8978 38.668L41.2945 42.8211C41.3496 42.8214 41.4047 42.8217 41.4598 42.8217H43.1215L39.5032 37.8395C38.7247 36.7675 38.2602 35.5133 38.1428 34.2154C38.0923 34.2853 38.0414 34.3548 37.9902 34.424ZM38.3524 33.9209C38.4218 35.2745 38.8807 36.5909 39.6893 37.7043L43.4058 42.8217H45.5409C45.3693 42.5806 45.1822 42.3468 44.9795 42.1216L40.2049 36.8168C39.3875 35.9086 38.8195 34.8182 38.5382 33.6513C38.477 33.7416 38.415 33.8315 38.3524 33.9209ZM38.7146 33.3877C38.9672 34.5967 39.5353 35.7292 40.3757 36.6629L45.1504 41.9678C45.3962 42.2409 45.6198 42.5263 45.8212 42.8217H47.8617C47.438 41.9684 46.8495 41.1792 46.0989 40.5029L40.7962 35.7265C39.9717 34.9838 39.3361 34.0703 38.9256 33.0615C38.8561 33.1708 38.7858 33.2794 38.7146 33.3877ZM38.8225 32.7935C38.767 32.8825 38.7107 32.971 38.654 33.0593C38.6531 33.0532 38.6521 33.047 38.6511 33.0408C38.7041 32.9452 38.7563 32.8492 38.8079 32.7528C38.8128 32.7664 38.8176 32.7799 38.8225 32.7935ZM39.0772 32.8192C39.4716 33.8577 40.1094 34.7983 40.9501 35.5556L46.2528 40.332C47.0556 41.0552 47.6782 41.9039 48.1175 42.8217H48.5954C49.0348 42.8217 49.4656 42.7851 49.8852 42.7152C49.4007 41.1854 48.4406 39.7916 47.0434 38.7761L41.2706 34.5802C40.4714 33.9994 39.8071 33.2682 39.3084 32.437C39.2326 32.565 39.1556 32.6925 39.0772 32.8192ZM39.1764 32.2076C39.1113 32.3192 39.0452 32.4302 38.9782 32.5408C38.9706 32.5178 38.9631 32.4951 38.9558 32.4721C39.0153 32.357 39.074 32.2414 39.1317 32.1253C39.1464 32.1528 39.1613 32.1803 39.1764 32.2076ZM39.4412 32.2092C39.9308 33.0595 40.597 33.8063 41.4058 34.3942L47.1785 38.59C48.6256 39.6418 49.6173 41.0877 50.1131 42.6735C50.6121 42.5748 51.0939 42.4284 51.5536 42.2392C51.1435 40.0959 49.8395 38.1365 47.8023 36.9599L41.6227 33.3907C40.8814 32.9625 40.229 32.4116 39.6888 31.7683C39.608 31.916 39.5254 32.063 39.4412 32.2092ZM39.5322 31.575C39.4599 31.7084 39.3862 31.8412 39.3112 31.9732C39.293 31.9386 39.2749 31.9036 39.2572 31.8685C39.3219 31.7343 39.3851 31.5996 39.4472 31.4642C39.4751 31.5015 39.5035 31.5384 39.5322 31.575ZM39.8067 31.55C40.3409 32.2032 40.9929 32.7613 41.7376 33.1915L47.9171 36.7607C49.999 37.963 51.337 39.9592 51.7698 42.1463C52.1843 41.9607 52.5795 41.7399 52.9518 41.4876C52.7056 38.7702 51.0354 36.2629 48.3667 35.0743L41.8481 32.1708C41.1974 31.8811 40.5991 31.5002 40.0683 31.0444C39.9833 31.214 39.896 31.3826 39.8067 31.55ZM39.8903 30.8864C39.8124 31.0427 39.7327 31.1981 39.6511 31.3527C39.6188 31.3101 39.5868 31.2671 39.5555 31.2239C39.6238 31.0698 39.6906 30.915 39.7556 30.7597C39.7999 30.8024 39.8448 30.8448 39.8903 30.8864ZM40.1738 30.8316C40.6987 31.2899 41.2934 31.672 41.9417 31.9607L48.4603 34.8642C51.1648 36.0688 52.8732 38.5888 53.1679 41.3359C53.5024 41.0924 53.8166 40.8229 54.1078 40.5303C54.104 37.2534 52.015 34.2074 48.7307 33.1399L41.9444 30.934C41.417 30.7625 40.9154 30.5329 40.4474 30.252C40.359 30.4463 40.2678 30.6397 40.1738 30.8316ZM40.2506 30.1294C40.1682 30.3111 40.0834 30.4917 39.9963 30.6711C39.9467 30.6249 39.8979 30.578 39.8499 30.5303C39.9212 30.3545 39.9903 30.1778 40.0573 30.0003C40.1211 30.0443 40.1854 30.0874 40.2506 30.1294ZM40.5424 30.0406C41.0022 30.3192 41.4959 30.5464 42.0154 30.7152L48.8018 32.9211C52.1039 33.9945 54.2324 37.0104 54.334 40.2934C54.5857 40.0183 54.8179 39.7252 55.0283 39.4161C55.3434 35.5723 52.7621 32.0012 48.8913 31.1781L41.9117 29.6939C41.5395 29.6149 41.1766 29.5072 40.8258 29.373C40.7348 29.597 40.6403 29.8196 40.5424 30.0406ZM40.6123 29.2875C40.5266 29.4986 40.4378 29.7085 40.3456 29.917C40.2763 29.8716 40.2077 29.8252 40.14 29.7776C40.2133 29.5767 40.2839 29.3748 40.3517 29.1721C40.4378 29.2122 40.5247 29.2507 40.6123 29.2875ZM40.9113 29.1594C41.2501 29.2888 41.6003 29.3925 41.9595 29.469L48.9391 30.9531C52.7849 31.7709 55.3943 35.2234 55.2808 39.0205C55.4412 38.7513 55.5858 38.4718 55.7135 38.1831C55.7355 38.0444 55.7541 37.9043 55.769 37.763C56.218 33.4886 53.1185 29.6595 48.846 29.2102L41.7495 28.4641C41.565 28.4447 41.382 28.4183 41.2008 28.3852C41.1089 28.6449 41.0123 28.9032 40.9113 29.1594ZM40.973 28.3398C40.8854 28.586 40.7937 28.8309 40.6979 29.0739C40.6056 29.0352 40.5143 28.9946 40.424 28.952C40.4983 28.722 40.569 28.4907 40.6361 28.2584C40.7475 28.2881 40.8598 28.3152 40.973 28.3398ZM41.2773 28.1652C41.4413 28.1943 41.6068 28.2178 41.7735 28.2353L48.87 28.9815C53.1148 29.4278 56.235 33.1145 56.0329 37.3264C56.2548 36.6034 56.3741 35.8355 56.3741 35.0397C56.3741 30.742 52.8914 27.2579 48.5954 27.2579H41.5673C41.4769 27.5624 41.3802 27.8649 41.2773 28.1652ZM41.3277 27.2566C41.2407 27.5467 41.1479 27.8348 41.0495 28.1209C40.9317 28.0959 40.8148 28.068 40.6987 28.0372C40.7725 27.7716 40.8416 27.5048 40.9059 27.2368C41.0459 27.2475 41.1865 27.2541 41.3277 27.2566ZM41.3952 27.0276C41.9849 24.9851 42.2918 22.8526 42.2918 20.6886V12.1271C42.2918 8.28115 39.503 5.08684 35.838 4.45767C38.3508 5.58972 40.2118 7.99021 40.5207 10.9298L41.4152 19.4444C41.6836 21.9985 41.5217 24.5533 40.959 27.01C41.1037 27.0204 41.2492 27.0262 41.3952 27.0276ZM40.6745 27.2154C40.5593 27.2029 40.4447 27.1876 40.3307 27.1698C40.2883 27.4077 40.2421 27.6452 40.1922 27.8817C40.2866 27.9146 40.3817 27.9455 40.4775 27.9744C40.5476 27.7226 40.6132 27.4695 40.6745 27.2154ZM40.4148 28.1957C40.3237 28.1683 40.2332 28.1391 40.1433 28.1081C40.0972 28.317 40.048 28.525 39.996 28.7324C40.0684 28.7728 40.1416 28.8118 40.2154 28.8496C40.2851 28.6327 40.3516 28.4147 40.4148 28.1957ZM40.1431 29.0709C40.0738 29.0358 40.0052 28.9998 39.9371 28.9625C39.889 29.1462 39.8388 29.3293 39.7861 29.5118C39.839 29.5542 39.8925 29.5958 39.9466 29.6367C40.0146 29.4489 40.0801 29.2603 40.1431 29.0709ZM39.8637 29.8618C39.814 29.8251 39.7649 29.7876 39.7162 29.7498C39.6679 29.911 39.6178 30.0718 39.5659 30.2321C39.6017 30.2719 39.6378 30.3113 39.6746 30.3503C39.7395 30.1882 39.8025 30.0253 39.8637 29.8618ZM39.5795 30.5839C39.5471 30.5504 39.515 30.5166 39.4832 30.4825C39.4358 30.6233 39.387 30.7639 39.3368 30.904C39.3581 30.937 39.3797 30.97 39.4016 31.0027C39.4623 30.8637 39.5216 30.7241 39.5795 30.5839ZM39.2919 31.2499C39.274 31.2243 39.2562 31.1985 39.2387 31.1726C39.1935 31.294 39.1473 31.415 39.1 31.5358C39.1098 31.5578 39.1197 31.5799 39.1296 31.6019C39.1847 31.485 39.2388 31.3677 39.2919 31.2499ZM39.0012 31.8696C38.9949 31.8566 38.9886 31.8434 38.9824 31.8303C38.941 31.9316 38.8991 32.0327 38.8563 32.1335C38.858 32.1397 38.8596 32.1458 38.8612 32.1518C38.9086 32.0581 38.9553 31.964 39.0012 31.8696ZM38.9726 31.2271C39.0099 31.1289 39.0464 31.0304 39.0823 30.9318C39.0745 30.9193 39.0668 30.9068 39.0591 30.8943C39.0287 30.9993 38.9975 31.1041 38.9655 31.2088C38.9679 31.2149 38.9702 31.2211 38.9726 31.2271ZM39.1453 30.589C39.1574 30.6101 39.1697 30.6311 39.182 30.6522C39.2246 30.5303 39.266 30.4081 39.3064 30.2856C39.2858 30.2618 39.2654 30.2379 39.2451 30.2138C39.2129 30.3392 39.1797 30.4642 39.1453 30.589ZM39.0645 29.9908C39.0391 30.0925 39.0131 30.1939 38.9863 30.2953C38.9835 30.2896 38.9805 30.2838 38.9777 30.2781C38.9985 30.171 39.0185 30.0636 39.0377 29.9562C39.0466 29.9677 39.0556 29.9793 39.0645 29.9908ZM39.3147 29.9365C39.3394 29.9672 39.3645 29.998 39.3897 30.0283C39.4355 29.8838 39.48 29.7387 39.5228 29.5933C39.487 29.5633 39.4514 29.533 39.4161 29.5023C39.3836 29.6472 39.3498 29.792 39.3147 29.9365ZM39.2197 29.3249C39.1924 29.4509 39.1639 29.5766 39.1343 29.7022C39.1201 29.6827 39.1058 29.6632 39.0917 29.6436C39.1128 29.5159 39.1327 29.3882 39.1516 29.2604C39.1743 29.2821 39.1969 29.3036 39.2197 29.3249ZM39.4722 29.2447C39.512 29.2806 39.5523 29.3161 39.5929 29.3512C39.6406 29.183 39.6864 29.0143 39.7301 28.8451C39.6768 28.8136 39.6238 28.7816 39.5713 28.7487C39.5401 28.9143 39.5071 29.0797 39.4722 29.2447ZM39.3627 28.6135C39.3352 28.7627 39.3061 28.9116 39.2757 29.0604C39.2475 29.0329 39.2195 29.0052 39.1917 28.9773C39.2118 28.8297 39.2302 28.682 39.2475 28.5342C39.2856 28.561 39.3241 28.5875 39.3627 28.6135ZM39.616 28.5049C39.6732 28.5415 39.7308 28.5774 39.789 28.6124C39.8369 28.4187 39.8823 28.2242 39.9253 28.0292C39.8526 28.0016 39.7805 27.9729 39.7088 27.9429C39.6802 28.1306 39.6493 28.3178 39.616 28.5049ZM39.4906 27.8477C39.4647 28.0205 39.437 28.193 39.4072 28.3653C39.3631 28.3347 39.3195 28.3037 39.2762 28.2721C39.2936 28.1044 39.3092 27.9366 39.3231 27.7687C39.3786 27.7958 39.4344 27.822 39.4906 27.8477ZM39.7433 27.708C39.8197 27.7405 39.8966 27.7717 39.9741 27.8017C40.0208 27.5787 40.0641 27.3548 40.1041 27.1305C40.0105 27.1127 39.9173 27.0931 39.8245 27.0717C39.8004 27.2841 39.7734 27.4962 39.7433 27.708ZM39.5994 27.016C39.5772 27.2144 39.5524 27.4124 39.5249 27.6102C39.4635 27.5815 39.4026 27.5519 39.342 27.5214C39.3555 27.3321 39.3667 27.1425 39.3755 26.9529C39.4498 26.9751 39.5244 26.9961 39.5994 27.016ZM39.6242 26.7846C39.9435 23.6529 39.6157 20.4587 38.6245 17.407L35.9799 9.26455C35.3142 7.21483 33.8787 5.63047 32.0978 4.72764C31.7031 4.85648 31.3224 5.01603 30.9582 5.20348C32.2208 6.01849 33.2686 7.19773 33.9254 8.67341L37.4063 16.4948C38.8493 19.737 39.5113 23.2347 39.3854 26.7155C39.4645 26.7399 39.5442 26.7629 39.6242 26.7846ZM39.1578 26.6412C39.2719 23.2169 38.6158 19.7777 37.1963 16.5883L33.7154 8.76696C33.0589 7.29187 32 6.12172 30.7256 5.3283C30.3309 5.54886 29.9572 5.80283 29.6087 6.08637C30.3958 6.70157 31.0803 7.47536 31.6103 8.39388L35.8894 15.8083C37.8001 19.1192 38.8407 22.8197 38.9667 26.5721C39.0301 26.596 39.0938 26.619 39.1578 26.6412ZM39.1487 26.881C39.09 26.8614 39.0317 26.841 38.9737 26.8199C38.9776 26.9883 38.9795 27.1569 38.9797 27.3255C39.026 27.3524 39.0726 27.3786 39.1197 27.4045C39.1313 27.2301 39.141 27.0556 39.1487 26.881ZM39.1015 27.6559C39.0603 27.6341 39.0192 27.6118 38.9784 27.5892C38.9768 27.7379 38.9738 27.8867 38.9694 28.0354C39 28.0603 39.0307 28.0851 39.0616 28.1094C39.0764 27.9584 39.0897 27.8072 39.1015 27.6559ZM39.0336 28.3784C39.0086 28.3596 38.9837 28.3405 38.9591 28.3213C38.9535 28.4506 38.947 28.5799 38.9394 28.7092C38.9555 28.7273 38.9717 28.7453 38.988 28.7631C39.0043 28.635 39.0195 28.5067 39.0336 28.3784ZM38.9486 29.0574C38.9386 29.047 38.9285 29.0365 38.9185 29.0258C38.9106 29.1346 38.9018 29.2433 38.8924 29.3519C38.8958 29.3574 38.8993 29.3627 38.9029 29.3681C38.9189 29.2646 38.9341 29.1611 38.9486 29.0574ZM38.7229 28.4552C38.728 28.3503 38.7323 28.2455 38.7359 28.1406C38.7247 28.1312 38.7135 28.1216 38.7023 28.1122C38.7058 28.2213 38.7085 28.3306 38.7105 28.4398C38.7146 28.445 38.7187 28.4501 38.7229 28.4552ZM38.6901 27.7952C38.708 27.8114 38.7262 27.8276 38.7443 27.8438C38.7472 27.7148 38.7489 27.5856 38.7495 27.4565C38.7226 27.4403 38.6958 27.424 38.6691 27.4074C38.6772 27.5365 38.6841 27.6657 38.6901 27.7952ZM38.4283 27.251C38.4356 27.3556 38.4422 27.4602 38.4482 27.5649C38.4434 27.5603 38.4389 27.5556 38.4343 27.551C38.4209 27.4427 38.4068 27.3344 38.3919 27.2262C38.4041 27.2346 38.4162 27.2428 38.4283 27.251ZM38.6495 27.122C38.6825 27.1437 38.7158 27.1651 38.7491 27.1861C38.7481 27.0343 38.7455 26.8826 38.7415 26.731C38.6981 26.7135 38.6549 26.6955 38.6118 26.6772C38.6258 26.8253 38.6383 26.9736 38.6495 27.122ZM38.5856 26.4149C38.6345 26.4368 38.6838 26.4581 38.7333 26.4789C38.5935 22.7985 37.5649 19.1716 35.6903 15.9234L31.4112 8.50888C30.8878 7.60173 30.2092 6.83992 29.4285 6.23762C29.048 6.56658 28.6998 6.93183 28.3892 7.32796C28.709 7.64044 29.0069 7.98403 29.2785 8.35803L34.3089 15.2844C36.7053 18.584 38.163 22.4283 38.5856 26.4149ZM28.2217 7.16896C28.5276 6.78098 28.8686 6.42198 29.24 6.09675C28.8721 5.83039 28.4833 5.59826 28.0788 5.40179C27.7091 5.66246 27.3641 5.95416 27.0471 6.27267C27.4611 6.53152 27.8547 6.83061 28.2217 7.16896ZM28.0813 7.35238C27.7083 7.00661 27.3067 6.70276 26.8836 6.44193C26.5396 6.80887 26.2316 7.20851 25.964 7.63494C26.3145 7.91219 26.6466 8.22264 26.9557 8.56608L27.2056 8.84364C27.444 8.31342 27.7385 7.81382 28.0813 7.35238ZM28.2971 5.25332C28.6878 5.45111 29.0637 5.68157 29.4203 5.9435C29.7578 5.66496 30.1186 5.41354 30.4991 5.19258C30.1406 4.98584 29.7665 4.80811 29.3805 4.66093C29.0016 4.83033 28.6395 5.02883 28.2971 5.25332ZM29.6824 4.53365C30.0442 4.68394 30.395 4.86067 30.7319 5.06262C31.0746 4.87865 31.4323 4.71891 31.8026 4.5857C31.4634 4.43124 31.1129 4.30092 30.7539 4.19616C30.385 4.28355 30.0273 4.39677 29.6824 4.53365ZM36.5634 24.5948C34.5759 20.6529 31.4719 17.3393 27.5921 15.0984L26.7343 14.603V15.5412C30.8519 17.5324 34.2634 20.6928 36.5634 24.5948ZM35.8998 23.9559C33.6589 20.4711 30.4975 17.6396 26.7343 15.797V16.6023C30.3793 18.2237 33.5354 20.7612 35.8998 23.9559ZM26.5043 16.5015V15.686C26.3318 15.6039 26.1581 15.5238 25.9831 15.4459L25.0783 15.043L25.1764 15.9762C25.6256 16.1379 26.0683 16.3132 26.5043 16.5015ZM25.2031 16.2306C25.6433 16.3915 26.0771 16.5655 26.5043 16.7523V17.4642C26.1035 17.3088 25.6976 17.1643 25.2873 17.0312L25.2031 16.2306ZM24.9363 15.8912L24.8358 14.9349L23.1666 14.1915L23.4221 15.3939L24.4897 15.741C24.6393 15.7896 24.7881 15.8397 24.9363 15.8912ZM23.4774 15.6538L24.4188 15.9597C24.6012 16.019 24.7825 16.0805 24.9629 16.1442L25.0481 16.955C24.5947 16.8133 24.136 16.6853 23.6723 16.5714L23.4774 15.6538ZM23.1697 15.3119L22.907 14.0758L20.9556 13.2067C21.0143 13.4965 21.0902 13.786 21.1838 14.074L21.3989 14.7362L23.1697 15.3119ZM21.4866 15.0067L23.2248 15.5717L23.4246 16.512C23.272 16.4763 23.1188 16.442 22.9652 16.4094L21.8664 16.1757L21.4866 15.0067ZM21.1286 14.6484L20.965 14.1451C20.8516 13.7958 20.7635 13.4443 20.6996 13.0926L18.8353 12.2623C18.8595 12.8389 18.9487 13.4185 19.1064 13.9911L21.1286 14.6484ZM19.1853 14.2586L21.2164 14.9188L21.6067 16.1205L19.7859 15.7333L19.5028 15.0973C19.3797 14.8207 19.274 14.5407 19.1853 14.2586ZM18.846 13.9065C18.698 13.3266 18.6177 12.7405 18.6015 12.1581L18.1649 11.9637C17.7635 11.7849 17.355 11.6429 16.9434 11.5362C16.8784 12.1149 16.8777 12.7027 16.9447 13.2885L18.846 13.9065ZM16.9779 13.5411L18.9187 14.1719C19.019 14.515 19.1434 14.8553 19.2927 15.1909L19.5079 15.6742L17.4282 15.2319C17.2114 14.679 17.0622 14.1119 16.9779 13.5411ZM16.705 13.2106C16.6466 12.6321 16.6519 12.0524 16.7181 11.4814C16.2222 11.3685 15.7225 11.3062 15.2255 11.2921C15.1111 11.7818 15.044 12.2819 15.0253 12.7849C15.4678 12.8496 15.9109 12.9524 16.3506 13.0954L16.705 13.2106ZM15.0202 13.0167C15.4407 13.0798 15.8616 13.1782 16.2795 13.3141L16.7345 13.462C16.8115 14.0394 16.9525 14.6139 17.1604 15.1751L15.2046 14.7591C15.0768 14.1837 15.016 13.599 15.0202 13.0167ZM14.7964 12.7548C14.816 12.2611 14.881 11.7703 14.9903 11.289C14.536 11.2898 14.0849 11.3307 13.6421 11.4097C13.4963 11.8378 13.3886 12.2765 13.3191 12.7205C13.8063 12.6864 14.3005 12.6968 14.7964 12.7548ZM13.2863 12.9536C13.782 12.9157 14.2856 12.9253 14.7906 12.9858C14.7843 13.5605 14.8396 14.1376 14.9581 14.7068L14.5941 14.6293C14.1417 14.5331 13.6902 14.4773 13.2432 14.4592C13.2092 13.9569 13.2237 13.4526 13.2863 12.9536ZM13.0835 12.7405C13.148 12.3076 13.2479 11.8794 13.383 11.4605C12.9783 11.547 12.5812 11.6654 12.1961 11.8144C12.0278 12.1938 11.8915 12.5836 11.7872 12.9794C12.2099 12.8649 12.6434 12.7845 13.0835 12.7405ZM11.7242 13.2359C12.1563 13.1112 12.6005 13.0234 13.0521 12.975C12.9936 13.4652 12.9802 13.9601 13.0123 14.4531C12.5134 14.4474 12.0208 14.4886 11.54 14.5735C11.5626 14.1246 11.6239 13.677 11.7242 13.2359ZM11.5317 14.8088C11.5215 15.3116 11.5598 15.8147 11.6461 16.3106C12.0926 16.2819 12.5475 16.2903 13.0075 16.3386L13.3771 16.3775C13.1998 15.824 13.0845 15.2557 13.0306 14.6835C12.5222 14.6763 12.0206 14.7193 11.5317 14.8088ZM13.2623 14.6902C13.319 15.2698 13.4406 15.8449 13.6278 16.4039L15.6161 16.6129C15.3508 16.0765 15.1505 15.5199 15.0137 14.9537L14.5463 14.8543C14.1164 14.7629 13.6873 14.709 13.2623 14.6902ZM15.2639 15.0069C15.4075 15.5657 15.615 16.1143 15.8884 16.6415L18.0033 16.8639L17.7388 16.4057C17.5552 16.0876 17.396 15.7621 17.2604 15.4314L15.2639 15.0069ZM17.5345 15.4898C17.6523 15.761 17.7866 16.0284 17.938 16.2908L18.2859 16.8936L20.1372 17.0883L19.6234 15.9339L17.5345 15.4898ZM19.9015 15.993L20.4012 17.116L21.5187 17.2335C21.6747 17.2499 21.8303 17.2679 21.9857 17.2875L21.6887 16.3731L19.9015 15.993ZM21.9484 16.4283L22.2381 17.3206C22.7113 17.3854 23.1811 17.4648 23.647 17.5583L23.4775 16.7608C23.2915 16.7163 23.1048 16.6742 22.9174 16.6344L21.9484 16.4283ZM23.7255 16.8216L23.8927 17.609C24.3149 17.6985 24.7336 17.7999 25.1486 17.9124L25.0742 17.2043C24.6298 17.0634 24.1801 16.9356 23.7255 16.8216ZM25.3136 17.2818L25.3867 17.9785C25.7626 18.0848 26.1353 18.2007 26.5043 18.3256V17.711C26.1121 17.5572 25.7151 17.414 25.3136 17.2818ZM26.7343 17.8027V18.4049C29.5443 19.3898 32.1428 20.912 34.381 22.8906C32.2047 20.6961 29.603 18.9639 26.7343 17.8027ZM33.5481 22.4845C31.513 20.8227 29.2072 19.5253 26.7343 18.6488V19.1596C29.1671 19.8825 31.4708 21.0043 33.5481 22.4845ZM26.5043 19.0926V18.5686C26.1438 18.4451 25.7798 18.3306 25.4127 18.2251L25.4756 18.8239C25.8208 18.9055 26.1637 18.9952 26.5043 19.0926ZM25.5011 19.0664C25.8378 19.1473 26.1722 19.2359 26.5043 19.3318V20.6886C26.5043 22.2462 25.9891 23.7507 25.0532 24.9741C25.6205 23.7761 25.855 22.4353 25.7142 21.0953L25.5011 19.0664ZM25.2386 18.7692L25.1744 18.1579C24.7683 18.046 24.3584 17.9451 23.9451 17.8555L24.0907 18.5406C24.4757 18.6072 24.8584 18.6833 25.2386 18.7692ZM24.1422 18.7832C24.5185 18.8497 24.8925 18.9256 25.264 19.0108L25.4855 21.1194C25.6483 22.6687 25.293 24.2191 24.4896 25.5338C24.9289 24.2829 25.0222 22.9247 24.7421 21.6065L24.1422 18.7832ZM23.847 18.4999L23.6991 17.8036C23.2421 17.7098 22.7813 17.6298 22.3173 17.5639L22.5659 18.3295C22.9952 18.3744 23.4224 18.4313 23.847 18.4999ZM22.6437 18.5691C23.0642 18.615 23.4826 18.6726 23.8983 18.7414L24.5172 21.6543C24.8395 23.1713 24.6513 24.7431 23.9969 26.1299C23.9947 26.1321 23.9926 26.1345 23.9904 26.1367C24.2935 24.8503 24.2434 23.4942 23.8283 22.2165L22.6437 18.5691ZM22.3161 18.3047L22.0643 17.5293C21.8749 17.5047 21.6851 17.4823 21.4947 17.4622L20.5093 17.3587L20.8907 18.2158C21.3679 18.2308 21.8432 18.2605 22.3161 18.3047ZM20.9946 18.4494C21.463 18.4663 21.9295 18.4978 22.3935 18.5432L23.6097 22.2876C24.0565 23.6631 24.0666 25.1326 23.6555 26.4987C23.6299 26.527 23.6044 26.5553 23.5789 26.5838C23.6993 25.3419 23.4999 24.0784 22.9837 22.9186L20.9946 18.4494ZM20.6361 18.2092L20.2452 17.3309L18.4279 17.1398L19.0424 18.2044H20.1665C20.3232 18.2044 20.4797 18.206 20.6361 18.2092ZM19.1751 18.4344H20.1665C20.3577 18.4344 20.5488 18.4367 20.7396 18.4416L22.7737 23.0121C23.3189 24.2373 23.4993 25.5818 23.3106 26.8883C23.2686 26.9368 23.2269 26.9854 23.1854 27.0342C23.1358 25.8733 22.8085 24.7301 22.2171 23.7053L19.1751 18.4344ZM18.7768 18.2044L18.1454 17.1101L16.0211 16.8868C16.1666 17.1443 16.3282 17.3963 16.5062 17.6413L16.915 18.2044H18.7768ZM17.0821 18.4344H18.9097L22.0179 23.8202C22.6343 24.8882 22.9543 26.0889 22.9621 27.3007C22.9078 27.3665 22.854 27.4325 22.8005 27.4986C22.6029 26.4501 22.1755 25.4476 21.5365 24.5678L17.0821 18.4344ZM16.6309 18.2044L16.3202 17.7766C16.1043 17.4793 15.9118 17.1721 15.7424 16.8574L13.7126 16.644C13.9138 17.1848 14.1776 17.7086 14.5045 18.2044H16.6309ZM14.6621 18.4344H16.7979L21.3506 24.7029C22.0094 25.6102 22.4361 26.6522 22.609 27.7394C22.5449 27.821 22.4813 27.9032 22.4184 27.9855C22.1031 27.0747 21.6071 26.2269 20.9498 25.4966L15.2234 19.1342C15.0207 18.909 14.8337 18.6753 14.6621 18.4344ZM14.2307 18.2044C13.9108 17.6987 13.6534 17.1661 13.4581 16.6173L12.9835 16.5673C12.5463 16.5214 12.1139 16.5126 11.6892 16.5384C11.8061 17.1089 11.9871 17.6681 12.2317 18.2044H14.2307ZM12.3412 18.4344H14.3818C14.5832 18.7297 14.8068 19.015 15.0526 19.2881L20.7789 25.6506C21.4509 26.3969 21.9487 27.2704 22.2504 28.2083C22.1777 28.3059 22.1059 28.404 22.035 28.5026C21.6384 27.7486 21.1089 27.0629 20.4639 26.4818L14.1039 20.753C13.3532 20.0768 12.7648 19.2876 12.3412 18.4344ZM22.1517 28.7346C22.1628 28.7575 22.1736 28.7806 22.1844 28.8036C22.2384 28.7152 22.2929 28.6271 22.348 28.5393C22.343 28.5207 22.3379 28.5023 22.3329 28.4838C22.2718 28.567 22.2115 28.6506 22.1517 28.7346ZM22.505 28.2521C22.5078 28.2614 22.5105 28.2706 22.5134 28.2799C22.5596 28.2085 22.6062 28.1372 22.6532 28.0663C22.6529 28.0637 22.6527 28.0611 22.6523 28.0583C22.6029 28.1226 22.5537 28.1873 22.505 28.2521ZM22.4244 28.852C22.382 28.921 22.34 28.9903 22.2983 29.0596C22.3022 29.0685 22.3059 29.0773 22.3096 29.0862C22.348 29.0106 22.3868 28.935 22.4261 28.8597C22.4255 28.8571 22.425 28.8546 22.4244 28.852ZM22.3655 32.1282C22.3549 32.2087 22.3446 32.2893 22.3347 32.3698C22.3417 32.3763 22.3486 32.3827 22.3554 32.3893C22.3597 32.3042 22.3646 32.2191 22.3699 32.134C22.3684 32.132 22.367 32.1302 22.3655 32.1282ZM22.3419 32.6966C22.3285 32.6832 22.315 32.6698 22.3015 32.6566C22.2903 32.7591 22.2797 32.8618 22.27 32.9643C22.2908 32.9786 22.3116 32.993 22.3324 33.0074C22.3348 32.9038 22.3379 32.8002 22.3419 32.6966ZM22.5589 33.1721C22.5603 33.0911 22.5622 33.0102 22.5644 32.9292C22.566 32.9309 22.5676 32.9326 22.5692 32.9344C22.5728 33.0193 22.5769 33.1043 22.5815 33.1891C22.574 33.1835 22.5665 33.1778 22.5589 33.1721ZM22.3273 33.2864C22.3004 33.2668 22.2734 33.2474 22.2462 33.228C22.2358 33.3518 22.2265 33.4755 22.2181 33.5992C22.2541 33.6163 22.2901 33.6337 22.3259 33.6514C22.3254 33.5298 22.3259 33.4081 22.3273 33.2864ZM22.5566 33.7703C22.5556 33.6671 22.5553 33.5639 22.5558 33.4606C22.5707 33.4724 22.5854 33.4843 22.6002 33.4962C22.6071 33.5997 22.6148 33.7032 22.6231 33.8066C22.601 33.7943 22.5789 33.7823 22.5566 33.7703ZM22.3284 33.9101C22.2867 33.8887 22.2448 33.8676 22.2026 33.8471C22.1944 33.9924 22.1875 34.1376 22.1821 34.2829C22.2344 34.298 22.2866 34.3137 22.3386 34.33C22.3339 34.19 22.3305 34.0501 22.3284 33.9101ZM22.5713 34.407C22.5667 34.2832 22.5631 34.1591 22.5605 34.035C22.5896 34.0513 22.6185 34.0678 22.6473 34.0845C22.6586 34.2056 22.6709 34.3268 22.684 34.4475C22.6466 34.4338 22.609 34.4203 22.5713 34.407ZM22.348 34.5744C22.2904 34.5557 22.2326 34.5376 22.1744 34.5204C22.0605 38.706 23.0984 42.8793 25.2254 46.5649L28.7932 52.7469C29.3169 53.6544 29.9957 54.4165 30.7769 55.0189C31.1572 54.6901 31.5052 54.3251 31.8157 53.9292C31.4954 53.6165 31.1971 53.2724 30.9251 52.8979L26.7309 47.1228C24.0514 43.4334 22.5456 39.0632 22.348 34.5744ZM31.9561 53.7448C31.6525 53.4462 31.3695 53.1186 31.1111 52.7627L26.9169 46.9876C24.2822 43.36 22.7937 39.0673 22.5818 34.6551C22.6259 34.6712 22.6697 34.6877 22.7134 34.7047C23.2779 39.3922 25.272 43.8289 28.4725 47.385L32.8308 52.2272C32.596 52.7677 32.3017 53.2764 31.9561 53.7448ZM31.9834 54.0882C31.6774 54.4759 31.3366 54.8347 30.9654 55.1597C31.3334 55.426 31.7223 55.6581 32.1267 55.8545C32.4962 55.594 32.8411 55.3026 33.1581 54.9842C32.744 54.7255 32.3503 54.4265 31.9834 54.0882ZM33.3216 54.8149C32.8984 54.5542 32.4969 54.2505 32.1238 53.9048C32.4666 53.4437 32.7609 52.9444 32.9995 52.4146L33.2471 52.6898C33.5568 53.0339 33.8896 53.345 34.2411 53.6227C33.9736 54.0489 33.6656 54.4482 33.3216 54.8149ZM33.3605 55.1066C33.0539 55.4187 32.7215 55.7063 32.3662 55.9658C32.7444 56.1339 33.1352 56.2714 33.5342 56.3774C33.8934 56.1694 34.2326 55.9342 34.5497 55.6752C34.1404 55.5195 33.7424 55.3297 33.3605 55.1066ZM34.7514 55.5048C34.3285 55.3517 33.9176 55.1616 33.5238 54.9353C33.8591 54.5733 34.1607 54.1808 34.4244 53.7632C34.8246 54.0611 35.2473 54.3173 35.6862 54.5313C35.4042 54.8811 35.0916 55.2071 34.7514 55.5048ZM35.8311 54.3459C36.1348 53.9452 36.3995 53.5157 36.621 53.0638C36.2425 52.8244 35.879 52.5499 35.5351 52.2401L35.2601 51.9923C35.0782 52.5442 34.8376 53.0716 34.5448 53.5661C34.9519 53.8709 35.383 54.1309 35.8311 54.3459ZM34.3614 53.4245C34.6561 52.9224 34.8957 52.3857 35.0728 51.8236L33.5873 50.4856C33.4868 51.0757 33.3216 51.6437 33.0996 52.1821L33.4179 52.5358C33.7124 52.8629 34.0282 53.1592 34.3614 53.4245ZM32.9284 51.992C33.1407 51.4554 33.2951 50.8896 33.3839 50.3024L30.2323 47.4635C26.5212 44.1207 24.0178 39.6858 23.0492 34.8449C23.0188 34.8313 22.9882 34.8178 22.9575 34.8045C23.5368 39.3984 25.5037 43.7427 28.6434 47.231L32.9284 51.992ZM22.9259 34.5418C22.9493 34.5513 22.9728 34.5611 22.9961 34.571C22.977 34.4691 22.9586 34.367 22.9409 34.2649C22.9249 34.2544 22.9088 34.2442 22.8927 34.2339C22.9031 34.3367 22.9141 34.4392 22.9259 34.5418ZM22.8656 33.9465C22.8739 33.9515 22.8821 33.9564 22.8902 33.9614C22.8769 33.8775 22.8639 33.7934 22.8514 33.7092C22.8495 33.7076 22.8475 33.7059 22.8457 33.7041C22.8519 33.785 22.8586 33.8658 22.8656 33.9465ZM23.2068 34.4459C23.2214 34.5257 23.2365 34.6053 23.252 34.6849C23.2608 34.6889 23.2696 34.6932 23.2784 34.6972C23.2562 34.6152 23.2346 34.533 23.2134 34.4506C23.2112 34.4492 23.2089 34.4475 23.2068 34.4459ZM23.3604 34.9936C23.3433 34.985 23.3262 34.9763 23.309 34.9677C24.2918 39.695 26.7551 44.0219 30.3861 47.2926L33.4207 50.026C33.4545 49.7316 33.4718 49.4322 33.4718 49.1287V48.434L31.9909 47.3577C27.7901 44.3044 24.7645 39.9401 23.3604 34.9936ZM33.4718 48.1497L32.1261 47.1716C28.0282 44.193 25.0597 39.9545 23.6437 35.146C23.6461 35.1473 23.6485 35.1487 23.6508 35.1501C25.4813 40.0597 28.9376 44.2201 33.4718 46.9178V48.1497ZM33.7017 48.6011V49.1287C33.7017 49.4967 33.6769 49.8588 33.6289 50.2136L35.1453 51.5794C35.3003 51.0236 35.3948 50.4447 35.4218 49.8513L33.7017 48.6011ZM35.4295 49.5725L33.7017 48.3167V47.0528C33.7107 47.058 33.7199 47.0633 33.7289 47.0685L35.3139 47.9839L35.3865 48.6752C35.4182 48.9768 35.4323 49.2763 35.4295 49.5725ZM35.6433 50.0122C35.6049 50.6096 35.5 51.1918 35.3354 51.7507L35.6888 52.0691C36.0158 52.3635 36.3609 52.6252 36.7199 52.8543C36.9607 52.324 37.1428 51.7652 37.2602 51.1875L35.6433 50.0122ZM37.3068 50.9371L35.6561 49.7374C35.6668 49.3796 35.6537 49.0169 35.6152 48.651L35.5601 48.1261L37.4011 49.1894C37.4363 49.7825 37.4028 50.3681 37.3068 50.9371ZM37.3796 48.9114C37.3515 48.6166 37.3061 48.3203 37.2431 48.0238L37.0986 47.3438L35.4267 46.5991C35.4172 46.5949 35.4078 46.5907 35.3983 46.5864L35.5304 47.8434L37.3796 48.9114ZM35.2842 47.7012L35.1555 46.4762C34.6608 46.2482 34.176 46.0036 33.7017 45.7429V46.7865C33.749 46.8142 33.7964 46.8418 33.8438 46.8693L35.2842 47.7012ZM33.4718 46.6496V45.6148C29.4356 43.3362 26.1772 39.8917 24.1255 35.7333C25.9773 40.263 29.2455 44.1009 33.4718 46.6496ZM24.6936 36.3341C26.7158 40.0984 29.7568 43.225 33.4718 45.3502V44.4399C29.8946 42.5611 26.8624 39.7685 24.6936 36.3341ZM33.7017 44.5589V45.48C34.1669 45.739 34.6424 45.9825 35.1275 46.2097L35.0194 45.1805C34.5728 44.9868 34.1334 44.7795 33.7017 44.5589ZM34.9918 44.9175C34.5545 44.7249 34.1244 44.519 33.7017 44.3003V43.4964C34.0945 43.6793 34.493 43.8511 34.8966 44.0117L34.9918 44.9175ZM35.2614 45.2838L35.3705 46.3216C35.4203 46.3443 35.4702 46.3667 35.5202 46.389L37.0396 47.0658L36.7837 45.861C36.268 45.686 35.7604 45.4934 35.2614 45.2838ZM36.728 45.5988C36.2218 45.4237 35.7236 45.2313 35.234 45.0224L35.1376 44.1061C35.5899 44.2803 36.0485 44.4405 36.5128 44.5864L36.728 45.5988ZM36.4578 44.3277L36.2686 43.4369C35.8505 43.3193 35.4364 43.1901 35.0267 43.0496L35.1106 43.8489C35.5538 44.0222 36.0029 44.1819 36.4578 44.3277ZM34.8695 43.753L34.7866 42.9657C34.4213 42.8358 34.0595 42.6968 33.7017 42.5488V43.2425C34.0856 43.4234 34.475 43.5936 34.8695 43.753ZM33.4718 43.1328V42.4523C30.6787 41.2622 28.1329 39.5257 25.9928 37.3288C28.0589 39.7717 30.6097 41.7461 33.4718 43.1328ZM26.7143 37.7207C28.6889 39.6129 30.9799 41.1275 33.4718 42.2021V41.9905C33.4718 41.869 33.4749 41.7478 33.4808 41.6271C31.0331 40.7241 28.7423 39.4074 26.7143 37.7207ZM33.7073 41.7092C33.7036 41.8027 33.7017 41.8965 33.7017 41.9905V42.2997C34.0507 42.4458 34.4036 42.5831 34.76 42.7118L34.689 42.0351C34.3593 41.9337 34.0319 41.8251 33.7073 41.7092ZM34.6628 41.7862C34.3465 41.6875 34.0324 41.582 33.7209 41.4698C33.8369 39.9017 34.4741 38.4149 35.5335 37.2488C34.7999 38.555 34.4821 40.066 34.6407 41.5759L34.6628 41.7862ZM34.9277 42.107L35.0002 42.797C35.4007 42.9366 35.8057 43.0652 36.2145 43.1825L36.05 42.4081C35.6731 42.3171 35.2988 42.2166 34.9277 42.107ZM35.997 42.1584C35.6292 42.0677 35.2639 41.9679 34.9017 41.8593L34.8693 41.5518C34.6857 39.8044 35.1612 38.0556 36.1951 36.6453C35.6023 38.021 35.4441 39.5565 35.7596 41.0413L35.997 42.1584ZM36.2446 42.218C36.6575 42.3148 37.0735 42.4003 37.4922 42.4743L36.8162 40.3928C36.3475 38.9496 36.3442 37.4064 36.7896 35.9767C35.9093 37.4871 35.6195 39.2754 35.9845 40.9935L36.2446 42.218ZM36.0584 24.8741C33.4115 22.3078 30.207 20.443 26.7343 19.3996V20.6886C26.7343 22.6196 25.9674 24.4714 24.6025 25.8368C24.5698 25.8697 24.5372 25.9025 24.5046 25.9354C24.3882 26.1077 24.264 26.2754 24.1322 26.4383C24.1028 26.4746 24.0736 26.5109 24.0445 26.5473C23.9468 26.7305 23.841 26.9101 23.7271 27.0856C23.7013 27.1253 23.6757 27.165 23.6502 27.2048C23.5723 27.3967 23.486 27.5858 23.3913 27.7717C23.3701 27.8134 23.3491 27.8549 23.3282 27.8966C23.2707 28.0961 23.2045 28.2938 23.1296 28.4891C23.1129 28.5329 23.0961 28.5764 23.0797 28.6202C23.0434 28.8245 22.9982 29.028 22.9441 29.23C22.9318 29.2756 22.9198 29.3212 22.908 29.3668C22.8932 29.5734 22.8696 29.7801 22.8369 29.9863C22.8295 30.0328 22.8223 30.0793 22.8152 30.1259C22.822 30.333 22.8202 30.541 22.8093 30.7494C22.8068 30.7959 22.8046 30.8423 22.8023 30.8887C22.8309 31.0946 22.8509 31.3023 22.8619 31.5114C22.8642 31.5573 22.8668 31.6032 22.8694 31.649C22.9196 31.8512 22.9613 32.0562 22.9941 32.2637C23.0013 32.309 23.0086 32.3543 23.016 32.3997C23.0871 32.5955 23.1499 32.7952 23.2042 32.9979C23.2164 33.043 23.2285 33.0881 23.2409 33.133C23.3316 33.3197 23.4146 33.5109 23.4895 33.7063C23.5064 33.7503 23.5235 33.7943 23.5406 33.8383C23.6499 34.014 23.7522 34.195 23.8468 34.3808C23.8678 34.422 23.8889 34.4631 23.9102 34.5041C24.038 34.6683 24.1592 34.8384 24.2733 35.0143C24.2986 35.0531 24.324 35.0919 24.3493 35.1305C24.4936 35.2804 24.6319 35.4368 24.7637 35.5997C24.7927 35.6356 24.8218 35.6713 24.851 35.7069C25.0103 35.8409 25.1644 35.9823 25.3127 36.1306C27.6542 38.473 30.4519 40.2542 33.4968 41.3876C33.6387 39.6774 34.3813 38.0648 35.6034 36.8421C35.8924 36.5531 36.1728 36.2571 36.4444 35.9546C36.6226 35.7274 36.7961 35.4971 36.9649 35.2641C37.1178 35.0204 37.2659 34.7742 37.409 34.5257C37.5373 34.2642 37.6602 34.0008 37.778 33.7356C37.8774 33.464 37.9715 33.1909 38.0603 32.9167C38.1306 32.637 38.1955 32.3565 38.2549 32.0753C38.2959 31.7887 38.3313 31.5018 38.3611 31.2149C38.3719 30.9237 38.3771 30.6329 38.3768 30.3427C38.3572 30.0523 38.3319 29.7629 38.3012 29.4745C38.2514 29.1892 38.1963 28.9054 38.136 28.6231C38.0573 28.3467 37.9735 28.0722 37.8847 27.8C37.7775 27.5327 37.6653 27.268 37.5484 27.0061C37.4118 26.7474 37.2704 26.4919 37.1243 26.2396C36.9631 25.9996 36.7975 25.7629 36.6279 25.5299C36.4418 25.3074 36.252 25.0886 36.0584 24.8741ZM25.3145 36.862C27.4023 39.9312 30.2046 42.4417 33.4718 44.1796V43.3881C30.303 41.8716 27.5076 39.6437 25.3145 36.862ZM35.1656 23.3801C32.9158 20.5781 30.0288 18.3374 26.7343 16.8542V17.5547C29.9447 18.8391 32.8274 20.8305 35.1656 23.3801ZM34.8004 55.7659C35.1718 55.8933 35.5517 55.9931 35.9366 56.0648C35.6278 56.2704 35.3014 56.4554 34.9589 56.6175C34.5861 56.5898 34.2163 56.5353 33.8525 56.4548C34.1869 56.2476 34.5035 56.0171 34.8004 55.7659ZM11.5311 13.0535C11.1558 13.1688 10.7899 13.3114 10.4363 13.4796C10.5654 13.1319 10.7206 12.7903 10.9025 12.4578C11.2203 12.261 11.5515 12.0877 11.8931 11.9389C11.7444 12.3032 11.6237 12.6757 11.5311 13.0535ZM55.5186 39.0699C55.4342 39.2147 55.3454 39.3565 55.2524 39.4954C55.2373 39.6634 55.2169 39.832 55.1909 40.0008C55.3188 39.7005 55.4285 39.3897 55.5186 39.0699ZM54.7838 40.8194C54.8202 40.6839 54.8533 40.5467 54.8827 40.4078C54.92 40.2326 54.9511 40.0573 54.976 39.8824C54.7782 40.1429 54.5649 40.3908 54.3374 40.6249C54.3338 40.9508 54.3102 41.2789 54.2658 41.6074C54.4535 41.3564 54.6266 41.0934 54.7838 40.8194ZM53.9735 41.9744C54.0438 41.6018 54.0859 41.2287 54.1013 40.8579C53.817 41.1272 53.5132 41.3758 53.1919 41.6014C53.2205 41.9893 53.2209 42.3811 53.1919 42.7736C53.4707 42.5266 53.7321 42.2596 53.9735 41.9744ZM53.1607 43.1037C53.4111 42.8949 53.649 42.6708 53.8726 42.4328C53.8295 42.6041 53.7803 42.7751 53.725 42.9457C53.6811 43.0807 53.6339 43.2138 53.5835 43.3448C53.3989 43.6004 53.1996 43.8435 52.987 44.073C53.0655 43.7511 53.1232 43.4275 53.1607 43.1037ZM52.9423 42.9857C52.9851 42.5727 52.9943 42.1599 52.9713 41.751C52.6047 41.9907 52.2173 42.2011 51.8123 42.379C51.8846 42.8106 51.9219 43.2489 51.9229 43.689C52.2812 43.4817 52.622 43.2464 52.9423 42.9857ZM51.919 43.9556C52.2622 43.7647 52.5907 43.5491 52.9016 43.3109C52.8476 43.6779 52.7667 44.0444 52.658 44.4077C52.3879 44.6663 52.0999 44.9047 51.7966 45.1215C51.8664 44.734 51.9069 44.3445 51.919 43.9556ZM51.6922 43.8174C51.6986 43.3652 51.6656 42.9147 51.5944 42.4709C51.1416 42.654 50.6683 42.7968 50.1789 42.895C50.3127 43.3706 50.4026 43.8575 50.4473 44.349C50.879 44.2078 51.2954 44.0294 51.6922 43.8174ZM50.4653 44.585C50.8867 44.4504 51.2942 44.2815 51.6839 44.0814C51.6641 44.4904 51.6118 44.9 51.5262 45.3063C51.1802 45.5322 50.8164 45.7306 50.4383 45.8994C50.4833 45.4616 50.4921 45.0219 50.4653 44.585ZM50.2226 44.4188C50.1802 43.9177 50.0896 43.4213 49.9519 42.9371C49.5109 43.0124 49.0577 43.0517 48.5954 43.0517H48.2232C48.4573 43.5836 48.6314 44.1367 48.7447 44.7002C49.2512 44.6541 49.7457 44.5589 50.2226 44.4188ZM48.7869 44.9273C49.284 44.8808 49.7696 44.7883 50.2389 44.6535C50.2633 45.1023 50.2491 45.5538 50.1955 46.003C49.7787 46.1723 49.346 46.3062 48.9019 46.4014C48.9089 45.9078 48.8703 45.4143 48.7869 44.9273ZM48.5137 44.7177C48.3968 44.1472 48.2158 43.588 47.9711 43.0517H45.9722C46.2923 43.5574 46.5496 44.09 46.7448 44.6388L47.2197 44.6887C47.6567 44.7347 48.089 44.7434 48.5137 44.7177ZM46.8258 44.8786L47.1957 44.9175C47.6555 44.9658 48.1104 44.9742 48.5567 44.9455C48.643 45.4414 48.6813 45.9445 48.6711 46.4474C48.1822 46.5368 47.6807 46.5798 47.1722 46.5726C47.1185 46.0004 47.0032 45.4321 46.8258 44.8786ZM46.4904 44.612C46.2892 44.0713 46.0255 43.5475 45.6985 43.0517H43.5728L43.8835 43.4794C44.0994 43.7766 44.2919 44.0838 44.4614 44.3986L46.4904 44.612ZM44.5876 44.6432L46.5752 44.8522C46.7624 45.4112 46.884 45.9862 46.9405 46.5659C46.5156 46.5471 46.0865 46.4932 45.6567 46.4018L45.19 46.3026C45.0532 45.7363 44.853 45.1797 44.5876 44.6432ZM44.1826 44.3694C44.0371 44.1118 43.8754 43.8597 43.6974 43.6145L43.2886 43.0517H41.4598C41.449 43.0517 41.4384 43.0517 41.4276 43.0516L42.0593 44.1461L44.1826 44.3694ZM42.2014 44.3923L44.3153 44.6146C44.5887 45.1419 44.7962 45.6905 44.9398 46.2493L42.9443 45.825C42.8087 45.494 42.6492 45.1684 42.4655 44.85L42.2014 44.3923ZM41.7766 44.1164L41.161 43.0497C40.6165 43.0426 40.0742 43.0164 39.5351 42.9712L39.9594 43.9248C40.014 43.9308 40.0686 43.9368 40.1233 43.9426L41.7766 44.1164ZM40.0677 44.168C40.0782 44.1691 40.0887 44.1702 40.0993 44.1714L41.9187 44.3626L42.2664 44.965C42.4179 45.2275 42.5524 45.4951 42.6701 45.7666L40.5815 45.3225L40.0677 44.168ZM40.6971 45.5822L40.9119 46.065C41.0614 46.4008 41.1859 46.7414 41.2862 47.0847L43.2267 47.7155C43.1423 47.1447 42.9933 46.5774 42.7765 46.0244L40.6971 45.5822ZM43.0443 46.0814C43.2522 46.6427 43.3932 47.2171 43.4701 47.7947L43.9231 47.9419C44.3413 48.0778 44.7625 48.1764 45.1833 48.2395C45.1877 47.6571 45.1269 47.0725 44.9991 46.497L43.0443 46.0814ZM45.2456 46.5494C45.3641 47.1185 45.4193 47.6956 45.413 48.2704C45.9179 48.3306 46.421 48.3403 46.9165 48.3024C46.9792 47.8035 46.9937 47.2991 46.9597 46.7969C46.5127 46.7788 46.0611 46.7229 45.6089 46.6267L45.2456 46.5494ZM47.1905 46.803C47.2226 47.2959 47.2092 47.7908 47.1508 48.2809C47.6024 48.2325 48.0465 48.1447 48.4786 48.02C48.5789 47.5789 48.6402 47.1313 48.6628 46.6826C48.1821 46.7674 47.6896 46.8086 47.1905 46.803ZM48.8951 46.638C48.8762 47.0753 48.8214 47.5117 48.7309 47.9424C49.1247 47.8141 49.5071 47.6547 49.8747 47.4662C50.0025 47.0712 50.0972 46.6693 50.1597 46.2647C49.7511 46.4228 49.3283 46.5482 48.8951 46.638ZM50.4066 46.1642C50.3539 46.5495 50.2729 46.9329 50.163 47.3108C50.4875 47.1268 50.799 46.9196 51.0949 46.6905C51.241 46.3407 51.3596 45.9847 51.4516 45.6254C51.1174 45.8299 50.7681 46.0101 50.4066 46.1642ZM51.7309 45.4465C51.6599 45.7644 51.5688 46.0802 51.4571 46.3921C51.6929 46.1855 51.917 45.9641 52.1278 45.7286C52.1911 45.6043 52.2517 45.4776 52.3091 45.3485C52.3822 45.1844 52.449 45.0192 52.5098 44.8529C52.2623 45.0666 52.0022 45.2648 51.7309 45.4465ZM52.8606 44.5317C52.8111 44.6927 52.7562 44.8528 52.6959 45.0122C52.8829 44.7456 53.0543 44.4651 53.2085 44.1717C53.0962 44.2956 52.9802 44.4156 52.8606 44.5317ZM51.6685 46.5121C51.5435 46.6239 51.415 46.7316 51.2835 46.835C51.2171 46.9905 51.1456 47.1447 51.0687 47.2975C51.2834 47.0509 51.4839 46.7888 51.6685 46.5121ZM50.4286 47.9502C50.505 47.833 50.5787 47.7128 50.6495 47.5901C50.7394 47.4345 50.8232 47.277 50.9011 47.1179C50.6324 47.3047 50.3527 47.4746 50.0639 47.6271C49.9597 47.9362 49.8359 48.2412 49.6921 48.5399C49.9484 48.3592 50.1944 48.1624 50.4286 47.9502ZM49.3007 48.7988C49.4828 48.4659 49.6382 48.124 49.7673 47.7759C49.4135 47.9443 49.0473 48.087 48.6718 48.2024C48.579 48.5803 48.4583 48.9532 48.3095 49.3178C48.6512 49.1689 48.9826 48.9955 49.3007 48.7988ZM48.1778 49.6219C48.4808 49.5007 48.7766 49.361 49.0632 49.2034C48.9693 49.3532 48.8697 49.5007 48.7642 49.6459C48.6808 49.7608 48.5948 49.8728 48.5062 49.9819C48.2513 50.1682 47.9862 50.338 47.7126 50.4908C47.8869 50.2087 48.0419 49.9185 48.1778 49.6219ZM48.0065 49.4422C48.1749 49.0625 48.3112 48.6726 48.4156 48.2765C47.9929 48.3911 47.5595 48.4714 47.1193 48.5155C47.0547 48.9484 46.9548 49.3768 46.8197 49.7958C47.2244 49.7094 47.6214 49.5911 48.0065 49.4422ZM46.7337 50.0483C47.1191 49.9728 47.4979 49.8693 47.8673 49.7389C47.7025 50.0714 47.5123 50.3952 47.2964 50.7072C46.9597 50.8694 46.6122 51.0072 46.2569 51.1194C46.443 50.7725 46.6019 50.4144 46.7337 50.0483ZM46.5606 49.8465C46.7066 49.4183 46.8143 48.9796 46.8837 48.5355C46.3968 48.5697 45.9028 48.5591 45.4072 48.5013C45.3876 48.995 45.3226 49.4858 45.2133 49.9671C45.6673 49.9663 46.1181 49.9254 46.5606 49.8465ZM45.1575 50.1971C45.5996 50.1994 46.039 50.1648 46.4712 50.0951C46.326 50.4781 46.1497 50.8516 45.9425 51.2115C45.5441 51.3192 45.1371 51.3955 44.7257 51.4389C44.9039 51.0364 45.048 50.621 45.1575 50.1971ZM44.9781 49.964C45.0925 49.4743 45.1597 48.9743 45.1783 48.4712C44.7354 48.4065 44.292 48.3036 43.8521 48.1607L43.4994 48.046C43.5579 48.6243 43.5525 49.2041 43.4862 49.7749C43.9819 49.8876 44.4813 49.9498 44.9781 49.964ZM43.4562 50.0039C43.943 50.1133 44.4332 50.1753 44.921 50.1924C44.8056 50.6267 44.6526 51.0519 44.4628 51.4623C44.0143 51.4946 43.5618 51.488 43.1102 51.4414C43.2691 50.9742 43.3851 50.4929 43.4562 50.0039ZM43.261 49.7202C43.3261 49.1415 43.3267 48.5537 43.2598 47.9681L41.3589 47.3503C41.507 47.9302 41.5871 48.5162 41.6033 49.0984L42.0388 49.2925C42.4405 49.4713 42.849 49.6134 43.261 49.7202ZM41.6063 49.3516L41.9454 49.5025C42.3679 49.6908 42.798 49.8394 43.2316 49.9502C43.1605 50.4484 43.0416 50.9387 42.8765 51.4138C42.384 51.3477 41.8936 51.2336 41.4124 51.0696C41.538 50.5088 41.6039 49.9327 41.6063 49.3516ZM41.3586 51.2943C41.2368 51.7731 41.0713 52.2397 40.8643 52.6878C41.3086 52.7813 41.7582 52.8351 42.2076 52.8499C42.4392 52.4615 42.6359 52.0548 42.7959 51.6349C42.3126 51.567 41.8315 51.4539 41.3586 51.2943ZM43.0307 51.6644C42.8775 52.0743 42.6907 52.4725 42.4716 52.8541C42.8853 52.8538 43.298 52.8206 43.7056 52.755C43.9492 52.4188 44.1635 52.0658 44.3479 51.7002C43.9107 51.7243 43.4701 51.7128 43.0307 51.6644ZM44.6138 51.681C44.4446 52.0313 44.2491 52.3707 44.0278 52.6962C44.3928 52.6218 44.7526 52.5212 45.1043 52.395C45.3516 52.1074 45.5744 51.8054 45.773 51.492C45.3923 51.583 45.0048 51.6463 44.6138 51.681ZM46.0941 51.4082C45.928 51.6888 45.7437 51.9611 45.541 52.2233C45.8289 52.1 46.11 51.9589 46.3829 51.8002C46.4823 51.7011 46.5796 51.5987 46.6747 51.4931C46.7946 51.3599 46.909 51.2238 47.0179 51.0848C46.7166 51.2114 46.4079 51.3193 46.0941 51.4082ZM47.4508 50.8878C47.3537 51.026 47.2517 51.1617 47.1447 51.2951C47.4057 51.0988 47.6562 50.8844 47.8942 50.6523C47.7488 50.7355 47.6008 50.8141 47.4508 50.8878ZM45.7043 52.4032C45.5509 52.4707 45.3958 52.5332 45.239 52.5908C45.1281 52.7179 45.0125 52.8422 44.8923 52.9636C45.1722 52.7957 45.4435 52.6089 45.7043 52.4032ZM44.0819 53.3865C44.191 53.2983 44.2984 53.2068 44.4037 53.1118C44.5369 52.9919 44.6651 52.8683 44.788 52.7415C44.4751 52.8358 44.1571 52.9109 43.8357 52.9665C43.6414 53.2281 43.4297 53.4795 43.2008 53.719C43.4998 53.6265 43.7941 53.5157 44.0819 53.3865ZM42.7486 53.8443C43.0244 53.5842 43.2775 53.3072 43.5077 53.0163C43.1196 53.067 42.7275 53.0895 42.3349 53.0831C42.1301 53.4138 41.9002 53.7309 41.6461 54.0315C42.0169 53.9955 42.3855 53.9331 42.7486 53.8443ZM41.4269 54.2801C41.7524 54.2584 42.0766 54.2169 42.3978 54.1559C42.2621 54.2692 42.1217 54.3788 41.9766 54.4842C41.8619 54.5676 41.7459 54.6472 41.6285 54.7233C41.3286 54.8217 41.024 54.9014 40.7168 54.9622C40.9694 54.7479 41.2062 54.52 41.4269 54.2801ZM41.3195 54.0563C41.5968 53.7474 41.8468 53.4188 42.0684 53.0744C41.631 53.0528 41.194 52.9952 40.7619 52.9011C40.5668 53.2928 40.3395 53.6692 40.0816 54.0259C40.4932 54.0688 40.9072 54.0788 41.3195 54.0563ZM39.9217 54.2394C40.3116 54.2867 40.7039 54.3054 41.0954 54.2953C40.8362 54.5606 40.5554 54.8096 40.2539 55.0395C39.8835 55.0899 39.5103 55.1134 39.1376 55.1104C39.4218 54.8381 39.6835 54.5468 39.9217 54.2394ZM38.8936 55.3348C38.6491 55.5504 38.3897 55.7523 38.116 55.9391C38.4278 55.9107 38.739 55.8634 39.0476 55.7969C39.1726 55.7333 39.2964 55.6662 39.4192 55.5952C39.5746 55.5056 39.7256 55.4113 39.8724 55.3127C39.5466 55.34 39.2197 55.3473 38.8936 55.3348ZM40.345 55.259C40.2101 55.3603 40.0712 55.4579 39.9283 55.5516C40.2371 55.4456 40.5413 55.3191 40.8391 55.1721C40.6752 55.2063 40.5103 55.2352 40.345 55.259ZM38.2158 56.1605C38.049 56.1774 37.8821 56.189 37.7152 56.1953C37.5705 56.2819 37.4221 56.3644 37.2704 56.4427C37.5884 56.3695 37.9041 56.2756 38.2158 56.1605ZM42.4786 54.3872C42.6107 54.2792 42.7386 54.1678 42.862 54.0531C43.0239 54.0122 43.1846 53.9663 43.3439 53.9152C43.0634 54.0923 42.7743 54.2498 42.4786 54.3872ZM49.2109 49.3997C49.3036 49.2558 49.391 49.1099 49.4732 48.9623C49.6148 48.8731 49.7538 48.7795 49.89 48.6814C49.6773 48.9374 49.4504 49.1769 49.2109 49.3997ZM54.0739 42.5733C54.1174 42.408 54.1554 42.2424 54.1879 42.0767C54.295 41.9482 54.3983 41.8163 54.4973 41.6811C54.3743 41.99 54.2325 42.2877 54.0739 42.5733ZM29.9321 57.4192C29.7684 57.3836 29.6061 57.343 29.4454 57.2974C29.281 57.3351 29.1145 57.3676 28.946 57.3951C29.271 57.4239 29.6003 57.4323 29.9321 57.4192ZM28.0419 57.2607C28.1818 57.2536 28.3225 57.2427 28.4635 57.2278C28.6417 57.2091 28.8178 57.1844 28.9918 57.1541C28.6831 57.0465 28.3815 56.9201 28.0887 56.7761C27.7778 56.8734 27.4588 56.9523 27.1329 57.0115C27.4294 57.1125 27.7329 57.196 28.0419 57.2607ZM26.6935 56.8468C27.0695 56.7986 27.437 56.7234 27.7942 56.6235C26.0575 55.6782 24.6655 54.0918 24.0064 52.0623L21.8014 45.2734C20.6388 41.694 20.3797 37.9206 20.9985 34.2774C20.8867 34.2641 20.7744 34.2535 20.6618 34.2455C19.8867 37.5087 19.8316 40.934 20.542 44.2772L22.0256 51.2597C22.5816 53.8766 24.3922 55.9044 26.6935 56.8468ZM20.4284 34.233C19.6546 37.5167 19.6025 40.962 20.3171 44.3251L21.8006 51.3075C22.3421 53.856 24.0393 55.8618 26.2266 56.8926C26.0503 56.9045 25.8724 56.9106 25.693 56.9106C25.5513 56.9106 25.4105 56.9069 25.2706 56.8993C22.4279 55.9841 20.2464 53.4641 19.9141 50.3019L19.1683 43.2027C18.8481 40.1551 19.1467 37.1065 20.0129 34.2281H20.1665C20.254 34.2281 20.3413 34.2298 20.4284 34.233ZM20.7168 34.019C20.8243 34.027 20.9315 34.0376 21.0381 34.0505C21.0751 33.8451 21.115 33.6401 21.1575 33.4356C21.0693 33.4087 20.9804 33.3836 20.8909 33.3602C20.8296 33.5789 20.7715 33.7985 20.7168 34.019ZM20.6674 33.3057C20.6024 33.5378 20.5411 33.771 20.4834 34.005C20.3781 34.0004 20.2723 33.9981 20.1665 33.9981H20.0835C20.1631 33.7435 20.2471 33.4904 20.3356 33.2387C20.4469 33.2584 20.5576 33.2807 20.6674 33.3057ZM20.954 33.139C21.0384 33.1612 21.1223 33.1848 21.2057 33.2098C21.2446 33.0318 21.2857 32.8541 21.3289 32.6769C21.2615 32.6431 21.1936 32.6104 21.125 32.5787C21.0656 32.7648 21.0086 32.9516 20.954 33.139ZM20.9135 32.4851C20.8498 32.6841 20.7888 32.8837 20.7305 33.0841C20.6257 33.0602 20.5202 33.0384 20.414 33.0191C20.4915 32.8057 20.5721 32.5933 20.6559 32.3821C20.7425 32.4148 20.8285 32.4492 20.9135 32.4851ZM21.1965 32.3584C21.2601 32.3875 21.3232 32.4175 21.3859 32.4484C21.4252 32.2935 21.4663 32.1391 21.5089 31.9849C21.4599 31.9492 21.4105 31.9143 21.3606 31.8799C21.3041 32.0388 21.2494 32.1984 21.1965 32.3584ZM21.1632 31.7487C21.1017 31.9204 21.0424 32.0928 20.9851 32.2657C20.9046 32.232 20.8235 32.1997 20.7418 32.1688C20.8157 31.9881 20.8919 31.8083 20.9704 31.6294C21.0354 31.6682 21.0996 31.7079 21.1632 31.7487ZM21.4412 31.6564C21.4863 31.6869 21.5311 31.718 21.5754 31.7496C21.6143 31.6149 21.6543 31.4807 21.6955 31.3466C21.6626 31.3135 21.6291 31.2805 21.5955 31.2479C21.5427 31.3837 21.4913 31.5198 21.4412 31.6564ZM21.4147 31.079C21.3561 31.2279 21.2992 31.3774 21.2437 31.5274C21.1845 31.4899 21.1249 31.4535 21.0646 31.4179C21.1339 31.264 21.205 31.1111 21.2778 30.9587C21.3239 30.9982 21.3696 31.0384 21.4147 31.079ZM21.6867 31.0171C21.7157 31.0444 21.7445 31.0721 21.7731 31.0998C21.8103 30.984 21.8483 30.8684 21.8873 30.7531C21.8677 30.7261 21.848 30.6992 21.8282 30.6726C21.7801 30.7871 21.7329 30.9019 21.6867 31.0171ZM21.6669 30.464C21.6118 30.5928 21.5581 30.7222 21.5055 30.8518C21.4645 30.8157 21.4231 30.7801 21.3814 30.7449C21.4454 30.6144 21.5108 30.4843 21.5774 30.355C21.6076 30.3911 21.6374 30.4274 21.6669 30.464ZM21.4152 30.168C21.3746 30.1228 21.3334 30.0781 21.2915 30.034C21.2032 30.1778 21.1166 30.3226 21.0315 30.4682C21.0878 30.51 21.1434 30.5526 21.1984 30.5959C21.2692 30.4526 21.3414 30.31 21.4152 30.168ZM21.0953 30.8076C21.0362 30.7604 20.9764 30.7141 20.9158 30.6688C20.8189 30.8386 20.7243 31.0095 20.632 31.1815C20.7101 31.2208 20.7874 31.2616 20.8639 31.3035C20.939 31.1373 21.0162 30.9721 21.0953 30.8076ZM20.7698 31.5142C20.6889 31.4695 20.607 31.4264 20.5241 31.3848C20.4188 31.5861 20.3164 31.7887 20.2171 31.9929C20.3207 32.0233 20.4235 32.056 20.5254 32.0908C20.6042 31.8976 20.6857 31.7055 20.7698 31.5142ZM20.4393 32.3044C20.3326 32.2681 20.2249 32.2343 20.1161 32.2031C20.0019 32.4441 19.8919 32.6873 19.7861 32.9321L19.8685 32.9407C19.9739 32.9518 20.0789 32.9652 20.1833 32.9808C20.2651 32.7542 20.3504 32.5286 20.4393 32.3044ZM20.1048 33.2018C20.0184 33.1894 19.9316 33.1786 19.8444 33.1695L19.6919 33.1535C19.5748 33.4328 19.4632 33.7143 19.3574 33.9981H19.8428C19.9253 33.7311 20.0127 33.4656 20.1048 33.2018ZM19.773 34.2281H19.2728C18.3823 36.6942 17.9143 39.3181 17.9143 41.9905V49.1287C17.9143 52.9749 20.7033 56.1693 24.3686 56.7983C21.8556 55.6663 19.9944 53.2657 19.6855 50.326L18.9396 43.2267C18.6187 40.172 18.9131 37.1159 19.773 34.2281ZM19.1121 33.9981C19.2199 33.7059 19.3337 33.4159 19.4532 33.1283L11.3332 32.2746C7.08903 31.8283 3.96909 28.1427 4.17018 23.9315C3.9487 24.654 3.82952 25.4212 3.82952 26.2162C3.82952 30.5141 7.3122 33.9981 11.6083 33.9981H19.1121ZM4.48942 23.0747C4.46741 23.2129 4.44895 23.3524 4.43417 23.4932C3.9851 27.7674 7.08466 31.5966 11.3572 32.0458L19.5467 32.9069C19.6566 32.65 19.7713 32.3951 19.8905 32.1423C19.8059 32.121 19.7206 32.1012 19.635 32.083L11.2639 30.3029C7.41846 29.4852 4.80912 26.0333 4.92217 22.2368C4.7617 22.5059 4.61703 22.7857 4.48942 23.0747ZM5.17447 21.8411C4.86004 25.6845 7.44125 29.2549 11.3117 30.078L19.6827 31.8581C19.7865 31.8801 19.8895 31.9043 19.9916 31.9308C20.0966 31.7139 20.2051 31.4985 20.3169 31.285C20.0656 31.1688 19.8062 31.067 19.5401 30.9805L11.4009 28.3348C8.09913 27.2616 5.97068 24.2463 5.86866 20.9638C5.61704 21.2388 5.38492 21.5319 5.17447 21.8411ZM5.86528 20.6322C5.63781 20.8663 5.42451 21.1143 5.22677 21.3746C5.25176 21.1995 5.28285 21.0239 5.32018 20.8482C5.34963 20.7095 5.3826 20.5725 5.41899 20.4373C5.57604 20.1634 5.74909 19.9005 5.93672 19.6495C5.89228 19.9781 5.86875 20.3062 5.86528 20.6322ZM6.09481 20.7267C6.09908 24.0033 8.18804 27.0487 11.4719 28.1161L19.6112 30.7618C19.89 30.8523 20.1615 30.9592 20.4247 31.0813C20.5234 30.8974 20.6247 30.7147 20.7283 30.5333C20.3638 30.2789 19.9736 30.0577 19.5617 29.8742L11.7435 26.392C9.03884 25.1873 7.33039 22.6672 7.03578 19.92C6.70094 20.1639 6.38628 20.4338 6.09481 20.7267ZM7.01177 19.6545C6.69012 19.8804 6.38585 20.1294 6.10133 20.399C6.1166 20.0282 6.15873 19.6552 6.22899 19.2824C6.4708 18.9968 6.73255 18.7293 7.01181 18.4819C6.98281 18.8746 6.98318 19.2664 7.01177 19.6545ZM7.25184 19.7683C7.49807 22.4859 9.16823 24.9931 11.837 26.1819L19.6553 29.6642C20.0745 29.8509 20.4721 30.0755 20.8439 30.3335C20.9359 30.1762 21.0299 30.0199 21.1257 29.8647C20.7018 29.4459 20.223 29.0793 19.6983 28.7762L12.2868 24.4955C10.205 23.2931 8.86694 21.2968 8.43415 19.1096C8.01957 19.2952 7.62419 19.516 7.25184 19.7683ZM8.39163 18.8768C7.9866 19.0547 7.59912 19.2652 7.23247 19.5049C7.20941 19.0959 7.21861 18.683 7.26151 18.2699C7.58186 18.0092 7.92282 17.7738 8.28112 17.5665C8.28206 18.0068 8.3193 18.445 8.39163 18.8768ZM8.28499 17.3C8.29713 16.9109 8.33772 16.5213 8.40759 16.1337C8.10427 16.3503 7.81623 16.5888 7.54608 16.8474C7.43718 17.2108 7.35624 17.5774 7.30226 17.9446C7.61325 17.7065 7.9417 17.4908 8.28499 17.3ZM7.04312 18.1519C7.08067 17.8278 7.13843 17.504 7.21701 17.1818C7.00379 17.4121 6.80386 17.6559 6.61873 17.9123C6.56845 18.043 6.52138 18.1756 6.47762 18.3104C6.42215 18.4812 6.37291 18.6525 6.32975 18.824C6.55384 18.5855 6.79215 18.3611 7.04312 18.1519ZM6.01449 19.1802C6.04702 19.0146 6.08494 18.8492 6.12839 18.6839C5.9699 18.9693 5.82835 19.2669 5.70536 19.5756C5.80439 19.4405 5.9075 19.3086 6.01449 19.1802ZM6.99355 17.0852C7.10652 16.9607 7.22324 16.8401 7.34345 16.7233C7.39328 16.5615 7.44848 16.4004 7.50918 16.2401C7.32106 16.5081 7.1486 16.7902 6.99355 17.0852ZM8.07764 15.5243C8.01358 15.6497 7.95254 15.7775 7.89463 15.9076C7.82175 16.0713 7.75498 16.2363 7.69423 16.4021C7.94181 16.1885 8.20203 15.9904 8.47323 15.8087C8.54445 15.4904 8.63576 15.1743 8.74763 14.8621C8.51202 15.0682 8.28815 15.2893 8.07764 15.5243ZM8.92131 14.4192C8.98751 14.2641 9.05898 14.1103 9.13577 13.9578C8.92156 14.2038 8.72136 14.4652 8.53698 14.7413C8.66187 14.6297 8.79006 14.5223 8.92131 14.4192ZM5.01192 21.256C4.98596 21.4249 4.96551 21.5936 4.95046 21.7618C4.85739 21.9008 4.76856 22.0428 4.68413 22.1878C4.77425 21.8676 4.88401 21.5567 5.01192 21.256ZM26.1557 57.1275C26.3262 57.1178 26.4952 57.1027 26.6627 57.0825C26.8177 57.1447 26.9749 57.202 27.134 57.2545C26.8026 57.2329 26.476 57.1901 26.1557 57.1275ZM14.4975 8.85364C14.6509 8.78603 14.8063 8.72337 14.9633 8.66569C15.0742 8.53846 15.19 8.41399 15.3102 8.29255C15.03 8.46059 14.7585 8.64765 14.4975 8.85364ZM16.1205 7.86965C16.0116 7.9577 15.9044 8.04916 15.7991 8.14401C15.6657 8.26417 15.5374 8.38791 15.4143 8.51492C15.7274 8.42044 16.046 8.34524 16.3678 8.2896C16.5621 8.02785 16.774 7.77624 17.003 7.53656C16.7035 7.62923 16.4087 7.74028 16.1205 7.86965ZM17.3418 7.20265C17.4656 7.08763 17.5937 6.97587 17.7262 6.86759C17.4297 7.00548 17.1398 7.16323 16.8585 7.34093C17.0183 7.28971 17.1795 7.24362 17.3418 7.20265ZM17.4552 7.41148C17.1793 7.67173 16.926 7.94877 16.6957 8.23984C17.0841 8.18904 17.4765 8.16657 17.8693 8.17295C18.0742 7.84219 18.3041 7.52494 18.5583 7.22434C18.1871 7.26022 17.8184 7.32266 17.4552 7.41148ZM18.8848 7.19964C18.6075 7.50862 18.3574 7.83726 18.1358 8.18172C18.5733 8.20338 19.0103 8.26098 19.4426 8.35523C19.6377 7.96342 19.8651 7.58696 20.123 7.23024C19.7112 7.18724 19.2972 7.17713 18.8848 7.19964ZM20.385 7.2621C20.1141 7.6242 19.876 8.0082 19.6728 8.40905C20.1467 8.52722 20.6134 8.68998 21.067 8.89834C21.2381 8.43489 21.4515 7.98813 21.7042 7.56413C21.2719 7.42451 20.8304 7.32392 20.385 7.2621ZM21.9269 7.63984C21.6668 8.07021 21.4485 8.5251 21.2754 8.99776C21.6762 9.1961 22.0657 9.43081 22.4397 9.70259L22.7416 9.92198C22.8645 9.35387 23.0486 8.80408 23.288 8.28153C22.8511 8.02079 22.3951 7.80702 21.9269 7.63984ZM23.4853 8.40328C23.2446 8.93357 23.0626 9.49248 22.9455 10.0702L24.5628 11.2458C24.601 10.6485 24.7057 10.0664 24.8701 9.50765L24.514 9.18687C24.1878 8.89303 23.8435 8.63191 23.4853 8.40328ZM25.0602 9.67895C24.9054 10.2347 24.8111 10.8135 24.7844 11.4068L26.5043 12.6569V12.1271C26.5043 11.7601 26.529 11.3989 26.5768 11.045L25.0602 9.67895ZM24.7012 4.38666C24.8687 4.38738 25.0361 4.39337 25.2027 4.40454C25.3559 4.33351 25.5121 4.26691 25.6714 4.20494C25.3472 4.24441 25.0232 4.30476 24.7012 4.38666Z" fill="black"/>
</svg>
