<?xml version="1.0" encoding="UTF-8" standalone="no"?><svg width="148" height="34" viewBox="0 0 148 34" fill="none" xmlns="http://www.w3.org/2000/svg">
<path d="M42.5898 9.46545H46.3041V24.4894H42.5898V9.46545ZM47.7774 18.8167C47.7774 15.101 50.0555 12.8839 53.5717 12.8839C57.0878 12.8839 59.3659 15.101 59.3659 18.8167C59.3659 22.5324 57.1373 24.7619 53.5717 24.7619C50.006 24.7619 47.7774 22.5943 47.7774 18.8167ZM55.6393 18.8167C55.6393 16.773 54.8345 15.5716 53.5717 15.5716C52.3088 15.5716 51.5164 16.8102 51.5164 18.8167C51.5164 20.8232 52.2964 22.037 53.5717 22.037C54.8469 22.037 55.6393 20.8975 55.6393 18.8291V18.8167ZM60.7649 25.2201H64.3306C64.5004 25.5973 64.7872 25.9095 65.1486 26.1104C65.51 26.3112 65.9266 26.39 66.3363 26.3348C67.7477 26.3348 68.4906 25.5669 68.4906 24.4522V22.3714H68.4163C68.1204 23.0091 67.6401 23.5435 67.0377 23.9056C66.4352 24.2677 65.7381 24.4408 65.0363 24.4027C62.3249 24.4027 60.5297 22.3342 60.5297 18.7795C60.5297 15.2248 62.2383 12.983 65.0858 12.983C65.8096 12.9546 66.5247 13.1482 67.1355 13.5378C67.7462 13.9274 68.2234 14.4944 68.503 15.1629V13.0945H72.2172V24.3655C72.2172 27.078 69.8277 28.7625 66.2992 28.7625C63.0182 28.7625 60.9754 27.2885 60.7649 25.2325V25.2201ZM68.503 18.8043C68.503 16.996 67.6734 15.8565 66.3611 15.8565C65.0487 15.8565 64.2439 16.9836 64.2439 18.8043C64.2439 20.625 65.0363 21.653 66.3611 21.653C67.6858 21.653 68.503 20.6498 68.503 18.8167V18.8043ZM73.6163 18.8043C73.6163 15.0886 75.8943 12.8715 79.4105 12.8715C82.9266 12.8715 85.2171 15.0886 85.2171 18.8043C85.2171 22.52 82.9886 24.7495 79.4105 24.7495C75.8324 24.7495 73.6163 22.5943 73.6163 18.8167V18.8043ZM81.4781 18.8043C81.4781 16.7607 80.6733 15.5592 79.4105 15.5592C78.1476 15.5592 77.4172 16.8102 77.4172 18.8291C77.4172 20.848 78.1972 22.0494 79.46 22.0494C80.7229 22.0494 81.4781 20.8975 81.4781 18.8291V18.8043ZM86.6285 10.3944C86.6187 10.0192 86.7206 9.64963 86.9211 9.33244C87.1217 9.01524 87.4117 8.76475 87.7547 8.6127C88.0976 8.46065 88.478 8.4139 88.8475 8.47837C89.2171 8.54285 89.5592 8.71564 89.8305 8.97484C90.1018 9.23405 90.29 9.568 90.3714 9.93437C90.4527 10.3007 90.4235 10.683 90.2873 11.0327C90.1512 11.3824 89.9144 11.6839 89.6069 11.8988C89.2994 12.1136 88.9349 12.2324 88.5599 12.2399C88.3113 12.257 88.0619 12.2224 87.8272 12.1384C87.5925 12.0544 87.3778 11.9229 87.1964 11.7519C87.015 11.5809 86.8709 11.3742 86.7733 11.1448C86.6754 10.9156 86.6262 10.6685 86.6285 10.4192V10.3944ZM86.6285 13.1192H90.3428V24.4894H86.6285V13.1192ZM103.826 18.8043C103.826 22.52 102.179 24.638 99.356 24.638C98.6323 24.6844 97.9116 24.5075 97.2915 24.1309C96.6715 23.7543 96.1821 23.1963 95.8894 22.5324H95.8151V28.1308H92.1009V13.0945H95.8151V15.1257H95.8894C96.1685 14.4508 96.6486 13.8784 97.2644 13.4861C97.8802 13.0939 98.6019 12.9009 99.3313 12.9335C102.179 12.983 103.875 15.1134 103.875 18.8291L103.826 18.8043ZM100.111 18.8043C100.111 16.996 99.2817 15.8441 97.9818 15.8441C96.6818 15.8441 95.8522 17.0084 95.8399 18.8043C95.8275 20.6002 96.6818 21.7521 97.9818 21.7521C99.2817 21.7521 100.111 20.625 100.111 18.8291V18.8043ZM110.202 12.8591C113.284 12.8591 115.154 14.3207 115.241 16.6616H111.861C111.861 15.8565 111.192 15.3487 110.165 15.3487C109.137 15.3487 108.679 15.745 108.679 16.3272C108.679 16.9093 109.087 17.0951 109.917 17.2685L112.294 17.7515C114.56 18.2346 115.525 19.1511 115.525 20.8727C115.525 23.226 113.384 24.7371 110.226 24.7371C107.069 24.7371 105.002 23.226 104.841 20.9099H108.419C108.53 21.7521 109.199 22.2475 110.288 22.2475C111.378 22.2475 111.873 21.8884 111.873 21.2938C111.873 20.6993 111.526 20.5755 110.635 20.3897L108.493 19.9314C106.277 19.4731 105.113 18.2965 105.113 16.5625C105.138 14.333 107.131 12.8839 110.202 12.8839V12.8591ZM127.919 24.4646H124.341V22.3466H124.266C124.069 23.0577 123.636 23.6801 123.037 24.1105C122.438 24.5408 121.71 24.7532 120.973 24.7123C120.409 24.7444 119.844 24.655 119.317 24.45C118.79 24.245 118.314 23.9294 117.92 23.5243C117.525 23.1193 117.222 22.6341 117.031 22.1019C116.841 21.5697 116.766 21.0027 116.813 20.4392V13.0945H120.527V19.5846C120.527 20.9347 121.221 21.653 122.372 21.653C122.642 21.6535 122.909 21.5964 123.156 21.4853C123.401 21.3742 123.621 21.2117 123.8 21.0088C123.977 20.8058 124.11 20.5672 124.188 20.3088C124.266 20.0503 124.29 19.7781 124.254 19.5103V13.0945H127.968L127.919 24.4646ZM129.714 13.0945H133.304V15.2868H133.379C133.575 14.5851 134 13.9685 134.584 13.5338C135.169 13.0991 135.882 12.8704 136.61 12.8839C137.352 12.8246 138.087 13.0464 138.673 13.5054C139.257 13.9645 139.648 14.6268 139.767 15.3611H139.841C140.065 14.619 140.531 13.973 141.164 13.5245C141.795 13.076 142.559 12.8506 143.333 12.8839C143.838 12.8669 144.341 12.9565 144.809 13.1467C145.278 13.3369 145.7 13.6236 146.05 13.988C146.401 14.3525 146.671 14.7866 146.843 15.2621C147.014 15.7376 147.084 16.244 147.047 16.7483V24.4894H143.333V17.7391C143.333 16.5006 142.776 15.9308 141.736 15.9308C141.504 15.9288 141.274 15.9766 141.062 16.071C140.85 16.1654 140.661 16.3041 140.507 16.4779C140.354 16.6517 140.239 16.8563 140.171 17.0781C140.103 17.3001 140.084 17.5339 140.114 17.7639V24.4894H136.585V17.6896C136.585 16.5501 136.028 15.9308 135.013 15.9308C134.779 15.9309 134.546 15.9807 134.333 16.077C134.119 16.1733 133.927 16.3139 133.772 16.4894C133.616 16.6649 133.5 16.8715 133.429 17.0956C133.36 17.3195 133.338 17.5557 133.366 17.7887V24.4894H129.652L129.714 13.0945Z" fill="black"/>
<path d="M32.2012 10.1454C31.5712 8.70414 30.7373 7.36099 29.7251 6.15718C28.2288 4.32451 26.3616 2.82961 24.2462 1.77089C22.1308 0.712182 19.8152 0.113641 17.4519 0.0146665C15.0887 -0.0843081 12.7312 0.318526 10.5347 1.19668C8.33835 2.07481 6.35271 3.40835 4.70857 5.10951C3.06441 6.81066 1.79903 8.84087 0.995697 11.0665C0.192366 13.2921 -0.130713 15.6628 0.0477449 18.0222C0.226215 20.3818 0.902147 22.6768 2.03108 24.7561C3.16002 26.8356 4.71635 28.6522 6.59765 30.0865C7.80478 31.0252 9.13863 31.7883 10.5595 32.3531C12.5516 33.1698 14.6837 33.5904 16.8366 33.5916C21.2806 33.5818 25.5393 31.8097 28.6795 28.6637C31.8195 25.5177 33.5847 21.2547 33.5879 16.8089C33.5911 14.5157 33.119 12.2468 32.2012 10.1454ZM16.8242 3.41992C18.7576 3.41972 20.6676 3.84245 22.4204 4.65849C21.993 4.84325 21.5436 4.9723 21.0832 5.04246C19.5686 5.2618 18.1654 5.96529 17.0832 7.04793C16.001 8.13056 15.2978 9.53428 15.0785 11.0496C14.9823 11.8993 14.5959 12.6899 13.9847 13.2879C13.3734 13.8859 12.5747 14.2545 11.7233 14.3318C10.2086 14.5511 8.80548 15.2546 7.72328 16.3373C6.64108 17.4199 5.93786 18.8236 5.71861 20.3389C5.64437 21.1469 5.29975 21.9063 4.74052 22.494C3.77562 20.4544 3.34217 18.2037 3.48048 15.9515C3.6188 13.6992 4.3244 11.5186 5.53162 9.61244C6.73883 7.70638 8.40843 6.13676 10.3851 5.0497C12.3617 3.96264 14.5811 3.39348 16.8366 3.39515L16.8242 3.41992ZM6.58527 25.479C6.73384 25.3427 6.88241 25.2189 7.03098 25.0702C8.13244 24.002 8.83946 22.5917 9.03668 21.0696C9.11663 20.214 9.49847 19.4149 10.1138 18.8154C10.706 18.1989 11.5029 17.82 12.3547 17.7502C13.8694 17.5309 15.2725 16.8274 16.3547 15.7447C17.4369 14.6621 18.1402 13.2584 18.3594 11.7432C18.4131 10.8483 18.7969 10.0052 19.4366 9.37748C20.0434 8.77287 20.8479 8.4078 21.7023 8.34945C23.0938 8.15793 24.3915 7.53907 25.4165 6.5783C26.5837 7.54695 27.5724 8.71223 28.3384 10.0215C28.2914 10.0851 28.2374 10.1433 28.1775 10.1949C27.5865 10.817 26.7906 11.2041 25.9365 11.2849C24.4202 11.5004 23.015 12.2027 21.9321 13.2859C20.8492 14.3693 20.1472 15.7751 19.9318 17.292C19.8445 18.1446 19.4653 18.9409 18.8584 19.5458C18.2514 20.1509 17.454 20.5273 16.6014 20.6114C15.0822 20.829 13.6739 21.5311 12.5854 22.6133C11.497 23.6955 10.7864 25.1001 10.5595 26.6184C10.4929 27.2237 10.285 27.805 9.95285 28.3153C8.68257 27.5608 7.54489 26.6026 6.58527 25.479ZM16.8242 30.2599C15.5679 30.2612 14.3176 30.0861 13.11 29.7397C13.5231 28.9693 13.7917 28.1296 13.9023 27.2625C13.9891 26.4117 14.3666 25.6169 14.9711 25.0123C15.5755 24.4076 16.37 24.0299 17.2204 23.9431C18.7373 23.7263 20.1433 23.0239 21.228 21.941C22.3125 20.8582 23.0176 19.453 23.2375 17.936C23.3243 17.0853 23.7018 16.2905 24.3062 15.6858C24.9106 15.0811 25.7051 14.7035 26.5556 14.6167C27.6971 14.4681 28.7851 14.0429 29.7251 13.3781C30.247 15.3572 30.3088 17.4296 29.9058 19.4363C29.5028 21.4431 28.6456 23.3309 27.4001 24.9548C26.1546 26.5786 24.5538 27.8955 22.7205 28.8044C20.8872 29.7133 18.8703 30.19 16.8242 30.1979V30.2599Z" fill="black"/>
</svg>
