<?xml version="1.0" encoding="UTF-8" standalone="no"?><svg width="1440" height="1014" viewBox="0 0 1440 1014" fill="none" xmlns="http://www.w3.org/2000/svg">
<mask id="mask0_785_4181" style="mask-type:alpha" maskUnits="userSpaceOnUse" x="0" y="0" width="1440" height="1014">
<rect width="1440" height="1014" fill="#AA82FF"/>
</mask>
<g mask="url(#mask0_785_4181)">
<path d="M1442.98 596.273C1461.21 590.372 1478.79 579.075 1488 561.649C1497.63 543.413 1500.57 523.873 1495.59 503.586C1487.08 467.917 1476.14 432.871 1462.85 398.69C1449.69 365.346 1435.23 332.293 1416.49 301.646C1386.93 253.257 1348.56 209.731 1300.27 179.426C1310.07 146.563 1315.92 113.118 1319.96 79.0262C1323.44 51.3018 1323.55 23.2582 1320.29 -4.49282C1317.83 -24.1726 1315.3 -43.7512 1309.83 -62.8485C1304.36 -81.2882 1297.26 -99.2029 1288.6 -116.379C1280.13 -133.539 1268.85 -148.33 1257.05 -163.375C1248.98 -173.722 1239.83 -183.18 1229.76 -191.59C1214.32 -204.444 1198.11 -216.703 1180.39 -226.062C1161.22 -236.126 1141.15 -244.344 1120.42 -250.604C1097.46 -257.494 1073.91 -260.735 1050.17 -263.737C1030.24 -266.203 1010.16 -267.274 990.08 -266.941C933.739 -266.257 877.081 -257.557 822.158 -245.412C792.936 -238.953 764.019 -231.228 735.354 -222.617C716.945 -217.108 700.119 -204.71 690.332 -187.994C680.887 -171.834 676.886 -148.039 682.735 -129.93C688.584 -111.82 699.929 -94.1031 717.35 -84.8964C735.076 -75.5377 755.726 -71.4092 775.401 -77.298C824.335 -92.0008 874.118 -104.221 924.762 -111.706C963.834 -116.417 1003.48 -118.038 1042.64 -113.897C1060.91 -110.982 1078.86 -106.317 1096.24 -99.9663C1106.46 -95.1235 1116.26 -89.4523 1125.55 -83.0094C1132.33 -77.1673 1138.68 -70.8398 1144.54 -64.0769C1150.17 -55.8863 1155.16 -47.2746 1159.47 -38.3182C1164.43 -24.6754 1168.14 -10.6118 1170.56 3.70071C1172.74 27.614 1172.46 51.6885 1169.71 75.5436C1166.28 96.8653 1161.43 117.934 1155.19 138.61C1116.18 138.876 1078.1 148.323 1042.31 163.418C1006.37 178.42 973.367 199.655 944.817 226.143C930.776 239.187 918.951 254.169 907.683 269.644C897.351 283.841 890.54 299.506 884.26 315.905C878.65 330.537 876.129 346.171 876.853 361.825C877.448 372.057 878.347 383.113 881.791 392.978C888.248 411.493 893.971 420.725 906.416 435.592C916.254 447.357 929.206 457.298 941.867 465.479C950.73 471.203 961.099 474.952 970.81 478.878C974.611 480.466 978.536 481.737 982.547 482.677C1011.78 489.25 1043.45 488.49 1071.55 477.434C1086.59 471.52 1101.34 465.315 1114.88 456.475C1129.15 447.067 1142.69 436.602 1155.39 425.17C1178.51 404.54 1197.87 379.795 1215.95 354.759C1224.02 343.589 1231.58 332.078 1238.62 320.224C1249.68 330.098 1259.96 340.823 1269.36 352.302C1288.06 377.959 1303.2 405.819 1315.99 434.769C1329.99 470.213 1341.46 506.608 1350.31 543.679C1354.74 561.763 1369.05 579.417 1384.94 588.713C1401.08 598.135 1424.87 602.111 1442.98 596.273Z" fill="#9F79F1"/>
<mask id="mask1_785_4181" style="mask-type:alpha" maskUnits="userSpaceOnUse" x="-103" y="384" width="816" height="816">
<circle cx="305" cy="792" r="408" fill="#D9D9D9"/>
</mask>
<g mask="url(#mask1_785_4181)">
<line x1="58.6343" y1="353.633" x2="58.6343" y2="1230.37" stroke="black" stroke-opacity="0.3" stroke-width="0.979592"/>
<line x1="140.919" y1="353.633" x2="140.919" y2="1230.37" stroke="black" stroke-opacity="0.3" stroke-width="0.979592"/>
<line x1="223.205" y1="353.633" x2="223.205" y2="1230.37" stroke="black" stroke-opacity="0.3" stroke-width="0.979592"/>
<line x1="305.49" y1="353.633" x2="305.49" y2="1230.37" stroke="black" stroke-opacity="0.3" stroke-width="0.979592"/>
<line x1="387.777" y1="353.633" x2="387.777" y2="1230.37" stroke="black" stroke-opacity="0.3" stroke-width="0.979592"/>
<line x1="470.062" y1="353.633" x2="470.062" y2="1230.37" stroke="black" stroke-opacity="0.3" stroke-width="0.979592"/>
<line x1="634.634" y1="353.633" x2="634.634" y2="1230.37" stroke="black" stroke-opacity="0.3" stroke-width="0.979592"/>
<line x1="552.347" y1="353.633" x2="552.347" y2="1230.37" stroke="black" stroke-opacity="0.3" stroke-width="0.979592"/>
<line x1="743.367" y1="463.347" x2="-133.367" y2="463.347" stroke="black" stroke-opacity="0.3" stroke-width="0.979592"/>
<line x1="743.367" y1="545.632" x2="-133.367" y2="545.632" stroke="black" stroke-opacity="0.3" stroke-width="0.979592"/>
<line x1="743.367" y1="627.919" x2="-133.367" y2="627.918" stroke="black" stroke-opacity="0.3" stroke-width="0.979592"/>
<line x1="743.367" y1="710.204" x2="-133.367" y2="710.204" stroke="black" stroke-opacity="0.3" stroke-width="0.979592"/>
<line x1="743.367" y1="792.49" x2="-133.367" y2="792.49" stroke="black" stroke-opacity="0.3" stroke-width="0.979592"/>
<line x1="743.367" y1="874.775" x2="-133.367" y2="874.775" stroke="black" stroke-opacity="0.3" stroke-width="0.979592"/>
<line x1="743.367" y1="957.061" x2="-133.367" y2="957.061" stroke="black" stroke-opacity="0.3" stroke-width="0.979592"/>
</g>
<path d="M-49.9953 150.733C-68.2271 156.634 -85.8131 167.931 -95.0177 185.356C-104.653 203.593 -107.59 223.132 -102.614 243.42C-94.0947 279.088 -83.1556 314.135 -69.873 348.316C-56.7056 381.66 -42.2468 414.713 -23.5085 445.36C6.05484 493.749 44.4176 537.275 92.7065 567.58C82.9069 600.443 77.0575 633.888 73.0187 667.98C69.5416 695.704 69.4311 723.748 72.6895 751.499C75.1458 771.178 77.6779 790.757 83.1475 809.854C88.6188 828.294 95.7245 846.209 104.38 863.385C112.85 880.545 124.131 895.336 135.931 910.381C143.999 920.728 153.145 930.186 163.215 938.596C178.662 951.45 194.868 963.709 212.593 973.067C231.757 983.132 251.835 991.35 272.556 997.61C295.523 1004.5 319.072 1007.74 342.811 1010.74C362.742 1013.21 382.821 1014.28 402.9 1013.95C459.242 1013.26 515.899 1004.56 570.823 992.418C600.044 985.959 628.962 978.234 657.626 969.623C676.035 964.114 692.862 951.716 702.649 934.999C712.094 918.84 716.095 895.045 710.245 876.935C704.396 858.826 693.052 841.109 675.63 831.902C657.905 822.543 637.255 818.415 617.58 824.304C568.645 839.007 518.862 851.227 468.218 858.712C429.147 863.423 389.505 865.044 350.345 860.903C332.071 857.988 314.119 853.323 296.738 846.972C286.522 842.129 276.719 836.458 267.428 830.015C260.647 824.173 254.3 817.846 248.436 811.083C242.808 802.892 237.817 794.28 233.509 785.324C228.552 771.681 224.84 757.618 222.418 743.305C220.238 719.392 220.522 695.317 223.266 671.462C226.701 650.141 231.552 629.072 237.789 608.396C276.797 608.13 314.881 598.683 350.674 583.587C386.61 568.585 419.614 547.35 448.163 520.862C462.204 507.819 474.03 492.837 485.298 477.362C495.629 463.165 502.441 447.5 508.721 431.1C514.33 416.469 516.852 400.835 516.127 385.181C515.532 374.949 514.633 363.893 511.19 354.028C504.732 335.513 499.01 326.281 486.564 311.414C476.726 299.649 463.774 289.707 451.113 281.526C442.251 275.802 431.881 272.054 422.17 268.128C418.37 266.539 414.444 265.269 410.434 264.329C381.199 257.756 349.534 258.516 321.427 269.572C306.386 275.486 291.636 281.691 278.101 290.53C263.834 299.939 250.291 310.404 237.586 321.836C214.467 342.466 195.108 367.21 177.029 392.247C168.959 403.417 161.405 414.928 154.365 426.782C143.297 416.908 133.019 406.183 123.625 394.704C104.924 369.047 89.7818 341.186 76.9943 312.237C62.9862 276.793 51.516 240.398 42.6704 203.326C38.239 185.242 23.9321 167.589 8.04262 158.293C-8.10012 148.871 -31.8901 144.895 -49.9953 150.733Z" fill="#9F79F1"/>
</g>
</svg>
