<?xml version="1.0" encoding="UTF-8" standalone="no"?><svg width="180" height="180" viewBox="0 0 180 180" fill="none" xmlns="http://www.w3.org/2000/svg">
<path d="M84.0966 93.8853C84.0966 156.725 84.3666 153.948 83.4666 156.458C82.8801 158.272 81.7958 159.884 80.3373 161.112C78.713 162.573 76.7723 163.638 74.6673 164.224C74.1867 164.335 48.579 168.886 22.5843 172.523C12.8049 173.892 6.33305 173.406 7.09354 160.503C7.09894 160.413 4.64105 41.7834 4.63655 41.6925C4.36755 32.893 4.59561 24.0854 5.31964 15.3117C5.80564 9.89997 10.2606 7.73997 15.5895 6.94887C20.0148 6.29367 68.9496 14.9481 74.6844 17.3511C76.7268 18.3175 78.4414 19.8609 79.6164 21.7908C84.2748 28.5354 82.9329 37.836 83.0067 43.6977C83.1264 53.1477 83.1453 42.336 84.2469 93.8736C84.1976 93.884 84.147 93.8879 84.0966 93.8853ZM8.64605 154.899C8.68834 164.688 6.83074 172.324 17.9826 171.416C31.8138 170.29 60.4401 164.689 70.4364 163.784C77.5293 163.141 83.3712 159.368 83.3064 152.361C82.7988 95.9634 83.4864 108.228 82.4892 59.3388C82.3668 53.3178 82.2003 47.2959 82.0896 41.2749C81.9492 33.6249 82.968 28.1286 78.792 21.9816C75.93 17.7705 71.5974 16.6761 64.7898 15.642C36.8745 11.4012 22.0029 7.90647 16.8306 8.36277C13.1406 8.68857 6.96395 10.98 6.66065 14.4189C4.86065 34.6545 8.64065 153.483 8.64605 154.899Z" fill="black"/>
<path d="M95.7051 93.6126C97.425 32.112 96.9021 53.8443 96.8643 36.2097C96.849 29.4165 98.3835 21.7431 104.085 18.0639C109.151 14.796 160.072 6.36389 164.385 6.94889C168.664 7.53209 173.872 9.61919 174.44 13.8789C174.763 16.3089 175.083 18.747 175.17 21.1932C175.996 44.6085 175.05 41.4108 174.944 48.5532C174.854 54.4032 175.119 76.0653 174.674 95.3334C174.26 113.153 173.104 143.179 172.802 155.083C172.712 158.734 173.505 162.071 172.286 167.312C171.358 171.304 168.259 173.22 164.324 173.078C158.354 172.738 152.411 172.037 146.526 170.98C123.118 167.281 142.741 170.556 116.894 166.171C105.363 164.213 105.133 164.494 102.325 162.959C100.671 162.156 99.2371 160.962 98.1476 159.481C97.0582 158 96.3456 156.276 96.0714 154.458C95.922 153.468 95.967 157.848 95.967 93.6234C95.8725 93.6189 95.7915 93.6189 95.7051 93.6126ZM173.398 90.6048C173.363 90.6057 173.328 90.6039 173.293 90.5994C173.374 84.9663 173.532 79.3386 173.519 73.7055C173.419 26.9415 174.704 50.3055 173.497 15.6303C173.485 14.6821 173.229 13.7529 172.753 12.9328C172.277 12.1128 171.597 11.4299 170.779 10.9503C167.318 8.70888 163.154 7.816 159.079 8.44109C152.098 9.25109 142.854 11.0556 132.9 12.7611C114.46 15.9273 112.399 15.7662 108.305 17.2062C103.625 18.8514 102.254 19.4562 99.7101 24.7401C97.416 29.5101 97.9938 33.7887 97.7976 46.0269C96.6456 118.027 97.056 66.6153 96.7428 152.395C96.675 153.951 96.9867 155.5 97.6511 156.908C98.3154 158.317 99.3124 159.543 100.556 160.48C102.771 162.257 105.443 163.37 108.265 163.69C121.518 165.097 112.423 164.382 149.755 169.908C154.642 170.747 159.578 171.278 164.533 171.497C168.112 171.572 170.798 169.116 171.053 166.703C171.788 159.733 171.328 156.019 171.372 149.573C171.395 146.544 170.959 162.026 173.398 90.6048Z" fill="black"/>
<path d="M14.6706 156.313C14.2764 151.148 13.731 139.193 12.984 127.858C11.841 110.508 12.1974 102.42 11.544 47.7945C11.4189 37.449 12.2541 29.4687 12.4359 26.3403C23.5842 28.7703 42.8793 29.8926 76.6059 33.8103C77.8929 33.9597 77.8587 33.9957 77.9334 35.3115C79.1205 56.2203 78.8334 77.1543 79.0692 98.0811C79.2312 112.41 79.4571 145.551 79.4571 147.574C68.2791 149.048 70.3068 148.626 57.4071 150.066C19.6737 154.277 18.3687 156.519 14.6706 156.313ZM74.4306 106.389L74.2911 104.494C75.5664 104.905 76.8354 105.308 78.1683 105.737C78.1683 105.647 77.8272 53.2314 77.1018 35.6589C77.0793 35.0973 76.911 34.9164 76.3665 34.8651C53.4165 32.7051 26.7207 30.3939 13.6311 27.6381C13.5411 28.0089 13.0992 40.1319 13.1037 44.9667C13.1109 52.9002 13.7004 65.43 13.7004 113.907C14.1153 114.026 13.7004 114.056 15.5607 112.938C17.3238 111.879 19.0932 110.832 20.8554 109.778C22.0551 110.056 23.2512 110.325 24.4554 110.603C20.9484 111.972 17.5991 113.715 14.4654 115.801C14.2824 115.894 14.1339 116.043 14.0413 116.226C13.9488 116.41 13.917 116.618 13.9506 116.82C14.1639 120.384 14.3277 123.949 14.5248 127.507C16.1961 157.672 15.9099 151.26 15.9099 154.757C53.2707 148.164 51.801 149.584 78.4419 146.579C78.4419 130.151 78.549 143.13 78.2043 108.203C78.1998 107.739 78.1413 107.447 77.6013 107.316C76.5348 107.054 75.4845 106.708 74.4306 106.389Z" fill="black"/>
<path d="M40.7925 161.825C39.0825 160.871 39.4425 156.794 43.4529 156.458C46.449 156.208 49.4514 156.001 52.4529 155.774C55.5399 155.542 56.0322 158.828 53.8443 160.266C51.6564 161.704 42.5043 162.777 40.7925 161.825ZM45.4581 161.147C48.0744 160.794 51.1812 160.548 53.5716 159.558C53.817 159.478 54.0379 159.336 54.2139 159.147C54.3899 158.958 54.5152 158.728 54.5781 158.477C54.641 158.227 54.6394 157.965 54.5736 157.715C54.5078 157.465 54.3798 157.236 54.2016 157.049C53.3448 156.176 52.9866 156.462 43.4016 157.2C40.5927 157.416 39.5172 160.962 42.3126 161.141C43.2387 161.2 44.1657 161.147 45.4581 161.147Z" fill="black"/>
<path d="M43.7949 21.3037C43.7949 21.1237 43.8075 18.4399 46.4877 18.4399C50.3262 18.4399 51.4251 25.4707 47.421 25.4707C46.6209 25.4698 43.7949 25.243 43.7949 21.3037ZM46.8072 19.3129C46.2193 19.3705 45.6734 19.6434 45.2747 20.0792C44.8759 20.515 44.6524 21.0829 44.6472 21.6736C44.6472 21.7384 44.703 24.6994 47.3058 24.6994C50.4783 24.6994 49.4505 19.3129 46.8072 19.3129Z" fill="black"/>
<path d="M165.348 156.301C164.923 156.332 164.497 156.329 164.073 156.29C156.243 154.934 148.449 153.375 140.583 152.262C129.534 150.698 123.298 150.462 102.136 147.771C100.588 147.574 100.596 147.522 100.6 145.951C100.683 114.872 101.392 35.0154 102.304 33.9912C102.574 33.6897 103.301 33.8004 103.828 33.7419C132.97 30.4929 134.837 30.6405 158.136 27.9405C160.733 27.6399 163.307 27.1305 165.885 26.7057C166.441 26.6157 166.986 26.4627 167.612 26.3232C167.658 26.973 167.687 27.4932 167.739 28.0098C169.084 41.2929 168.241 54.5931 168.133 67.8879C167.863 101.278 168.56 105.166 166.679 133.967C166.032 143.91 165.638 154.126 165.348 156.301ZM102.168 115.081C101.905 115.389 101.754 115.777 101.739 116.182C101.733 117.512 101.537 143.553 101.605 144.904C104.671 141.879 107.545 138.842 111.295 136.831C110.06 134.544 108.67 132.675 109.84 127.512C112.652 115.105 119.101 104.112 118.806 103.965C118.805 104.149 110.873 105.397 102.167 115.079L102.168 115.081ZM132.924 68.6412C132.732 68.5239 132.508 68.4696 132.283 68.4857C132.059 68.5019 131.845 68.5877 131.672 68.7312C130.458 69.5349 129.216 69.6177 128.421 68.778C128.152 68.5234 127.826 68.3368 127.47 68.234C127.114 68.1311 126.739 68.1149 126.375 68.1867C126.825 69.5367 126.457 70.0722 125.019 70.2153C124.906 70.2499 124.803 70.3088 124.716 70.388C124.629 70.4672 124.56 70.5647 124.515 70.6734C124.161 71.5734 123.698 72.5499 122.665 72.4734C121.927 72.4526 121.21 72.7258 120.672 73.233C120.451 73.3887 120.156 73.4418 119.93 73.593C119.774 73.6974 119.57 73.9062 119.577 74.0565C119.956 81.9963 119.355 87.8265 124.34 91.0143C125.742 91.8161 127.194 92.5264 128.687 93.141C129.197 93.3795 129.634 93.6504 129.626 94.2885C129.604 96.1371 129.584 97.992 129.51 99.8406C129.454 101.26 125.608 102.189 124.544 102.524C125.804 103.271 126.649 104.564 130.872 104.684C133.382 104.744 135.878 104.295 138.209 103.362C139.421 102.887 140.574 102.267 141.75 101.71C141.669 101.413 137.999 100.437 137.908 100.412C137.669 100.361 137.458 100.221 137.318 100.021C137.178 99.8203 137.12 99.5741 137.155 99.3321C137.22 93.3093 137.167 95.3217 137.264 93.5721C134.419 94.5288 133.934 94.581 133.283 93.9321C133.643 93.7359 133.967 93.5334 134.314 93.3822C135.124 93.0303 135.949 92.7378 136.737 92.3508C141.526 90 142.927 87.0066 144.117 81.7623C145.079 82.2258 145.966 82.6722 146.946 82.0458C146.9 81.9874 146.863 81.9233 146.835 81.855C146.29 80.8875 146.925 80.7948 147.536 81.0612C147.84 81.1017 147.965 81.6246 148.562 81.1422C151.198 79.011 148.528 75.2697 145.966 76.8366C145.805 76.9432 145.623 77.0151 145.433 77.048C145.243 77.0809 145.048 77.0739 144.861 77.0275C144.673 76.9812 144.497 76.8965 144.345 76.7787C144.192 76.6609 144.065 76.5127 143.972 76.3434C143.8 75.9461 143.676 75.5298 143.601 75.1032C141.88 75.2886 141.498 74.8944 141.171 72.4725C140.154 72.4725 139.114 72.5256 138.233 71.6085C137.225 70.5582 137.423 69.4485 137.543 68.1723C136.156 69.1407 134.879 69.6663 132.923 68.6403L132.924 68.6412ZM166.42 27.5859C165.29 27.8559 164.246 28.1997 163.18 28.3455C143.837 30.9888 154.251 29.8008 103.846 34.8363C103.216 34.8993 102.954 35.0505 102.937 35.775C102.803 41.2866 102.541 46.7982 102.467 52.3152C102.467 52.4052 101.686 112.576 101.801 113.375C102.267 113.634 105.913 107.302 116.04 103.436C123.374 100.636 124.609 101.757 128.03 99.6462C128.128 99.5653 128.206 99.4645 128.261 99.3505C128.316 99.2365 128.346 99.1121 128.349 98.9856C128.349 97.6635 128.227 96.3423 128.291 95.0256C128.326 94.3056 128.042 94.0815 127.457 93.8484C125.508 93.2377 123.7 92.2469 122.136 90.9333C122.039 90.8695 121.93 90.8259 121.816 90.805C121.701 90.7842 121.584 90.7865 121.47 90.8118C120.583 90.925 119.681 90.8006 118.857 90.4513C118.033 90.102 117.317 89.5404 116.781 88.8237C115.999 87.6645 115.688 86.2504 115.913 84.87C116.138 83.4897 116.881 82.2471 117.991 81.396C118.201 81.1881 118.325 80.909 118.339 80.6139C118.386 78.417 118.394 76.2147 118.391 74.0187C118.39 73.9069 118.365 73.7966 118.318 73.6948C118.272 73.593 118.205 73.502 118.121 73.4274C116.309 72.1548 117.39 71.0793 117.311 70.1478C117.198 69.4219 117.124 68.6903 117.091 67.9563C117.07 66.02 117.47 64.1023 118.261 62.3349C117.758 62.3368 117.27 62.1648 116.879 61.8481C116.488 61.5315 116.219 61.0895 116.116 60.597C115.906 59.4144 116.847 58.8636 117.634 58.2903C116.128 55.404 117.085 53.3988 118.91 52.7211C118.677 51.8918 118.662 51.0163 118.867 50.1796C119.072 49.3429 119.49 48.5734 120.08 47.9457C120.564 47.2316 121.257 46.6848 122.065 46.3807C122.872 46.0766 123.754 46.0301 124.589 46.2474C125.219 43.8534 127.029 42.984 129.138 42.7059C130.167 42.616 131.202 42.7461 132.177 43.0875C133.151 43.4289 134.041 43.9738 134.788 44.6859C136.167 43.0659 137.378 42.8733 139.153 43.9434C140.419 44.6322 141.429 45.7118 142.033 47.0214C143.644 46.0188 145.003 46.224 146.431 47.664C147.294 48.5526 147.838 49.7021 147.979 50.9328C148.159 52.2306 147.423 53.1702 146.553 54.1494C147.115 53.9645 147.72 53.9582 148.286 54.1314C148.852 54.3047 149.349 54.649 149.711 55.1169C150.104 55.5491 150.323 56.1108 150.328 56.6947C150.332 57.2785 150.121 57.8434 149.735 58.2813C150.174 58.4761 150.564 58.765 150.879 59.1278C151.193 59.4905 151.424 59.918 151.554 60.38C151.685 60.8419 151.712 61.327 151.634 61.8007C151.556 62.2743 151.375 62.725 151.103 63.1206C151.525 63.4512 151.841 63.8995 152.009 64.409C152.177 64.9186 152.19 65.4665 152.047 65.9835C151.917 66.4825 151.607 66.9159 151.177 67.2004C150.748 67.485 150.228 67.6007 149.718 67.5252C149.718 70.7481 148.087 70.9983 148.188 71.4852C148.451 72.8742 148.306 74.3099 147.77 75.618C151.125 76.4469 151.653 79.443 148.97 82.2708C149.475 82.9981 149.791 83.8397 149.889 84.7197C149.987 85.5997 149.864 86.4903 149.531 87.3108C149.261 88.2084 148.671 88.9758 147.874 89.468C147.076 89.9602 146.126 90.1431 145.202 89.982C144.343 89.7191 143.509 89.3797 142.71 88.9677C141.6 90.4882 140.205 91.7776 138.602 92.7639C138.152 93.0339 138.339 93.7053 138.388 98.1018C138.399 99.1971 138.376 99.2322 139.468 99.4869C150.097 101.968 153.819 102.039 166.399 109.444C166.399 103.184 166.627 70.2036 166.799 56.0565C166.985 41.0769 167.15 42.6267 166.42 27.5859ZM154.171 105.12C152.896 104.57 155.318 105.367 144.985 102.35C142.502 101.624 144.175 102.609 139.775 104.5C136.393 106.076 132.628 106.641 128.932 106.128C123.6 105.28 123.609 102.644 122.8 102.773C121.504 102.979 120.344 103.3 119.752 104.731C117.843 109.346 113.632 117.299 111.234 128.012C110.892 129.254 110.804 130.552 110.976 131.829C111.149 133.105 111.577 134.334 112.236 135.441C114.902 139.798 115.056 141.783 115.852 147.553C116.066 149.103 115.741 146.759 154.861 153.024C156.802 147.534 157.996 141.903 159.549 136.415C157.743 135.606 156.103 134.47 154.71 133.065C150.275 128.433 149.769 121.414 150.41 115.065C150.655 111.452 151.963 107.991 154.171 105.12ZM159.277 134.74C158.406 133.183 158.055 132.76 157.666 131.97C157.567 131.767 157.718 131.442 157.756 131.171C158.005 131.228 158.318 131.21 158.497 131.356C158.843 131.63 159.139 131.961 159.373 132.335C164.053 140.153 163.2 138.869 164.553 141.718C164.739 140.587 164.354 144.609 166.309 111.993C166.332 111.801 166.296 111.606 166.205 111.435C166.114 111.264 165.972 111.125 165.8 111.037C162.733 109.091 159.523 107.382 156.197 105.926C156.014 105.811 155.793 105.773 155.582 105.818C155.371 105.863 155.186 105.989 155.066 106.169C151.869 109.698 151.498 116.438 151.745 121.214C151.803 124.707 152.88 128.107 154.846 130.996C155.871 132.697 157.427 134.013 159.275 134.743L159.277 134.74ZM164.035 154.758C164.405 145.804 164.47 145.992 164.238 145.363C163.311 142.576 162.139 139.877 160.737 137.296C159.428 142.813 158.307 148.163 156.252 153.285C158.834 153.78 161.395 154.26 164.032 154.76L164.035 154.758ZM114.601 148.035C114.033 144.505 113.881 140.993 111.894 137.955C108.325 140.497 105.039 143.415 102.094 146.66C106.345 147.128 110.443 147.579 114.598 148.037L114.601 148.035ZM143.455 60.9705C143.249 61.2686 143.001 61.5359 142.719 61.7643C142.51 61.8821 142.345 62.0642 142.247 62.2836C142.15 62.503 142.126 62.748 142.179 62.982C142.264 64.0332 141.942 65.0766 141.279 65.8971C140.976 66.2192 140.645 66.5138 140.289 66.7773C143.28 68.9454 145.57 71.4834 146.679 75.0942C146.806 74.8008 146.917 74.5003 147.01 74.1942C147.224 73.3746 147.266 72.5192 147.132 71.6825C146.999 70.8459 146.692 70.0462 146.233 69.3342C146.086 69.0736 145.959 68.8029 145.85 68.5242C147.004 68.5881 147.23 69.5736 147.803 70.1991C148.789 68.5476 148.903 67.4091 148.073 66.0726C147.073 64.4778 145.969 62.19 143.453 60.9732L143.455 60.9705ZM133.381 67.8933C133.838 67.9338 134.267 68.0085 134.69 68.0085C135.103 68.0407 135.517 67.9769 135.901 67.8222C136.284 67.6674 136.627 67.4258 136.901 67.1165C137.176 66.8071 137.375 66.4384 137.483 66.0391C137.591 65.6399 137.605 65.221 137.524 64.8153C137.24 62.6553 136.278 60.6375 134.209 59.9013C132.14 59.1651 130.98 59.6169 131.086 62.1153C131.096 62.5568 131.214 62.9892 131.428 63.3753C133.206 66.3192 134.323 66.2337 133.381 67.8933ZM139.918 55.0674L140.057 54.8766C136.497 51.9399 129.557 51.1236 128.866 55.1466C128.797 55.6963 128.786 56.2515 128.831 56.8035C128.857 57.4416 130.1 58.0491 130.581 57.6387C132.9 55.6587 135.671 56.2707 136.145 55.9521C137.267 55.2409 138.596 54.9292 139.918 55.0674ZM131.271 58.1913C131.706 58.8114 131.711 58.8528 132.43 58.7133C135.328 58.1499 139.073 61.7184 138.532 66.2994C139.004 66.1122 139.431 65.8288 139.786 65.4673C140.142 65.1058 140.418 64.6742 140.597 64.2C140.777 63.7258 140.856 63.2194 140.828 62.7131C140.801 62.2068 140.669 61.7117 140.44 61.2594C138.824 57.573 135.241 56.2734 131.271 58.1913ZM122.467 62.532C122.354 63.0716 122.365 63.6297 122.499 64.1645C122.633 64.6992 122.886 65.1967 123.24 65.6195C123.593 66.0423 124.038 66.3795 124.541 66.6056C125.044 66.8317 125.591 66.9409 126.142 66.9249C128.096 67.0149 129.444 67.05 130.715 65.5749C130.837 65.4329 130.925 65.265 130.973 65.084C131.02 64.9029 131.026 64.7134 130.99 64.5298C130.953 64.3462 130.876 64.1732 130.763 64.0239C130.65 63.8745 130.505 63.7528 130.338 63.6678C129.655 63.3492 128.916 63.1713 128.163 63.1445C127.41 63.1178 126.66 63.2428 125.957 63.5121C125.664 63.6804 125.317 63.7303 124.989 63.6515C124.66 63.5727 124.374 63.3712 124.189 63.0882C123.829 62.6778 123.502 62.73 122.467 62.532ZM144.787 83.5524C144.525 85.1159 144.057 86.6378 143.396 88.0785C145.657 89.2602 147.51 88.6455 148.311 86.4585C148.488 85.9537 148.552 85.4164 148.5 84.884C148.448 84.3517 148.281 83.8371 148.009 83.376C147.927 83.2881 147.826 83.2203 147.714 83.178C147.601 83.1357 147.48 83.12 147.361 83.1321C146.535 83.2293 145.719 83.3958 144.792 83.5524H144.787ZM128.026 57.3975C127.752 56.6618 127.652 55.8725 127.734 55.0917C127.817 54.3108 128.079 53.5597 128.501 52.8975C126.847 53.4593 125.365 54.435 124.195 55.7316C123.639 56.2763 123.219 56.9425 122.965 57.6777C122.712 58.4129 122.633 59.197 122.735 59.9679C122.738 60.2944 122.815 60.616 122.959 60.9089C123.104 61.2017 123.312 61.4584 123.569 61.6599C123.737 59.2929 124.607 57.6522 128.026 57.3975ZM130.193 62.3232C130.099 61.7533 130.136 61.1693 130.302 60.616C130.468 60.0626 130.758 59.5543 131.15 59.13C130.047 58.6166 128.817 58.4394 127.615 58.6206C126.937 58.6994 126.284 58.9248 125.702 59.2812C124.637 60.0993 124.519 61.3845 125.18 62.8686C126.681 61.3206 128.414 61.785 130.193 62.3232ZM122.003 65.8701C121.974 65.8071 121.887 65.6442 121.811 65.4759C121.537 64.9899 121.384 64.4447 121.366 63.8868C121.347 63.3288 121.465 62.7748 121.707 62.2719C121.831 62.0785 121.886 61.8486 121.863 61.6198C121.84 61.391 121.74 61.1768 121.58 61.0119C121.379 61.2044 121.153 61.3683 120.908 61.4988C120.208 61.7529 119.604 62.2163 119.176 62.8259C118.749 63.4355 118.52 64.1618 118.52 64.9062C118.395 66.1518 118.276 67.392 118.138 68.7429C119.53 67.7079 120.741 66.8034 121.999 65.8701H122.003ZM118.503 82.2942C117.042 84.0501 116.748 85.8177 117.644 87.6672C118.274 88.9587 119.476 89.3646 120.965 89.5275C119.205 87.3774 118.981 84.8331 118.498 82.2942H118.503ZM141.858 61.0488C142.277 60.5885 142.519 59.9941 142.54 59.3719C142.561 58.7497 142.361 58.1402 141.974 57.6522C141.478 57.0152 140.785 56.5604 140.004 56.3592C139.222 56.1579 138.396 56.2214 137.654 56.5398C138.618 56.9753 139.486 57.5983 140.207 58.3724C140.928 59.1465 141.487 60.0563 141.853 61.0488H141.858ZM128.898 68.0787C129.613 68.2173 130.353 68.1286 131.015 67.8249C131.677 67.5213 132.227 67.0181 132.588 66.3858C132.333 66.1158 132.079 65.8359 131.8 65.5398C131.253 66.8502 130.9 67.1571 128.895 68.0787H128.898Z" fill="black"/>
<path d="M137.542 162.299C132.581 161.567 126.417 162.042 125.047 158.874C124.881 158.552 124.802 158.193 124.816 157.831C124.83 157.469 124.937 157.117 125.128 156.808C125.318 156.5 125.584 156.246 125.901 156.071C126.218 155.896 126.575 155.806 126.937 155.809C128.311 155.795 126.97 155.834 136.424 156.439C140.557 156.704 141.014 160.766 139.281 161.794C138.727 162.041 138.142 162.211 137.542 162.299ZM127.782 156.464C125.055 156.293 124.881 158.678 126.31 159.483C126.758 159.72 127.233 159.901 127.724 160.023C130.997 160.865 134.372 161.245 137.75 161.154C139.471 161.137 139.45 159.973 139.141 158.859C138.994 158.33 138.241 157.313 136.342 157.16C128.634 156.539 128.221 156.545 127.782 156.464Z" fill="black"/>
<path d="M133.543 18.4121C135.011 18.4121 136.416 19.592 136.261 20.9321C136.171 25.6679 132.958 25.4978 132.841 25.4978C132.227 25.4978 130.119 25.4744 130.119 22.5431C130.118 20.0591 131.999 18.4121 133.543 18.4121ZM132.754 24.7058C134.877 24.7058 135.375 22.7258 135.375 21.6638C135.399 21.0722 135.19 20.4949 134.792 20.0563C134.394 19.6176 133.84 19.3526 133.249 19.3184C130.538 19.3184 129.634 24.7058 132.751 24.7058H132.754Z" fill="black"/>
<path d="M28.7443 32.1641C27.4429 31.8257 17.7391 30.9779 17.6401 30.9707C17.1127 30.9302 17.2486 33.3647 17.2405 47.5739C17.2405 48.6926 17.2342 48.7268 18.3295 48.7043C21.7783 48.6332 25.2262 48.5414 28.6795 48.455C29.6065 48.4316 29.7442 48.3335 29.7514 47.4236C29.7868 42.7934 29.8138 38.1629 29.8324 33.5321C29.8324 32.5124 29.7361 32.4224 28.7443 32.1641ZM18.5617 47.9276C18.5617 44.1971 18.1252 44.0819 20.2942 42.5906C20.4896 42.473 20.6976 42.3776 20.9143 42.3062C20.9511 42.2908 20.9921 42.2888 21.0302 42.3005C21.0683 42.3122 21.1012 42.3368 21.1231 42.3701C21.3893 42.8388 21.5255 43.3701 21.5174 43.9091C21.5093 44.448 21.3573 44.975 21.0772 45.4355C20.9098 45.6407 20.3779 45.7316 20.4859 45.7316C20.5201 45.5462 20.5615 45.3608 20.5957 45.1754C20.4157 45.2267 20.1457 45.2267 20.0746 45.3491C19.6939 46.025 18.73 47.7485 18.5617 47.9276ZM20.602 47.789C20.1437 47.839 19.6833 47.8661 19.2223 47.87C19.4182 47.4301 19.6528 47.0084 19.9234 46.61C19.9234 46.61 20.6191 47.7539 20.602 47.7899V47.789ZM25.8697 47.267C25.8103 47.4362 26.0911 47.2841 20.9665 47.609C20.9304 47.6115 20.8945 47.6021 20.8643 47.5823C20.8341 47.5624 20.8112 47.5333 20.7991 47.4992C20.6191 46.9718 20.5444 46.8971 20.6713 46.7981C22.4128 45.4346 22.6765 44.3519 21.8593 41.7581C22.2193 41.6681 22.3993 41.5178 22.7053 41.6681C23.7115 42.1523 24.7915 42.3746 25.696 41.5637C25.8292 41.8769 25.9462 42.1037 26.0263 42.3575C26.2063 42.9074 26.3134 43.4771 26.5249 44.0153C26.7018 44.3931 26.7685 44.8131 26.7172 45.2271C26.666 45.641 26.4988 46.0321 26.2351 46.3553C26.0682 46.6391 25.945 46.9465 25.8697 47.267ZM21.8017 37.4957C21.8818 37.4574 21.9717 37.4441 22.0595 37.4575C22.1473 37.471 22.229 37.5107 22.294 37.5713C22.373 37.6598 22.4712 37.7291 22.5811 37.774C22.6909 37.8189 22.8096 37.8382 22.928 37.8304C23.0464 37.8226 23.1615 37.7879 23.2645 37.729C23.3675 37.67 23.4557 37.5884 23.5225 37.4903C23.7331 37.1303 24.2425 36.9503 24.6025 36.6965C24.7942 36.899 24.9157 37.1465 25.0957 37.1951C25.3029 37.2183 25.4938 37.3189 25.6301 37.4768C25.7664 37.6346 25.8382 37.8381 25.831 38.0465C25.8679 38.7071 26.0281 39.3497 25.381 39.716C24.8185 40.0337 24.661 40.2839 24.8599 41.156C25.1299 42.3557 23.3812 41.5619 23.3812 41.5619C23.2372 41.5736 23.3002 40.5125 23.3002 40.5125C23.3176 40.4561 23.3236 40.3968 23.3177 40.338C23.3118 40.2793 23.2942 40.2223 23.266 40.1705C23.0212 39.8645 23.1139 39.9743 22.8313 39.626C22.6474 39.2802 22.5092 38.9121 22.42 38.5307C22.3786 38.4407 21.8512 38.3804 21.7297 38.1887C21.5569 37.9142 21.6388 37.5137 21.8017 37.4957ZM21.5641 37.0844C21.5412 36.7934 21.5334 36.5014 21.5407 36.2096C21.9024 36.3221 22.2864 36.3433 22.6584 36.2716C23.0303 36.1998 23.3788 36.0373 23.6728 35.7983C23.823 35.6618 24.0155 35.581 24.2181 35.5694C24.4208 35.5578 24.6212 35.616 24.7861 35.7344C25.2217 36.0044 25.7707 35.6894 26.0956 35.7344C26.4835 35.7884 26.2459 36.7082 26.2234 36.6902C25.8718 36.4797 25.451 36.4173 25.0534 36.5165C24.8642 36.6022 24.6592 36.647 24.4515 36.6481C24.2439 36.6492 24.0383 36.6065 23.8483 36.5228C23.7952 36.4931 21.6271 37.1195 21.5641 37.0844ZM27.9001 47.5514L26.8201 47.4524C26.7945 47.4497 26.7698 47.4413 26.7478 47.4278C26.7259 47.4142 26.7073 47.396 26.6934 47.3743C26.6795 47.3526 26.6706 47.328 26.6675 47.3025C26.6643 47.2769 26.667 47.2509 26.6752 47.2265L26.965 46.421C26.975 46.3936 26.9918 46.3693 27.0139 46.3503C27.0359 46.3313 27.0625 46.3183 27.091 46.3125C27.1196 46.3067 27.1491 46.3084 27.1769 46.3173C27.2046 46.3262 27.2296 46.3421 27.2494 46.3634L28.0378 47.2634C28.0615 47.2885 28.0771 47.3202 28.0825 47.3544C28.0879 47.3885 28.0828 47.4235 28.0679 47.4547C28.0529 47.4859 28.0289 47.5118 27.999 47.5291C27.969 47.5464 27.9345 47.5541 27.9001 47.5514ZM28.5031 46.6064C27.9928 46.1078 27.3997 45.8765 27.4717 44.9783C27.3981 44.2933 27.2059 43.6264 26.9038 43.0073C26.8228 42.7463 26.7472 42.4862 26.6338 42.1073C28.7857 43.0271 28.5067 44.2097 28.5067 46.6064H28.5031ZM28.7407 34.343C28.7218 35.2493 28.5841 41.2982 28.4914 42.5555C26.6455 40.6421 24.9751 41.066 25.0021 40.6376C25.0184 40.493 25.0892 40.3601 25.2001 40.2659C25.3566 40.1429 25.5214 40.0307 25.6933 39.9302C25.8087 39.8632 25.9096 39.7738 25.9901 39.6673C26.0706 39.5609 26.1291 39.4394 26.1622 39.3101C26.2181 38.8442 26.1971 38.3724 26.1001 37.9133C26.0173 37.502 26.2081 37.6433 26.3206 37.2527C26.474 36.702 26.4891 36.1221 26.3648 35.5641C26.2405 35.0062 25.9805 34.4875 25.6078 34.0541C25.3234 33.7292 24.9643 34.2341 24.8194 33.9641C24.7689 33.8447 24.6865 33.7415 24.5813 33.6657C24.476 33.59 24.352 33.5447 24.2227 33.5348C23.3992 33.6014 23.5729 33.8291 23.1796 33.9119C22.8547 33.9803 22.5289 33.6959 22.2697 33.8885C21.961 34.118 21.9934 34.6778 21.8116 34.9838C21.1663 36.0728 21.3778 36.2213 21.3715 36.6038C21.3754 36.8804 21.4386 37.1529 21.5569 37.403C21.6172 37.5371 21.1141 38.1176 22.0375 38.609C22.2805 38.7377 22.2598 39.2795 22.3975 39.509C22.5866 39.7564 22.7919 39.9909 23.0122 40.211C23.2021 40.4666 22.9951 40.8014 22.9483 40.9643C21.4174 41.2042 19.9775 41.8462 18.7759 42.8246C18.6652 42.9227 18.6022 32.3054 18.6022 32.3054C18.6015 32.2812 18.6061 32.2571 18.6158 32.2348C18.6255 32.2126 18.64 32.1928 18.6582 32.1768C18.6764 32.1608 18.698 32.1491 18.7213 32.1423C18.7446 32.1356 18.7691 32.1342 18.793 32.138C28.7101 33.6599 28.7866 32.2946 28.7443 34.343H28.7407Z" fill="black"/>
<path d="M69.614 52.8541C68.9993 53.6011 68.3162 54.2851 67.6439 54.9862C67.1039 55.5487 66.5639 55.0852 66.9887 54.4822C67.6818 53.559 68.4369 52.684 69.2486 51.8632C69.5384 51.4573 71.225 50.4898 69.614 52.8541Z" fill="black"/>
<path d="M70.755 61.5122C70.0623 61.4802 69.3738 61.3872 68.6976 61.2341C68.298 61.1234 67.8174 60.3179 68.8083 60.3179C69.5498 60.3305 70.2887 60.41 71.016 60.5555C73.0446 60.6716 72.528 61.676 70.755 61.5122Z" fill="black"/>
<path d="M70.668 57.2933C69.8112 57.4383 68.9707 57.6674 68.1588 57.9773C67.8168 58.1573 67.4073 57.7478 67.7763 57.3473C67.8766 57.2218 68.0087 57.1255 68.1588 57.0683C68.9994 56.8631 69.8634 56.747 70.6968 56.5004C72.1755 56.0702 71.8038 57.1889 70.668 57.2933Z" fill="black"/>
<path d="M66.1074 140.428C65.9418 144.895 62.6217 146.599 60.306 144.748C59.1471 143.683 58.456 142.204 58.3833 140.632C58.3107 139.06 58.8623 137.523 59.9181 136.356C62.3589 134.017 65.9409 136.131 66.1074 140.428ZM61.2564 140.434C61.2105 140.416 61.1583 140.399 61.1115 140.382C61.1637 140.144 61.1871 139.709 61.2627 139.698C61.841 139.602 62.4291 139.578 63.0132 139.628C63.5343 139.686 63.4191 140.168 63.3777 140.528C63.2562 141.589 64.239 141.239 64.7628 141.211C65.238 141.186 65.3739 140.933 65.2443 140.51C64.9419 139.52 64.4217 138.699 63.3138 138.563C62.5385 138.467 61.7546 138.463 60.9783 138.551C60.5594 138.609 60.1729 138.808 59.8831 139.116C59.5932 139.424 59.4176 139.822 59.3853 140.243C59.3277 140.539 59.4312 141.118 59.5761 141.158C60.0197 141.27 60.4844 141.266 60.9261 141.148C61.0827 141.12 61.1466 140.689 61.2564 140.434Z" fill="black"/>
<path d="M35.0022 149.023C33.3411 148.947 31.7738 148.232 30.6281 147.027C29.4825 145.821 28.8473 144.22 28.8555 142.557C28.8638 140.894 29.5148 139.299 30.6724 138.106C31.83 136.912 33.4044 136.212 35.0661 136.153C35.9004 136.181 36.7209 136.374 37.4803 136.721C38.2398 137.067 38.9231 137.561 39.4909 138.173C40.0587 138.785 40.4997 139.503 40.7887 140.286C41.0776 141.07 41.2087 141.902 41.1744 142.736C41.1866 144.388 40.5439 145.976 39.387 147.155C38.2301 148.333 36.6534 149.005 35.0022 149.023ZM40.2222 142.682C40.192 141.671 39.8648 140.691 39.2816 139.864C38.6983 139.037 37.8846 138.4 36.942 138.033C35.9993 137.665 34.9693 137.583 33.9803 137.796C32.9913 138.01 32.0869 138.51 31.3799 139.233C30.6729 139.957 30.1945 140.873 30.0042 141.867C29.814 142.861 29.9204 143.888 30.3101 144.822C30.6998 145.756 31.3556 146.554 32.1959 147.118C33.0361 147.682 34.0237 147.986 35.0355 147.992C35.7246 147.985 36.4055 147.841 37.0391 147.57C37.6727 147.299 38.2467 146.905 38.7281 146.412C39.2095 145.919 39.5889 145.336 39.8447 144.696C40.1004 144.056 40.2275 143.371 40.2186 142.682H40.2222Z" fill="black"/>
<path d="M55.2808 141.396C55.1116 146.217 50.5 148.445 47.4976 145.655C46.3717 144.536 45.6983 143.041 45.6065 141.456C45.5147 139.871 46.0108 138.308 46.9999 137.067C47.4502 136.509 48.0297 136.069 48.6883 135.786C49.3468 135.502 50.0645 135.384 50.7792 135.441C51.4939 135.497 52.184 135.727 52.7897 136.11C53.3955 136.494 53.8987 137.019 54.2557 137.641C54.966 138.761 55.3232 140.07 55.2808 141.396ZM54.5509 141.442C54.5707 136.852 50.4244 134.962 47.8576 137.513C46.9945 138.46 46.4989 139.685 46.4606 140.966C46.4224 142.247 46.8438 143.5 47.6488 144.497C47.9937 144.95 48.4401 145.315 48.9521 145.564C49.4641 145.813 50.0273 145.938 50.5965 145.929C51.1657 145.92 51.7248 145.778 52.2289 145.514C52.733 145.249 53.168 144.87 53.4988 144.407C54.1598 143.558 54.5288 142.518 54.5509 141.442Z" fill="black"/>
<path d="M164.084 43.74C164.065 44.6841 163.943 45.63 163.847 46.5732C163.811 46.9269 163.69 47.2149 163.233 47.2752C154.855 48.3678 155.599 48.5235 153.479 48.1437C153.339 48.0966 153.213 48.016 153.112 47.909C153.011 47.8019 152.938 47.6718 152.899 47.5299C151.935 38.0799 152.161 40.8942 152.597 32.3055C152.587 32.0711 152.666 31.8416 152.819 31.6638C152.972 31.486 153.188 31.3733 153.421 31.3488C156.307 30.7953 159.181 30.1788 162.079 29.709C163.892 29.4174 164.161 29.6856 164.206 31.509C164.26 33.6654 164.122 41.8194 164.084 43.74ZM162.361 39.6459C162.494 36.7605 162.622 33.903 162.755 31.0059C159.785 31.4469 156.884 31.8753 153.883 32.3163V41.067C154.154 40.8279 154.451 40.6199 154.769 40.4469C155.682 40.0689 155.586 40.8186 155.192 41.0958C154.306 41.7195 153.668 42.3306 153.905 43.6158C154.019 44.7503 154.032 45.8926 153.946 47.0295L162.448 45.7947C162.448 44.2125 162.425 42.7635 162.46 41.3154C162.482 41.0993 162.435 40.8818 162.324 40.6949C162.213 40.508 162.045 40.3617 161.845 40.2777C160.985 39.8124 160.945 39.4785 162.361 39.6459Z" fill="black"/>
<path d="M142.154 142.798C142.2 141.663 142.58 140.565 143.245 139.644C143.911 138.723 144.833 138.018 145.897 137.618C146.961 137.218 148.119 137.14 149.227 137.394C150.335 137.649 151.343 138.224 152.126 139.048C152.909 139.872 153.432 140.909 153.629 142.028C153.826 143.148 153.689 144.3 153.235 145.342C152.78 146.384 152.029 147.269 151.075 147.887C150.12 148.504 149.005 148.827 147.869 148.814C147.098 148.795 146.339 148.624 145.635 148.311C144.93 147.998 144.295 147.55 143.764 146.991C143.233 146.432 142.818 145.774 142.542 145.055C142.266 144.336 142.134 143.569 142.154 142.798ZM152.157 142.96C151.975 142.369 151.63 141.841 151.162 141.437C150.693 141.033 150.12 140.77 149.508 140.677C148.368 140.509 147.218 140.414 146.066 140.393C145.55 140.374 145.041 140.512 144.606 140.789C144.17 141.065 143.829 141.467 143.626 141.941C143.029 143.201 143.512 143.325 144.728 143.488C145.887 143.643 145.959 143.598 145.944 142.421C145.937 141.836 146.194 141.576 146.716 141.627C147.486 141.704 148.251 141.84 149.016 141.993C149.417 142.073 149.474 142.364 149.381 142.746C149.111 143.859 149.189 143.975 150.32 144.073C151.759 144.199 152.664 144.217 152.157 142.96Z" fill="black"/>
<path d="M130.186 137.009C130.678 136.68 131.229 136.452 131.81 136.338C132.39 136.223 132.987 136.225 133.566 136.343C134.145 136.461 134.696 136.693 135.185 137.025C135.674 137.357 136.093 137.783 136.416 138.278C137.227 139.461 137.599 140.89 137.467 142.318C137.334 143.746 136.706 145.082 135.692 146.096C135.192 146.609 134.576 146.995 133.896 147.221C133.216 147.446 132.492 147.505 131.784 147.393C131.076 147.28 130.406 147 129.83 146.574C129.253 146.149 128.787 145.591 128.471 144.949C127.721 143.648 127.482 142.115 127.799 140.648C128.116 139.181 128.967 137.884 130.186 137.009ZM133.257 137.229C132.559 137.084 131.833 137.146 131.17 137.409C130.507 137.671 129.935 138.123 129.526 138.707C128.811 139.586 128.413 140.68 128.397 141.812C128.38 142.945 128.746 144.05 129.436 144.949C129.733 145.364 130.113 145.714 130.552 145.976C130.99 146.239 131.478 146.407 131.985 146.472C132.492 146.537 133.007 146.496 133.498 146.353C133.988 146.209 134.444 145.966 134.836 145.638C137.755 143.248 136.98 138.01 133.257 137.229Z" fill="black"/>
<path d="M123.249 137.976C123.869 139.096 124.12 140.382 123.968 141.652C123.815 142.922 123.267 144.112 122.4 145.053C120.33 147.105 117.138 146.287 116.135 143.412C114.041 137.425 120.343 133.248 123.249 137.976ZM122.78 138.77C122.603 138.295 122.311 137.871 121.929 137.538C121.547 137.204 121.088 136.972 120.593 136.861C120.098 136.751 119.584 136.766 119.096 136.905C118.608 137.044 118.164 137.303 117.802 137.658C117.014 138.464 116.52 139.511 116.399 140.631C116.278 141.752 116.537 142.88 117.135 143.835C119.812 147.656 124.925 143.622 122.78 138.77Z" fill="black"/>
<path d="M130.877 75.5604C130.935 76.9964 130.835 78.4344 130.581 79.8489C130.2 82.5111 128.347 83.7135 130.57 84.5721C131.387 84.888 131.723 85.671 130.732 85.8123C130.368 85.8354 130.004 85.7769 129.666 85.6409C129.328 85.505 129.025 85.2951 128.779 85.0267C128.532 84.7582 128.349 84.4381 128.243 84.0897C128.137 83.7413 128.11 83.3735 128.164 83.0133C128.215 82.6677 128.326 82.334 128.494 82.0278C129.484 80.4078 129.325 78.5835 129.926 74.3661C129.969 74.07 130.583 71.7876 130.877 75.5604Z" fill="black"/>
<path d="M136.127 86.9714C134.5 89.9171 129.684 88.9991 130.367 87.7247C130.601 87.2855 133.457 89.3978 135.857 85.6673C136.127 85.3253 137.257 84.1841 136.127 86.9714Z" fill="black"/>
<path d="M138.416 73.0852C138.451 73.1862 138.445 73.2968 138.4 73.3938C138.356 73.4907 138.275 73.5666 138.175 73.6056C138.076 73.6445 137.965 73.6435 137.867 73.6027C137.768 73.5619 137.689 73.4845 137.646 73.3867C136.774 72.6073 135.876 71.2906 134.655 71.8855C133.914 72.2455 133.566 71.503 134.319 71.1385C136.171 70.2394 138.028 71.7712 138.416 73.0852Z" fill="black"/>
<path d="M135.553 75.2705C135.873 75.3153 136.169 75.4676 136.391 75.7024C136.613 75.9373 136.749 76.2407 136.776 76.5629C136.78 76.8898 136.655 77.2051 136.428 77.4408C136.202 77.6765 135.892 77.8137 135.565 77.8229C134.148 77.8076 134.094 75.2984 135.553 75.2705Z" fill="black"/>
<path d="M127.955 71.5959C127.119 71.6644 126.341 72.0509 125.782 72.6759C125.341 73.6263 124.977 73.0413 125.139 72.2646C125.389 71.0595 127.439 70.3053 128.581 70.7868C129.33 70.866 129.879 71.8569 127.955 71.5959Z" fill="black"/>
<path d="M127.711 76.7485C127.732 76.8903 127.723 77.0349 127.683 77.1728C127.644 77.3106 127.575 77.4384 127.482 77.5476C127.39 77.6567 127.274 77.7447 127.145 77.8056C127.015 77.8665 126.873 77.8988 126.73 77.9005C126.587 77.9022 126.445 77.8732 126.314 77.8154C126.182 77.7575 126.065 77.6723 125.97 77.5654C125.874 77.4584 125.803 77.3323 125.76 77.1954C125.718 77.0585 125.705 76.9141 125.723 76.7719C125.724 74.989 127.719 75.1501 127.711 76.7485Z" fill="black"/>
<path d="M50.5462 85.9219C49.7931 86.0553 49.0173 85.9598 48.319 85.648C47.6207 85.3361 47.0318 84.8221 46.6285 84.1723C45.9134 83.2266 45.4345 82.1238 45.2317 80.9557C44.8807 78.6157 47.1217 79.9576 49.7461 80.5732C50.8927 80.8432 52.0528 81.0475 53.2174 81.2338C54.2317 81.3958 54.5926 81.8584 54.2263 82.816C53.8637 83.5619 53.3489 84.2237 52.7151 84.7586C52.0813 85.2935 51.3424 85.6898 50.5462 85.9219ZM46.6456 81.2167C46.7476 81.9227 47.0521 82.584 47.5222 83.1205C47.9923 83.6571 48.6078 84.0458 49.2943 84.2398C49.8467 84.3018 50.4054 84.2063 50.9057 83.9642C51.4061 83.7221 51.8278 83.3434 52.1221 82.8718C50.3095 82.3237 48.4654 81.7666 46.6456 81.2167Z" fill="black"/>
<path d="M53.9421 78.4692C52.9395 79.1163 52.0962 78.7689 52.9521 77.6178C53.2887 77.1253 53.5009 76.5585 53.5705 75.966C53.6401 75.3735 53.565 74.7729 53.3517 74.2158C52.0989 69.9858 50.5617 65.4858 50.4834 64.9602C50.4546 64.7748 50.5581 64.4445 50.6859 64.3923C50.7921 64.3696 50.9023 64.3748 51.0059 64.4073C51.1095 64.4398 51.2029 64.4985 51.2772 64.5777C52.6179 67.5777 53.7897 70.6503 54.7872 73.7811C55.1496 74.5537 55.263 75.4199 55.1116 76.2598C54.9602 77.0997 54.5515 77.8718 53.9421 78.4692Z" fill="black"/>
<path d="M58.0288 65.3659C58.1503 66.4558 57.5032 66.1489 57.2404 65.8006C57.0937 65.6062 55.2991 64.294 54.3712 64.6765C53.7286 65.0068 53.0788 64.3642 53.7223 63.6334C55.1929 61.9639 57.8776 64.0159 58.0288 65.3659Z" fill="black"/>
<path d="M46.5614 71.7526C45.6668 71.7526 45.2168 70.7941 45.2168 70.1326C45.2168 69.3919 45.4652 68.3218 46.2239 68.3218C48.2804 68.3254 48.5108 71.7526 46.5614 71.7526Z" fill="black"/>
<path d="M56.0456 71.2132C54.4553 71.1835 54.3869 68.2648 55.907 68.101C57.5495 67.9246 57.7142 71.2456 56.0456 71.2132Z" fill="black"/>
<path d="M46.6924 64.5149C46.145 64.5275 45.6101 64.6801 45.1384 64.958C44.6667 65.2359 44.274 65.6299 43.9978 66.1025C43.5055 67.0412 43.1877 65.9864 43.2327 65.8649C43.2898 65.3142 43.5322 64.7991 43.9203 64.4042C44.3313 63.9922 44.8474 63.7008 45.4125 63.5618C45.9776 63.4228 46.57 63.4415 47.1252 63.6158C48.1413 63.8363 48.118 64.5086 46.6924 64.5149Z" fill="black"/>
<path d="M36.1155 144.548C34.9041 144.548 33.6855 144.556 32.4579 144.548C32.3007 144.563 32.1422 144.544 31.9928 144.494C31.8433 144.443 31.7061 144.361 31.5902 144.254C31.4743 144.147 31.3823 144.017 31.3201 143.872C31.258 143.727 31.227 143.57 31.2294 143.412C31.1763 142.77 31.1718 142.114 31.1718 141.471C31.1595 141.33 31.1769 141.189 31.2228 141.056C31.2687 140.922 31.3421 140.8 31.4382 140.697C31.5343 140.593 31.651 140.512 31.7808 140.456C31.9105 140.401 32.0504 140.373 32.1915 140.376C33.4614 140.326 34.7304 140.359 36.1155 140.359V144.548Z" fill="black"/>
<path d="M38.7353 144.132C38.3069 143.899 37.8947 143.639 37.4546 143.453C37.2556 143.343 37.0873 143.186 36.9651 142.994C36.8429 142.803 36.7707 142.584 36.7552 142.357C36.7396 142.131 36.7811 141.904 36.8759 141.697C36.9708 141.491 37.1159 141.312 37.298 141.176C37.748 140.912 38.1674 140.596 38.738 140.208L38.7353 144.132Z" fill="black"/>
<path d="M51.2761 143.331H52.006V144.27C51.2005 144.305 50.4013 144.34 49.5607 144.381V143.494L50.5399 143.384C50.3257 143.06 50.1862 142.833 50.0359 142.607C48.7372 140.659 48.9559 141.257 49.3159 140.469C49.4842 140.613 49.7506 140.724 49.8091 140.903C49.9639 141.379 50.1736 141.796 50.719 141.803C51.2986 141.815 51.439 141.344 51.5821 140.882C51.6397 140.702 51.8521 140.575 51.9997 140.432C52.3453 141.068 52.6054 140.645 51.5767 142.459C51.4381 142.703 51.2518 142.923 51.0898 143.155C51.1483 143.215 51.2095 143.274 51.2761 143.331Z" fill="black"/>
<path d="M51.3467 139.379C51.3823 139.816 51.3745 140.254 51.3233 140.689C51.2711 140.944 50.9759 141.152 50.7959 141.378C50.5583 141.176 50.138 140.99 50.1128 140.765C50.0045 139.803 49.9636 138.834 49.9904 137.867C49.9967 137.658 50.4404 137.275 50.6105 137.31C50.762 137.355 50.9007 137.436 51.0155 137.544C51.1302 137.653 51.2178 137.787 51.2711 137.936C51.334 138.413 51.344 138.896 51.3008 139.376L51.3467 139.379Z" fill="black"/>
<path d="M156.132 40.4225C155.52 40.0454 156.086 38.2211 156.184 36.5228C156.33 33.9911 159.395 33.5528 159.945 35.3168C160.344 36.5903 160.728 37.8683 161.064 39.1598C161.092 39.3248 161.088 39.494 161.05 39.6573C161.012 39.8205 160.942 39.9745 160.844 40.1102C160.577 40.5222 160.198 40.8494 159.752 41.0537C159.305 41.2579 158.81 41.3305 158.324 41.2631C157.559 41.0832 156.821 40.8004 156.132 40.4225ZM158.31 35.6399C157.334 35.5715 157.182 36.53 157.336 37.5173C157.426 38.0798 157.696 38.5496 158.321 38.6072C158.771 38.6477 159.212 38.033 159.272 37.4012C159.351 36.5084 159.21 35.7047 158.31 35.6399ZM158.055 40.2587C157.515 39.7484 157.086 39.3371 156.589 38.8619C156.497 39.7565 157.013 40.2605 158.05 40.2605L158.055 40.2587ZM160.332 39.8645C160.242 39.7664 160.138 39.662 160.046 39.563C159.776 39.833 159.512 40.0967 159.252 40.3631C159.327 40.4441 159.402 40.5314 159.483 40.6124C159.757 40.3649 160.044 40.1156 160.327 39.8699L160.332 39.8645Z" fill="black"/>
<path d="M133.594 145.058C132.713 144.983 131.895 144.913 131.074 144.838V143.958H132.093C131.896 143.609 131.77 143.377 131.643 143.14C130.602 141.22 130.807 141.775 131.168 141.054C131.319 141.216 131.556 141.356 131.618 141.546C131.883 142.416 132.402 142.737 132.98 142.294C133.16 142.156 133.222 141.864 133.38 141.68C133.543 141.521 133.722 141.379 133.913 141.257C134.189 142.043 134.584 141.501 132.591 143.98C133.067 144.056 133.316 144.096 133.652 144.148C133.629 144.426 133.611 144.711 133.594 145.058Z" fill="black"/>
<path d="M133.217 141.314C133.183 141.749 132.928 142.135 132.482 142.022C132.329 141.952 132.196 141.846 132.094 141.712C131.991 141.579 131.923 141.423 131.896 141.257C131.864 140.406 131.916 139.553 132.052 138.713C132.111 138.556 132.208 138.415 132.333 138.304C132.459 138.193 132.609 138.115 132.772 138.075C133.206 138.021 133.376 138.406 133.346 138.834C133.183 141.113 133.254 140.855 133.217 141.314Z" fill="black"/>
<path d="M120.485 139.23C120.404 140.418 120.335 141.468 120.265 142.56C119.419 142.497 118.637 142.444 117.86 142.38C117.755 142.38 117.651 142.358 117.554 142.315C117.458 142.273 117.372 142.21 117.302 142.132C117.231 142.054 117.178 141.962 117.145 141.862C117.113 141.762 117.101 141.656 117.112 141.551C117.064 138.855 117.099 139.23 120.485 139.23Z" fill="black"/>
<path d="M122.129 142.485C121.596 142.062 120.716 142.016 120.755 141.107C120.792 140.249 120.895 140.121 122.309 139.449C122.246 140.49 122.183 141.489 122.129 142.485Z" fill="black"/>
<path d="M158.05 40.2606C157.012 40.2606 156.496 39.7566 156.584 38.8638C157.081 39.339 157.511 39.7449 158.05 40.2606Z" fill="black"/>
<path d="M160.328 39.8699C160.045 40.1192 159.764 40.3685 159.479 40.6178C159.404 40.5368 159.329 40.4495 159.248 40.3685C159.518 40.0985 159.781 39.8357 160.042 39.5684C160.14 39.6638 160.23 39.7619 160.328 39.8699Z" fill="black"/>
<path d="M56.5452 49.9096C56.2083 49.6062 55.8501 49.3274 55.4733 49.0753C53.3602 47.8169 50.862 47.3691 48.4434 47.8153C35.5563 50.0653 28.7235 65.1322 30.1068 77.4127C30.3903 79.9327 31.2444 76.6414 31.4982 73.2862C31.6884 69.4173 32.5941 65.6173 34.1694 62.0785C36.3132 57.5461 39.0429 53.4997 43.6851 51.1363C47.7909 49.0447 51.9957 48.0151 56.5452 49.9096ZM66.5595 85.7197C66.3975 83.5318 65.5695 83.9467 65.3634 84.4885C65.0529 85.312 64.8171 86.1571 64.5399 86.9914C62.8902 91.9639 58.7727 99.3817 54.4041 103.004C51.6546 105.284 48.8502 106.763 48.2292 107.661C48.4929 107.807 48.6288 108.139 49.7592 107.774C52.939 106.713 55.7752 104.817 57.9708 102.284C60.929 98.8958 63.3313 95.0598 65.088 90.919C65.9531 89.3145 66.4554 87.5396 66.5595 85.7197ZM52.1109 111.219C52.128 111.272 52.137 111.321 52.1541 111.379C53.7552 111.416 55.3318 110.981 56.6865 110.127C61.0682 107.53 64.7146 103.857 67.2804 99.4573C67.449 99.0831 67.4916 98.6644 67.4019 98.2639C67.3642 98.1279 67.2947 98.0029 67.1991 97.8991C67.1034 97.7953 66.9845 97.7158 66.852 97.6672C65.2842 97.3072 65.6559 101.507 55.4868 108.917C54.3879 109.724 53.2359 110.454 52.1109 111.219ZM64.9143 65.3545C64.2411 65.5228 65.0043 64.5922 63.7002 74.9755C63.4302 77.0851 62.9163 79.1596 62.5698 81.2629C62.3691 82.4806 61.8165 83.6452 62.0298 84.9376C62.1288 85.5343 62.3484 85.5172 62.7543 85.2679C63.084 85.0305 63.3632 84.7298 63.5756 84.3834C63.7879 84.0369 63.9291 83.6517 63.9909 83.2501C65.7999 76.1482 65.619 73.6462 65.3463 66.8782C65.2643 66.3547 65.1192 65.8431 64.9143 65.3545ZM48.8547 99.8317C48.8547 99.7507 48.8547 99.6634 48.861 99.5824C47.1108 99.0283 45.3974 98.3643 43.731 97.5943C40.7917 96.1182 38.4186 93.7176 36.9765 90.7615C36.6066 89.9731 36.4149 89.0992 36.0576 88.2982C35.6742 87.4405 35.1387 87.3469 34.8291 88.3882C34.6565 89.1616 34.7653 89.9712 35.136 90.6715C36.4752 93.8509 38.8046 96.5133 41.778 98.263C44.6904 100.046 46.8522 100.232 48.8547 99.8317ZM36.5247 110.048C36.1484 109.581 35.7229 109.156 35.2557 108.779C33.0989 107.508 30.6724 106.763 28.1736 106.606C27.3922 106.545 26.6133 106.751 25.965 107.192C24.885 107.849 25.695 108.491 26.3421 108.444C31.1751 108.082 35.8065 111.274 36.5283 110.048H36.5247Z" fill="black"/>
<path d="M64.8955 57.8555C66.4192 61.9577 66.0718 64.4309 66.3679 65.1689C67.7863 68.7068 68.0068 74.6531 67.8601 78.1199C67.6729 82.4606 69.4801 80.9288 70.0039 87.6068C70.2068 90.2183 69.9478 92.8451 69.2389 95.3666C69.0668 96.4574 69.0366 97.5658 69.1489 98.6642C69.1489 99.1025 69.859 99.5048 71.9137 101.719C72.6607 102.529 73.0603 103.069 74.2951 104.492L74.4346 106.387C74.2589 106.655 74.0981 106.933 73.9531 107.219C73.2099 109.094 72.1143 110.809 70.7257 112.272C68.9592 113.976 66.9756 115.44 64.8262 116.625C59.0329 119.912 54.154 118.496 52.6267 118.798C49.8097 119.355 45.7498 121.312 40.3813 119.656C34.7005 117.903 32.7934 113.926 30.8827 112.411C29.0269 110.94 26.7679 110.632 24.4666 110.603C23.2669 110.333 22.0591 110.056 20.8594 109.777C22.654 107.183 24.4045 108.433 25.7248 104.767C27.7048 99.2771 25.2874 97.5347 24.247 75.1238C23.9436 71.6576 24.1269 68.1659 24.7915 64.7504C26.3863 57.9869 29.8099 52.4519 35.866 48.7835C45.82 42.7544 60.715 46.6001 64.8955 57.8555ZM60.445 73.4507C60.0337 69.191 59.9284 66.0329 58.0222 63.7145C56.1983 61.3805 54.129 59.2491 51.85 57.3569C51.0571 56.7269 49.51 57.3641 48.6163 57.8321C44.993 59.5867 41.8996 62.2704 39.6514 65.6099C38.5867 67.0201 37.8715 68.6625 37.5643 70.4024C37.3499 72.1011 37.2743 73.8143 37.3384 75.5252C37.8109 82.9556 41.6269 86.9282 47.701 90.7784C48.1364 91.0435 48.655 91.1366 49.1554 91.0394C50.1312 90.8329 51.0656 90.4649 51.9202 89.9504C57.898 85.8923 60.3901 80.7182 60.445 73.4507ZM56.5444 49.9094C56.2075 49.606 55.8493 49.3272 55.4725 49.0751C53.3594 47.8168 50.8611 47.369 48.4426 47.8151C35.5555 50.0651 28.7227 65.132 30.106 77.4125C30.3895 79.9325 31.2436 76.6412 31.4974 73.286C31.6876 69.4172 32.5933 65.6171 34.1686 62.0783C36.3124 57.5459 39.0421 53.4995 43.6843 51.1361C47.7901 49.0445 51.9949 48.0149 56.5444 49.9094ZM66.5587 85.7195C66.3967 83.5316 65.5687 83.9465 65.3626 84.4883C65.0521 85.3118 64.8163 86.1569 64.5391 86.9912C62.8894 91.9637 58.7719 99.3815 54.4033 103.004C51.6538 105.284 48.8494 106.763 48.2284 107.661C48.4921 107.806 48.628 108.139 49.7584 107.774C52.9382 106.713 55.7744 104.817 57.97 102.284C60.9282 98.8957 63.3304 95.0596 65.0872 90.9188C65.9523 89.3143 66.4546 87.5395 66.5587 85.7195ZM52.1101 111.219C52.1272 111.271 52.1362 111.321 52.1533 111.379C53.7543 111.416 55.331 110.981 56.6857 110.127C61.0674 107.53 64.7137 103.857 67.2796 99.4571C67.4481 99.083 67.4908 98.6642 67.4011 98.2637C67.3634 98.1278 67.2939 98.0027 67.1982 97.8989C67.1026 97.7952 66.9836 97.7157 66.8512 97.667C65.2834 97.307 65.6551 101.507 55.486 108.917C54.3871 109.723 53.2351 110.454 52.1101 111.219ZM64.9135 65.3543C64.2403 65.5226 65.0035 64.592 63.6994 74.9753C63.4294 77.0849 62.9155 79.1594 62.569 81.2627C62.3683 82.4804 61.8157 83.645 62.029 84.9374C62.128 85.5341 62.3476 85.517 62.7535 85.2677C63.0832 85.0303 63.3624 84.7297 63.5747 84.3832C63.787 84.0368 63.9282 83.6515 63.9901 83.2499C65.7991 76.148 65.6182 73.646 65.3455 66.878C65.2634 66.3546 65.1184 65.843 64.9135 65.3543ZM48.8539 99.8315C48.8539 99.7505 48.8539 99.6632 48.8602 99.5822C47.11 99.0282 45.3966 98.3642 43.7302 97.5941C40.7909 96.118 38.4178 93.7174 36.9757 90.7613C36.6058 89.9729 36.4141 89.099 36.0568 88.298C35.6734 87.4403 35.1379 87.3467 34.8283 88.388C34.6557 89.1614 34.7645 89.971 35.1352 90.6713C36.4744 93.8508 38.8038 96.5132 41.7772 98.2628C44.6896 100.046 46.8514 100.232 48.8539 99.8315ZM36.5239 110.048C36.1476 109.581 35.7221 109.156 35.2549 108.779C33.0981 107.508 30.6716 106.763 28.1728 106.606C27.3914 106.545 26.6125 106.751 25.9642 107.192C24.8842 107.849 25.6942 108.491 26.3413 108.444C31.1743 108.082 35.8057 111.274 36.5275 110.048H36.5239Z" fill="black"/>
</svg>
