<?xml version="1.0" encoding="UTF-8" standalone="no"?><svg width="200" height="200" viewBox="0 0 200 200" fill="none" xmlns="http://www.w3.org/2000/svg">
<path d="M106.008 124.881C122.371 124.051 137.362 123.675 139.779 125.03C141.024 125.73 142.961 134.93 143.851 141.083C148.877 140.483 155.193 139.931 161.503 139.501C160.566 134.767 159.988 131.801 157.862 127.227C157.54 126.534 158.422 126.254 158.781 126.887C160.911 130.787 162.342 135.03 163.008 139.423C171.551 138.862 179.98 138.523 185.263 138.523C184.663 133.353 181.34 121.439 175.383 115.33C170.791 110.621 161.883 106.43 153.999 105.438C153.876 106.531 153.455 107.568 152.781 108.437C152.107 109.306 151.207 109.972 150.179 110.363C145.967 112.018 138.279 112.453 131.421 108.686C124.186 110.75 110.927 118.624 106.008 124.881Z" fill="black"/>
<path d="M194.207 161.679C151.064 162.49 108.116 162.33 64.9959 162.379C64.1239 162.379 63.9269 163.742 64.8289 163.758C107.852 164.553 151.388 163.617 194.404 163.09C195.323 163.082 195.121 161.662 194.207 161.679Z" fill="black"/>
<path d="M87.9799 76.4359C92.4089 76.5189 113.994 76.1169 116.289 76.0179C116.981 75.9879 116.963 74.7939 116.289 74.7939C113.208 74.7939 92.9379 75.1849 87.9799 75.4449C87.86 75.4611 87.75 75.5203 87.6704 75.6114C87.5908 75.7025 87.5469 75.8194 87.5469 75.9404C87.5469 76.0615 87.5908 76.1784 87.6704 76.2695C87.75 76.3606 87.86 76.4197 87.9799 76.4359Z" fill="black"/>
<path d="M70.2994 70.9071C69.9774 71.0751 64.4084 77.7691 66.9744 76.9731C67.3384 76.8601 70.9744 72.2531 71.1534 71.4271C71.1749 71.3201 71.1629 71.209 71.1191 71.109C71.0753 71.009 71.0017 70.9249 70.9085 70.8681C70.8152 70.8113 70.7067 70.7846 70.5978 70.7916C70.4888 70.7986 70.3847 70.8389 70.2994 70.9071Z" fill="black"/>
<path d="M58.1647 55.7C59.9557 55.784 96.4247 55.693 98.5987 55.479C98.9074 55.4381 99.19 55.284 99.3916 55.0466C99.5932 54.8093 99.6995 54.5055 99.6899 54.1942C99.6803 53.8829 99.5555 53.5863 99.3397 53.3618C99.1239 53.1373 98.8324 53.0009 98.5217 52.979C88.3727 53.105 67.2747 53.157 58.2217 53.355C56.8637 53.386 56.7497 55.636 58.1647 55.7Z" fill="black"/>
<path d="M109.214 94.1842C106.867 94.1842 89.0225 93.9842 87.7585 94.3452C87.3285 94.4692 87.1585 95.1652 87.6745 95.3122C89.0225 95.6992 106.774 95.5032 109.225 95.5032C111.676 95.5032 114.055 95.5912 116.455 95.5032C117.189 95.4762 117.135 94.2462 116.407 94.2142C114.019 94.1082 111.607 94.1842 109.214 94.1842Z" fill="black"/>
<path d="M87.4779 103.527C87.3264 103.572 87.1988 103.675 87.1228 103.813C87.0468 103.952 87.0285 104.115 87.0719 104.267C87.2779 104.967 86.3529 104.727 116.766 105.234C116.934 105.217 117.089 105.138 117.202 105.013C117.315 104.888 117.378 104.725 117.378 104.556C117.378 104.388 117.315 104.225 117.202 104.1C117.089 103.975 116.934 103.896 116.766 103.879C87.5899 103.408 89.4009 103.378 87.4779 103.527Z" fill="black"/>
<path d="M116.114 86.19C116.277 86.1791 116.43 86.108 116.543 85.9907C116.656 85.8733 116.722 85.718 116.727 85.5551C116.732 85.3921 116.677 85.233 116.571 85.1088C116.465 84.9846 116.317 84.9041 116.155 84.883C111.815 84.763 91.6194 84.595 87.9554 85.325C87.3554 85.444 87.4894 86.318 88.0624 86.369C91.1614 86.648 95.8994 85.607 116.114 86.19Z" fill="black"/>
<path d="M142.788 68.4241C142.842 59.8101 143.242 49.0641 142.519 40.7061C142.499 40.5806 142.434 40.4669 142.335 40.3869C142.236 40.307 142.111 40.2665 141.984 40.2732C141.858 40.2799 141.738 40.3334 141.648 40.4233C141.558 40.5132 141.505 40.6332 141.498 40.7601C141.263 44.7701 141.484 63.4021 141.498 68.5201C141.5 69.3611 142.783 69.2661 142.788 68.4241Z" fill="black"/>
<path d="M67.3228 108.332C68.562 109.69 69.8796 110.973 71.2688 112.177C71.8688 112.742 72.7928 111.841 72.1888 111.277C70.894 109.974 69.5328 108.739 68.1108 107.577C67.6778 107.3 66.9888 107.867 67.3228 108.332Z" fill="black"/>
<path d="M11.8999 40.706C11.8999 39.954 10.7159 39.817 10.7059 40.587C10.3119 72.443 10.8379 109.496 12.3599 141.187C12.4019 142.065 13.7599 141.85 13.7149 140.978C12.1069 107.455 11.8539 74.257 11.8999 40.706Z" fill="black"/>
<path d="M26.9434 111.789C26.6074 112.289 27.3864 112.925 27.7794 112.458C28.2864 111.858 31.2264 108.451 31.0794 107.718C30.6744 105.776 27.5174 110.94 26.9434 111.789Z" fill="black"/>
<path d="M48.9413 95.629C48.4283 95.534 45.1743 98.422 44.5173 99.049C38.3743 95.032 38.9853 96.021 39.0613 98.449C39.0844 100.11 39.1999 101.768 39.4073 103.416C39.4823 103.937 40.2743 103.846 40.3073 103.339C40.4323 101.482 40.1933 99.631 40.1633 97.775C45.5723 101.075 43.9003 100.975 48.9513 96.837C49.5513 97.5 52.4083 100.28 53.2733 100.175C53.9733 100.088 56.3303 96.921 56.8913 96.246C56.8913 97.679 56.9373 101.769 57.3623 102.927C57.5823 103.527 58.1623 103.315 58.1923 102.718C58.2663 101.446 58.1123 98.431 58.1153 96.963C58.1153 95.291 58.1103 94.863 57.4103 93.863C55.8903 91.691 52.0403 86.37 49.6913 83.482C47.6223 80.937 47.5313 80.882 46.0793 83.13C43.8423 86.599 40.0873 93.33 39.5133 94.61C39.2703 95.149 40.1013 95.403 40.3903 95.004C41.3523 93.675 43.5303 89.768 44.5333 88.049C46.7883 88.139 49.0466 88.101 51.2973 87.935C53.1543 90.135 54.9093 92.407 56.5973 94.735L53.1533 98.914C52.6843 98.542 49.4603 95.725 48.9413 95.629Z" fill="black"/>
<path d="M66.1705 140.4C60.7975 140.1 17.0445 140.335 15.3375 140.6C15.2113 140.641 15.1021 140.722 15.0271 140.832C14.9521 140.941 14.9154 141.072 14.9228 141.205C14.9302 141.337 14.9814 141.463 15.0682 141.564C15.155 141.664 15.2725 141.733 15.4025 141.759C31.9455 141.806 49.5025 141.675 66.0745 141.693C66.8805 141.693 67.0185 140.45 66.1705 140.4Z" fill="black"/>
<path d="M29.0502 78.4829C29.6422 79.1439 30.5502 78.3159 30.0582 77.7549C28.8642 76.3999 26.3062 73.3229 25.1272 72.2869C24.6602 71.8759 24.0272 72.5189 24.3572 73.0089C25.2052 74.2739 27.8812 77.1789 29.0502 78.4829Z" fill="black"/>
<path d="M48.2992 72.6C48.3742 70.0046 48.2206 67.4075 47.8402 64.839C47.7875 64.7466 47.7092 64.6715 47.6147 64.6228C47.5202 64.574 47.4135 64.5537 47.3077 64.5643C47.2019 64.5748 47.1014 64.6159 47.0184 64.6824C46.9355 64.7489 46.8736 64.8381 46.8402 64.939C46.7592 67.5316 46.885 70.1265 47.2162 72.699C47.2463 72.828 47.3221 72.9418 47.4296 73.0193C47.537 73.0969 47.6688 73.1329 47.8008 73.1209C47.9327 73.1088 48.0559 73.0494 48.1475 72.9537C48.2391 72.858 48.293 72.7324 48.2992 72.6Z" fill="black"/>
<path d="M49.1745 111.317C49.1745 112.147 48.9535 117.657 49.2515 118.38C49.3042 118.471 49.38 118.547 49.4711 118.599C49.5623 118.652 49.6658 118.68 49.771 118.68C49.8763 118.68 49.9798 118.652 50.0709 118.599C50.1621 118.547 50.2379 118.471 50.2905 118.38C50.6015 117.586 50.2485 112.41 50.2075 111.317C50.1535 110.732 49.1745 110.72 49.1745 111.317Z" fill="black"/>
<path d="M24.156 93.2409C36.301 70.3999 63.985 72.7999 74.166 91.3899C62.138 109.747 38.574 112.526 24.101 94.8759C23.649 94.3259 23.09 95.0289 23.501 95.6049C36.225 113.305 63.412 110.995 74.638 93.1049C75.0037 92.6502 75.2172 92.092 75.2482 91.5093C75.2793 90.9266 75.1263 90.3488 74.811 89.8579C62.466 68.7159 31.548 72.5189 23.32 92.6999C23.075 93.2999 23.863 93.7929 24.156 93.2409Z" fill="black"/>
<path fill-rule="evenodd" clip-rule="evenodd" d="M134.854 70.0421C131.726 70.6421 128.967 77.4751 132.418 80.6741C134.531 82.6331 144.262 82.7161 150.161 82.4651C150.203 83.187 150.358 83.8979 150.62 84.5721C150.855 85.1721 151.559 85.3621 151.384 84.2801C151.288 83.6638 151.244 83.0407 151.253 82.4171C152.447 82.3581 153.39 82.2861 153.999 82.2171C153.84 83.5496 153.611 84.8727 153.313 86.1811C153.148 86.8981 153.953 87.0321 154.226 86.3481C155.063 84.1847 155.402 81.8604 155.217 79.5481C154.861 74.4511 140.568 68.9441 134.854 70.0421ZM135.839 72.7341C134.4 73.0631 134.06 75.2491 133.929 76.4181C133.704 78.4181 132.429 77.0181 132.735 75.2591C132.969 73.9331 134.102 71.7731 135.755 71.9881C135.851 71.983 135.945 72.0146 136.018 72.0766C136.091 72.1386 136.138 72.2262 136.149 72.3215C136.159 72.4168 136.133 72.5126 136.076 72.5893C136.018 72.666 135.933 72.7178 135.839 72.7341Z" fill="black"/>
<path fill-rule="evenodd" clip-rule="evenodd" d="M146.55 90.6201C147.347 89.2701 147.895 87.7879 148.168 86.2441C149.511 86.4874 150.792 86.9975 151.935 87.7441C152.615 88.0371 152.873 87.1441 152.535 86.8671C151.307 85.8669 149.807 85.2595 148.23 85.1241C147.502 83.7451 141.968 83.4241 141.114 84.8791C140.905 84.7618 140.673 84.6901 140.434 84.6685C140.196 84.647 139.955 84.6761 139.729 84.7541C139.294 83.5601 134.386 83.2611 133.163 84.6401C131.754 84.4851 131.169 85.7861 133.031 85.7741C133.1 87.0665 133.339 88.3442 133.742 89.5741C134.224 90.5601 137.69 90.5451 138.38 90.0461C139.201 89.4531 139.574 86.8641 139.807 85.8671C140.145 85.7609 140.51 85.7823 140.834 85.9271C140.826 87.2637 140.978 88.5965 141.287 89.8971C141.817 90.9511 145.781 91.5281 146.55 90.6201ZM138.001 88.9001C137.838 89.2931 137.691 89.3871 136.377 89.3351C134.157 89.2481 134.622 89.7291 133.942 85.2581C135.505 84.7271 137.201 84.7271 138.765 85.2581C138.743 86.5096 138.484 87.7455 138.001 88.9001ZM142.18 89.3531C141.932 88.1239 141.843 86.8679 141.917 85.6161C143.631 85.0039 145.514 85.0614 147.189 85.7771C147.095 86.7605 146.843 87.7223 146.442 88.6251C145.874 89.8681 145.78 90.0311 143.989 89.8851C143.129 89.8151 142.301 89.6241 142.18 89.3541V89.3531Z" fill="black"/>
<path fill-rule="evenodd" clip-rule="evenodd" d="M143.026 88.5542C143.213 89.2282 144.526 89.3072 144.22 87.3602C144.045 86.2522 142.483 86.6002 143.026 88.5542Z" fill="black"/>
<path fill-rule="evenodd" clip-rule="evenodd" d="M154.369 87.748C150.943 88.035 149.252 94.311 147.432 94.912C146.16 95.333 143.307 93.503 140.424 93.306C137.541 93.109 135.899 94.327 135.361 94.07C134.823 93.813 135.194 91.563 135.194 91.038C135.194 90.513 134.908 90.226 134.4 91.384C133.892 92.542 128.938 103.658 131.093 106.649C134.173 110.923 146.742 111.828 150.644 108.888C155.536 105.202 151.373 93.364 152.578 90.28C152.805 89.8392 153.166 89.4821 153.609 89.2609C154.053 89.0397 154.556 88.9658 155.044 89.05C156.692 89.764 156.239 94.65 153.605 93.885C152.943 93.694 152.793 94.526 153.405 94.847C155.194 95.788 156.95 94.321 157.184 91.862C157.359 90 156.727 87.551 154.369 87.748ZM140.728 98.848C138.245 98.848 137.743 97.863 137.534 96.248C139.683 96.7099 141.91 96.6713 144.042 96.135C143.815 97.611 143.5 98.852 140.728 98.852V98.848Z" fill="black"/>
<path fill-rule="evenodd" clip-rule="evenodd" d="M139.54 88.3571C139.081 89.4171 138.736 90.5235 138.513 91.6571C138.266 93.0021 140.055 93.0061 141.063 92.8511C141.663 92.7591 141.773 92.0751 141.116 92.0271C140.633 91.9911 139.684 91.9671 139.594 91.8001C139.677 90.6844 139.892 89.5824 140.233 88.5171C140.372 88.0771 139.73 87.9051 139.54 88.3571Z" fill="black"/>
<path fill-rule="evenodd" clip-rule="evenodd" d="M136.7 88.6001C137.256 88.3881 137.3 86.8911 136.825 86.6121C135.626 85.9001 135.459 89.0681 136.7 88.6001Z" fill="black"/>
<path fill-rule="evenodd" clip-rule="evenodd" d="M146.483 35.9302C100.235 35.9662 51.139 35.8592 5.59502 36.2472C4.81902 36.2532 4.80102 38.2472 5.54702 38.2522C51.652 38.5412 100.211 38.1812 146.435 38.1452C147.265 38.1442 147.283 35.9302 146.483 35.9302Z" fill="black"/>
<path fill-rule="evenodd" clip-rule="evenodd" d="M93.7935 142.384C85.8935 141.914 73.6565 140.368 66.2845 137.203C65.3365 136.795 60.6535 137.56 55.3365 135.103C54.7805 134.847 54.5595 135.63 55.0795 135.951C57.7965 137.625 61.2285 138.071 64.3625 138.172C65.2049 138.15 66.0396 138.337 66.7925 138.715C75.4786 141.83 84.6261 143.464 93.8535 143.55C94.6115 143.561 94.5875 142.432 93.7935 142.384Z" fill="black"/>
<path fill-rule="evenodd" clip-rule="evenodd" d="M183.61 140.116C183.456 139.274 182.321 139.571 182.463 140.408C182.951 143.412 182.757 146.488 181.896 149.408C179.855 156.521 173.849 155.38 167.837 155.103C161.527 154.813 152.837 154.208 147.385 153.957C147.264 153.941 147.142 153.973 147.045 154.045C146.948 154.118 146.882 154.225 146.863 154.345C146.844 154.465 146.873 154.588 146.942 154.687C147.012 154.786 147.118 154.855 147.238 154.877C152.483 155.71 163.687 156.203 168.052 156.41C174.022 156.694 180.682 157.49 182.905 150.578C183.998 147.202 184.241 143.608 183.61 140.116Z" fill="black"/>
<path fill-rule="evenodd" clip-rule="evenodd" d="M144.477 143.68C152.203 142.451 159.986 141.613 167.796 141.167C167.922 141.156 168.039 141.096 168.122 141C168.205 140.905 168.248 140.781 168.242 140.654C168.236 140.527 168.181 140.408 168.089 140.321C167.997 140.234 167.875 140.186 167.748 140.187C159.884 140.51 152.047 141.307 144.28 142.575C144.133 142.602 144.003 142.685 143.918 142.808C143.834 142.93 143.801 143.081 143.827 143.228C143.854 143.374 143.938 143.504 144.06 143.589C144.182 143.674 144.333 143.707 144.48 143.68H144.477Z" fill="black"/>
<path fill-rule="evenodd" clip-rule="evenodd" d="M62.2253 135.03C62.3085 135.029 62.3907 135.012 62.4671 134.979C62.5434 134.946 62.6123 134.897 62.6696 134.837C62.7269 134.777 62.7714 134.706 62.8006 134.628C62.8297 134.55 62.8429 134.467 62.8393 134.384C62.8356 134.301 62.8153 134.219 62.7795 134.144C62.7436 134.069 62.693 134.002 62.6307 133.947C62.5683 133.892 62.4955 133.85 62.4166 133.824C62.3377 133.797 62.2543 133.787 62.1713 133.794C58.4593 133.913 56.5863 132.859 54.1363 131.119C53.7483 130.844 53.3363 131.329 53.6363 131.719C55.3803 134.024 59.4493 135.138 62.2253 135.03Z" fill="black"/>
<path fill-rule="evenodd" clip-rule="evenodd" d="M68.4001 128.7C68.8521 129.484 69.8001 129.59 70.6441 129.781C75.6291 130.914 87.0361 130.536 92.3271 130.474C93.0791 130.465 92.9271 129.493 92.1541 129.5C88.2911 129.539 76.6321 129.649 70.8471 128.581C69.7791 128.381 69.8341 128.539 69.2891 127.681C68.2591 126.055 66.7231 124.066 64.8601 124.033C64.3041 124.023 64.2601 124.559 64.7341 124.797C66.3799 125.622 67.6791 127.006 68.4001 128.7Z" fill="black"/>
<path fill-rule="evenodd" clip-rule="evenodd" d="M65.1005 128.922C62.5185 128.164 58.8695 126.948 56.8625 124.355C56.2625 123.577 55.7525 124.182 56.0505 124.809C57.3005 127.441 61.8765 129.809 64.5035 129.909C65.9565 129.97 65.5525 129.054 65.1005 128.922Z" fill="black"/>
<path fill-rule="evenodd" clip-rule="evenodd" d="M54.6426 126.881C54.5602 126.78 54.4424 126.715 54.3135 126.699C54.1846 126.683 54.0545 126.717 53.9497 126.794C53.845 126.871 53.7737 126.985 53.7504 127.112C53.7271 127.24 53.7537 127.372 53.8246 127.481C54.7778 128.848 56.0157 129.993 57.4533 130.837C58.8908 131.681 60.494 132.204 62.1526 132.37C62.2833 132.374 62.4119 132.336 62.5188 132.261C62.6257 132.186 62.7051 132.078 62.745 131.953C62.7848 131.828 62.7829 131.694 62.7395 131.571C62.6961 131.448 62.6137 131.342 62.5046 131.27C61.6276 130.892 57.8996 130.649 54.6426 126.881Z" fill="black"/>
<path fill-rule="evenodd" clip-rule="evenodd" d="M169.766 157.476C167.975 157.243 147.2 157.703 146.238 157.309C145.276 156.915 140.3 128.576 139 126.714C137.7 124.852 96.7507 126.033 94.8887 127.108C93.0267 128.183 99.1757 160.553 100.769 161.208C102.19 161.791 167.631 160.981 169.769 160.868C171.907 160.755 171.557 157.709 169.766 157.476ZM118.174 148.163C112.587 148.628 110.836 139.463 116.419 138.552C119.069 138.119 121.404 140.469 121.899 143.363C122.002 143.927 121.984 144.506 121.848 145.063C121.712 145.62 121.46 146.142 121.109 146.595C120.757 147.048 120.314 147.422 119.808 147.692C119.303 147.962 118.746 148.123 118.174 148.163Z" fill="black"/>
</svg>
