<?xml version="1.0" encoding="UTF-8" standalone="no"?><svg width="130" height="50" viewBox="0 0 130 50" fill="none" xmlns="http://www.w3.org/2000/svg">
<path d="M59.5977 43.6447H62.9831V30.8697H59.5977V43.6447ZM59.5977 28.8775H62.9831V25.8394H59.5977V28.8775Z" fill="black"/>
<path d="M65.1641 47.8283H68.5495V42.2004H68.5994C69.3212 43.296 70.4912 44.0182 72.2834 44.0182C75.5693 44.0182 77.8096 41.4035 77.8096 37.2696C77.8096 33.2851 75.644 30.521 72.2585 30.521C70.5161 30.521 69.3212 31.3428 68.4997 32.4633H68.4251V30.8697H65.1641V47.8283ZM71.5616 41.2042C69.5453 41.2042 68.4748 39.6852 68.4748 37.3692C68.4748 35.0782 69.3212 33.2602 71.4371 33.2602C73.5281 33.2602 74.3744 34.9536 74.3744 37.3692C74.3744 39.7848 73.2792 41.2042 71.5616 41.2042Z" fill="black"/>
<path d="M84.5642 44.0182C87.7504 44.0182 89.941 42.4742 89.941 39.9093C89.941 36.921 87.5762 36.3233 85.4355 35.8751C83.6182 35.5016 81.9255 35.4019 81.9255 34.3062C81.9255 33.3848 82.7967 32.8867 84.1162 32.8867C85.5599 32.8867 86.4311 33.3848 86.5804 34.7544H89.6424C89.3934 32.1895 87.5265 30.521 84.1659 30.521C81.2535 30.521 78.9632 31.8408 78.9632 34.605C78.9632 37.3941 81.2037 38.0167 83.4938 38.465C85.2363 38.8135 86.8543 38.9381 86.8543 40.1584C86.8543 41.0548 86.008 41.6276 84.5143 41.6276C82.9959 41.6276 81.9504 40.9801 81.7264 39.5108H78.5898C78.7891 42.2253 80.8552 44.0182 84.5642 44.0182Z" fill="black"/>
<path d="M102.793 43.6452V30.8701H99.4076V38.2412C99.4076 39.9346 98.4368 41.13 96.8436 41.13C95.3999 41.13 94.7277 40.3082 94.7277 38.814V30.8701H91.3672V39.3868C91.3672 42.1758 92.9604 43.9938 95.7982 43.9938C97.5904 43.9938 98.5861 43.3214 99.4575 42.1509H99.5321V43.6452H102.793Z" fill="black"/>
<path d="M104.982 43.6447H108.368V36.2236C108.368 34.5303 109.289 33.4346 110.658 33.4346C111.903 33.4346 112.625 34.1816 112.625 35.626V43.6447H116.01V36.2236C116.01 34.5303 116.881 33.4346 118.3 33.4346C119.545 33.4346 120.267 34.1816 120.267 35.626V43.6447H123.652V35.0533C123.652 32.2642 122.134 30.521 119.445 30.521C117.827 30.521 116.483 31.3677 115.612 32.7622H115.562C114.94 31.4175 113.645 30.521 112.027 30.521C110.26 30.521 109.015 31.4175 108.318 32.5879H108.243V30.8697H104.982V43.6447Z" fill="black"/>
<path d="M59.6465 21.7644H63.0319V3.95898H59.6465V21.7644Z" fill="black"/>
<path d="M71.31 22.1379C75.268 22.1379 77.9813 19.1993 77.9813 15.3892C77.9813 11.5791 75.268 8.64062 71.31 8.64062C67.3521 8.64062 64.6387 11.5791 64.6387 15.3892C64.6387 19.1993 67.3521 22.1379 71.31 22.1379ZM71.31 19.548C69.219 19.548 68.074 17.8795 68.074 15.3892C68.074 12.899 69.219 11.2056 71.31 11.2056C73.3761 11.2056 74.5461 12.899 74.5461 15.3892C74.5461 17.8795 73.3761 19.548 71.31 19.548Z" fill="black"/>
<path d="M85.1798 26.1224C87.0717 26.1224 88.7146 25.6741 89.7849 24.6779C90.7308 23.8063 91.3035 22.5861 91.3035 20.7931V8.98926H88.0425V10.334H87.9927C87.221 9.26318 86.051 8.64062 84.4578 8.64062C81.2219 8.64062 78.9316 11.0811 78.9316 14.8912C78.9316 18.7511 81.7197 20.9923 84.5575 20.9923C86.1756 20.9923 87.1463 20.3449 87.8931 19.4982H87.9678V20.8927C87.9678 22.6359 87.0468 23.5573 85.13 23.5573C83.5617 23.5573 82.8399 22.9348 82.566 22.1379H79.2055C79.554 24.6281 81.6948 26.1224 85.1798 26.1224ZM85.13 18.278C83.3875 18.278 82.2424 17.0079 82.2424 14.8414C82.2424 12.6998 83.3875 11.355 85.1051 11.355C87.1463 11.355 88.142 12.9487 88.142 14.8165C88.142 16.7091 87.2708 18.278 85.13 18.278Z" fill="black"/>
<path d="M99.5326 22.1379C103.491 22.1379 106.204 19.1993 106.204 15.3892C106.204 11.5791 103.491 8.64062 99.5326 8.64062C95.5747 8.64062 92.8613 11.5791 92.8613 15.3892C92.8613 19.1993 95.5747 22.1379 99.5326 22.1379ZM99.5326 19.548C97.4416 19.548 96.2965 17.8795 96.2965 15.3892C96.2965 12.899 97.4416 11.2056 99.5326 11.2056C101.599 11.2056 102.769 12.899 102.769 15.3892C102.769 17.8795 101.599 19.548 99.5326 19.548Z" fill="black"/>
<path d="M109.172 16.8822H123.809V13.9697H109.172V16.8822Z" fill="black"/>
<path d="M124.883 28.6994C124.883 28.1265 125.347 27.6621 125.92 27.6621H127.994C128.567 27.6621 129.032 28.1265 129.032 28.6994C129.032 29.2721 128.567 29.7365 127.994 29.7365H125.92C125.347 29.7365 124.883 29.2721 124.883 28.6994Z" fill="black"/>
<path fill-rule="evenodd" clip-rule="evenodd" d="M25.4082 0C39.0837 0 50.1699 11.0906 50.1699 24.7715C50.1699 38.4524 39.0837 49.543 25.4082 49.543C11.7327 49.543 0.646484 38.4524 0.646484 24.7715C0.646484 11.0906 11.7327 0 25.4082 0ZM24.5132 1.85364C21.6883 2.25135 18.9985 4.52214 16.9105 8.32001C16.3048 9.42163 15.7583 10.6387 15.282 11.9528C18.1212 11.239 21.24 10.8182 24.5132 10.7531V1.85364ZM13.1893 12.5478C13.7814 10.6884 14.506 8.97769 15.342 7.45703C16.3771 5.57432 17.6055 3.94852 18.9896 2.69981C11.4634 4.88646 5.53101 10.8212 3.34523 18.3504C4.59343 16.9658 6.2186 15.7368 8.10057 14.7014C9.62062 13.865 11.3306 13.1402 13.1893 12.5478ZM12.5945 14.6413C11.8811 17.4816 11.4604 20.6017 11.3954 23.8761H2.49938C2.89694 21.0501 5.16684 18.3592 8.9632 16.2704C10.0644 15.6645 11.281 15.1178 12.5945 14.6413ZM13.1858 23.8761C13.2597 20.3027 13.7739 16.9479 14.6247 13.9838C17.5877 13.1326 20.9413 12.6181 24.5132 12.5442V16.4121C23.1806 19.8249 20.4628 22.5436 17.0512 23.8761H13.1858ZM11.3954 25.6669H2.49938C2.89694 28.4929 5.16684 31.1837 8.9632 33.2726C10.0644 33.8785 11.281 34.4252 12.5945 34.9017C11.8811 32.0614 11.4604 28.9413 11.3954 25.6669ZM14.6247 35.5592C13.7739 32.5951 13.2597 29.2403 13.1858 25.6669H17.0512C20.4628 26.9995 23.1807 29.7181 24.5132 33.1309V36.9988C20.9413 36.9249 17.5877 36.4104 14.6247 35.5592ZM13.1893 36.9953C11.3306 36.4028 9.62062 35.678 8.10057 34.8416C6.2186 33.8062 4.59343 32.5773 3.34523 31.1926C5.53101 38.7218 11.4634 44.6566 18.9896 46.8432C17.6055 45.5944 16.3771 43.9687 15.342 42.0859C14.506 40.5653 13.7814 38.8546 13.1893 36.9953ZM24.5132 47.6894C21.6883 47.2916 18.9985 45.0208 16.9105 41.223C16.3048 40.1214 15.7583 38.9043 15.282 37.5903C18.1212 38.3039 21.24 38.7248 24.5132 38.7898V47.6894ZM31.8268 46.8432C33.2108 45.5944 34.4393 43.9687 35.4744 42.0859C36.3104 40.5653 37.0349 38.8546 37.6271 36.9953C39.4857 36.4028 41.1957 35.678 42.7159 34.8416C44.5977 33.8062 46.223 32.5773 47.4711 31.1926C45.2854 38.7218 39.353 44.6566 31.8268 46.8432ZM35.5343 37.5903C35.0581 38.9043 34.5116 40.1214 33.9059 41.223C31.818 45.0208 29.1281 47.2916 26.3032 47.6894V38.7898C29.5763 38.7248 32.6952 38.3039 35.5343 37.5903ZM38.2219 34.9017C39.5353 34.4252 40.752 33.8785 41.8532 33.2726C45.6495 31.1837 47.9194 28.4929 48.317 25.6669H39.4209C39.3559 28.9413 38.9352 32.0614 38.2219 34.9017ZM37.6307 25.6669C37.5568 29.2403 37.0425 32.5951 36.1916 35.5592C33.2287 36.4104 29.8752 36.9249 26.3032 36.9988V33.1337C27.6352 29.7197 30.3537 26.9998 33.7662 25.6669H37.6307ZM39.4209 23.8761H48.317C47.9194 21.0501 45.6495 18.3592 41.8532 16.2704C40.752 15.6645 39.5353 15.1178 38.2219 14.6413C38.9352 17.4816 39.3559 20.6017 39.4209 23.8761ZM36.1916 13.9838C37.0425 16.9479 37.5568 20.3027 37.6307 23.8761H33.7662C30.3537 22.5432 27.6352 19.8233 26.3032 16.4093V12.5442C29.8752 12.6181 33.2287 13.1326 36.1916 13.9838ZM37.6271 12.5478C39.4857 13.1402 41.1957 13.865 42.7159 14.7014C44.5977 15.7368 46.223 16.9658 47.4711 18.3504C45.2854 10.8212 39.353 4.88646 31.8268 2.69981C33.2108 3.94852 34.4393 5.57432 35.4744 7.45703C36.3104 8.97769 37.0349 10.6884 37.6271 12.5478ZM26.3032 1.85364C29.1281 2.25135 31.818 4.52214 33.9059 8.32001C34.5116 9.42164 35.0581 10.6387 35.5343 11.9528C32.6952 11.239 29.5763 10.8182 26.3032 10.7531V1.85364Z" fill="black"/>
</svg>
