<?xml version="1.0" encoding="UTF-8" standalone="no"?><svg width="200" height="200" viewBox="0 0 200 200" fill="none" xmlns="http://www.w3.org/2000/svg">
<path d="M51.8521 83.6579C46.7081 87.7009 46.8711 77.8339 49.2801 78.6979C49.8271 78.8979 51.8251 80.8979 52.2201 79.6159C52.3921 79.0609 50.9341 72.8159 50.3831 71.5319C54.337 68.4913 57.2822 64.3292 58.8341 59.5889C58.8341 59.0379 57.3651 59.7729 57.3651 59.7729C57.6652 59.0142 57.7907 58.1977 57.7321 57.3839C57.7 57.3413 57.6584 57.3066 57.6106 57.2828C57.5627 57.259 57.5101 57.2466 57.4566 57.2466C57.4032 57.2466 57.3505 57.259 57.3027 57.2828C57.2549 57.3066 57.2133 57.3413 57.1811 57.3839C56.2621 59.2219 54.0581 59.5839 52.2201 59.7729C50.0201 59.7729 42.2981 58.6729 39.5421 59.9569C38.2561 60.5079 36.7861 62.3449 37.3421 65.6569C37.3421 66.0249 37.8931 68.2299 38.2601 68.4129C39.6821 68.4075 41.079 68.7877 42.3021 69.5129C42.4861 69.6959 42.3021 69.8799 42.1191 69.8799C41.3841 69.8799 40.8321 69.6959 40.2811 69.6959C37.7091 69.5129 34.0341 69.5129 33.6671 72.8199C33.2991 75.3919 34.2181 77.9649 35.1371 80.1699C36.2371 82.9249 42.3021 91.9289 43.0371 92.2959C43.2945 92.3011 43.551 92.2653 43.7971 92.1899C43.9881 94.1239 44.3391 96.0499 44.6911 97.8079C44.8741 98.9079 45.9771 99.0939 45.7911 97.8079C45.2681 95.8899 44.9101 93.9719 44.4041 92.0539C47.0211 91.4419 52.5661 89.8759 53.6921 89.1729C54.0581 88.9869 52.4001 83.1069 51.8521 83.6579ZM53.8741 62.5289C53.969 62.5365 54.058 62.5776 54.1252 62.6448C54.1925 62.7121 54.2336 62.8011 54.2411 62.8959C54.2411 64.0289 50.7071 64.6959 50.5661 64.7339C50.3831 64.7339 50.1991 64.3659 50.3831 64.3659C50.5871 64.1609 53.3701 62.3609 53.8741 62.5289ZM44.5001 85.3119C44.5007 85.3362 44.4963 85.3604 44.4872 85.383C44.4782 85.4055 44.4647 85.426 44.4475 85.4432C44.4303 85.4604 44.4098 85.474 44.3872 85.483C44.3646 85.4921 44.3405 85.4965 44.3161 85.4959C43.7651 85.6799 43.2161 85.1279 43.0301 84.7609C42.6366 84.2916 42.2693 83.8009 41.9301 83.2909C42.0128 84.7586 42.3867 86.1952 43.0301 87.5169C43.0811 87.6395 43.0908 87.7752 43.0579 87.9038C43.025 88.0324 42.9512 88.1467 42.8476 88.2297C42.744 88.3126 42.6162 88.3596 42.4836 88.3636C42.3509 88.3677 42.2206 88.3284 42.1121 88.2519C40.8634 86.9404 39.8112 85.455 38.9881 83.8419C38.1061 82.1689 37.1511 80.5349 37.3351 78.5139C37.3351 78.3299 37.7021 78.1459 37.7021 78.5139C38.1318 80.2293 38.8779 81.8494 39.9021 83.2909C40.268 84.0052 40.7028 84.6821 41.2001 85.3119C40.8594 84.117 40.7965 82.8599 41.0161 81.6369C41.0205 81.5289 41.0611 81.4254 41.1314 81.3432C41.2017 81.261 41.2975 81.2048 41.4036 81.1837C41.5097 81.1626 41.6198 81.1778 41.7162 81.2268C41.8126 81.2758 41.8897 81.3558 41.9351 81.4539C42.7671 83.1269 44.7431 84.3519 44.5001 85.3119ZM40.6451 62.1609C40.4551 62.2509 40.2971 62.1339 40.4611 61.9779C41.143 61.4126 41.9409 61.0043 42.7983 60.782C43.6557 60.5598 44.5515 60.529 45.4221 60.6919C46.8812 60.9187 48.3546 61.0413 49.8311 61.0589C49.9311 61.0589 52.5471 60.7319 51.4851 61.7939C50.2391 62.7279 47.4481 62.2729 45.9731 61.9779C44.2233 61.4677 42.3559 61.5318 40.6451 62.1609Z" fill="black"/>
<path d="M61.5919 79.6161C62.0586 79.2419 62.4335 78.766 62.6881 78.2247C62.9427 77.6835 63.0702 77.0912 63.0609 76.4931C63.0609 74.0231 61.0609 72.4801 59.3869 70.4291C58.4789 69.3181 57.3659 68.4081 56.2629 67.3061C56.0789 67.1221 55.7119 67.3061 55.8959 67.6731C56.6309 68.5921 57.3659 69.6951 58.0959 70.6131C60.2579 73.3131 61.4959 74.6131 61.7699 76.1251C61.781 77.0936 61.5269 78.0467 61.0349 78.8811C60.9892 78.6048 60.8613 78.3487 60.6679 78.1461C60.4839 77.9631 60.2389 77.9761 60.2999 78.3301C60.7809 81.0991 61.3999 84.2101 60.4839 87.1491C60.2162 88.1701 59.7127 89.114 59.0139 89.9051C58.2789 90.8241 57.1769 91.1921 56.2579 91.9271C56.0739 92.1101 56.0739 92.4781 56.4419 92.4781C57.7279 92.6611 58.8299 91.7431 59.7489 91.0081C60.6583 90.067 61.3499 88.9377 61.7749 87.7001C62.5435 85.0503 62.4796 82.2284 61.5919 79.6161Z" fill="black"/>
<path d="M92.0906 98.725C95.1676 97.845 97.0646 96.605 103.115 93.58C105.425 92.81 106.524 92.353 107.524 90.273C116 72.634 117.068 61.091 118 58.3C118.212 57.2119 118.334 56.1082 118.365 55C118.365 54.448 117.63 54.448 117.446 54.816C116.974 56.7549 116.606 58.7177 116.346 60.696C114.611 69.2613 112.026 77.6321 108.629 85.684C107.729 87.714 107.159 90.644 105.138 91.747C103.119 92.8579 101.033 93.8399 98.8906 94.687C96.6656 95.748 94.4806 97.075 92.0906 98.178C91.5386 98.357 91.7226 98.725 92.0906 98.725Z" fill="black"/>
<path d="M117.079 52.0559C115.979 51.1369 114.863 50.4169 113.588 49.4839C112.852 49.0867 112.222 48.5197 111.75 47.8299C111.524 47.4059 111.405 46.9326 111.405 46.4519C111.405 45.9711 111.524 45.4978 111.75 45.0739C112.101 44.0618 112.531 43.0787 113.036 42.1339C113.404 41.2159 113.955 40.2969 114.323 39.3779C114.506 39.0109 113.955 38.6429 113.588 39.0109C112.93 39.8614 112.375 40.7864 111.934 41.7669C111.199 43.4199 110.058 45.4459 110.28 47.2789C110.414 47.8982 110.68 48.4813 111.06 48.9887C111.439 49.496 111.924 49.9156 112.48 50.2189C113.78 51.1189 115.236 52.0559 116.522 52.7909C117.079 52.7909 117.446 52.4229 117.079 52.0559Z" fill="black"/>
<path d="M115.424 42.8691C116.029 39.5421 116.178 35.7751 116.524 33.6821C116.708 32.5821 116.708 31.4821 116.892 30.3751C117.076 29.6401 117.259 30.5591 117.443 30.7431C117.627 31.4781 117.988 32.2141 118.178 33.1311C118.712 35.7071 118.913 38.4601 119.278 41.0311C119.29 41.1447 119.344 41.2499 119.429 41.3264C119.513 41.4028 119.624 41.4451 119.738 41.4451C119.852 41.4451 119.962 41.4028 120.047 41.3264C120.132 41.2499 120.185 41.1447 120.197 41.0311C120.327 37.2108 119.702 33.4023 118.36 29.8231C118.299 29.5227 118.139 29.2514 117.906 29.0521C117.673 28.8528 117.381 28.737 117.074 28.7231C115.788 28.7231 115.974 30.9231 115.788 31.6621C115.416 35.2638 115.232 38.8823 115.236 42.5031C114.873 43.0531 115.24 43.0531 115.424 42.8691Z" fill="black"/>
<path d="M125.163 37.1731C125.883 37.8028 126.395 38.6356 126.633 39.5621C126.817 40.4716 126.817 41.4087 126.633 42.3181C126.541 42.4538 126.492 42.6138 126.492 42.7776C126.492 42.9414 126.541 43.1015 126.633 43.2371C126.817 43.4201 127 43.2371 127.184 43.0531C127.904 42.3331 127.804 40.3901 127.552 39.3781C127.401 38.7885 127.126 38.2379 126.746 37.7627C126.366 37.2875 125.889 36.8987 125.347 36.6221C125.085 36.5291 124.979 36.9901 125.163 37.1731Z" fill="black"/>
<path d="M129.388 51.1371C129.999 49.8545 130.431 48.4946 130.674 47.0951C131.008 44.7021 131.042 41.5831 129.388 39.5621C129.204 39.1941 128.653 39.5621 128.837 39.9291C129.753 42.1399 129.946 44.584 129.388 46.9111C129.02 49.1111 127.688 50.9331 126.816 52.9751C126.427 53.8851 127.741 63.9981 128.102 69.1431C128.476 74.4711 128.469 79.8001 128.469 85.1281C128.469 90.2731 128.108 95.4181 127.734 100.746C127.588 103.297 127.156 105.824 126.448 108.279C125.827 110.11 124.753 111.753 123.325 113.056C121.52 114.905 119.482 116.511 117.261 117.833C115.979 118.574 114.873 119.303 113.587 120.033C112.295 120.721 111.066 121.521 109.912 122.422C109.544 122.605 109.912 123.157 110.279 122.973C112.754 122.131 115.103 120.956 117.261 119.482C119.278 118.239 121.185 116.825 122.961 115.256C124.48 113.937 125.782 112.387 126.82 110.663C127.879 108.477 128.502 106.105 128.657 103.681C130.666 89.1131 129.824 68.4151 127.557 53.8881C128.469 53.5261 129.204 51.6881 129.388 51.1371Z" fill="black"/>
<path d="M9.226 151.641C8.966 155.541 6.844 165.282 5.919 169.095C5.093 172.5 5 172.3 5 173.138C5 173.505 5.367 173.689 5.735 173.321C6.40599 172.329 6.84548 171.199 7.021 170.014C7.556 167.578 9.961 155.482 9.961 151.641C9.777 151.089 9.226 151.089 9.226 151.641Z" fill="black"/>
<path d="M120.57 35.8872C120.937 36.4382 121.488 36.8062 121.67 37.3572C122.195 38.5093 122.446 39.7669 122.405 41.0322C122.405 42.3092 123.842 41.1322 123.324 38.8322C123.14 37.9079 122.765 37.0321 122.224 36.2602C121.817 35.7944 121.316 35.4196 120.754 35.1602C120.57 35.3362 120.386 35.7002 120.57 35.8872Z" fill="black"/>
<path d="M72.4305 140.249C72.0625 140.433 71.8765 139.877 72.2465 139.698C74.9855 138.374 109.177 125.918 109.546 125.734C108.077 121.875 97.0525 93.2131 96.6855 91.7431C96.6525 91.6561 96.6018 91.5769 96.5367 91.5104C96.4715 91.444 96.3932 91.3918 96.3068 91.3572C96.2204 91.3226 96.1278 91.3064 96.0348 91.3095C95.9417 91.3125 95.8504 91.3349 95.7665 91.3751C91.7245 94.1311 67.2875 102.767 66.7365 102.951C60.6715 96.5201 42.2995 95.6001 34.5805 99.0921C34.4621 99.1275 34.3582 99.2001 34.2844 99.2992C34.2106 99.3983 34.1707 99.5186 34.1707 99.6421C34.1707 99.7657 34.2106 99.886 34.2844 99.9851C34.3582 100.084 34.4621 100.157 34.5805 100.192C36.4045 100.756 37.6405 103.251 37.8885 103.499C31.2735 105.699 25.1515 109.334 20.9885 114.89C15.6265 122.042 15.0885 126.664 6.65748 153.842C6.64512 153.942 6.65514 154.043 6.68679 154.139C6.71844 154.234 6.77094 154.321 6.84048 154.394C10.8835 155.129 15.1085 155.312 19.1515 156.047C18.8315 147.102 18.9915 136.974 21.3515 128.303C22.3064 124.326 23.7895 120.495 25.7615 116.912C25.9455 116.728 26.3125 116.912 26.1295 117.095C25.0615 119.257 24.2594 121.54 23.7405 123.895C19.3355 137.109 20.8775 155.889 21.1685 169.828C21.2105 171.849 21.3515 173.871 21.5355 175.892C23.5571 176.522 25.665 176.832 27.7825 176.81C29.6205 176.81 41.5585 176.024 45.7885 175.71C54.6005 175.052 80.6985 173.873 85.1085 174.24C85.2516 174.231 85.3865 174.17 85.4879 174.069C85.5893 173.967 85.6503 173.832 85.6595 173.689C85.7515 168.909 87.6805 138.412 87.6805 136.389C82.5204 137.351 77.4268 138.64 72.4305 140.249ZM59.1995 122.059C59.8883 125.886 61.258 129.557 63.2435 132.9C63.3155 132.962 63.3697 133.043 63.4005 133.133C63.4313 133.223 63.4377 133.319 63.419 133.413C63.4003 133.506 63.3572 133.593 63.294 133.664C63.2308 133.735 63.1499 133.788 63.0595 133.818C62.6925 133.818 62.3245 133.083 62.1415 132.9C61.4065 131.8 60.6715 130.511 59.9365 129.225C58.8304 126.582 58.0903 123.8 57.7365 120.957C57.0605 115.566 58.9365 110.209 61.0435 107.728C61.2115 107.528 63.6165 105.339 63.4325 106.074C63.2485 106.625 62.4965 107.16 62.1465 107.544C61.2598 108.639 60.5754 109.884 60.1255 111.219C58.8716 114.689 58.5523 118.427 59.1995 122.059ZM53.4995 102.767C54.6826 102.87 55.7903 103.391 56.6235 104.237C56.658 104.283 56.6809 104.336 56.6902 104.393C56.6995 104.449 56.6949 104.507 56.6767 104.561C56.6586 104.615 56.6275 104.664 56.5862 104.704C56.5449 104.744 56.4945 104.772 56.4395 104.788C53.6485 104.788 53.9545 103.318 42.2915 103.318C41.9245 103.318 42.1085 102.951 42.2915 102.951C44.8535 102.754 50.8715 102.328 53.5055 102.767H53.4995Z" fill="black"/>
<path d="M133.247 23.3932C129.156 23.3932 106.694 23.0072 103.115 23.3932C101.097 23.6112 98.8888 23.9442 97.4148 25.5932C96.6009 26.4489 96.0853 27.5447 95.9448 28.7172C95.7528 31.1017 95.7528 33.4978 95.9448 35.8822C96.1148 37.9052 96.1048 39.9482 97.7818 41.5822C101.045 44.7522 106.599 43.1442 110.644 43.2362C110.717 43.2362 110.787 43.2072 110.839 43.1554C110.891 43.1036 110.92 43.0334 110.92 42.9602C110.92 42.887 110.891 42.8168 110.839 42.7651C110.787 42.7133 110.717 42.6842 110.644 42.6842C108.99 42.6842 107.153 42.5012 105.499 42.5012C102.257 42.5012 99.2108 42.4182 97.7818 39.5612C96.8638 37.7242 97.0468 35.3352 97.0468 33.3142C97.0468 31.4772 96.8638 28.9042 97.7818 27.2512C98.6998 25.5982 100.726 24.9012 102.56 24.6782C105.061 24.4044 107.577 24.2819 110.093 24.3112C137.95 24.3112 139.685 24.2302 140.409 24.3112C141.331 24.4726 142.212 24.8157 143 25.3204C143.789 25.8251 144.469 26.4814 145.002 27.2512C146.074 29.0786 146.463 31.2267 146.102 33.3142C146.057 33.5862 145.848 37.8282 144.816 39.5612C143.221 42.2382 137.232 42.3232 135.816 42.5012H132.508C132.325 42.5012 131.59 42.5012 131.773 42.8682H131.957C134.707 43.1207 137.475 43.1207 140.225 42.8682C142.063 42.6842 143.9 42.3172 145.002 40.8472C146.102 39.5612 146.263 37.9042 146.472 36.2542C146.675 34.9769 146.798 33.688 146.84 32.3952C146.932 31.2334 146.932 30.0661 146.84 28.9042C146.601 27.8929 146.15 26.9439 145.516 26.1203C144.883 25.2967 144.081 24.6173 143.165 24.1272C142.287 23.6872 139.38 23.3932 133.247 23.3932Z" fill="black"/>
<path d="M164.483 81.454C168.514 81.8363 172.569 81.8975 176.61 81.637C178.111 81.6455 179.602 81.3969 181.02 80.902C181.762 80.597 182.437 80.1477 183.005 79.58C183.572 79.0123 184.022 78.3376 184.327 77.595C184.624 76.6447 184.748 75.649 184.694 74.655C184.694 72.444 184.746 72.055 184.511 71.348C184.511 71.164 184.143 71.164 184.143 71.348C183.893 72.1813 183.83 73.0595 183.959 73.92C183.938 74.8493 183.815 75.7735 183.592 76.676C183.415 77.4008 183.074 78.0756 182.597 78.6489C182.119 79.2222 181.517 79.6788 180.836 79.984C179.464 80.4061 178.044 80.6531 176.61 80.719C175.14 80.719 173.486 80.902 172.017 80.902C169.628 80.902 167.056 80.902 164.667 81.086C164.301 81.27 164.301 81.454 164.483 81.454Z" fill="black"/>
<path d="M121.673 120.038C128.509 120.187 147.73 120.652 151.989 120.222C154.009 120.022 156.054 119.888 157.689 118.752C159.74 117.324 160.078 115.077 160.078 112.872C160.523 105.745 160.611 100.698 153.463 100.195C149.793 99.9362 146.114 100.195 142.255 100.195C132.529 100.195 133.155 100.378 131.415 100.378C131.342 100.378 131.271 100.407 131.22 100.459C131.168 100.511 131.139 100.581 131.139 100.654C131.139 100.727 131.168 100.798 131.22 100.849C131.271 100.901 131.342 100.93 131.415 100.93C132.15 100.93 133.436 101.098 134.355 101.113C139.869 101.205 145.378 100.757 150.891 101.113C153.83 101.303 157.724 101.286 158.791 104.788C159.74 107.902 159.522 112.137 158.974 115.261C158.234 119.486 151.808 119.269 148.501 119.303C139.501 119.395 130.679 119.119 121.676 119.487C121.489 119.671 121.489 120.034 121.673 120.038Z" fill="black"/>
<path d="M188.735 105.155C184.656 104.748 162.235 105.082 161.726 105.339C161.359 105.523 161.91 116.363 162.278 116.363C166.878 116.034 188.978 115.845 190.757 115.445C192.974 114.945 194.247 112.505 194.247 110.3C194.431 107.36 191.492 105.523 188.735 105.155Z" fill="black"/>
<path d="M112.486 66.9389C107.359 66.4175 102.203 66.2331 97.0518 66.3869C94.4798 66.3869 91.9078 66.3869 89.3358 66.5709C88.0467 66.5404 86.7571 66.6019 85.4768 66.7549C84.2488 66.7164 83.0198 66.7776 81.8018 66.9379C80.7795 67.172 79.8356 67.6677 79.0627 68.3765C78.2898 69.0853 77.7143 69.9828 77.3928 70.9809C76.6578 72.8179 77.5818 74.8329 79.0458 76.1249C80.7023 77.4602 82.8037 78.1171 84.9258 77.9629C94.2778 77.9629 100.389 78.0259 109.914 77.4109C110.281 77.4109 110.281 76.6759 109.914 76.8599C102.633 77.2912 95.3355 77.3526 88.0488 77.0439C86.0278 77.0439 83.6488 77.1999 81.6188 76.4929C79.9728 75.9189 78.1278 74.2929 78.1278 72.2669C78.2129 71.3148 78.5981 70.4142 79.2278 69.6949C79.8108 68.7682 80.735 68.108 81.8008 67.8569C84.0368 67.4849 86.3508 67.8629 88.9668 67.4899C93.4918 67.4899 85.5548 67.3059 112.667 67.3059C112.67 67.2059 112.67 67.1219 112.486 66.9389Z" fill="black"/>
<path d="M192.043 28.7219C190.215 27.5999 188 27.7999 185.8 27.7999C150.084 27.7999 148.317 27.9389 148.317 28.7189C148.317 31.9116 148.133 35.1015 147.766 38.2729C147.695 38.3182 147.641 38.3844 147.61 38.4621C147.579 38.5399 147.574 38.6253 147.594 38.7064C147.614 38.7875 147.66 38.8602 147.723 38.9143C147.787 38.9684 147.866 39.0011 147.95 39.0079C158.259 39.5969 171.233 39.0469 187.27 38.8239C188.923 38.8009 190.761 38.8239 192.23 37.7239C195.853 35.7099 196.054 31.1779 192.043 28.7219Z" fill="black"/>
<path d="M193.145 68.5922C191.492 66.9392 185.428 66.5712 185.428 67.3062C185.428 70.2462 185.428 77.0442 185.796 77.4112C186.286 77.7252 186.872 77.8556 187.449 77.7792C188.624 77.8305 189.801 77.7065 190.94 77.4112C191.862 77.1575 192.703 76.6686 193.379 75.9923C194.056 75.3159 194.545 74.4755 194.799 73.5532C194.908 72.6554 194.816 71.7446 194.53 70.8867C194.243 70.0288 193.771 69.2451 193.145 68.5922Z" fill="black"/>
<path d="M183.957 65.4689C180.957 60.9689 174.719 61.9779 170.545 61.9779C168.156 61.9779 165.584 61.9779 163.195 61.7939C147.925 61.7939 140.695 61.0079 137.656 62.5289C137.021 62.7433 136.435 63.0809 135.93 63.5222C135.426 63.9635 135.013 64.5 134.716 65.1009C134.441 65.6144 134.248 66.1682 134.146 66.7419C131.63 66.7369 130.38 66.6809 130.123 66.9419V67.4929C130.375 67.7224 130.701 67.8528 131.042 67.8599C132.836 67.8599 133.601 67.9139 134 67.9199C133.938 68.8639 133.981 69.8059 133.981 70.6199C133.836 72.9001 134.014 75.1894 134.509 77.4199C131.4 77.4199 131.149 77.3659 130.674 77.6039L130.699 78.3389C130.799 78.4389 130.237 78.3389 134.85 78.3389C135.113 78.9605 135.496 79.5241 135.978 79.9971C136.459 80.4701 137.03 80.8432 137.656 81.0949C139.64 81.7559 140.909 81.6459 149.415 81.6459C156.659 81.6459 161.415 81.4459 162.46 81.4629C162.533 81.4629 162.603 81.4338 162.655 81.382C162.707 81.3303 162.736 81.2601 162.736 81.1869C162.736 81.1137 162.707 81.0435 162.655 80.9917C162.603 80.9399 162.533 80.9109 162.46 80.9109C161.36 80.9109 160.072 80.7279 158.969 80.7279H147.578C144.454 80.7279 140.228 81.4629 137.472 79.9929C136.699 79.5115 136.069 78.8311 135.649 78.0228C135.229 77.2146 135.034 76.3083 135.084 75.3989C134.9 72.6429 134.533 68.9689 135.267 66.2119C135.522 65.4942 135.966 64.8592 136.554 64.3749C139.031 61.8979 144.388 62.5379 174.954 62.5379C177.343 62.5379 179.731 62.5379 181.569 63.8239C182.447 64.4231 183.138 65.2589 183.56 66.2345C183.983 67.21 184.12 68.2853 183.957 69.3359C184.141 69.5199 184.141 69.5199 184.325 69.3359C184.588 68.7111 184.692 68.0309 184.628 67.356C184.564 66.6812 184.333 66.0328 183.957 65.4689Z" fill="black"/>
<path d="M144.273 68.2249C142.773 72.7119 144.64 77.0799 144.64 75.3899C144.865 74.7149 145.084 66.5999 144.273 68.2249Z" fill="black"/>
<path d="M151.254 67.6729C150.905 68.8959 151.071 69.7049 151.071 73.7369C151.071 74.8669 151.155 75.3899 151.989 75.3899C152.504 75.0469 152.357 74.7669 152.357 71.7159C152.357 65.7849 151.034 67.6729 151.254 67.6729Z" fill="black"/>
<path d="M159.706 75.3898C160.03 74.9048 159.621 65.2718 158.42 67.6728C158.52 67.6728 158.101 76.9998 159.706 75.3898Z" fill="black"/>
<path d="M165.585 67.8569C165.383 69.8711 165.321 71.897 165.401 73.9199C165.401 74.4719 165.401 75.3899 165.769 75.7579C165.952 75.9419 166.269 75.9339 166.32 75.7579C166.48 75.0969 166.542 74.4159 166.503 73.7369C166.58 71.7084 166.457 69.6772 166.136 67.6729C166.136 67.4899 165.585 67.4899 165.585 67.8569Z" fill="black"/>
<path d="M173.486 68.041C173.486 68.141 172.903 74.641 174.038 75.574C175.374 76.669 174.727 70.6 174.605 69.849C174.084 66.637 173.501 67.641 173.486 68.041Z" fill="black"/>
<path d="M105.688 29.8238C105.015 31.8438 105.56 31.8068 105.137 33.4988C105.137 34.5988 104.953 36.0708 105.504 36.9898C105.688 37.3568 106.056 37.1728 106.056 36.9898C106.287 36.2958 106.239 35.9898 106.239 31.6608C106.239 31.1098 106.056 30.5608 106.056 29.8238C106.239 29.6398 105.872 29.4558 105.688 29.8238Z" fill="black"/>
<path d="M112.668 29.273C112.286 31.2699 112.163 33.3076 112.301 35.336C112.301 35.887 112.301 36.806 112.852 36.99H113.219C113.77 36.622 113.587 35.89 113.587 35.336C113.722 33.3076 113.598 31.2703 113.219 29.273C113.035 29.089 112.668 28.905 112.668 29.273Z" fill="black"/>
<path d="M127 29.4558C126.798 31.4704 126.737 33.4967 126.817 35.5198C126.817 36.0708 126.817 36.9898 127.184 37.3568C127.368 37.5408 127.722 37.5568 127.776 37.3778C127.923 36.7077 127.971 36.0198 127.919 35.3358C127.996 33.3076 127.873 31.2768 127.552 29.2728C127.552 29.0888 127 29.0888 127 29.4558Z" fill="black"/>
<path d="M134.901 29.6399C134.901 29.7399 134.259 38.9179 136.001 37.1729C136.617 36.2509 135.767 30.6819 135.45 29.4559C135.366 29.1199 134.901 29.2729 134.901 29.6399Z" fill="black"/>
<path d="M135.82 106.442C135.676 107.45 135.759 113.628 136.555 114.159C136.587 114.202 136.628 114.236 136.676 114.26C136.724 114.284 136.777 114.296 136.83 114.296C136.883 114.296 136.936 114.284 136.984 114.26C137.032 114.236 137.073 114.202 137.106 114.159C137.689 113.284 136.734 107.07 136.555 106.442C136.555 106.074 136 106.074 135.82 106.442Z" fill="black"/>
<path d="M142.984 106.809C142.783 108.823 142.722 110.849 142.801 112.872C142.801 113.424 142.801 114.342 143.168 114.71C143.352 114.893 143.719 114.893 143.719 114.71C144.087 114.159 143.903 113.424 143.903 112.689C143.981 110.661 143.858 108.63 143.536 106.625C143.536 106.258 142.984 106.442 142.984 106.809Z" fill="black"/>
<path d="M152.172 112.321C152.118 110.401 151.872 108.492 151.437 106.621C151.321 106.245 150.98 106.405 150.886 106.805C150.74 107.468 150.678 108.147 150.702 108.826C150.702 110.781 150.578 111.891 150.702 112.626C150.707 112.946 150.775 113.261 150.902 113.555C151.028 113.848 151.212 114.114 151.442 114.336C151.474 114.379 151.515 114.414 151.563 114.438C151.611 114.462 151.664 114.474 151.717 114.474C151.771 114.474 151.823 114.462 151.871 114.438C151.919 114.414 151.961 114.379 151.993 114.336C152.356 113.791 152.172 113.056 152.172 112.321Z" fill="black"/>
<path d="M129.205 109.014C129.205 109.933 129.021 110.851 129.021 111.77V113.791C129.021 114.159 129.389 114.342 129.756 114.342C131.075 114.342 130.062 111.081 129.756 109.198C129.663 108.624 129.205 108.83 129.205 109.014Z" fill="black"/>
<path d="M95.3992 28.354C94.6151 28.1833 93.8112 28.1213 93.0102 28.17C89.1492 28.262 85.1102 27.803 81.2512 28.354C79.9789 28.5918 78.8183 29.2365 77.9442 30.191C77.1915 31.1646 76.7832 32.3604 76.7832 33.591C76.7832 34.8216 77.1915 36.0175 77.9442 36.991C80.2162 39.924 85.1942 38.828 90.4382 38.828C91.9068 38.736 93.3796 38.736 94.8482 38.828C94.9618 38.8162 95.067 38.7626 95.1434 38.6778C95.2199 38.5929 95.2622 38.4828 95.2622 38.3685C95.2622 38.2543 95.2199 38.1441 95.1434 38.0593C95.067 37.9744 94.9618 37.9209 94.8482 37.909C93.7472 37.8235 92.6412 37.8235 91.5402 37.909C90.2562 38.109 88.7842 38.093 87.4982 38.277C83.6192 38.277 81.5902 38.472 79.9652 37.542C78.9841 36.9173 78.2831 35.937 78.009 34.8066C77.7349 33.6763 77.9092 32.4837 78.4952 31.479C79.5952 29.641 81.8022 29.274 83.8242 29.274C86.9472 29.09 90.0712 29.457 93.1942 29.274C93.9949 29.3044 94.7965 29.2426 95.5832 29.09C95.5812 28.722 95.5812 28.538 95.3992 28.354Z" fill="black"/>
<path d="M120.28 29.4119C120.238 29.6697 120.212 29.9299 120.201 30.1909C120.201 31.8749 120.143 32.1539 120.385 32.3959C120.723 32.7339 121.12 31.8959 121.12 31.6609C121.185 30.915 121.145 30.1636 121 29.4289C120.934 29.2079 120.329 29.1379 120.28 29.4119Z" fill="black"/>
<path d="M57.3642 82.1891C57.5493 82.4602 57.7951 82.6843 58.0821 82.8436C58.369 83.003 58.6892 83.0932 59.0172 83.1071C59.9362 83.1071 60.1172 83.6581 59.5682 84.0261C59.1521 84.235 58.6715 84.2751 58.2265 84.1382C57.7816 84.0012 57.4067 83.6978 57.1802 83.2911C56.5462 82.3001 56.6292 81.4541 57.3642 82.1891Z" fill="black"/>
<path d="M55.1605 70.8C54.8701 70.7618 54.5749 70.8113 54.313 70.9423C54.051 71.0733 53.8342 71.2797 53.6905 71.535C53.1395 72.27 52.6795 72.103 52.7715 71.351C52.7974 70.8885 53.0052 70.4551 53.3496 70.1454C53.694 69.8357 54.147 69.6748 54.6095 69.698C55.9005 69.695 56.0785 70.613 55.1605 70.8Z" fill="black"/>
<path d="M55.8958 74.4718C56.7076 74.4718 57.3658 74.0603 57.3658 73.5528C57.3658 73.0452 56.7076 72.6338 55.8958 72.6338C55.0839 72.6338 54.4258 73.0452 54.4258 73.5528C54.4258 74.0603 55.0839 74.4718 55.8958 74.4718Z" fill="black"/>
</svg>
